<svg fill="none" xmlns="http://www.w3.org/2000/svg">
<path d="M193.847 248.004L237.263 221.866L280.68 248.004L237.263 274.142L193.847 248.004Z" fill="#10BBD5"/>
<path d="M47.1289 384.809L90.5455 358.671L133.962 384.809L90.5455 410.947L47.1289 384.809Z" fill="#10BBD5"/>
<path d="M337.568 97.7258L380.985 71.5876L424.402 97.7258L380.985 123.864L337.568 97.7258Z" fill="#10BBD5"/>
<path d="M337.568 97.674L381.733 123.76V520.725L337.568 495.935V97.674Z" fill="url(#paint0_linear_11574_339536)"/>
<path d="M193.846 248.814L238.011 274.901V671.866L193.846 647.076V248.814Z" fill="url(#paint1_linear_11574_339536)"/>
<path d="M47.1278 385.619L91.293 411.706V808.671L47.1278 783.881V385.619Z" fill="url(#paint2_linear_11574_339536)"/>
<path d="M337.566 97.6739L381.732 71.5876L425.897 97.6739M337.566 97.6739L381.732 123.76M337.566 97.6739V495.935L381.732 520.725M381.732 123.76L425.897 97.6739M381.732 123.76V520.725M425.897 97.6739V495.935L381.732 520.725" stroke="url(#paint3_linear_11574_339536)" stroke-width="1.94064"/>
<path d="M193.846 248.004L237.262 221.866L280.679 248.004M193.846 248.004L237.262 274.143M193.846 248.004V500.943L237.262 525.783M237.262 274.143L280.679 248.004M237.262 274.143V525.783M280.679 248.004V500.943L237.262 525.783" stroke="url(#paint4_linear_11574_339536)" stroke-width="1.94064"/>
<path d="M219.723 236.12C220.081 236.263 220.441 236.396 220.804 236.516L229.14 239.57C236.352 242.461 244.561 240.608 251.94 235.523C259.331 230.428 266 222.028 270.255 211.55C274.509 201.072 275.575 190.419 273.814 181.645C272.054 172.879 267.434 165.868 260.217 162.968L259.855 163.868L260.217 162.968C259.86 162.824 259.5 162.692 259.137 162.572L250.801 159.518C243.589 156.627 235.38 158.479 228.001 163.565C220.61 168.659 213.94 177.06 209.686 187.538C205.432 198.016 204.366 208.669 206.127 217.443C207.887 226.209 212.507 233.22 219.723 236.12Z" fill="#18181A" stroke="#18181A" stroke-width="1.94064"/>
<ellipse cx="235.246" cy="197.612" rx="26.6472" ry="40.5813" transform="rotate(21.9948 235.246 197.612)" fill="white"/>
<path d="M213.555 179.701L204.326 177.701L213.555 175.702L215.555 166.473L217.554 175.702L226.783 177.701L217.554 179.701L215.555 188.93L213.555 179.701Z" fill="#10BBD5"/>
<path d="M47.126 384.709L91.2912 358.671L135.456 384.709M47.126 384.709L91.2912 410.746M47.126 384.709V491.125L91.2912 515.869M91.2912 410.746L135.456 384.709M91.2912 410.746V515.869M135.456 384.709V491.125L91.2912 515.869" stroke="url(#paint5_linear_11574_339536)" stroke-width="1.94064"/>
<path d="M407.851 79.1387C420.708 68.9926 424.353 49.5408 415.878 32.8445C406.365 14.1018 385 5.6184 368.065 14.2142C366.64 14.9375 365.293 15.7587 364.027 16.6677C362.257 17.9376 360.595 19.35 358.977 20.7644C358.63 21.0674 358.286 21.37 357.943 21.6714C356.675 22.786 355.425 23.8844 354.136 24.9262C341.502 35.132 337.97 54.4238 346.384 71.001C355.897 89.7437 377.261 98.2271 394.197 89.6313C395.587 88.9257 396.903 88.1268 398.142 87.2443C399.899 85.9932 401.524 84.5961 403.103 83.2052C403.353 82.9852 403.602 82.7655 403.849 82.5465C405.178 81.3722 406.483 80.2185 407.851 79.1387Z" fill="#18181A" stroke="#18181A" stroke-width="1.94064"/>
<ellipse cx="385.38" cy="48.3246" rx="33.2332" ry="37.2829" transform="rotate(-26.9108 385.38 48.3246)" fill="white"/>
<path d="M126.708 332.001C126.935 332.43 127.143 332.872 127.33 333.326C127.33 333.326 127.33 333.326 127.33 333.326L126.434 333.697C126.549 333.976 126.656 334.257 126.754 334.54L126.708 332.001ZM126.708 332.001L123.982 325.725M126.708 332.001L123.982 325.725M53.0708 353.532C53.0708 353.532 53.0707 353.532 53.0707 353.532L53.9673 353.161L53.0708 353.532ZM53.0708 353.532C52.8758 353.061 52.7049 352.584 52.5576 352.102L53.4835 351.819L52.5576 352.102C50.6508 345.854 52.7339 338.84 57.4839 332.52C62.2446 326.186 69.7621 320.427 79.0214 316.592C88.1574 312.808 97.4185 311.548 105.199 312.585C112.962 313.619 119.386 316.966 122.591 322.538C122.928 323.124 123.229 323.734 123.491 324.366C123.676 324.814 123.84 325.267 123.982 325.725M53.0708 353.532L123.982 325.725" fill="#18181A" stroke="#18181A" stroke-width="1.94064"/>
<ellipse cx="88.282" cy="338.949" rx="37.1402" ry="23.2285" transform="rotate(-22.4974 88.282 338.949)" fill="white"/>
<path d="M123.729 328.482L114.5 326.482L123.729 324.483L125.728 315.254L127.728 324.483L136.957 326.482L127.728 328.482L125.728 337.711L123.729 328.482Z" fill="#10BBD5"/>
<path d="M242.768 211.259L215.599 204.466L236.946 179.238L242.768 211.259Z" stroke="#18181A" stroke-width="1.94064"/>
<path d="M399.959 45.2384L383.464 26.8024L375.701 50.09L393.167 69.4964L399.959 45.2384Z" stroke="#18181A" stroke-width="1.94064"/>
<path d="M69.0801 337.557L92.5483 323.911L107.893 336.647L83.522 353.021L69.0801 337.557Z" stroke="#18181A" stroke-width="1.94064"/>
<path d="M402.193 21.9364L392.964 19.9367L402.193 17.937L404.192 8.70825L406.192 17.937L415.421 19.9367L406.192 21.9364L404.192 31.1651L402.193 21.9364Z" fill="#10BBD5"/>
<path d="M483.899 160.744C483.678 159.695 482.649 159.024 481.6 159.245L464.509 162.844C463.46 163.064 462.789 164.094 463.01 165.142C463.231 166.191 464.26 166.862 465.309 166.642L480.501 163.443L483.7 178.635C483.921 179.683 484.95 180.355 485.999 180.134C487.047 179.913 487.719 178.884 487.498 177.835L483.899 160.744ZM395.828 296.839L483.625 162.204L480.374 160.084L392.577 294.719L395.828 296.839ZM0.143842 517.974C160.362 513.757 308.281 431.089 395.828 296.839L392.577 294.719C305.727 427.901 158.984 509.91 0.0417051 514.094L0.143842 517.974Z" fill="url(#paint6_linear_11574_339536)"/>
<defs>
<linearGradient id="paint0_linear_11574_339536" x1="347.5" y1="122" x2="360.025" y2="486.291" gradientUnits="userSpaceOnUse">
<stop stop-color="#F4F4F4"/>
<stop offset="1" stop-color="#F4F4F4" stop-opacity="0"/>
</linearGradient>
<linearGradient id="paint1_linear_11574_339536" x1="216" y1="274.5" x2="216.302" y2="424.727" gradientUnits="userSpaceOnUse">
<stop stop-color="#F4F4F4"/>
<stop offset="1" stop-color="#F4F4F4" stop-opacity="0"/>
</linearGradient>
<linearGradient id="paint2_linear_11574_339536" x1="69.001" y1="409" x2="69.001" y2="478.5" gradientUnits="userSpaceOnUse">
<stop stop-color="#F4F4F4"/>
<stop offset="1" stop-color="#F4F4F4" stop-opacity="0"/>
</linearGradient>
<linearGradient id="paint3_linear_11574_339536" x1="382" y1="123" x2="380.983" y2="497.52" gradientUnits="userSpaceOnUse">
<stop stop-color="#18181A"/>
<stop offset="1" stop-color="#18181A" stop-opacity="0"/>
</linearGradient>
<linearGradient id="paint4_linear_11574_339536" x1="237" y1="272" x2="237.262" y2="470.389" gradientUnits="userSpaceOnUse">
<stop stop-color="#18181A"/>
<stop offset="1" stop-color="#18181A" stop-opacity="0"/>
</linearGradient>
<linearGradient id="paint5_linear_11574_339536" x1="91" y1="410" x2="90.5426" y2="446.252" gradientUnits="userSpaceOnUse">
<stop stop-color="#18181A"/>
<stop offset="1" stop-color="#18181A" stop-opacity="0"/>
</linearGradient>
<linearGradient id="paint6_linear_11574_339536" x1="345.622" y1="376.105" x2="74.8845" y2="587.939" gradientUnits="userSpaceOnUse">
<stop stop-color="#10BBD5"/>
<stop offset="1" stop-color="#10BBD5" stop-opacity="0"/>
</linearGradient>
</defs>
</svg>
