<svg viewBox="0 0 20 20" fill="currentColor" xmlns="http://www.w3.org/2000/svg">
<path d="M16.4294 0C15.0461 0 13.9142 1.13021 13.9142 2.5V17.5C13.9142 18.8698 15.0461 20 16.4294 20H16.9848C18.3682 20 19.5 18.8698 19.5 17.5V2.5C19.5 1.13021 18.3682 0 16.9848 0H16.4294ZM16.4294 1.66667H16.9848C17.4617 1.66667 17.8232 2.03125 17.8232 2.5V17.5C17.8232 17.9688 17.4617 18.3333 16.9848 18.3333H16.4294C15.9526 18.3333 15.591 17.9688 15.591 17.5V2.5C15.591 2.03125 15.9526 1.66667 16.4294 1.66667ZM9.72228 5.55729C8.33894 5.55729 7.20712 6.68229 7.20712 8.05729V17.5C7.20712 18.8698 8.33894 20 9.72228 20H10.2777C11.6611 20 12.7929 18.8698 12.7929 17.5V8.05729C12.7929 6.68229 11.6611 5.55729 10.2777 5.55729H9.72228ZM9.72228 7.22396H10.2777C10.7546 7.22396 11.1161 7.58333 11.1161 8.05729V17.5C11.1161 17.9688 10.7546 18.3333 10.2777 18.3333H9.72228C9.24545 18.3333 8.88389 17.9688 8.88389 17.5V8.05729C8.88389 7.58333 9.24545 7.22396 9.72228 7.22396ZM3.01517 11.1094C1.63183 11.1094 0.5 12.2396 0.5 13.6094V17.5C0.5 18.8698 1.63183 20 3.01517 20H3.5706C4.95394 20 6.08577 18.8698 6.08577 17.5V13.6094C6.08577 12.2396 4.95394 11.1094 3.5706 11.1094H3.01517ZM3.01517 12.776H3.5706C4.04743 12.776 4.40899 13.1406 4.40899 13.6094V17.5C4.40899 17.9688 4.04743 18.3333 3.5706 18.3333H3.01517C2.53833 18.3333 2.17678 17.9688 2.17678 17.5V13.6094C2.17678 13.1406 2.53833 12.776 3.01517 12.776Z" />
</svg>
