<svg width="100%" height="100%" viewBox="0 0 16 32" fill="none" xmlns="http://www.w3.org/2000/svg">
<path d="M8.36531 0.792893C7.97479 0.402369 7.34162 0.402369 6.9511 0.792893L0.587135 7.15685C0.196611 7.54738 0.196611 8.18054 0.587135 8.57107C0.97766 8.96159 1.61082 8.96159 2.00135 8.57107L7.6582 2.91421L13.3151 8.57107C13.7056 8.96159 14.3387 8.96159 14.7293 8.57107C15.1198 8.18054 15.1198 7.54738 14.7293 7.15685L8.36531 0.792893ZM6.6582 30.5C6.6582 31.0523 7.10592 31.5 7.6582 31.5C8.21049 31.5 8.6582 31.0523 8.6582 30.5H6.6582ZM6.6582 1.5V30.5H8.6582V1.5H6.6582Z" fill="currentColor"/>
</svg>
