<svg width="100%" height="100%" viewBox="0 0 117 29" fill="currentColor" xmlns="http://www.w3.org/2000/svg">
<path fill-rule="evenodd" clip-rule="evenodd" d="M9.15211 0.0550469L16.2358 3.98013C16.5117 4.1333 16.5117 4.51305 16.2358 4.66622L9.15211 8.5913C9.02579 8.66151 8.86623 8.66151 8.73992 8.5913L1.65627 4.66622C1.38037 4.51305 1.38037 4.1333 1.65627 3.98013L8.73992 0.0550469C8.86956 -0.018349 9.02579 -0.018349 9.15211 0.0550469Z" />
<path fill-rule="evenodd" clip-rule="evenodd" d="M17.8737 6.17705V14.0304C17.8737 14.1708 17.7939 14.3017 17.6676 14.3751L10.4244 18.3799C10.1485 18.5331 9.80615 18.3416 9.80615 18.0353V10.1851C9.80615 10.0447 9.88593 9.91386 10.0122 9.84046L17.2521 5.82922C17.528 5.67924 17.8737 5.8707 17.8737 6.17705Z" />
<path fill-rule="evenodd" clip-rule="evenodd" d="M19.8715 14.9575L10.0122 20.4048C9.88593 20.475 9.80615 20.6058 9.80615 20.7494V28.6028C9.80615 28.9091 10.1485 29.0974 10.4244 28.9474L20.2804 23.497C20.4067 23.4268 20.4865 23.2959 20.4865 23.1523V15.299C20.4898 14.9958 20.1441 14.8043 19.8715 14.9575Z" />
<path fill-rule="evenodd" clip-rule="evenodd" d="M0 14.0244V6.1742C0 5.86785 0.342382 5.67958 0.618281 5.82956L7.85483 9.8408C7.98115 9.91101 8.06093 10.0418 8.06093 10.1854V18.0356C8.06093 18.342 7.71855 18.5302 7.44265 18.3802L0.206094 14.3658C0.0797783 14.2956 0 14.1648 0 14.0244Z" />
<path fill-rule="evenodd" clip-rule="evenodd" d="M0 16.7387V24.592C0 24.7324 0.0797783 24.8633 0.206094 24.9366L7.44265 28.9447C7.71855 29.0979 8.06093 28.9064 8.06093 28.6001V20.7499C8.06093 20.6095 7.98115 20.4786 7.85483 20.4053L0.618281 16.394C0.342382 16.244 0 16.4323 0 16.7387Z" />
<path d="M40.0036 16.4058C40.6736 17.2194 41.0086 18.1524 41.0086 19.2049C41.0086 20.1573 40.7674 20.9903 40.2817 21.7135C39.7959 22.4334 39.0958 22.9984 38.1813 23.4052C37.2634 23.812 36.1813 24.0154 34.9318 24.0154H26.9823V6.24902H34.5901C35.8396 6.24902 36.9183 6.44596 37.8262 6.83338C38.734 7.22403 39.4207 7.76641 39.8864 8.46376C40.352 9.16112 40.5865 9.94887 40.5865 10.8302C40.5865 11.8666 40.2984 12.7318 39.7289 13.4259C39.1561 14.1233 38.3957 14.614 37.4443 14.9014C38.4828 15.0918 39.337 15.5923 40.0036 16.4058ZM30.6807 13.5809H34.0608C34.9418 13.5809 35.6185 13.3904 36.0942 13.0095C36.5699 12.6285 36.8078 12.0797 36.8078 11.3662C36.8078 10.6527 36.5699 10.1038 36.0942 9.71319C35.6185 9.32254 34.9418 9.12883 34.0608 9.12883H30.6807V13.5809ZM36.5063 20.506C37.0088 20.0992 37.26 19.5213 37.26 18.7755C37.26 18.0136 36.9954 17.4131 36.4661 16.9805C35.9368 16.5479 35.2232 16.3316 34.3254 16.3316H30.6807V21.1162H34.4058C35.3036 21.1162 36.0038 20.9128 36.5063 20.506Z" />
<path d="M43.2303 13.1217C43.8199 12.0175 44.6206 11.1717 45.6323 10.5744C46.644 9.98037 47.7763 9.68335 49.0258 9.68335C50.1179 9.68335 51.0726 9.89643 51.8934 10.3194C52.7108 10.7423 53.3674 11.2782 53.8598 11.9239V9.9158H57.585V24.0178H53.8631V21.9548C53.3875 22.6167 52.7309 23.1655 51.8967 23.5981C51.0592 24.0307 50.0944 24.247 49.0057 24.247C47.7729 24.247 46.6507 23.9403 45.639 23.3301C44.6273 22.72 43.8266 21.858 43.237 20.7474C42.6474 19.6368 42.3527 18.3583 42.3527 16.9152C42.346 15.4882 42.6408 14.2258 43.2303 13.1217ZM53.3339 14.7392C52.9821 14.1193 52.5064 13.6447 51.9068 13.3122C51.3071 12.9796 50.6639 12.815 49.9772 12.815C49.2904 12.815 48.6573 12.9764 48.0744 13.2993C47.4949 13.6221 47.0225 14.0935 46.6607 14.7133C46.2989 15.3332 46.118 16.0661 46.118 16.9152C46.118 17.7642 46.2989 18.5068 46.6607 19.1428C47.0225 19.7788 47.4982 20.2663 48.0878 20.6053C48.6774 20.9443 49.3072 21.1154 49.9772 21.1154C50.6639 21.1154 51.3071 20.9508 51.9068 20.6182C52.5064 20.2857 52.9821 19.8111 53.3339 19.1912C53.6856 18.5714 53.8631 17.8288 53.8631 16.9636C53.8631 16.1016 53.6856 15.359 53.3339 14.7392Z" />
<path d="M72.8699 11.3028C73.9452 12.3618 74.4812 13.8436 74.4812 15.7452V24.0166H70.7829V16.2295C70.7829 15.1092 70.4914 14.2472 69.9119 13.6467C69.3323 13.043 68.5384 12.7427 67.5334 12.7427C66.5116 12.7427 65.7076 13.043 65.118 13.6467C64.5285 14.2504 64.2337 15.1092 64.2337 16.2295V24.0198H60.5353V9.9178H64.2337V11.6741C64.7261 11.0639 65.3559 10.5829 66.123 10.2342C66.8902 9.88552 67.731 9.71118 68.6456 9.71118C70.3876 9.71441 71.7945 10.2439 72.8699 11.3028Z" />
<path d="M77.2995 13.1346C77.9159 12.0401 78.7701 11.1911 79.8622 10.5873C80.9543 9.9836 82.2039 9.68335 83.6142 9.68335C85.4265 9.68335 86.9307 10.1192 88.1166 10.9941C89.3058 11.869 90.1031 13.0926 90.5084 14.6714H86.5186C86.3076 14.0612 85.9525 13.5801 85.45 13.2347C84.9475 12.886 84.3277 12.7117 83.5874 12.7117C82.5322 12.7117 81.6947 13.0797 81.0783 13.819C80.4619 14.5584 80.1537 15.6044 80.1537 16.9636C80.1537 18.3034 80.4619 19.343 81.0783 20.0823C81.6947 20.8216 82.5322 21.1897 83.5874 21.1897C85.0848 21.1897 86.0597 20.544 86.5186 19.2558H90.5084C90.1031 20.7829 89.3025 21.9968 88.1065 22.8943C86.9072 23.7951 85.4131 24.2438 83.6176 24.2438C82.2072 24.2438 80.9577 23.9436 79.8656 23.3398C78.7735 22.7361 77.9192 21.8902 77.3029 20.7926C76.6865 19.6981 76.3783 18.4229 76.3783 16.9604C76.3749 15.5075 76.6798 14.2291 77.2995 13.1346Z" />
<path d="M95.2474 23.3451C94.1185 22.7414 93.2341 21.889 92.5909 20.7881C91.9477 19.684 91.6261 18.412 91.6261 16.9688C91.6261 15.5257 91.9578 14.2537 92.6177 13.1495C93.2776 12.0454 94.1788 11.1931 95.3245 10.5926C96.4702 9.98885 97.7465 9.6886 99.1535 9.6886C100.564 9.6886 101.837 9.98885 102.983 10.5926C104.128 11.1963 105.029 12.0486 105.689 13.1495C106.349 14.2537 106.681 15.5257 106.681 16.9688C106.681 18.412 106.343 19.684 105.662 20.7881C104.986 21.8923 104.068 22.7446 102.916 23.3451C101.763 23.9488 100.473 24.2491 99.0463 24.2491C97.6426 24.2491 96.373 23.9456 95.2474 23.3451ZM100.939 20.6719C101.529 20.3587 102.001 19.8874 102.353 19.2611C102.704 18.6347 102.882 17.8696 102.882 16.9688C102.882 15.629 102.517 14.5991 101.787 13.8759C101.056 13.156 100.162 12.7944 99.1066 12.7944C98.0514 12.7944 97.1636 13.156 96.4534 13.8759C95.7399 14.5959 95.3848 15.629 95.3848 16.9688C95.3848 18.3087 95.7332 19.3418 96.4266 20.0617C97.1234 20.7817 97.9978 21.1433 99.053 21.1433C99.7196 21.1433 100.349 20.9851 100.939 20.6719Z" />
<path d="M114.297 10.3484C115.064 9.92548 115.938 9.7124 116.923 9.7124V13.4542H115.945C114.783 13.4542 113.908 13.719 113.319 14.242C112.729 14.7682 112.434 15.6851 112.434 16.9926V24.0178H108.736V9.9158H112.434V12.1047C112.91 11.3557 113.53 10.7713 114.297 10.3484Z" />
</svg>
