<svg viewBox="0 0 20 20" fill="none" xmlns="http://www.w3.org/2000/svg">
<path d="M1.58111 18.5001L1.58117 18.5156H1.59674V18.5C1.59674 18.5156 1.5968 18.5156 1.59694 18.5156H1.59753H1.59852H1.59991H1.60169H1.60386H1.60641H1.60936H1.61269H1.61641H1.62051H1.62499H1.62985H1.63509H1.64071H1.6467H1.65307H1.65981H1.66692H1.6744H1.68225H1.69046H1.69904H1.70798H1.71728H1.72694H1.73697H1.74734H1.75808H1.76916H1.7806H1.7924H1.80454H1.81702H1.82986H1.84304H1.85656H1.87042H1.88462H1.89917H1.91404H1.92926H1.94481H1.96069H1.9769H1.99344H2.0103H2.0275H2.04502H2.06286H2.08102H2.0995H2.11831H2.13743H2.15686H2.17661H2.19667H2.21704H2.23772H2.2587H2.28H2.3016H2.3235H2.3457H2.3682H2.391H2.4141H2.4375H2.46118H2.48516H2.50943H2.53399H2.55884H2.58397H2.60939H2.63509H2.66107H2.68733H2.71387H2.74069H2.76778H2.79515H2.82278H2.85069H2.87887H2.90732H2.93603H2.965H2.99424H3.02374H3.0535H3.08352H3.1138H3.14433H3.17511H3.20615H3.23744H3.26897H3.30076H3.33279H3.36506H3.39758H3.43034H3.46333H3.49657H3.53004H3.56375H3.59769H3.63187H3.66627H3.70091H3.73577H3.77086H3.80617H3.8417H3.87746H3.91344H3.94963H3.98604H4.02267H4.05951H4.09656H4.13382H4.17129H4.20897H4.24686H4.28495H4.32324H4.36173H4.40042H4.43932H4.4784H4.51769H4.55716H4.59683H4.63669H4.67674H4.71698H4.7574H4.798H4.83879H4.87976H4.92091H4.96224H5.00374H5.04542H5.08728H5.1293H5.1715H5.21386H5.2564H5.29909H5.34196H5.38498H5.42817H5.47151H5.51502H5.55868H5.60249H5.64646H5.69059H5.73486H5.77928H5.82385H5.86856H5.91342H5.95842H6.00356H6.04884H6.09426H6.13982H6.18551H6.23134H6.27729H6.32338H6.3696H6.41594H6.46241H6.509H6.55572H6.60256H6.64951H6.69659H6.74378H6.79109H6.83851H6.88604H6.93368H6.98143H7.02929H7.07725H7.12532H7.17349H7.22177H7.27014H7.31861H7.36717H7.41584H7.46459H7.51344H7.56237H7.6114H7.66051H7.70971H7.759H7.80836H7.85781H7.90733H7.95694H8.00662H8.05637H8.1062H8.1561H8.20607H8.25611H8.30622H8.35639H8.40663H8.45693H8.50729H8.55771H8.60819H8.65872H8.70931H8.75996H8.81065H8.8614H8.91219H8.96303H9.01392H9.06485H9.11582H9.16683H9.21789H9.26898H9.32011H9.37127H9.42246H9.47369H9.52495H9.57624H9.62755H9.67889H9.73025H9.78164H9.83305H9.88447H9.93592H9.98738H10.0389H10.0903H10.1418H10.1934H10.2449H10.2964H10.3479H10.3995H10.451H10.5025H10.5541H10.6056H10.6572H10.7087H10.7602H10.8117H10.8632H10.9147H10.9662H11.0177H11.0691H11.1205H11.1719H11.2233H11.2747H11.326H11.3774H11.4287H11.4799H11.5312H11.5824H11.6335H11.6847H11.7358H11.7868H11.8379H11.8888H11.9398H11.9907H12.0415H12.0923H12.1431H12.1938H12.2444H12.295H12.3456H12.3961H12.4465H12.4969H12.5472H12.5975H12.6476H12.6978H12.7478H12.7978H12.8477H12.8976H12.9473H12.997H13.0467H13.0962H13.1457H13.1951H13.2444H13.2936H13.3427H13.3918H13.4407H13.4896H13.5384H13.587H13.6356H13.6841H13.7325H13.7808H13.829H13.8771H13.9251H13.973H14.0207H14.0684H14.116H14.1634H14.2107H14.258H14.3051H14.352H14.3989H14.4456H14.4923H14.5388H14.5851H14.6314H14.6775H14.7235H14.7693H14.8151H14.8607H14.9061H14.9514H14.9966H15.0416H15.0865H15.1313H15.1759H15.2203H15.2646H15.3088H15.3528H15.3966H15.4403H15.4839H15.5272H15.5705H15.6135H15.6564H15.6992H15.7417H15.7841H15.8264H15.8684H15.9103H15.9521H15.9936H16.035H16.0762H16.1172H16.158H16.1986H16.2391H16.2794H16.3195H16.3594H16.3991H16.4386H16.4779H16.5171H16.556H16.5947H16.6333H16.6716H16.7098H16.7477H16.7854H16.8229H16.8602H16.8973H16.9342H16.9709H17.0074H17.0436H17.0796H17.1154H17.151H17.1864H17.2215H17.2564H17.2911H17.3256H17.3598H17.3938H17.4276H17.4611H17.4944H17.5274H17.5602H17.5928H17.6251H17.6572H17.6891H17.7207H17.752H17.7831H17.8139H17.8445H17.8749H17.9049H17.9348H17.9643H17.9936H18.0226H18.0514H18.0799H18.1082H18.1361H18.1638H18.1913H18.2184H18.2453H18.2719H18.2982H18.3243H18.35H18.3755H18.4007H18.4256H18.4502H18.4746H18.4986H18.5224H18.5458H18.569H18.5919H18.6144H18.6367H18.6587H18.6803H18.7017H18.7228H18.7435H18.764H18.7841H18.8039H18.8234H18.8426H18.8615H18.88H18.8983H18.9162H18.9338H18.951H18.968H18.9846H19.0009H19.0168H19.0325H19.0477H19.0627H19.0773H19.0916H19.1055H19.1191H19.1324H19.1453H19.1579H19.1701H19.182H19.1935H19.2046H19.2155H19.2259H19.236H19.2458H19.2552H19.2642H19.2728H19.2811H19.2891H19.2966H19.3038H19.3106H19.3171H19.3232H19.3289H19.3342H19.3391H19.3437H19.3479H19.3517H19.3551H19.3582H19.3608H19.3631C19.5357 18.5156 19.6911 18.5714 19.8031 18.671C19.9149 18.7704 19.9844 18.9141 19.9844 19.0922V19.3398C19.9844 19.6964 19.7058 19.9844 19.3631 19.9844H19.3608H19.3581H19.355H19.3516H19.3477H19.3434H19.3387H19.3336H19.3281H19.3222H19.316H19.3093H19.3022H19.2948H19.287H19.2787H19.2701H19.2612H19.2518H19.2421H19.2319H19.2214H19.2106H19.1993H19.1877H19.1757H19.1634H19.1507H19.1376H19.1242H19.1104H19.0962H19.0817H19.0668H19.0516H19.036H19.02H19.0038H18.9871H18.9701H18.9528H18.9352H18.9171H18.8988H18.8801H18.8611H18.8417H18.822H18.802H18.7816H18.761H18.7399H18.7186H18.6969H18.675H18.6527H18.63H18.6071H18.5838H18.5603H18.5364H18.5122H18.4877H18.4629H18.4377H18.4123H18.3866H18.3606H18.3342H18.3076H18.2807H18.2535H18.226H18.1982H18.1701H18.1417H18.113H18.0841H18.0548H18.0253H17.9955H17.9654H17.9351H17.9044H17.8735H17.8424H17.8109H17.7792H17.7472H17.715H17.6825H17.6497H17.6167H17.5834H17.5498H17.516H17.4819H17.4476H17.413H17.3782H17.3432H17.3078H17.2723H17.2365H17.2005H17.1642H17.1277H17.0909H17.0539H17.0167H16.9792H16.9415H16.9036H16.8655H16.8271H16.7885H16.7497H16.7107H16.6714H16.6319H16.5923H16.5524H16.5122H16.4719H16.4314H16.3906H16.3497H16.3085H16.2672H16.2256H16.1839H16.1419H16.0998H16.0574H16.0149H15.9722H15.9293H15.8861H15.8429H15.7994H15.7557H15.7119H15.6678H15.6236H15.5793H15.5347H15.49H15.4451H15.4H15.3548H15.3094H15.2638H15.2181H15.1722H15.1261H15.0799H15.0335H14.987H14.9403H14.8935H14.8465H14.7993H14.752H14.7046H14.657H14.6093H14.5614H14.5134H14.4653H14.417H14.3686H14.3201H14.2714H14.2226H14.1736H14.1246H14.0754H14.0261H13.9767H13.9271H13.8774H13.8276H13.7777H13.7277H13.6776H13.6273H13.577H13.5265H13.476H13.4253H13.3745H13.3237H13.2727H13.2216H13.1705H13.1192H13.0678H13.0164H12.9649H12.9132H12.8615H12.8097H12.7579H12.7059H12.6539H12.6018H12.5496H12.4973H12.4449H12.3925H12.3401H12.2875H12.2349H12.1822H12.1294H12.0766H12.0238H11.9708H11.9178H11.8648H11.8117H11.7586H11.7054H11.6521H11.5988H11.5455H11.4921H11.4386H11.3852H11.3317H11.2781H11.2245H11.1709H11.1172H11.0636H11.0098H10.9561H10.9023H10.8485H10.7947H10.7409H10.687H10.6331H10.5792H10.5253H10.4714H10.4175H10.3635H10.3095H10.2556H10.2016H10.1476H10.0937H10.0397H9.9857H9.93173H9.87776H9.82379H9.76983H9.71589H9.66195H9.60802H9.55411H9.50021H9.44633H9.39247H9.33863H9.28481H9.23101H9.17724H9.1235H9.06978H9.01609H8.96244H8.90882H8.85523H8.80168H8.74816H8.69469H8.64126H8.58787H8.53452H8.48123H8.42797H8.37477H8.32162H8.26852H8.21548H8.16249H8.10956H8.05669H8.00387H7.95112H7.89844H7.84582H7.79326H7.74078H7.68837H7.63602H7.58375H7.53156H7.47944H7.4274H7.37544H7.32357H7.27177H7.22006H7.16844H7.11691H7.06546H7.01411H6.96285H6.91168H6.86061H6.80964H6.75876H6.70799H6.65732H6.60676H6.5563H6.50594H6.4557H6.40557H6.35555H6.30564H6.25585H6.20618H6.15662H6.10719H6.05787H6.00868H5.95962H5.91068H5.86187H5.81319H5.76465H5.71623H5.66796H5.61981H5.57181H5.52394H5.47622H5.42864H5.38121H5.33392H5.28677H5.23978H5.19294H5.14625H5.09972H5.05334H5.00712H4.96106H4.91516H4.86942H4.82384H4.77844H4.73319H4.68812H4.64322H4.59849H4.55393H4.50955H4.46535H4.42132H4.37747H4.33381H4.29033H4.24703H4.20393H4.161H4.11827H4.07573H4.03339H3.99123H3.94928H3.90752H3.86596H3.82461H3.78345H3.7425H3.70176H3.66122H3.62089H3.58078H3.54087H3.50118H3.46171H3.42245H3.38342H3.3446H3.306H3.26763H3.22949H3.19157H3.15388H3.11642H3.07919H3.04219H3.00543H2.96891H2.93262H2.89658H2.86078H2.82522H2.7899H2.75483H2.72001H2.68544H2.65112H2.61705H2.58324H2.54968H2.51638H2.48334H2.45056H2.41804H2.38579H2.35381H2.32209H2.29064H2.25946H2.22855H2.19792H2.16756H2.13748H2.10767H2.07815H2.04891H2.01995H1.99128H1.9629H1.9348H1.907H1.87948H1.85226H1.82533H1.7987H1.77237H1.74634H1.72061H1.69518H1.67005H1.64524H1.62073H1.59653H1.57264H1.54906H1.5258H1.50285H1.48022H1.45791H1.43592H1.41426H1.39291H1.3719H1.35121H1.33084H1.31081H1.29111H1.27175H1.25272H1.23402H1.21567H1.19765H1.17998H1.16265H1.14567H1.12903H1.11274H1.0968H1.08121H1.06597H1.05109H1.03656H1.0224H1.00859H0.995141H0.982057H0.969337H0.956984H0.944997H0.93338H0.922134H0.91126H0.90076H0.890635H0.880888H0.87152H0.862532H0.853926H0.845704H0.837868H0.830418H0.823357H0.816686H0.810407H0.804521H0.79903H0.793936H0.78924H0.784944H0.781049H0.777558H0.774471H0.771791H0.769518H0.767655H0.766203H0.765164H0.76454C0.764401 19.9844 0.764331 19.9844 0.764331 20V19.9844C0.588425 19.9844 0.453943 19.9801 0.350772 19.9625C0.247755 19.9449 0.177988 19.9145 0.129696 19.8638C0.0813082 19.813 0.0524437 19.7397 0.0359525 19.6321C0.0194544 19.5245 0.015625 19.3846 0.015625 19.2022H0C0.015625 19.2022 0.015625 19.2021 0.015625 19.202V19.2014V19.2003V19.1989V19.197V19.1948V19.1921V19.189V19.1856V19.1817V19.1774V19.1727V19.1676V19.1622V19.1563V19.1501V19.1434V19.1364V19.129V19.1211V19.113V19.1044V19.0954V19.0861V19.0764V19.0663V19.0558V19.045V19.0338V19.0222V19.0103V18.998V18.9853V18.9723V18.9589V18.9451V18.931V18.9165V18.9017V18.8865V18.871V18.8551V18.8389V18.8223V18.8054V18.7881V18.7705V18.7526V18.7343V18.7157V18.6967V18.6774V18.6578V18.6378V18.6176V18.5969V18.576V18.5547V18.5332V18.5113V18.489V18.4665V18.4436V18.4204V18.397V18.3732V18.3491V18.3246V18.2999V18.2749V18.2495V18.2239V18.198V18.1717V18.1452V18.1184V18.0913V18.0639V18.0362V18.0082V17.9799V17.9513V17.9225V17.8933V17.8639V17.8342V17.8043V17.774V17.7435V17.7127V17.6817V17.6503V17.6187V17.5868V17.5547V17.5223V17.4897V17.4567V17.4236V17.3901V17.3565V17.3225V17.2883V17.2539V17.2192V17.1842V17.1491V17.1136V17.078V17.0421V17.0059V16.9695V16.9329V16.896V16.8589V16.8216V16.7841V16.7463V16.7083V16.6701V16.6316V16.5929V16.554V16.5149V16.4756V16.4361V16.3963V16.3563V16.3161V16.2758V16.2352V16.1944V16.1534V16.1122V16.0708V16.0292V15.9873V15.9454V15.9032V15.8608V15.8182V15.7754V15.7325V15.6894V15.646V15.6025V15.5588V15.515V15.4709V15.4267V15.3823V15.3378V15.293V15.2481V15.203V15.1578V15.1124V15.0668V15.0211V14.9752V14.9291V14.8829V14.8366V14.79V14.7434V14.6965V14.6496V14.6025V14.5552V14.5078V14.4602V14.4125V14.3647V14.3167V14.2686V14.2204V14.172V14.1235V14.0749V14.0261V13.9772V13.9282V13.8791V13.8298V13.7805V13.731V13.6814V13.6316V13.5818V13.5318V13.4818V13.4316V13.3813V13.3309V13.2804V13.2299V13.1792V13.1284V13.0775V13.0265V12.9754V12.9243V12.873V12.8216V12.7702V12.7187V12.6671V12.6154V12.5636V12.5117V12.4598V12.4078V12.3557V12.3036V12.2513V12.199V12.1467V12.0942V12.0417V11.9892V11.9365V11.8839V11.8311V11.7783V11.7254V11.6725V11.6196V11.5666V11.5135V11.4604V11.4072V11.354V11.3008V11.2475V11.1942V11.1408V11.0874V11.034V10.9805V10.927V10.8735V10.8199V10.7663V10.7127V10.6591V10.6054V10.5517V10.4981V10.4443V10.3906V10.3369V10.2831V10.2294V10.1756V10.1218V10.068V10.0142V9.96044V9.90664V9.85285V9.79906V9.74527V9.69149V9.63772V9.58395V9.5302V9.47646V9.42273V9.36901V9.31532V9.26164V9.20798V9.15434V9.10073V9.04714V8.99357V8.94004V8.88653V8.83306V8.77962V8.72621V8.67284V8.6195V8.56621V8.51296V8.45975V8.40658V8.35346V8.30038V8.24736V8.19438V8.14146V8.08859V8.03578V7.98302V7.93033V7.87769V7.82511V7.7726V7.72015V7.66777V7.61546V7.56322V7.51105V7.45895V7.40693V7.35498V7.30311V7.25132V7.19961V7.14799V7.09644V7.04499V6.99362V6.94234V6.89115V6.84006V6.78906V6.73815V6.68734V6.63663V6.58602V6.53551V6.48511V6.43481V6.38462V6.33453V6.28456V6.2347V6.18495V6.13531V6.0858V6.0364V5.98712V5.93796V5.88892V5.84001V5.79123V5.74257V5.69404V5.64565V5.59738V5.54925V5.50126V5.4534V5.40568V5.35811V5.31067V5.26338V5.21623V5.16924V5.12239V5.07569V5.02914V4.98275V4.93651V4.89042V4.8445V4.79874V4.75313V4.70769V4.66242V4.61731V4.57237V4.5276V4.483V4.43857V4.39432V4.35024V4.30635V4.26263V4.21909V4.17573V4.13256V4.08957V4.04677V4.00416V3.96174V3.91952V3.87748V3.83564V3.794V3.75256V3.71132V3.67027V3.62944V3.5888V3.54838V3.50816V3.46815V3.42835V3.38877V3.3494V3.31025V3.27131V3.2326V3.1941V3.15583V3.11778V3.07996V3.04237V3.005V2.96787V2.93096V2.8943V2.85786V2.82167V2.78571V2.74999V2.71452V2.67929V2.6443V2.60957V2.57508V2.54083V2.50685V2.47311V2.43963V2.40641V2.37344V2.34073V2.30829V2.27611V2.24419V2.21254V2.18115V2.15004V2.11919V2.08862V2.05833V2.02831V1.99856V1.9691V1.93991V1.91101V1.88239V1.85406V1.82601V1.79826V1.77079V1.74362V1.71673V1.69015V1.66386V1.63787V1.61217V1.58678V1.5617V1.53692V1.51244V1.48827V1.46441V1.44087V1.41763V1.39471V1.37211V1.34982V1.32785V1.30621V1.28488V1.26388V1.24321V1.22286V1.20284V1.18316V1.1638V1.14478V1.12609V1.10774V1.08973V1.07206V1.05473V1.03774V1.0211V1.00481V0.988861V0.973264V0.958019V0.943127V0.928589V0.914408V0.900584V0.88712V0.874016V0.861276V0.8489V0.836889V0.825246V0.813972V0.803069V0.792538V0.782381V0.7726V0.763195V0.75417V0.745525V0.737261V0.729381V0.721887V0.714779V0.70806V0.70173V0.695792V0.690248V0.685098V0.680345V0.675989V0.672034V0.668479V0.665328V0.662581V0.66024C0.015625 0.303553 0.294186 0.015625 0.636942 0.015625H0.89172C1.23448 0.015625 1.51304 0.303553 1.51304 0.66024L1.51304 0.660299L1.58111 18.5001ZM10.5 16.2982H10.0557C9.93363 16.2982 9.81007 16.2347 9.71667 16.1379C9.62329 16.0411 9.56181 15.9128 9.56181 15.7856V2.75678C9.56181 2.62962 9.62329 2.50128 9.71667 2.4045C9.81007 2.30767 9.93363 2.24421 10.0557 2.24421H10.5C10.6221 2.24421 10.7457 2.30767 10.8391 2.4045C10.9324 2.50128 10.9939 2.62962 10.9939 2.75678V15.7856C10.9939 15.9128 10.9324 16.0411 10.8391 16.1379C10.7457 16.2347 10.6221 16.2982 10.5 16.2982ZM15.5 16.2982H15.1322C15.0101 16.2982 14.8865 16.2347 14.7931 16.1379C14.6997 16.0411 14.6382 15.9128 14.6382 15.7856V7.51051C14.6382 7.38335 14.6997 7.25502 14.7931 7.15823C14.8865 7.0614 15.0101 6.99794 15.1322 6.99794H15.5C15.6221 6.99794 15.7457 7.0614 15.8391 7.15823C15.9324 7.25502 15.9939 7.38335 15.9939 7.51051V15.7856C15.9939 15.9128 15.9324 16.0411 15.8391 16.1379C15.7457 16.2347 15.6221 16.2982 15.5 16.2982ZM5.5 16.2982H5.09554C4.97344 16.2982 4.84988 16.2347 4.75647 16.1379C4.66309 16.0411 4.60161 15.9128 4.60161 15.7856V10.5972C4.60161 10.47 4.66309 10.3417 4.75647 10.2449C4.84988 10.148 4.97344 10.0846 5.09554 10.0846H5.5C5.62211 10.0846 5.74566 10.148 5.83907 10.2449C5.93245 10.3417 5.99393 10.47 5.99393 10.5972V15.7856C5.99393 15.9128 5.93245 16.0411 5.83907 16.1379C5.74566 16.2347 5.62211 16.2982 5.5 16.2982Z" fill="currentColor" stroke="currentColor" stroke-width="0.03125"/>
</svg>
