<svg width="100%" height="100%" viewBox="0 0 20 20" fill="none" xmlns="http://www.w3.org/2000/svg">
<path d="M17.4374 4.13837H17.4387H17.4436H17.4485H17.4535H17.4585H17.4635H17.4686H17.4737H17.4789H17.4841H17.4893H17.4946H17.5H17.5053H17.5108H17.5162H17.5218H17.5273H17.5329H17.5386H17.5442H17.55H17.5557H17.5616H17.5674H17.5733H17.5793H17.5853H17.5913H17.5974H17.6036H17.6098H17.616H17.6223H17.6286H17.6349H17.6414H17.6478H17.6543H17.6609H17.6675H17.6741H17.6808H17.6875H17.6943H17.7012H17.708H17.715H17.722H17.729H17.7361H17.7432H17.7504H17.7576C18.9762 4.13837 19.9768 5.40327 19.9768 6.97002V17.1451C19.9768 18.7119 18.9762 19.9768 17.7576 19.9768L3.53535 19.9763C1.6036 19.9763 0.0232328 17.9732 0.0232328 15.4986V4.50042C0.0232328 2.02628 1.6036 0.0232328 3.53535 0.0232328H15.1717C16.3903 0.0232328 17.3909 1.28813 17.3909 2.85488V4.09191H17.3905H17.3897H17.3888H17.3879H17.3878H17.387H17.386H17.3851H17.3842H17.3835H17.3832H17.3822H17.3812H17.3802H17.3792H17.3791H17.3782H17.3771H17.3761H17.375H17.3748H17.374H17.3729H17.3718H17.3707H17.3706H17.3696H17.3684H17.3673H17.3663H17.3662H17.365H17.3638H17.3627H17.3622H17.3615H17.3603H17.3591H17.358H17.3578H17.3566H17.3554H17.3541H17.3539H17.3529H17.3516H17.3504H17.3498H17.3491H17.3478H17.3465H17.3458H17.3452H17.3439H17.3426H17.3418H17.3412H17.3399H17.3385H17.3379H17.3372H17.3358H17.3345H17.334H17.3331H17.3317H17.3303H17.3301H17.3289H17.3275H17.3263H17.3261H17.3247H17.3233H17.3225H17.3219H17.3205H17.319H17.3187H17.3176H17.3161H17.315H17.3147H17.3132H17.3118H17.3113H17.3103H17.3089H17.3076H17.3074H17.3059H17.3044H17.304H17.3029H17.3014H17.3005H17.2999H17.2985H17.297H17.2969H17.2954H17.2939H17.2934H17.2924H17.2909H17.29H17.2894H17.2879H17.2865H17.2864H17.2848H17.2833H17.2832H17.2818H17.2802H17.2798H17.2787H17.2772H17.2765H17.2756H17.2741H17.2732H17.2726H17.271H17.27H17.2695H17.2679H17.2668H17.2664H17.2649H17.2636H17.2633H17.2618H17.2605H17.2602H17.2587H17.2574H17.2571H17.2556H17.2543H17.254H17.2525H17.2513H17.2509H17.2494H17.2483H17.2479H17.2463H17.2453H17.2448H17.2432H17.2424H17.2417H17.2402H17.2395H17.2386H17.2371H17.2367H17.2356H17.234H17.2338H17.2325H17.231H17.231H17.2294H17.2283H17.2279H17.2264H17.2256H17.2249H17.2234H17.2229H17.2219H17.2204H17.2202H17.2189H17.2176H17.2174H17.2159H17.215H17.2144H17.2129H17.2125H17.2114H17.21H17.2099H17.2084H17.2075H17.207H17.2055H17.205H17.204H17.2026H17.2026H17.2011H17.2002H17.1997H17.1982H17.1979H17.1968H17.1956H17.1954H17.194H17.1933H17.1925H17.1911H17.191H17.1897H17.1888H17.1883H17.1869H17.1866H17.1855H17.1845H17.1841H17.1828H17.1823H17.1814H17.1802H17.18H17.1787H17.1782H17.1773H17.1761H17.176H17.1747H17.1741H17.1733H17.1721H17.172H17.1707H17.1702H17.1694H17.1683H17.1681H17.1668H17.1664H17.1656H17.1646H17.1643H17.163H17.1627H17.1618H17.161H17.1605H17.1593H17.1592H17.1581H17.1575H17.1569H17.1558H17.1557H17.1545H17.1541H17.1533H17.1524H17.1521H17.151H17.1508H17.1498H17.1493H17.1487H17.1477H17.1475H17.1464H17.1462H17.1453H17.1447H17.1442H17.1432H17.1431H17.142H17.1418H17.141H17.1404H17.1399H17.139H17.1389H17.1378H17.1376H17.1368H17.1363H17.1358H17.135H17.1348H17.1338H17.1337H17.1329H17.1325H17.1319H17.1313H17.131H17.1301H17.13H17.1291H17.1289H17.1282H17.1278H17.1273H17.1267H17.1264H17.1256H17.1256H17.1247H17.1245H17.1239H17.1235H17.123H17.1225H17.1222H17.1215H17.1214H17.1206H17.1206H17.1199H17.1196H17.1191H17.1187H17.1184H17.1179H17.1177H17.117H17.1169H17.1162H17.1162H17.1156H17.1154H17.1149H17.1146H17.1143H17.1139H17.1136H17.1132H17.113H17.1125H17.1124H17.1118H17.1118H17.1112H17.1111H17.1107H17.1105H17.1102H17.1099H17.1096H17.1093H17.1091H17.1088H17.1086H17.1083H17.1082H17.1078H17.1077H17.1073H17.1069H17.1068H17.1065H17.1064H17.1061H17.106H17.1057H17.1056H17.1054H17.1052H17.105H17.1049H17.1047H17.1046H17.1044H17.1043H17.1042H17.104H17.1039H17.1037H17.1037H17.1035H17.1035H17.1033H17.1033H17.1031H17.1029H17.1028H17.1027H17.1026H17.1025H17.1024H17.1024H17.1024L17.1024 4.13837H17.1024H17.1024H17.1025H17.1026H17.1027H17.1028H17.1029H17.1031H17.1033H17.1033H17.1035H17.1035H17.1037H17.1037H17.1039H17.104H17.1042H17.1043H17.1044H17.1046H17.1047H17.1049H17.105H17.1052H17.1054H17.1056H17.1057H17.106H17.1061H17.1064H17.1065H17.1068H17.1069H17.1073H17.1077H17.1078H17.1082H17.1083H17.1086H17.1088H17.1091H17.1093H17.1096H17.1099H17.1102H17.1105H17.1107H17.1111H17.1112H17.1118H17.1118H17.1124H17.1125H17.113H17.1132H17.1136H17.1139H17.1143H17.1146H17.1149H17.1154H17.1156H17.1162H17.1162H17.1169H17.117H17.1177H17.1179H17.1184H17.1187H17.1191H17.1196H17.1199H17.1206H17.1206H17.1214H17.1215H17.1222H17.1225H17.123H17.1235H17.1239H17.1245H17.1247H17.1256H17.1256H17.1264H17.1267H17.1273H17.1278H17.1282H17.1289H17.1291H17.13H17.1301H17.131H17.1313H17.1319H17.1325H17.1329H17.1337H17.1338H17.1348H17.135H17.1358H17.1363H17.1368H17.1376H17.1378H17.1389H17.139H17.1399H17.1404H17.141H17.1418H17.142H17.1431H17.1432H17.1442H17.1447H17.1453H17.1462H17.1464H17.1475H17.1477H17.1487H17.1493H17.1498H17.1508H17.151H17.1521H17.1524H17.1533H17.1541H17.1545H17.1557H17.1558H17.1569H17.1575H17.1581H17.1592H17.1593H17.1605H17.161H17.1618H17.1627H17.163H17.1643H17.1646H17.1656H17.1664H17.1668H17.1681H17.1683H17.1694H17.1702H17.1707H17.172H17.1721H17.1733H17.1741H17.1747H17.176H17.1761H17.1773H17.1782H17.1787H17.18H17.1802H17.1814H17.1823H17.1828H17.1841H17.1845H17.1855H17.1866H17.1869H17.1883H17.1888H17.1897H17.191H17.1911H17.1925H17.1933H17.194H17.1954H17.1956H17.1968H17.1979H17.1982H17.1997H17.2002H17.2011H17.2026H17.2026H17.204H17.205H17.2055H17.207H17.2075H17.2084H17.2099H17.21H17.2114H17.2125H17.2129H17.2144H17.215H17.2159H17.2174H17.2176H17.2189H17.2202H17.2204H17.2219H17.2229H17.2234H17.2249H17.2256H17.2264H17.2279H17.2283H17.2294H17.231H17.231H17.2325H17.2338H17.234H17.2356H17.2367H17.2371H17.2386H17.2395H17.2402H17.2417H17.2424H17.2432H17.2448H17.2453H17.2463H17.2479H17.2483H17.2494H17.2509H17.2513H17.2525H17.254H17.2543H17.2556H17.2571H17.2574H17.2587H17.2602H17.2605H17.2618H17.2633H17.2636H17.2649H17.2664H17.2668H17.2679H17.2695H17.27H17.271H17.2726H17.2732H17.2741H17.2756H17.2765H17.2772H17.2787H17.2798H17.2802H17.2818H17.2832H17.2833H17.2848H17.2864H17.2865H17.2879H17.2894H17.29H17.2909H17.2924H17.2934H17.2939H17.2954H17.2969H17.297H17.2985H17.2999H17.3005H17.3014H17.3029H17.304H17.3044H17.3059H17.3074H17.3076H17.3089H17.3103H17.3113H17.3118H17.3132H17.3147H17.315H17.3161H17.3176H17.3187H17.319H17.3205H17.3219H17.3225H17.3233H17.3247H17.3261H17.3263H17.3275H17.3289H17.3301H17.3303H17.3317H17.3331H17.334H17.3345H17.3358H17.3372H17.3379H17.3385H17.3399H17.3412H17.3418H17.3426H17.3439H17.3452H17.3458H17.3465H17.3478H17.3491H17.3498H17.3504H17.3516H17.3529H17.3539H17.3541H17.3554H17.3566H17.3578H17.358H17.3591H17.3603H17.3615H17.3622H17.3627H17.3638H17.365H17.3662H17.3663H17.3673H17.3684H17.3696H17.3706H17.3707H17.3718H17.3729H17.374H17.3748H17.375H17.3761H17.3771H17.3782H17.3791H17.3792H17.3802H17.3812H17.3822H17.3832H17.3835H17.3842H17.3851H17.386H17.387H17.3878H17.3879H17.3888H17.3897H17.3905H17.3914H17.3923H17.3931H17.3939H17.3947H17.3955H17.3963H17.3967H17.397H17.3978H17.3985H17.3992H17.3999H17.4006H17.4012H17.4013H17.4019H17.4026H17.4032H17.4038H17.4044H17.405H17.4056H17.4058H17.4061H17.4066H17.4071H17.4076H17.4081H17.4086H17.409H17.4094H17.4098H17.4102H17.4104H17.4106H17.411H17.4113H17.4116H17.4119H17.4122H17.4125H17.4127H17.4129H17.4131H17.4133H17.4135H17.4136H17.4138H17.4139H17.414H17.414H17.4141H17.4141H17.415H17.4196H17.4244H17.4291H17.4339H17.4374ZM16.5 4.13837H16.5232V4.11514V2.85488C16.5232 2.4234 16.3972 1.95525 16.166 1.59433C15.9349 1.23334 15.5964 0.976767 15.1717 0.976767L3.53535 0.976253C2.89456 0.976253 2.25466 1.45845 1.77658 2.13568C1.29784 2.81384 0.976767 3.69367 0.976767 4.50042V15.4986C0.976767 16.3056 1.29794 17.1855 1.77673 17.8637C2.25486 18.541 2.89476 19.0232 3.53535 19.0232V19C3.53535 19.0232 3.53541 19.0232 3.53551 19.0232H3.53597H3.53674H3.53781H3.53919H3.54086H3.54285H3.54513H3.54771H3.55058H3.55376H3.55723H3.561H3.56505H3.5694H3.57405H3.57898H3.5842H3.5897H3.5955H3.60158H3.60794H3.61458H3.62151H3.62872H3.6362H3.64397H3.65201H3.66033H3.66892H3.67778H3.68692H3.69633H3.70601H3.71595H3.72617H3.73665H3.74739H3.7584H3.76967H3.78121H3.793H3.80506H3.81737H3.82994H3.84276H3.85584H3.86918H3.88276H3.8966H3.91068H3.92502H3.9396H3.95443H3.9695H3.98482H4.00038H4.01619H4.03223H4.04851H4.06503H4.08179H4.09878H4.11601H4.13348H4.15117H4.1691H4.18725H4.20564H4.22425H4.24309H4.26215H4.28144H4.30095H4.32068H4.34064H4.36081H4.3812H4.40181H4.42263H4.44367H4.46492H4.48639H4.50807H4.52995H4.55205H4.57435H4.59686H4.61958H4.64249H4.66562H4.68894H4.71247H4.73619H4.76011H4.78423H4.80855H4.83306H4.85776H4.88266H4.90775H4.93303H4.95849H4.98415H5.00999H5.03602H5.06223H5.08863H5.1152H5.14196H5.1689H5.19601H5.22331H5.25077H5.27842H5.30624H5.33423H5.36239H5.39072H5.41922H5.44789H5.47672H5.50572H5.53489H5.56422H5.59371H5.62336H5.65317H5.68314H5.71327H5.74355H5.77399H5.80458H5.83533H5.86622H5.89727H5.92846H5.95981H5.9913H6.02293H6.05471H6.08664H6.1187H6.15091H6.18326H6.21574H6.24836H6.28112H6.31402H6.34704H6.38021H6.4135H6.44692H6.48047H6.51415H6.54796H6.58189H6.61595H6.65013H6.68443H6.71885H6.75339H6.78806H6.82283H6.85773H6.89274H6.92787H6.9631H6.99845H7.03391H7.06948H7.10516H7.14094H7.17683H7.21283H7.24892H7.28512H7.32142H7.35783H7.39432H7.43092H7.46762H7.5044H7.54129H7.57826H7.61533H7.65249H7.68974H7.72707H7.76449H7.802H7.8396H7.87727H7.91503H7.95287H7.99079H8.02879H8.06687H8.10502H8.14325H8.18155H8.21993H8.25837H8.29689H8.33548H8.37414H8.41286H8.45165H8.4905H8.52942H8.5684H8.60744H8.64654H8.6857H8.72491H8.76419H8.80352H8.8429H8.88234H8.92182H8.96136H9.00095H9.04059H9.08027H9.12H9.15978H9.1996H9.23946H9.27936H9.3193H9.35928H9.3993H9.43936H9.47945H9.51958H9.55973H9.59992H9.64015H9.6804H9.72068H9.76098H9.80132H9.84167H9.88205H9.92246H9.96288H10.0033H10.0438H10.0843H10.1248H10.1653H10.2058H10.2464H10.2869H10.3275H10.3681H10.4086H10.4492H10.4898H10.5304H10.571H10.6116H10.6522H10.6929H10.7335H10.7741H10.8147H10.8553H10.8959H10.9365H10.977H11.0176H11.0582H11.0987H11.1393H11.1798H11.2203H11.2608H11.3012H11.3417H11.3821H11.4226H11.4629H11.5033H11.5437H11.584H11.6243H11.6645H11.7048H11.745H11.7852H11.8253H11.8654H11.9055H11.9455H11.9855H12.0255H12.0654H12.1053H12.1451H12.1849H12.2247H12.2644H12.304H12.3437H12.3832H12.4227H12.4622H12.5016H12.541H12.5803H12.6195H12.6587H12.6978H12.7369H12.7759H12.8149H12.8537H12.8926H12.9313H12.97H13.0086H13.0472H13.0857H13.1241H13.1624H13.2007H13.2389H13.277H13.315H13.353H13.3909H13.4287H13.4664H13.504H13.5416H13.579H13.6164H13.6537H13.6909H13.728H13.765H13.802H13.8388H13.8755H13.9122H13.9487H13.9852H14.0215H14.0578H14.0939H14.13H14.1659H14.2018H14.2375H14.2731H14.3086H14.344H14.3793H14.4145H14.4496H14.4845H14.5194H14.5541H14.5887H14.6232H14.6575H14.6918H14.7259H14.7599H14.7938H14.8275H14.8611H14.8946H14.928H14.9612H14.9943H15.0272H15.0601H15.0928H15.1253H15.1577H15.19H15.2221H15.2541H15.286H15.3177H15.3493H15.3807H15.4119H15.4431H15.474H15.5049H15.5355H15.566H15.5964H15.6266H15.6567H15.6865H15.7163H15.7458H15.7753H15.8045H15.8336H15.8625H15.8913H15.9198H15.9483H15.9765H16.0046H16.0325H16.0602H16.0878H16.1152H16.1424H16.1694H16.1962H16.2229H16.2494H16.2757H16.3018H16.3277H16.3535H16.3791H16.4044H16.4296H16.4546H16.4794H16.504H16.5284H16.5526H16.5767H16.6005H16.6241H16.6475H16.6708H16.6938H16.7166H16.7392H16.7616H16.7838H16.8058H16.8276H16.8492H16.8705H16.8917H16.9126H16.9333H16.9538H16.9741H16.9942H17.014H17.0336H17.053H17.0722H17.0911H17.1099H17.1284H17.1466H17.1647H17.1825H17.2001H17.2174H17.2345H17.2514H17.268H17.2844H17.3006H17.3165H17.3322H17.3476H17.3628H17.3778H17.3925H17.407H17.4212H17.4351H17.4488H17.4623H17.4755H17.4885H17.5012H17.5136H17.5258H17.5377H17.5494H17.5608H17.5719H17.5828H17.5934H17.6037H17.6138H17.6236H17.6332H17.6425H17.6515H17.6602H17.6686H17.6768H17.6847H17.6923H17.6997H17.7068H17.7135H17.72H17.7263H17.7322H17.7379H17.7432H17.7483H17.7531H17.7576C18.1403 19.0232 18.4571 18.7656 18.677 18.4052C18.8972 18.0444 19.0232 17.5763 19.0232 17.1446V6.9695C19.0232 6.61838 18.9278 6.22002 18.7631 5.90881C18.5992 5.59897 18.3621 5.36783 18.0758 5.36783H4.5C4.47926 5.36783 4.44967 5.36936 4.41355 5.37122C4.29746 5.37722 4.11402 5.3867 3.94096 5.36007C3.82797 5.34268 3.72296 5.31022 3.64666 5.25341C3.57155 5.19748 3.52323 5.11731 3.52323 5C3.52323 4.57136 3.65029 4.35828 3.79218 4.25116C3.93524 4.14316 4.09889 4.13837 4.18182 4.13837H16.5ZM15.1717 13.1941C14.9136 13.1941 14.6824 13.1272 14.5159 12.9808C14.35 12.8349 14.2455 12.6073 14.2455 12.2792C14.2455 11.9511 14.35 11.7238 14.5159 11.5782C14.6823 11.4321 14.9136 11.3654 15.1717 11.3654C15.4299 11.3654 15.6611 11.4321 15.8275 11.5782C15.9934 11.7238 16.098 11.9511 16.098 12.2792C16.098 12.6073 15.9933 12.8349 15.8273 12.9808C15.6609 13.1272 15.4296 13.1941 15.1717 13.1941Z" fill="currentColor" stroke="currentColor" stroke-width="0.0464656"/>
</svg>
