<svg width="100%" height="100%" viewBox="0 0 76 17" fill="currentColor" xmlns="http://www.w3.org/2000/svg">
<path fill-rule="evenodd" clip-rule="evenodd" d="M0 16.5561V0.829224H6.53467C8.22403 0.829224 9.51414 1.20685 10.4051 1.96213C11.296 2.71742 11.7414 3.68791 11.7414 4.87362C11.7414 5.86037 11.464 6.65217 10.9178 7.24504C10.3672 7.83788 9.69485 8.23583 8.9048 8.447C9.83352 8.62566 10.6026 9.07234 11.2077 9.78295C11.8128 10.4936 12.1154 11.3219 12.1154 12.264C12.1154 13.5066 11.6489 14.5339 10.7202 15.342C9.79151 16.15 8.47195 16.5561 6.76581 16.5561H0ZM2.97936 7.43625H6.09753C6.93378 7.43625 7.57676 7.24946 8.02639 6.87588C8.47606 6.5023 8.69879 5.97035 8.69879 5.28004C8.69879 4.62223 8.47606 4.09841 8.0348 3.71671C7.59358 3.335 6.92959 3.14417 6.04707 3.14417H2.97936V7.43625ZM6.30347 14.2211H2.97939H2.97517V9.59196H6.25305C7.12294 9.59196 7.81211 9.80312 8.3248 10.2214C8.83749 10.6396 9.09385 11.2162 9.09385 11.9512C9.09385 12.6699 8.85008 13.2263 8.36262 13.6242C7.87517 14.0221 7.18595 14.2211 6.30347 14.2211Z" />
<path fill-rule="evenodd" clip-rule="evenodd" d="M16.1416 16.3704C16.7761 16.6749 17.5914 16.8292 18.5829 16.8292C19.541 16.8292 20.3313 16.6343 20.949 16.2445C21.5582 15.8547 22.0374 15.3633 22.3778 14.7623L22.6551 16.5612H25.189V9.70685C25.189 8.25313 24.7141 7.1324 23.7689 6.33652C22.8233 5.54469 21.5288 5.14673 19.8858 5.14673C18.9233 5.14673 18.0534 5.30918 17.2804 5.62995C16.5029 5.95073 15.8724 6.40958 15.3851 7.01058C14.8974 7.6075 14.6117 8.31402 14.5361 9.12211H17.4441C17.5536 8.58204 17.8308 8.17191 18.2803 7.89581C18.7302 7.61967 19.2553 7.4816 19.8605 7.4816C20.5244 7.4816 21.0834 7.66026 21.5332 8.02167C21.9787 8.38308 22.2056 8.94344 22.2056 9.70685V9.97483H19.2762C17.6039 9.97483 16.3472 10.2956 15.511 10.9413C14.6749 11.5869 14.2544 12.4234 14.2544 13.4589C14.2544 14.072 14.4101 14.6365 14.7211 15.144C15.0322 15.6557 15.507 16.0617 16.1416 16.3704ZM21.2431 13.7749C20.7723 14.315 20.1083 14.583 19.2553 14.583C18.6963 14.583 18.2469 14.4612 17.9064 14.2257C17.566 13.9861 17.3938 13.649 17.3938 13.2145C17.3938 12.8085 17.566 12.4674 17.9064 12.1913C18.2469 11.9151 18.8142 11.7771 19.6041 11.7771H22.138C22.012 12.5689 21.7139 13.2349 21.2431 13.7749Z" />
<path d="M28.0212 16.5612V5.41474H30.648L30.879 7.30293C31.2363 6.64513 31.753 6.12131 32.4254 5.73147C33.0978 5.34164 33.8921 5.14673 34.8083 5.14673C36.2328 5.14673 37.3422 5.58123 38.1321 6.45021C38.9224 7.31919 39.3175 8.59421 39.3175 10.2713V16.5612H36.3423V10.5393C36.3423 9.58096 36.1403 8.84597 35.7371 8.3384C35.3335 7.83083 34.7074 7.57499 33.8543 7.57499C33.0181 7.57499 32.3329 7.85926 31.7952 8.42775C31.2613 8.99625 30.9925 9.79212 30.9925 10.8113V16.5653H28.0212V16.5612Z" />
<path d="M47.0222 16.6777C45.8456 16.6777 44.8034 16.43 43.904 15.9346C43.0047 15.4393 42.2945 14.753 41.7774 13.8678C41.2563 12.9826 41 11.9714 41 10.8345C41 9.6975 41.2607 8.68637 41.7774 7.80118C42.2985 6.91595 43.0047 6.22968 43.904 5.73429C44.8034 5.23889 45.8412 4.99121 47.0222 4.99121C48.4929 4.99121 49.7367 5.36071 50.7411 6.10382C51.7499 6.8469 52.3929 7.86612 52.6701 9.1696H49.5311C49.3754 8.62953 49.0687 8.20723 48.6108 7.89862C48.1525 7.59001 47.6145 7.43977 46.9928 7.43977C46.1691 7.43977 45.4714 7.74025 44.9 8.33717C44.3241 8.93813 44.0384 9.76651 44.0384 10.8304C44.0384 11.8943 44.3241 12.7267 44.9 13.3236C45.4714 13.9246 46.1691 14.221 46.9928 14.221C47.6145 14.221 48.1525 14.0708 48.6108 13.7703C49.0687 13.4698 49.3754 13.0435 49.5311 12.4912H52.6701C52.3929 13.75 51.7455 14.7611 50.7411 15.5245C49.7367 16.296 48.4973 16.6777 47.0222 16.6777Z" />
<path fill-rule="evenodd" clip-rule="evenodd" d="M57.5849 16.0854C58.4758 16.5808 59.4802 16.8285 60.598 16.8285C61.6993 16.8285 62.6993 16.5808 63.5986 16.0854C64.498 15.5941 65.2038 14.9078 65.7249 14.0307C66.242 13.1536 66.5023 12.1384 66.5023 10.9852C66.5023 9.832 66.246 8.81683 65.7249 7.93973C65.2038 7.06671 64.498 6.38044 63.6071 5.88505C62.7162 5.38965 61.7203 5.14197 60.6193 5.14197C59.5015 5.14197 58.4971 5.38965 57.6062 5.88505C56.7153 6.3764 56.0051 7.06263 55.4796 7.93973C54.9545 8.81683 54.6897 9.832 54.6897 10.9852C54.6897 12.1384 54.946 13.1536 55.4671 14.0307C55.9882 14.9037 56.694 15.59 57.5849 16.0854ZM62.6196 13.4912C62.0478 14.0556 61.3714 14.3358 60.598 14.3358C59.8206 14.3358 59.1526 14.0556 58.5853 13.4912C58.0179 12.9308 57.7362 12.0943 57.7362 10.9857C57.7362 9.8772 58.0179 9.0407 58.5853 8.48033C59.1482 7.91591 59.8291 7.63573 60.6193 7.63573C61.3799 7.63573 62.0438 7.91996 62.6196 8.48033C63.1951 9.0407 63.4811 9.8772 63.4811 10.9857C63.4811 12.0943 63.191 12.9308 62.6196 13.4912Z" />
<path d="M68.314 16.5612V5.41474H70.9653L71.6212 7.50598C72.0413 6.78724 72.2304 6.2147 72.9532 5.78832C73.6762 5.36194 74.5249 5.14673 75.4999 5.14673V8.18004H74.6637C74.0122 8.18004 73.4324 8.27751 72.9197 8.47239C72.4071 8.66731 72.0075 9.00434 71.7218 9.48352C71.4361 9.96266 71.2933 10.6286 71.2933 11.4814V16.5612H68.314Z" />
</svg>
