<svg width="100%" height="100%" viewBox="0 0 20 20" fill="currentColor" xmlns="http://www.w3.org/2000/svg">
    <path d="M10.1093 20C9.17633 20 8.67633 19 8.67633 18.0068H11.6763C11.6763 18.5 11.1763 20 10.1093 20ZM1.02974 16.9243C0.389657 16.9243 0.00351404 16.4161 2.34866e-05 15.9253C-0.00172179 15.6759 0.0938322 15.4431 0.276214 15.2526C0.3277 15.1987 0.381803 15.1436 0.438525 15.0859C1.32033 14.1849 2.79596 12.6766 2.79596 8.46235C2.79596 5.42397 5.6767 2.86278 8.7894 2.23415L9.08479 2.17434V0.996819C9.08479 0.447084 9.54424 0 10.1093 0C10.6743 0 11.1337 0.447084 11.1337 0.996819V2.17434L11.4291 2.23415C14.5418 2.86278 17.2041 5.407 17.2041 8.44539C17.2041 12.6592 18.6797 14.1676 19.5615 15.0689C19.6178 15.1266 19.6723 15.1822 19.7238 15.2361C19.9542 15.4766 20.0013 15.7345 20 15.9088C19.9969 16.4 19.6108 16.9077 18.9703 16.9077L1.02974 16.9243ZM4.14724 8.50732C4.1407 11.2954 3.52985 13.4295 2.27979 15.0312L1.8282 15.6098L18.1718 15.5928L17.7198 15.0142C16.4702 13.4134 15.8593 11.2789 15.8523 8.49035C15.8523 8.49035 15.855 8.46235 15.855 8.44539C15.855 5.62672 13.0082 3.35101 10.1093 3.35101C7.21036 3.35101 4.14506 5.64411 4.14506 8.46235C4.14462 8.47932 4.14593 8.49459 4.14724 8.50732Z" />
</svg>
