<svg width="132" height="134" viewBox="0 0 132 134" fill="none" xmlns="http://www.w3.org/2000/svg">
<path d="M11.2775 63.5437C11.2775 63.5437 9.76966 60.0649 17.611 57.1673C21.0684 55.8902 29.9864 54.1088 43.943 52.4078C43.943 52.4078 57.4023 49.7177 72.035 47.3424C86.462 45.0011 100.388 41.3148 107.952 44.8598C114.475 47.9166 114.32 54.6078 118.108 76.835C119.653 85.905 121.183 93.7446 120.984 96.3577C120.73 99.7239 118.292 102.961 118.292 102.961C118.292 102.961 123.481 117.304 107.165 120.629C107.165 120.629 35.202 132.958 33.8337 132.958C32.4654 132.958 22.9214 132.05 20.716 124.584C18.9113 118.472 11.2775 63.542 11.2775 63.542V63.5437Z" fill="white"/>
<path d="M115.456 102.414L118.294 102.963C118.294 102.963 120.491 110.744 116.007 116.054C116.007 116.054 114.175 118.617 105.846 120.631L115.458 102.414H115.456Z" fill="white"/>
<path d="M98.7107 42.9442L27.5058 54.9155C27.2858 54.953 26.5972 55.0675 26.5972 55.0675C23.222 55.5254 16.2697 56.7631 12.975 59.7698C12.2864 60.3994 11.782 61.0665 11.4583 61.9412C11.342 62.2524 11.3277 62.4062 11.2794 62.687C11.2401 62.8158 11.258 63.6421 11.2705 63.7405C11.2633 64.0821 14.6009 85.9408 14.6009 85.9408L19.8648 121.742C21.1025 129.07 28.0477 134.008 35.3757 132.769L106.64 120.729C113.968 119.492 118.847 112.958 117.666 105.219L117.464 104.018C120.14 101.067 121.487 96.9659 120.771 92.734L114.223 53.9711C112.51 46.2568 106.04 41.7047 98.7124 42.9442H98.7107Z" stroke="black" stroke-width="0.357724" stroke-linejoin="round"/>
<path d="M92.8619 44.1087C85.8326 45.2749 30.9203 54.5059 25.2915 55.4396C23.8105 55.6506 22.2813 55.9386 20.8325 56.316C17.7185 57.1567 13.2684 58.5929 11.7767 61.6354C11.2562 62.73 11.2813 63.9391 12.3956 64.6456C14.9104 66.2267 20.1009 65.7867 23.0325 65.4541C43.6463 61.9913 70.8834 57.3695 91.4757 53.8978C93.5791 53.5687 96.6252 52.8854 98.7518 53.0053C102.422 53.0589 106.296 54.3968 108.509 57.4679C110.009 59.4586 110.632 61.9287 110.961 64.3558C111.34 66.6739 112.345 72.7838 112.748 75.1698C114.359 84.7783 115.994 94.3832 117.638 103.988L117.337 103.89C119.223 101.856 120.399 99.1588 120.718 96.4079C120.882 95.0199 120.804 93.6194 120.553 92.244C120.083 89.6916 117.518 74.2934 116.996 71.369L114.15 54.6687C113.714 51.9285 112.481 49.2778 110.632 47.2048C108.478 44.8063 105.382 43.268 102.173 42.9622C99.1095 42.778 95.8811 43.6276 92.8601 44.1069L92.8619 44.1087ZM92.8011 43.7563C95.8471 43.277 99.0952 42.4184 102.198 42.6063C105.443 42.9032 108.682 44.4897 110.898 46.9669C112.335 48.5641 113.376 50.4887 114.018 52.5313C114.332 53.0464 117.132 70.176 117.35 71.3136C117.851 74.288 120.457 89.5128 120.906 92.1814C121.161 93.5836 121.242 95.0289 121.074 96.4472C120.741 99.2893 119.541 102.04 117.588 104.145C117.489 104.246 117.307 104.187 117.287 104.049C115.642 94.444 114.007 84.8391 112.395 75.2289C111.995 72.8071 110.981 66.749 110.609 64.4131C110.285 62.036 109.687 59.6249 108.223 57.6825C106.071 54.7009 102.313 53.4184 98.7447 53.3648C96.6556 53.2485 93.6256 53.9246 91.5437 54.2519C70.9478 57.7236 43.6982 62.3472 23.0808 65.81C20.0061 66.157 14.7959 66.5898 12.1952 64.9425C10.9808 64.1537 10.8198 62.7693 11.453 61.4869C13.0037 58.305 17.5414 56.8383 20.7448 55.9708C22.2079 55.5898 23.7426 55.2983 25.2432 55.0854C30.5822 54.2287 86.0258 44.8653 92.8029 43.7563H92.8011Z" fill="black"/>
<path d="M29.8384 55.6919L22.5962 57.0083C22.5962 57.0083 19.2587 57.6755 16.7993 58.7075C14.8676 59.5177 13.1684 60.9218 12.8268 62.1166C11.7912 65.7278 21.913 64.4025 21.913 64.4025L31.2979 62.9376L29.8384 55.6919Z" fill="black" stroke="black" stroke-width="0.178862" stroke-miterlimit="10"/>
<path d="M31.2959 62.8462C31.2959 62.8462 95.3696 52.2343 95.3874 52.2307C97.1206 51.941 98.8234 51.7943 100.583 51.9821C104.064 52.3524 107.3 53.9353 109.401 56.8203C110.507 58.3389 111.14 60.1454 111.512 61.9501C111.616 62.4491 111.839 63.8121 111.911 64.3164L119.017 106.58C119.017 106.58 119.06 106.936 119.074 107.145C119.189 108.88 119.511 117.723 108.827 120.216" stroke="black" stroke-width="0.357724" stroke-miterlimit="10"/>
<path d="M118.131 100.998C118.852 99.6078 119.253 98.853 119.598 97.3309C119.965 95.7175 119.847 93.6052 119.562 91.9775C119.162 89.6845 118.718 86.9014 118.316 84.6084C117.774 81.5141 117.28 78.5361 116.74 75.4418C116.189 72.2992 115.713 69.271 115.164 66.1284C114.737 63.6905 114.307 61.233 113.882 58.7951C113.71 57.8149 113.54 56.8061 113.368 55.826C112.125 48.7037 107.539 46.0226 107.536 46.019C104.842 44.445 102.367 43.912 99.274 44.1034C97.1796 44.2322 95.0833 44.4826 93.0193 44.8635L29.3999 55.8832" stroke="black" stroke-width="0.357724" stroke-miterlimit="10"/>
<path d="M78.1953 31.8496C75.8845 32.4505 74.0583 32.286 73.0674 31.2092L70.1466 28.038C69.1557 26.9613 69.1396 25.1279 69.9284 22.8743L78.1971 31.8496H78.1953Z" fill="#1D1E1C"/>
<path d="M78.4351 31.7833L70.0107 22.6381C70.4168 21.5363 71.0088 20.3398 71.7672 19.0859L82.1197 30.3238C80.8086 30.9767 79.5673 31.4685 78.4351 31.7833V31.7833Z" fill="#1D1E1C"/>
<path d="M82.4849 30.1378L71.9839 18.739C72.2343 18.3365 72.5026 17.9287 72.7852 17.5173L83.7673 29.4385C83.3327 29.6871 82.9052 29.9196 82.4831 30.1378H82.4849Z" fill="#1D1E1C"/>
<path d="M101.637 10.1017L93.5181 1.28917C95.7216 0.757952 97.4638 0.943968 98.4225 1.98494L101.343 5.15616C102.302 6.19714 102.347 7.94819 101.635 10.1017H101.637Z" fill="#1D1E1C"/>
<path d="M100.097 13.4679C100.32 13.0744 100.528 12.688 100.716 12.3088C100.528 12.688 100.32 13.0744 100.097 13.4679Z" fill="#E6E280" stroke="#1D1E1C" stroke-width="0.178862" stroke-miterlimit="10"/>
<path d="M79.1343 31.5723C79.2577 31.5312 79.3811 31.49 79.5063 31.4453C79.3811 31.49 79.2577 31.5312 79.1343 31.5723Z" fill="#E6E280" stroke="#1D1E1C" stroke-width="0.178862" stroke-miterlimit="10"/>
<path d="M75.3315 32.1768C75.5945 32.1982 75.8735 32.1982 76.1632 32.1839C75.8735 32.1982 75.5945 32.1982 75.3315 32.1768Z" fill="#E6E280" stroke="#1D1E1C" stroke-width="0.178862" stroke-miterlimit="10"/>
<path d="M101.179 11.3108C101.29 11.0496 101.393 10.7939 101.485 10.5435C101.392 10.7939 101.29 11.0496 101.179 11.3108Z" fill="#E6E280" stroke="#1D1E1C" stroke-width="0.178862" stroke-miterlimit="10"/>
<path d="M99.4707 14.5197C99.6066 14.3033 99.7372 14.0887 99.8642 13.874C99.7372 14.0869 99.6066 14.3033 99.4707 14.5197Z" fill="#E6E280" stroke="#1D1E1C" stroke-width="0.178862" stroke-miterlimit="10"/>
<path d="M100.864 12.0066C100.945 11.8385 101.02 11.6721 101.093 11.5076C101.02 11.6721 100.945 11.8385 100.864 12.0066Z" fill="#E6E280" stroke="#1D1E1C" stroke-width="0.178862" stroke-miterlimit="10"/>
<path d="M83.3037 29.7013C83.4915 29.5976 83.6811 29.4903 83.8725 29.3794C83.6829 29.4903 83.4933 29.5958 83.3037 29.7013Z" fill="#E6E280" stroke="#1D1E1C" stroke-width="0.178862" stroke-miterlimit="10"/>
<path d="M77.4551 32.0177C77.5391 32.0016 77.6232 31.9837 77.7091 31.9658C77.6232 31.9837 77.5391 32.0016 77.4551 32.0177Z" fill="#E6E280" stroke="#1D1E1C" stroke-width="0.178862" stroke-miterlimit="10"/>
<path d="M76.4458 32.1644C76.6908 32.1429 76.943 32.1089 77.2042 32.0642C76.943 32.1089 76.6908 32.1429 76.4458 32.1644Z" fill="#E6E280" stroke="#1D1E1C" stroke-width="0.178862" stroke-miterlimit="10"/>
<path d="M97.353 17.5208C97.7072 17.0665 98.0434 16.6158 98.3618 16.1704C98.0434 16.6176 97.7072 17.0683 97.353 17.5208Z" fill="#E6E280" stroke="#1D1E1C" stroke-width="0.178862" stroke-miterlimit="10"/>
<path d="M101.585 10.2627C101.649 10.0766 101.707 9.89419 101.76 9.71533C101.707 9.89419 101.649 10.0784 101.585 10.2627Z" fill="#E6E280" stroke="#1D1E1C" stroke-width="0.178862" stroke-miterlimit="10"/>
<path d="M102.095 6.93768C102.024 6.2902 101.816 5.73573 101.462 5.29395C101.816 5.73573 102.022 6.29199 102.095 6.93768Z" fill="#E6E280" stroke="#1D1E1C" stroke-width="0.178862" stroke-miterlimit="10"/>
<path d="M80.9819 30.8587C81.4935 30.6334 82.0158 30.3829 82.5505 30.1057C82.0158 30.3829 81.4917 30.6334 80.9819 30.8587Z" fill="#E6E280" stroke="#1D1E1C" stroke-width="0.178862" stroke-miterlimit="10"/>
<path d="M73.8794 31.8066C74.1137 31.9211 74.3695 32.0105 74.6467 32.0731C74.3695 32.0105 74.1137 31.9211 73.8794 31.8066Z" fill="#E6E280" stroke="#1D1E1C" stroke-width="0.178862" stroke-miterlimit="10"/>
<path d="M102.124 7.45286C102.124 7.36164 102.12 7.27221 102.115 7.18457C102.12 7.27221 102.124 7.36164 102.124 7.45286Z" fill="#E6E280" stroke="#1D1E1C" stroke-width="0.178862" stroke-miterlimit="10"/>
<path d="M77.9932 31.8995C78.2847 31.8279 78.5834 31.7457 78.8893 31.6509C78.5834 31.7457 78.2847 31.8297 77.9932 31.8995Z" fill="#E6E280" stroke="#1D1E1C" stroke-width="0.178862" stroke-miterlimit="10"/>
<path d="M82.4574 13.0297C74.6483 20.2235 70.4433 28.3635 73.0654 31.2092C73.1566 31.3076 73.255 31.3988 73.3605 31.4811C73.255 31.397 73.1566 31.3076 73.0654 31.2092L70.1446 28.038C67.5225 25.1923 71.7275 17.0523 79.5366 9.85846C87.3457 2.66463 95.8005 -0.86073 98.4226 1.98675L101.343 5.15797C98.7213 2.31228 90.2648 5.83586 82.4574 13.0297V13.0297Z" fill="white" stroke="black" stroke-width="0.357724" stroke-linejoin="round"/>
<path d="M101.76 9.71532C101.944 9.08751 102.061 8.49548 102.105 7.94995C102.061 8.49548 101.944 9.08572 101.76 9.71532Z" fill="#E6E280" stroke="#1D1E1C" stroke-width="0.178862" stroke-miterlimit="10"/>
<path d="M74.7363 32.0928C74.9241 32.1321 75.1209 32.159 75.3284 32.175C75.1227 32.159 74.9259 32.1303 74.7363 32.0928Z" fill="#E6E280" stroke="#1D1E1C" stroke-width="0.178862" stroke-miterlimit="10"/>
<path d="M79.7339 31.3629C79.868 31.3128 80.004 31.2609 80.1417 31.2073C80.004 31.2609 79.8698 31.3128 79.7339 31.3629Z" fill="#E6E280" stroke="#1D1E1C" stroke-width="0.178862" stroke-miterlimit="10"/>
<path d="M102.105 7.93929C102.116 7.7962 102.123 7.65848 102.123 7.52075C102.123 7.65669 102.116 7.7962 102.105 7.93929Z" fill="#E6E280" stroke="#1D1E1C" stroke-width="0.178862" stroke-miterlimit="10"/>
<path d="M78.8896 31.651C78.9701 31.6259 79.0524 31.5991 79.1347 31.5723C79.0524 31.5991 78.9701 31.6259 78.8896 31.651Z" fill="#E6E280" stroke="#1D1E1C" stroke-width="0.178862" stroke-miterlimit="10"/>
<path d="M79.5063 31.4453C79.5815 31.4185 79.6566 31.3917 79.7335 31.363C79.6584 31.3917 79.5815 31.4185 79.5063 31.4453Z" fill="#E6E280" stroke="#1D1E1C" stroke-width="0.178862" stroke-miterlimit="10"/>
<path d="M77.7085 31.9658C77.8033 31.9444 77.8981 31.9229 77.9929 31.8997C77.8963 31.9229 77.8015 31.9444 77.7085 31.9658Z" fill="#E6E280" stroke="#1D1E1C" stroke-width="0.178862" stroke-miterlimit="10"/>
<path d="M73.3604 31.4812C73.5177 31.6064 73.6912 31.7155 73.879 31.8067C73.6912 31.7155 73.5195 31.6064 73.3604 31.4812Z" fill="#E6E280" stroke="#1D1E1C" stroke-width="0.178862" stroke-miterlimit="10"/>
<path d="M74.647 32.073C74.6756 32.0802 74.706 32.0855 74.7364 32.0927C74.706 32.0873 74.6774 32.0802 74.647 32.073Z" fill="#E6E280" stroke="#1D1E1C" stroke-width="0.178862" stroke-miterlimit="10"/>
<path d="M77.2046 32.0641C77.2869 32.0498 77.3709 32.0337 77.455 32.0176C77.3709 32.0337 77.2869 32.0498 77.2046 32.0641Z" fill="#E6E280" stroke="#1D1E1C" stroke-width="0.178862" stroke-miterlimit="10"/>
<path d="M76.165 32.184C76.258 32.1786 76.3511 32.1732 76.4476 32.1643C76.3528 32.1732 76.258 32.1786 76.165 32.184Z" fill="#E6E280" stroke="#1D1E1C" stroke-width="0.178862" stroke-miterlimit="10"/>
<path d="M96.5269 18.5441C96.7164 18.3151 96.9025 18.088 97.0831 17.8608C96.9025 18.088 96.7164 18.3169 96.5269 18.5441Z" fill="#E6E280" stroke="#1D1E1C" stroke-width="0.178862" stroke-miterlimit="10"/>
<path d="M101.093 11.5058C101.122 11.4397 101.15 11.3753 101.179 11.3091C101.15 11.3735 101.124 11.4397 101.093 11.5058Z" fill="#E6E280" stroke="#1D1E1C" stroke-width="0.178862" stroke-miterlimit="10"/>
<path d="M99.8628 13.874C99.9433 13.738 100.02 13.6039 100.097 13.4697C100.02 13.6039 99.9433 13.738 99.8628 13.874Z" fill="#E6E280" stroke="#1D1E1C" stroke-width="0.178862" stroke-miterlimit="10"/>
<path d="M102.105 7.94994C102.105 7.94994 102.105 7.94279 102.105 7.93921C102.105 7.94279 102.105 7.94636 102.105 7.94994Z" fill="#E6E280" stroke="#1D1E1C" stroke-width="0.178862" stroke-miterlimit="10"/>
<path d="M102.116 7.18433C102.111 7.10027 102.106 7.01799 102.097 6.9375C102.106 7.01799 102.113 7.10027 102.116 7.18433Z" fill="#E6E280" stroke="#1D1E1C" stroke-width="0.178862" stroke-miterlimit="10"/>
<path d="M101.345 5.15625C101.386 5.20097 101.426 5.24568 101.463 5.29397C101.426 5.24747 101.386 5.20097 101.345 5.15625Z" fill="#E6E280" stroke="#1D1E1C" stroke-width="0.178862" stroke-miterlimit="10"/>
<path d="M98.5981 15.8361C98.8307 15.5034 99.0524 15.1725 99.2635 14.8452C99.0524 15.1725 98.8307 15.5034 98.5981 15.8361Z" fill="#E6E280" stroke="#1D1E1C" stroke-width="0.178862" stroke-miterlimit="10"/>
<path d="M102.124 7.52085C102.124 7.4976 102.124 7.47613 102.124 7.45288C102.124 7.47613 102.124 7.4976 102.124 7.52085Z" fill="#E6E280" stroke="#1D1E1C" stroke-width="0.178862" stroke-miterlimit="10"/>
<path d="M88.6392 26.1454C88.8842 25.954 89.131 25.7591 89.3761 25.5605C89.1292 25.7591 88.8842 25.954 88.6392 26.1454Z" fill="#E6E280" stroke="#1D1E1C" stroke-width="0.178862" stroke-miterlimit="10"/>
<path d="M83.8726 29.3793C84.1265 29.2326 84.3841 29.0806 84.6417 28.9214C84.3841 29.0788 84.1265 29.2308 83.8726 29.3793Z" fill="#E6E280" stroke="#1D1E1C" stroke-width="0.178862" stroke-miterlimit="10"/>
<path d="M80.5654 31.0375C80.7032 30.9803 80.8427 30.9195 80.9822 30.8586C80.8427 30.9195 80.7032 30.9803 80.5654 31.0375Z" fill="#E6E280" stroke="#1D1E1C" stroke-width="0.178862" stroke-miterlimit="10"/>
<path d="M80.1396 31.2093C80.2809 31.1539 80.4223 31.0984 80.5653 31.0376C80.4223 31.0966 80.2809 31.1539 80.1396 31.2093Z" fill="#E6E280" stroke="#1D1E1C" stroke-width="0.178862" stroke-miterlimit="10"/>
<path d="M82.8926 29.925C83.0285 29.8517 83.1662 29.7765 83.304 29.7014C83.1662 29.7783 83.0285 29.8534 82.8926 29.925Z" fill="#E6E280" stroke="#1D1E1C" stroke-width="0.178862" stroke-miterlimit="10"/>
<path d="M87.5352 26.9772C87.9018 26.7089 88.2703 26.4317 88.6387 26.1455C88.2703 26.4317 87.9018 26.7089 87.5352 26.9772Z" fill="#E6E280" stroke="#1D1E1C" stroke-width="0.178862" stroke-miterlimit="10"/>
<path d="M84.9976 28.7016C85.3553 28.478 85.7148 28.2437 86.0779 28.0005C85.7148 28.2437 85.3553 28.478 84.9976 28.7016Z" fill="#E6E280" stroke="#1D1E1C" stroke-width="0.178862" stroke-miterlimit="10"/>
<path d="M86.0781 28.0004C86.5611 27.6766 87.0476 27.335 87.5376 26.9773C87.0493 27.335 86.5611 27.6766 86.0781 28.0004Z" fill="#E6E280" stroke="#1D1E1C" stroke-width="0.178862" stroke-miterlimit="10"/>
<path d="M101.464 5.29375C101.818 5.73554 102.023 6.29179 102.097 6.93748C102.106 7.01797 102.113 7.10025 102.116 7.18432C102.122 7.27196 102.125 7.36139 102.125 7.45261C102.125 7.47586 102.125 7.49732 102.125 7.52058C102.125 7.65651 102.118 7.79602 102.107 7.93911C102.107 7.94269 102.107 7.94627 102.107 7.94984C102.063 8.49537 101.946 9.08561 101.762 9.71521C101.709 9.89407 101.651 10.0783 101.587 10.2625C101.555 10.3555 101.523 10.4485 101.487 10.5433C101.394 10.7937 101.292 11.0495 101.181 11.3107C101.152 11.375 101.125 11.4412 101.095 11.5074C101.022 11.672 100.947 11.8383 100.866 12.0064C100.818 12.1066 100.77 12.2085 100.718 12.3105C100.53 12.6897 100.322 13.076 100.099 13.4695C100.022 13.6037 99.945 13.7378 99.8645 13.8737C99.7375 14.0866 99.607 14.303 99.471 14.5194C99.4031 14.6285 99.3333 14.7359 99.2635 14.845C99.0525 15.1723 98.8307 15.5032 98.5982 15.8359C98.5213 15.9468 98.4426 16.0576 98.3621 16.1703C98.0437 16.6175 97.7074 17.0682 97.3533 17.5207C97.2656 17.6334 97.1744 17.7479 97.085 17.8606C96.9043 18.0877 96.7183 18.3167 96.5287 18.5438C95.1998 20.1429 93.6634 21.7615 91.9552 23.3355C91.1003 24.1225 90.24 24.8648 89.3778 25.5606C89.131 25.7591 88.886 25.9541 88.6409 26.1455C88.2725 26.4316 87.904 26.7089 87.5374 26.9772C87.0491 27.3349 86.5608 27.6765 86.0778 28.0003C85.7148 28.2435 85.3552 28.4778 84.9975 28.7014C84.8777 28.7765 84.7596 28.8498 84.6416 28.9214C84.384 29.0788 84.1265 29.2308 83.8725 29.3793C83.6829 29.4902 83.4933 29.5957 83.3037 29.7012C83.166 29.7781 83.0282 29.8533 82.8923 29.9248C82.7778 29.9856 82.6634 30.0464 82.5507 30.1055C82.0159 30.3827 81.4918 30.6331 80.9821 30.8585C80.8426 30.9193 80.703 30.9801 80.5653 31.0373C80.4222 31.0964 80.2809 31.1536 80.1396 31.209C80.0019 31.2627 79.8678 31.3146 79.7318 31.3646C79.6567 31.3933 79.5798 31.4201 79.5047 31.4469C79.3795 31.4916 79.2561 31.5328 79.1326 31.5739C79.0504 31.6007 78.9681 31.6276 78.8876 31.6526C78.5817 31.7474 78.283 31.8315 77.9915 31.9012C77.8949 31.9245 77.8001 31.9459 77.7071 31.9674C77.6213 31.9853 77.5372 32.0032 77.4531 32.0193C77.3691 32.0354 77.285 32.0515 77.2027 32.0658C76.9416 32.1105 76.6894 32.1445 76.4443 32.1659C76.3496 32.1749 76.2548 32.1802 76.1617 32.1856C75.872 32.1999 75.593 32.1999 75.33 32.1785H75.3247C75.119 32.1624 74.9222 32.1337 74.7326 32.0944C74.7022 32.089 74.6736 32.0819 74.6432 32.0747C74.366 32.0121 74.1102 31.9227 73.8759 31.8082C73.6881 31.717 73.5164 31.6079 73.3572 31.4827C73.2517 31.3986 73.1533 31.3092 73.0621 31.2108C70.44 28.3651 74.645 20.2251 82.4541 13.0313C90.2632 5.83749 98.718 2.31212 101.34 5.1596C101.381 5.20432 101.421 5.24903 101.458 5.29732L101.464 5.29375Z" fill="#1EB7D2" stroke="black" stroke-width="0.357724" stroke-linecap="round" stroke-linejoin="round"/>
<path d="M90.2115 21.5739C84.0211 27.2778 76.4606 30.4598 75.2175 27.9969C74.8615 25.1959 78.3189 19.6816 83.8368 14.5983C89.4567 9.42205 95.3502 6.40823 98.0474 7.13799C99.9219 9.17522 96.409 15.8647 90.2133 21.5739H90.2115Z" fill="white" stroke="black" stroke-width="0.357724" stroke-linejoin="round"/>
<path d="M90.8837 22.25C84.4519 28.1757 77.6587 31.2664 75.7127 29.1541C75.4354 28.8536 75.1618 28.0272 75.2065 27.9003C76.4514 30.365 84.019 27.2778 90.2112 21.5739C96.4088 15.8646 99.9198 9.17521 98.0453 7.13797C98.2349 7.12724 98.7608 7.42773 99.0058 7.69423C100.952 9.80659 97.3156 16.3243 90.8837 22.25V22.25Z" fill="white" stroke="black" stroke-width="0.357724" stroke-linejoin="round"/>
<path d="M72.6743 27.1186C72.6206 28.1775 72.1591 28.8214 72.3881 29.8624C72.4561 30.17 72.7708 30.8586 73.1125 31.186L70.1988 28.0219C69.2079 26.9451 69.1918 25.1118 69.9806 22.8582L72.8442 25.9668C72.7369 26.3388 72.6957 26.7305 72.6761 27.1169L72.6743 27.1186Z" fill="black"/>
<path d="M73.7344 24.0511C73.4428 24.704 73.3319 24.9794 72.9617 25.7414C72.9581 25.7485 72.9527 25.7539 72.9474 25.7593L70.0605 22.6274C70.4666 21.5256 71.0586 20.329 71.817 19.0752L74.6627 22.182C74.3836 22.6757 73.9633 23.536 73.7326 24.0529L73.7344 24.0511Z" fill="black"/>
<path d="M74.9363 21.8745L72.0352 18.7265C72.2856 18.3241 72.5539 17.9163 72.8365 17.5049L75.8074 20.7298C75.5391 21.1286 75.2475 21.5114 74.9345 21.8745H74.9363Z" fill="black"/>
<path d="M98.9201 4.27256C98.4783 4.22606 98.0419 4.23858 97.6001 4.26183C97.1851 4.2833 96.772 4.31191 96.3606 4.36736L93.5811 1.34996C95.7846 0.818743 97.5267 1.00476 98.4854 2.04573L101.05 4.82882C100.374 4.53728 99.6516 4.34769 98.9201 4.27078V4.27256Z" fill="black"/>
<path opacity="0.08" d="M90.1898 14.3694C90.7925 16.1991 90.4527 18.0736 90.1558 19.923C90.0467 20.6063 89.9734 21.2949 89.9161 21.9871C90.0342 21.8816 90.1522 21.776 90.2685 21.6687C96.466 15.9594 99.9771 9.27002 98.1026 7.23278C96.0386 6.67473 92.1036 8.30953 87.8521 11.4253C88.809 12.2552 89.7355 12.9939 90.1898 14.3694V14.3694Z" fill="url(#paint0_linear_15657_230702)"/>
<path opacity="0.08" d="M81.705 16.8411C80.7588 18.5188 80.2651 20.5739 80.1185 22.3643C80.0111 23.6682 80.1972 24.575 80.6533 25.7287C80.8983 26.3476 81.2703 27.0773 81.696 27.5889C82.8443 27.0451 84.0749 26.3511 85.3287 25.5284C85.3287 25.4747 85.3287 25.4228 85.3341 25.3692C85.4754 23.2515 85.495 21.1015 85.8438 19.0035C86.0298 17.8838 86.3876 14.4175 85.5362 13.4695C85.1713 13.0617 84.4326 14.201 84.4326 14.201C84.252 14.362 84.0713 14.5266 83.8907 14.6929C83.1198 15.4048 82.39 16.1238 81.7032 16.8428L81.705 16.8411Z" fill="url(#paint1_linear_15657_230702)"/>
<path opacity="0.08" d="M75.9022 25.0061C75.396 26.2152 75.1688 27.2705 75.2743 28.0915C75.582 28.6996 76.276 28.9625 77.2383 28.9285C76.5747 27.7159 76.1293 26.3386 75.9022 25.0061Z" fill="url(#paint2_linear_15657_230702)"/>
<path opacity="0.08" d="M79.8035 12.7845C78.9324 14.5159 77.8861 16.4118 77.2046 18.3757C78.6516 16.5639 80.3722 14.7144 82.3165 12.9222C90.1256 5.72842 98.5804 2.20306 101.202 5.05053L97.9848 2.78793C95.6882 0.294599 89.2098 1.78094 82.3147 7.25053C81.6708 9.16972 80.7031 10.9887 79.7999 12.7845H79.8035Z" fill="url(#paint3_linear_15657_230702)"/>
<g style="mix-blend-mode:multiply">
<path d="M87.5446 53.5615L86.6914 53.7064C86.9633 53.6724 87.2459 53.6259 87.5446 53.5615Z" fill="#EB95A3"/>
</g>
<path d="M117.311 101.847L117.928 105.408L118.538 105.097L118.053 102.21L117.311 101.847Z" fill="white"/>
<path d="M20.4638 27.1007C18.1636 26.4622 16.3357 26.5963 15.3251 27.6552L12.3506 30.7763C11.3419 31.8352 11.2954 33.6703 12.0448 35.9365L20.4638 27.1007V27.1007Z" fill="#1D1E1C"/>
<path d="M20.7019 27.1704L12.1255 36.1725C12.5136 37.2815 13.0842 38.487 13.8211 39.7533L24.3596 28.6907C23.0593 28.0164 21.827 27.5031 20.7001 27.1704H20.7019Z" fill="#1D1E1C"/>
<path d="M24.7228 28.8838L14.0322 40.1038C14.2773 40.5098 14.5366 40.923 14.8139 41.3397L25.9945 29.6046C25.5652 29.3488 25.1413 29.1092 24.7228 28.8838V28.8838Z" fill="#1D1E1C"/>
<path d="M43.5391 49.2366L35.2739 57.9114C37.4686 58.4801 39.2125 58.3227 40.189 57.2979L43.1635 54.1767C44.1401 53.1519 44.2134 51.4008 43.5391 49.2366V49.2366Z" fill="#1D1E1C"/>
<path d="M42.0547 45.8455C42.2711 46.2425 42.4714 46.6325 42.6539 47.0152C42.4714 46.6325 42.2711 46.2425 42.0547 45.8455Z" fill="#E6E280" stroke="#1D1E1C" stroke-width="0.178862" stroke-miterlimit="10"/>
<path d="M21.3975 27.394C21.5191 27.437 21.6425 27.4817 21.7677 27.5264C21.6425 27.4799 21.5191 27.4352 21.3975 27.394Z" fill="#E6E280" stroke="#1D1E1C" stroke-width="0.178862" stroke-miterlimit="10"/>
<path d="M17.6079 26.7252C17.8708 26.7091 18.1499 26.7127 18.4396 26.7324C18.1499 26.7127 17.8708 26.7091 17.6079 26.7252Z" fill="#E6E280" stroke="#1D1E1C" stroke-width="0.178862" stroke-miterlimit="10"/>
<path d="M43.0991 48.0222C43.2064 48.2851 43.3048 48.5427 43.3925 48.7949C43.3048 48.5427 43.2064 48.2851 43.0991 48.0222Z" fill="#E6E280" stroke="#1D1E1C" stroke-width="0.178862" stroke-miterlimit="10"/>
<path d="M41.4443 44.7849C41.5767 45.0031 41.7037 45.2213 41.8271 45.436C41.7037 45.2213 41.5767 45.0031 41.4443 44.7849Z" fill="#E6E280" stroke="#1D1E1C" stroke-width="0.178862" stroke-miterlimit="10"/>
<path d="M42.7969 47.321C42.8738 47.491 42.9471 47.6573 43.0169 47.8236C42.9471 47.6573 42.8738 47.491 42.7969 47.321Z" fill="#E6E280" stroke="#1D1E1C" stroke-width="0.178862" stroke-miterlimit="10"/>
<path d="M25.5366 29.333C25.7226 29.4403 25.9104 29.5512 26.0982 29.6639C25.9104 29.5512 25.7226 29.4403 25.5366 29.333Z" fill="#E6E280" stroke="#1D1E1C" stroke-width="0.178862" stroke-miterlimit="10"/>
<path d="M19.7256 26.9182C19.8097 26.9361 19.8937 26.9558 19.9778 26.9754C19.8919 26.9558 19.8079 26.9361 19.7256 26.9182Z" fill="#E6E280" stroke="#1D1E1C" stroke-width="0.178862" stroke-miterlimit="10"/>
<path d="M18.7202 26.7573C18.9635 26.7824 19.2157 26.8199 19.4768 26.87C19.2175 26.8217 18.9653 26.7842 18.7202 26.7573Z" fill="#E6E280" stroke="#1D1E1C" stroke-width="0.178862" stroke-miterlimit="10"/>
<path d="M39.3789 41.7476C39.7259 42.2072 40.055 42.6633 40.3662 43.1141C40.055 42.6615 39.7259 42.2054 39.3789 41.7476Z" fill="#E6E280" stroke="#1D1E1C" stroke-width="0.178862" stroke-miterlimit="10"/>
<path d="M43.4888 49.0757C43.5496 49.2617 43.605 49.4459 43.6551 49.6266C43.605 49.4459 43.5496 49.2617 43.4888 49.0757Z" fill="#E6E280" stroke="#1D1E1C" stroke-width="0.178862" stroke-miterlimit="10"/>
<path d="M43.9437 52.408C43.8614 53.0536 43.645 53.6045 43.2837 54.041C43.645 53.6045 43.8614 53.0536 43.9437 52.408Z" fill="#E6E280" stroke="#1D1E1C" stroke-width="0.178862" stroke-miterlimit="10"/>
<path d="M23.2329 28.1382C23.7391 28.3707 24.2596 28.6301 24.789 28.9162C24.2596 28.6301 23.7391 28.3707 23.2329 28.1382Z" fill="#E6E280" stroke="#1D1E1C" stroke-width="0.178862" stroke-miterlimit="10"/>
<path d="M16.1484 27.0704C16.3845 26.9595 16.6421 26.8754 16.9211 26.8164C16.6421 26.8754 16.3845 26.9595 16.1484 27.0704V27.0704Z" fill="#E6E280" stroke="#1D1E1C" stroke-width="0.178862" stroke-miterlimit="10"/>
<path d="M43.9808 51.8945C43.979 51.9858 43.9736 52.0752 43.9683 52.1628C43.9754 52.0752 43.979 51.9858 43.9808 51.8945Z" fill="#E6E280" stroke="#1D1E1C" stroke-width="0.178862" stroke-miterlimit="10"/>
<path d="M20.2622 27.0471C20.552 27.1222 20.8489 27.2117 21.1529 27.3118C20.8489 27.2117 20.552 27.1222 20.2622 27.0471Z" fill="#E6E280" stroke="#1D1E1C" stroke-width="0.178862" stroke-miterlimit="10"/>
<path d="M24.4114 45.9903C16.7239 38.6659 12.6566 30.4579 15.3252 27.657C15.4182 27.5604 15.5184 27.4709 15.6239 27.3887C15.5184 27.4709 15.4182 27.5586 15.3252 27.657L12.3507 30.7781C9.68211 33.5791 13.7494 41.7888 21.4369 49.1114C29.1244 56.4358 37.5202 60.1007 40.1888 57.2997L43.1632 54.1786C40.4946 56.9796 32.0989 53.3147 24.4114 45.9903Z" fill="white" stroke="black" stroke-width="0.357724" stroke-linejoin="round"/>
<path d="M43.6538 49.6265C43.8273 50.2578 43.9346 50.8517 43.9686 51.3972C43.9346 50.8517 43.8273 50.2578 43.6538 49.6265Z" fill="#E6E280" stroke="#1D1E1C" stroke-width="0.178862" stroke-miterlimit="10"/>
<path d="M17.0083 26.7984C17.1979 26.7627 17.3946 26.7376 17.6003 26.7251C17.3946 26.7376 17.1961 26.7627 17.0083 26.7984Z" fill="#E6E280" stroke="#1D1E1C" stroke-width="0.178862" stroke-miterlimit="10"/>
<path d="M21.9937 27.6123C22.1278 27.6642 22.2619 27.7178 22.3979 27.7733C22.2619 27.7178 22.1278 27.6642 21.9937 27.6123Z" fill="#E6E280" stroke="#1D1E1C" stroke-width="0.178862" stroke-miterlimit="10"/>
<path d="M43.9702 51.4082C43.9792 51.5513 43.9827 51.6908 43.9809 51.8267C43.9809 51.6908 43.9792 51.5513 43.9702 51.4082Z" fill="#E6E280" stroke="#1D1E1C" stroke-width="0.178862" stroke-miterlimit="10"/>
<path d="M21.1543 27.3101C21.2348 27.3369 21.3171 27.3637 21.3975 27.3923C21.3153 27.3637 21.2348 27.3369 21.1543 27.3101Z" fill="#E6E280" stroke="#1D1E1C" stroke-width="0.178862" stroke-miterlimit="10"/>
<path d="M21.7681 27.5264C21.8432 27.555 21.9183 27.5818 21.9934 27.6122C21.9183 27.5836 21.8432 27.555 21.7681 27.5264Z" fill="#E6E280" stroke="#1D1E1C" stroke-width="0.178862" stroke-miterlimit="10"/>
<path d="M19.9795 26.9756C20.0725 26.997 20.1673 27.0221 20.2639 27.0471C20.1691 27.0221 20.0743 26.9988 19.9795 26.9756Z" fill="#E6E280" stroke="#1D1E1C" stroke-width="0.178862" stroke-miterlimit="10"/>
<path d="M15.624 27.3869C15.7832 27.2635 15.9585 27.158 16.1481 27.0703C15.9585 27.1597 15.785 27.2635 15.624 27.3869Z" fill="#E6E280" stroke="#1D1E1C" stroke-width="0.178862" stroke-miterlimit="10"/>
<path d="M16.9189 26.8162C16.9494 26.8109 16.978 26.8037 17.0084 26.7983C16.978 26.8037 16.9494 26.8109 16.9189 26.8162Z" fill="#E6E280" stroke="#1D1E1C" stroke-width="0.178862" stroke-miterlimit="10"/>
<path d="M19.4771 26.8682C19.5593 26.8843 19.6416 26.9004 19.7257 26.9182C19.6416 26.9004 19.5593 26.8843 19.4771 26.8682Z" fill="#E6E280" stroke="#1D1E1C" stroke-width="0.178862" stroke-miterlimit="10"/>
<path d="M18.4395 26.7324C18.5325 26.7396 18.6255 26.7467 18.7203 26.7575C18.6255 26.7467 18.5307 26.7396 18.4395 26.7324Z" fill="#E6E280" stroke="#1D1E1C" stroke-width="0.178862" stroke-miterlimit="10"/>
<path d="M38.5703 40.7104C38.7563 40.9412 38.9388 41.1737 39.1158 41.4026C38.9388 41.1719 38.7563 40.9412 38.5703 40.7104Z" fill="#E6E280" stroke="#1D1E1C" stroke-width="0.178862" stroke-miterlimit="10"/>
<path d="M43.0166 47.8237C43.0452 47.8899 43.072 47.9561 43.0989 48.0205C43.072 47.9543 43.0452 47.8899 43.0166 47.8237Z" fill="#E6E280" stroke="#1D1E1C" stroke-width="0.178862" stroke-miterlimit="10"/>
<path d="M41.8271 45.4358C41.9058 45.5735 41.981 45.7094 42.0543 45.8454C41.981 45.7094 41.9041 45.5735 41.8271 45.4358Z" fill="#E6E280" stroke="#1D1E1C" stroke-width="0.178862" stroke-miterlimit="10"/>
<path d="M43.9702 51.3972C43.9702 51.3972 43.9702 51.4044 43.9702 51.4079C43.9702 51.4044 43.9702 51.4008 43.9702 51.3972Z" fill="#E6E280" stroke="#1D1E1C" stroke-width="0.178862" stroke-miterlimit="10"/>
<path d="M43.9684 52.1628C43.963 52.2469 43.9541 52.3274 43.9434 52.4079C43.9541 52.3274 43.9612 52.2451 43.9684 52.1628Z" fill="#E6E280" stroke="#1D1E1C" stroke-width="0.178862" stroke-miterlimit="10"/>
<path d="M43.1636 54.177C43.2047 54.134 43.2459 54.0875 43.2834 54.041C43.2459 54.0875 43.2047 54.1322 43.1636 54.177Z" fill="#E6E280" stroke="#1D1E1C" stroke-width="0.178862" stroke-miterlimit="10"/>
<path d="M40.5952 43.4541C40.8224 43.7904 41.037 44.1248 41.2427 44.4557C41.037 44.1248 40.8206 43.7904 40.5952 43.4541Z" fill="#E6E280" stroke="#1D1E1C" stroke-width="0.178862" stroke-miterlimit="10"/>
<path d="M43.9829 51.8267C43.9829 51.8499 43.9829 51.8714 43.9829 51.8946C43.9829 51.8714 43.9829 51.8499 43.9829 51.8267Z" fill="#E6E280" stroke="#1D1E1C" stroke-width="0.178862" stroke-miterlimit="10"/>
<path d="M30.8115 32.9783C31.0548 33.1732 31.2962 33.3718 31.5395 33.5757C31.2962 33.3736 31.0548 33.1732 30.8115 32.9783Z" fill="#E6E280" stroke="#1D1E1C" stroke-width="0.178862" stroke-miterlimit="10"/>
<path d="M26.0981 29.6638C26.3503 29.8159 26.6043 29.9715 26.8601 30.1342C26.6043 29.9715 26.3503 29.8159 26.0981 29.6638Z" fill="#E6E280" stroke="#1D1E1C" stroke-width="0.178862" stroke-miterlimit="10"/>
<path d="M22.8198 27.9521C22.9558 28.0112 23.0953 28.0738 23.233 28.1382C23.0953 28.0738 22.9558 28.0112 22.8198 27.9521Z" fill="#E6E280" stroke="#1D1E1C" stroke-width="0.178862" stroke-miterlimit="10"/>
<path d="M22.3975 27.7732C22.537 27.8304 22.6783 27.8895 22.8196 27.9521C22.6783 27.8895 22.537 27.8304 22.3975 27.7732Z" fill="#E6E280" stroke="#1D1E1C" stroke-width="0.178862" stroke-miterlimit="10"/>
<path d="M25.1289 29.1021C25.2648 29.1772 25.4008 29.2541 25.5367 29.3328C25.4008 29.2541 25.2648 29.1772 25.1289 29.1021Z" fill="#E6E280" stroke="#1D1E1C" stroke-width="0.178862" stroke-miterlimit="10"/>
<path d="M29.7222 32.1287C30.0835 32.4023 30.4483 32.6867 30.8114 32.9783C30.4483 32.6849 30.0853 32.4023 29.7222 32.1287Z" fill="#E6E280" stroke="#1D1E1C" stroke-width="0.178862" stroke-miterlimit="10"/>
<path d="M27.2124 30.3613C27.5665 30.5921 27.9225 30.8317 28.2802 31.0804C27.9225 30.8317 27.5665 30.5921 27.2124 30.3613Z" fill="#E6E280" stroke="#1D1E1C" stroke-width="0.178862" stroke-miterlimit="10"/>
<path d="M28.2803 31.0806C28.7578 31.4132 29.239 31.762 29.7219 32.1287C29.239 31.762 28.7578 31.4132 28.2803 31.0806Z" fill="#E6E280" stroke="#1D1E1C" stroke-width="0.178862" stroke-miterlimit="10"/>
<path d="M43.2834 54.0427C43.6447 53.6063 43.8611 53.0554 43.9434 52.4097C43.9541 52.3292 43.9613 52.2469 43.9684 52.1647C43.9756 52.077 43.9792 51.9876 43.9809 51.8964C43.9809 51.8731 43.9809 51.8516 43.9809 51.8284C43.9809 51.6925 43.9792 51.553 43.9702 51.4099C43.9702 51.4063 43.9702 51.4027 43.9702 51.3991C43.9362 50.8536 43.8289 50.2598 43.6554 49.6284C43.6053 49.4477 43.5499 49.2635 43.4891 49.0775C43.4587 48.9845 43.4265 48.8897 43.3943 48.7949C43.3066 48.5427 43.2083 48.2851 43.1009 48.0222C43.0741 47.956 43.0473 47.8916 43.0187 47.8255C42.9489 47.6591 42.8756 47.4928 42.7987 47.3229C42.7522 47.2209 42.7057 47.119 42.6556 47.017C42.4731 46.6343 42.2728 46.2443 42.0564 45.8473C41.9831 45.7113 41.9061 45.5754 41.8292 45.4377C41.7058 45.223 41.5788 45.0048 41.4465 44.7866C41.3803 44.6775 41.3123 44.5666 41.2444 44.4575C41.0387 44.1266 40.8222 43.7921 40.5969 43.4559C40.5218 43.3432 40.4448 43.2305 40.3661 43.1178C40.0549 42.6653 39.7258 42.2092 39.3788 41.7513C39.293 41.6369 39.2053 41.5206 39.1159 41.4061C38.9388 41.1754 38.7564 40.9447 38.5704 40.7139C37.2683 39.0934 35.7587 37.4479 34.0774 35.8471C33.2367 35.0458 32.3871 34.2892 31.5375 33.5791C31.2943 33.377 31.0528 33.1767 30.8096 32.9817C30.4465 32.6884 30.0834 32.4058 29.7203 32.1321C29.2374 31.7655 28.7562 31.4167 28.2787 31.084C27.9209 30.8354 27.565 30.5957 27.2109 30.365C27.0928 30.2881 26.9748 30.2129 26.8585 30.1378C26.6027 29.9751 26.3488 29.8195 26.0966 29.6674C25.9088 29.5547 25.7209 29.4438 25.5349 29.3365C25.399 29.2578 25.2631 29.1809 25.1271 29.1058C25.0144 29.0432 24.9 28.9806 24.7891 28.9198C24.2596 28.6336 23.7392 28.3743 23.233 28.1417C23.0953 28.0773 22.9557 28.0147 22.8198 27.9557C22.6785 27.8931 22.5372 27.8341 22.3977 27.7769C22.2618 27.7214 22.1276 27.6677 21.9935 27.6159C21.9183 27.5873 21.8432 27.5586 21.7681 27.53C21.6429 27.4835 21.5195 27.4388 21.3979 27.3977C21.3156 27.369 21.2351 27.3422 21.1546 27.3154C20.8505 27.2152 20.5536 27.1258 20.2639 27.0507C20.1691 27.0256 20.0743 27.0024 19.9795 26.9791C19.8936 26.9595 19.8096 26.9398 19.7273 26.9219C19.6432 26.904 19.5609 26.8879 19.4787 26.8718C19.2193 26.8235 18.9671 26.786 18.7221 26.7591C18.6273 26.7484 18.5325 26.7412 18.4413 26.7341C18.1515 26.7144 17.8725 26.7108 17.6096 26.7269H17.6042C17.3985 26.7395 17.2 26.7645 17.0122 26.8003C16.9818 26.8056 16.9531 26.8128 16.9227 26.8182C16.6437 26.8772 16.3861 26.9612 16.1501 27.0721C15.9605 27.1616 15.787 27.2653 15.626 27.3887C15.5205 27.471 15.4203 27.5586 15.3273 27.657C12.6587 30.458 16.726 38.6677 24.4135 45.9903C32.1009 53.3147 40.4967 56.9796 43.1653 54.1786C43.2065 54.1357 43.2476 54.0892 43.2852 54.0427H43.2834Z" fill="#1EB7D2" stroke="black" stroke-width="0.357724" stroke-linecap="round" stroke-linejoin="round"/>
<path d="M32.3065 37.5766C26.2127 31.7708 18.7077 28.4601 17.4217 30.9033C17.0192 33.6971 20.3836 39.2687 25.8139 44.4431C31.3461 49.7124 37.1877 52.8246 39.8974 52.1396C41.8059 50.1345 38.4057 43.3861 32.3065 37.5748V37.5766Z" fill="white" stroke="black" stroke-width="0.357724" stroke-linejoin="round"/>
<path d="M32.9897 36.9114C26.658 30.8783 19.9185 27.6731 17.9367 29.7533C17.6541 30.0484 17.4144 30.8175 17.4215 30.9016C18.7076 28.4583 26.2108 31.7673 32.3064 37.5749C38.4074 43.3879 41.8058 50.1346 39.8973 52.1396C40.0368 52.1808 40.6163 51.8624 40.8667 51.5995C42.8485 49.5193 39.3214 42.9426 32.9897 36.9096V36.9114Z" fill="white" stroke="black" stroke-width="0.357724" stroke-linejoin="round"/>
<path d="M14.8639 31.7386C14.8281 30.678 14.3774 30.0269 14.6224 28.9895C14.6957 28.6819 15.0213 27.9986 15.3682 27.6785L12.4009 30.7925C11.3921 31.8513 11.3456 33.6864 12.0951 35.9526L15.0105 32.8923C14.9104 32.5185 14.8746 32.1268 14.8621 31.7404L14.8639 31.7386Z" fill="black"/>
<path d="M15.8729 34.8222C15.592 34.164 15.4865 33.8868 15.1288 33.1194C15.1252 33.1123 15.1198 33.1069 15.1145 33.1016L12.1758 36.1851C12.5639 37.2941 13.1345 38.4996 13.8714 39.766L16.769 36.7074C16.4989 36.2084 16.0929 35.3409 15.8711 34.8222H15.8729Z" fill="black"/>
<path d="M17.037 37.0203L14.084 40.1199C14.329 40.526 14.5884 40.9391 14.8656 41.3559L17.8902 38.1811C17.629 37.7786 17.3428 37.3905 17.037 37.0221V37.0203Z" fill="black"/>
<path d="M40.7237 55.0211C40.282 55.0604 39.8455 55.0407 39.4037 55.0085C38.9906 54.9799 38.5774 54.9441 38.166 54.8815L35.3364 57.8524C37.5311 58.4212 39.275 58.2638 40.2515 57.2389L42.8629 54.4988C42.1815 54.7778 41.4553 54.9549 40.7237 55.0211V55.0211Z" fill="black"/>
<g style="mix-blend-mode:multiply">
<path style="mix-blend-mode:multiply" opacity="0.08" d="M31.1671 45.3714C31.2726 43.8904 31.5266 42.4148 32.0614 41.0232C32.3923 40.1593 32.8377 39.3455 33.3778 38.6032C33.0201 38.2366 32.6517 37.8717 32.2743 37.5122C31.777 37.0382 31.269 36.5821 30.7557 36.1421C30.5447 36.3728 30.3515 36.6214 30.1762 36.8844C29.5126 37.8824 29.137 39.0343 28.8938 40.2005C28.7614 40.839 28.6845 41.4829 28.5754 42.125C28.4663 42.7653 28.325 43.4021 28.1425 44.0263C27.9583 44.6595 27.7294 45.2891 27.4414 45.8865C28.6237 46.9114 29.8042 47.8307 30.9489 48.632C31.0759 47.5481 31.0884 46.4606 31.1671 45.3714V45.3714Z" fill="url(#paint4_linear_15657_230702)"/>
<path style="mix-blend-mode:multiply" opacity="0.08" d="M34.3366 39.6245C33.6891 40.7317 33.2938 41.9551 33.1507 43.2339C32.9933 44.6434 33.1167 46.0725 33.2849 47.4748C33.394 48.3887 33.4655 49.3027 33.4601 50.2221C36.1305 51.737 38.4361 52.4382 39.867 52.0769C41.5483 50.3115 39.1086 44.8687 34.3366 39.6245Z" fill="url(#paint5_linear_15657_230702)"/>
</g>
<g style="mix-blend-mode:multiply">
<g style="mix-blend-mode:multiply">
<path d="M42.2119 45.7363C42.4283 46.1334 42.6287 46.5233 42.8111 46.9061C42.6287 46.5233 42.4283 46.1334 42.2119 45.7363Z" fill="#E6E280"/>
</g>
<g style="mix-blend-mode:multiply">
<path d="M21.5537 27.2847C21.6753 27.3276 21.7988 27.3723 21.924 27.417C21.7988 27.3705 21.6753 27.3258 21.5537 27.2847Z" fill="#E6E280"/>
</g>
<g style="mix-blend-mode:multiply">
<path d="M17.7632 26.6159C18.0261 26.5998 18.3051 26.6033 18.5949 26.623C18.3051 26.6033 18.0261 26.5998 17.7632 26.6159Z" fill="#E6E280"/>
</g>
<g style="mix-blend-mode:multiply">
<path d="M43.2563 47.9131C43.3637 48.176 43.462 48.4336 43.5497 48.6858C43.462 48.4336 43.3637 48.176 43.2563 47.9131Z" fill="#E6E280"/>
</g>
<g style="mix-blend-mode:multiply">
<path d="M41.6021 44.6755C41.7344 44.8937 41.8614 45.112 41.9848 45.3266C41.8614 45.112 41.7344 44.8937 41.6021 44.6755Z" fill="#E6E280"/>
</g>
<g style="mix-blend-mode:multiply">
<path d="M42.9521 47.2119C43.0291 47.3818 43.1024 47.5482 43.1721 47.7145C43.1024 47.5482 43.0291 47.3818 42.9521 47.2119Z" fill="#E6E280"/>
</g>
<g style="mix-blend-mode:multiply">
<path d="M25.6924 29.2239C25.8784 29.3312 26.0662 29.4421 26.254 29.5548C26.0662 29.4421 25.8784 29.3312 25.6924 29.2239Z" fill="#E6E280"/>
</g>
<g style="mix-blend-mode:multiply">
<path d="M19.8828 26.8091C19.9669 26.827 20.0509 26.8466 20.135 26.8663C20.0492 26.8466 19.9651 26.827 19.8828 26.8091Z" fill="#E6E280"/>
</g>
<g style="mix-blend-mode:multiply">
<path d="M18.8774 26.6482C19.1207 26.6732 19.3729 26.7108 19.634 26.7609C19.3747 26.7126 19.1225 26.675 18.8774 26.6482Z" fill="#E6E280"/>
</g>
<g style="mix-blend-mode:multiply">
<path d="M39.5342 41.6404C39.8812 42.1001 40.2103 42.5562 40.5215 43.0069C40.2103 42.5544 39.8812 42.0983 39.5342 41.6404Z" fill="#E6E280"/>
</g>
<g style="mix-blend-mode:multiply">
<path d="M44.099 52.3005C44.0167 52.9462 43.8003 53.4971 43.439 53.9335C43.8003 53.4971 44.0167 52.9462 44.099 52.3005Z" fill="#E6E280"/>
</g>
<g style="mix-blend-mode:multiply">
<path d="M23.3887 28.0291C23.8949 28.2616 24.4153 28.5209 24.9448 28.8071C24.4153 28.5209 23.8949 28.2616 23.3887 28.0291Z" fill="#E6E280"/>
</g>
<g style="mix-blend-mode:multiply">
<path d="M16.3037 26.961C16.5398 26.8501 16.7974 26.7661 17.0764 26.707C16.7974 26.7661 16.5398 26.8501 16.3037 26.961V26.961Z" fill="#E6E280"/>
</g>
<g style="mix-blend-mode:multiply">
<path d="M44.1365 51.7854C44.1348 51.8766 44.1294 51.9661 44.124 52.0537C44.1312 51.9661 44.1348 51.8766 44.1365 51.7854Z" fill="#E6E280"/>
</g>
<g style="mix-blend-mode:multiply">
<path d="M20.4194 26.938C20.7092 27.0131 21.0061 27.1025 21.3102 27.2027C21.0061 27.1025 20.7092 27.0131 20.4194 26.938Z" fill="#E6E280"/>
</g>
<path style="mix-blend-mode:multiply" opacity="0.08" d="M16.6756 36.0312C14.5847 32.2662 14.0124 29.0878 15.4808 27.546C15.5273 27.4977 15.5756 27.4512 15.6257 27.4065C15.5756 27.4512 15.5273 27.4977 15.4808 27.546L13.6529 31.0034C11.9447 32.7956 11.8517 36.4676 14.8441 41.0393C15.801 39.5691 16.3215 37.8824 16.6756 36.0312Z" fill="url(#paint6_linear_15657_230702)"/>
<path style="mix-blend-mode:multiply" opacity="0.08" d="M17.5916 44.733C18.5378 45.8706 19.5824 47.0153 20.7146 48.1457C21.6303 46.9241 22.2885 45.4914 22.7017 44.0122C21.6697 42.9247 20.7217 41.8319 19.865 40.7498C19.3141 42.186 18.5861 43.5275 17.5898 44.7348L17.5916 44.733Z" fill="url(#paint7_linear_15657_230702)"/>
<path style="mix-blend-mode:multiply" opacity="0.08" d="M31.6554 51.5026C29.8686 50.3579 28.012 48.9592 26.1679 47.3423C25.6045 48.7016 24.8766 49.9877 23.9697 51.1324C25.651 52.549 27.3341 53.7795 28.9546 54.7972C29.8543 53.699 30.7468 52.5937 31.6554 51.5026Z" fill="url(#paint8_linear_15657_230702)"/>
<g style="mix-blend-mode:multiply" opacity="0.31">
<path d="M35.0163 53.6489C34.1148 54.7257 33.2312 55.8167 32.3423 56.9042C35.7192 58.3727 38.4719 58.5855 39.8008 57.1886L42.7753 54.0675C41.4052 55.5037 38.5291 55.2372 35.0145 53.6489H35.0163Z" fill="#C4C4C4"/>
</g>
<g style="mix-blend-mode:multiply">
<path d="M43.811 49.5173C43.9845 50.1487 44.0918 50.7425 44.1258 51.2881C44.0918 50.7425 43.9845 50.1487 43.811 49.5173Z" fill="#E6E280"/>
</g>
<g style="mix-blend-mode:multiply">
<path d="M17.166 26.6893C17.3556 26.6535 17.5524 26.6285 17.758 26.616C17.5524 26.6285 17.3538 26.6535 17.166 26.6893Z" fill="#E6E280"/>
</g>
<g style="mix-blend-mode:multiply">
<path d="M22.1489 27.5032C22.2831 27.555 22.4172 27.6087 22.5532 27.6641C22.4172 27.6087 22.2831 27.555 22.1489 27.5032Z" fill="#E6E280"/>
</g>
<g style="mix-blend-mode:multiply">
<path d="M44.126 51.2988C44.1349 51.4419 44.1385 51.5814 44.1367 51.7174C44.1367 51.5814 44.1349 51.4419 44.126 51.2988Z" fill="#E6E280"/>
</g>
<g style="mix-blend-mode:multiply">
<path d="M21.3101 27.2026C21.3905 27.2295 21.4728 27.2563 21.5533 27.2849C21.471 27.2563 21.3905 27.2295 21.3101 27.2026Z" fill="#E6E280"/>
</g>
<g style="mix-blend-mode:multiply">
<path d="M21.9238 27.4172C21.999 27.4459 22.0741 27.4727 22.1492 27.5031C22.0741 27.4745 21.999 27.4459 21.9238 27.4172Z" fill="#E6E280"/>
</g>
<g style="mix-blend-mode:multiply">
<path d="M20.1353 26.8662C20.2283 26.8877 20.3231 26.9127 20.4196 26.9378C20.3248 26.9127 20.2301 26.8895 20.1353 26.8662Z" fill="#E6E280"/>
</g>
<g style="mix-blend-mode:multiply">
<path d="M15.7812 27.2795C15.9404 27.1561 16.1157 27.0505 16.3053 26.9629C16.1157 27.0523 15.9422 27.1561 15.7812 27.2795V27.2795Z" fill="#E6E280"/>
</g>
<g style="mix-blend-mode:multiply">
<path d="M19.6323 26.759C19.7146 26.7751 19.7969 26.7912 19.8809 26.8091C19.7969 26.7912 19.7146 26.7751 19.6323 26.759Z" fill="#E6E280"/>
</g>
<g style="mix-blend-mode:multiply">
<path d="M18.5952 26.623C18.6882 26.6302 18.7812 26.6374 18.876 26.6481C18.7812 26.6374 18.6864 26.6302 18.5952 26.623Z" fill="#E6E280"/>
</g>
<g style="mix-blend-mode:multiply">
<path d="M38.7261 40.6013C38.9121 40.8321 39.0945 41.0646 39.2716 41.2935C39.0945 41.0628 38.9121 40.8321 38.7261 40.6013Z" fill="#E6E280"/>
</g>
<g style="mix-blend-mode:multiply">
<path d="M43.1743 47.7144C43.2029 47.7805 43.2298 47.8467 43.2566 47.9111C43.2298 47.8449 43.2029 47.7805 43.1743 47.7144Z" fill="#E6E280"/>
</g>
<g style="mix-blend-mode:multiply">
<path d="M41.9834 45.3284C42.0621 45.4661 42.1372 45.602 42.2106 45.738C42.1372 45.602 42.0603 45.4661 41.9834 45.3284Z" fill="#E6E280"/>
</g>
<g style="mix-blend-mode:multiply">
<path d="M44.1237 52.0537C44.1183 52.1378 44.1094 52.2183 44.0986 52.2988C44.1094 52.2183 44.1165 52.136 44.1237 52.0537Z" fill="#E6E280"/>
</g>
<g style="mix-blend-mode:multiply">
<path d="M43.3188 54.0676C43.36 54.0246 43.4011 53.9781 43.4387 53.9316C43.4011 53.9781 43.36 54.0229 43.3188 54.0676Z" fill="#E6E280"/>
</g>
<g style="mix-blend-mode:multiply">
<path d="M40.7505 43.345C40.9776 43.6812 41.1923 44.0157 41.398 44.3466C41.1923 44.0157 40.9759 43.6812 40.7505 43.345Z" fill="#E6E280"/>
</g>
<g style="mix-blend-mode:multiply">
<path d="M30.9668 32.8689C31.21 33.0639 31.4515 33.2624 31.6948 33.4663C31.4515 33.2642 31.21 33.0639 30.9668 32.8689Z" fill="#E6E280"/>
</g>
<g style="mix-blend-mode:multiply">
<path d="M26.2539 29.5544C26.5061 29.7065 26.7601 29.8621 27.0159 30.0249C26.7601 29.8621 26.5061 29.7065 26.2539 29.5544Z" fill="#E6E280"/>
</g>
<g style="mix-blend-mode:multiply">
<path d="M22.9756 27.843C23.1115 27.902 23.251 27.9646 23.3888 28.029C23.251 27.9646 23.1115 27.902 22.9756 27.843Z" fill="#E6E280"/>
</g>
<g style="mix-blend-mode:multiply">
<path d="M22.5532 27.6641C22.6927 27.7213 22.834 27.7803 22.9753 27.8429C22.834 27.7803 22.6927 27.7213 22.5532 27.6641Z" fill="#E6E280"/>
</g>
<g style="mix-blend-mode:multiply">
<path d="M25.2847 28.9929C25.4206 29.068 25.5565 29.145 25.6925 29.2237C25.5565 29.145 25.4206 29.068 25.2847 28.9929Z" fill="#E6E280"/>
</g>
<g style="mix-blend-mode:multiply">
<path d="M29.8774 32.0193C30.2387 32.2929 30.6036 32.5773 30.9667 32.8689C30.6036 32.5755 30.2405 32.2929 29.8774 32.0193Z" fill="#E6E280"/>
</g>
<g style="mix-blend-mode:multiply">
<path d="M27.3682 30.2522C27.7223 30.4829 28.0782 30.7226 28.436 30.9712C28.0782 30.7226 27.7223 30.4829 27.3682 30.2522Z" fill="#E6E280"/>
</g>
<g style="mix-blend-mode:multiply">
<path d="M28.436 30.9712C28.9136 31.3039 29.3947 31.6527 29.8777 32.0193C29.3947 31.6527 28.9136 31.3039 28.436 30.9712Z" fill="#E6E280"/>
</g>
<path style="mix-blend-mode:multiply" opacity="0.08" d="M16.7188 35.8114C16.7456 35.6612 16.785 35.5127 16.8315 35.3696C16.5829 34.2553 16.37 33.1768 16.3164 32.0303C16.2323 30.2184 16.5918 28.4298 17.1123 26.7002C17.0998 26.702 17.0873 26.7056 17.0747 26.7073C16.7957 26.7664 16.5382 26.8504 16.3021 26.9613C16.1125 27.0508 15.939 27.1545 15.778 27.2779C15.6725 27.3602 15.5723 27.4478 15.4793 27.5462C14.0108 29.088 14.585 32.2646 16.6741 36.0314C16.6884 35.9581 16.7027 35.8847 16.717 35.8114H16.7188Z" fill="url(#paint9_linear_15657_230702)"/>
<path style="mix-blend-mode:multiply" opacity="0.08" d="M42.9986 51.6226C42.2277 52.6028 41.1384 53.2771 39.915 53.5132C38.5789 53.7707 37.2339 53.5847 35.9622 53.1555C35.9461 53.1751 35.9336 53.1966 35.9175 53.2181C35.7958 53.3612 35.6778 53.506 35.5562 53.6509C39.0708 55.2392 41.9469 55.5057 43.317 54.0694C43.3581 54.0265 43.3992 53.98 43.4368 53.9335C43.7981 53.4971 44.0145 52.9462 44.0968 52.3005C44.1075 52.22 44.1147 52.1377 44.1218 52.0555C44.129 51.9678 44.1326 51.8784 44.1344 51.7872C44.1344 51.7639 44.1344 51.7425 44.1344 51.7192C44.1344 51.5833 44.1326 51.4438 44.1236 51.3007C44.1236 51.2971 44.1236 51.2935 44.1236 51.2899C44.0968 50.8642 44.0253 50.4099 43.9126 49.9324C43.7033 50.5369 43.4028 51.1093 42.9968 51.6244L42.9986 51.6226Z" fill="url(#paint10_linear_15657_230702)"/>
</g>
<path opacity="0.08" d="M22.5979 127.467C24.7389 130.942 26.531 132.103 30.5697 132.679C37.0195 133.6 47.0322 130.88 52.3372 129.919C71.8063 126.394 91.8871 123.634 106.79 120.027C109.993 119.25 112.841 117.004 114.821 114.323C115.781 113.021 116.493 111.545 116.847 109.964C117.579 106.705 116.608 105.566 113.114 106.088L113.946 106.018C103.608 106.884 93.9637 110.645 83.8777 112.792C75.4873 114.578 67.2114 114.662 58.7727 113.36C51.9992 112.316 45.2954 110.885 38.5613 109.626C31.9541 108.39 26.4309 107.361 19.6842 107.844C19.627 107.297 20.7538 119.352 21.9844 124.707C22.1579 125.466 22.2026 126.825 22.5979 127.467V127.467Z" fill="url(#paint11_linear_15657_230702)"/>
<path opacity="0.08" d="M54.6425 65.3395C67.9856 66.1802 80.8547 68.8541 94.0225 70.9486C99.5458 71.8233 109.473 72.054 111.338 67.7774C110.973 65.0122 110.58 63.7441 110.138 61.8141C109.964 61.0558 109.401 59.48 109.008 58.8397C106.867 55.3644 105.005 54.5166 101.03 53.5937C96.0508 52.4382 86.031 54.9834 80.7259 55.9439C65.2347 58.7502 48.1087 60.9091 34.7603 63.558C36.5042 63.2128 39.2694 64.125 41.0616 64.3146C45.5832 64.7958 50.1138 65.0533 54.6461 65.3377L54.6425 65.3395Z" fill="url(#paint12_linear_15657_230702)"/>
<path d="M98.3154 47.4483L107.389 46.9135L101.503 40.7141L91.9282 41.4296L98.3154 47.4483Z" fill="url(#paint13_linear_15657_230702)" stroke="black" stroke-width="0.357724" stroke-linecap="round" stroke-linejoin="round"/>
<path d="M107.389 46.9133L110.489 38.2188L104.987 31.8567L101.503 40.7139L107.389 46.9133Z" fill="black" stroke="black" stroke-width="0.357724" stroke-linecap="round" stroke-linejoin="round"/>
<path d="M91.9282 41.4294L101.503 40.7139L104.987 31.8567L95.4232 32.9889L91.9282 41.4294Z" fill="white" stroke="black" stroke-width="0.357724" stroke-linecap="round" stroke-linejoin="round"/>
<path d="M45.0573 14.1511L40.7539 19.0537L46.8871 19.1772L51.3533 13.9258L45.0573 14.1511Z" fill="url(#paint14_linear_15657_230702)" stroke="black" stroke-width="0.357724" stroke-linecap="round" stroke-linejoin="round"/>
<path d="M40.7539 19.054L43.6282 25.0226L49.6523 25.4232L46.8871 19.1774L40.7539 19.054Z" fill="black" stroke="black" stroke-width="0.357724" stroke-linecap="round" stroke-linejoin="round"/>
<path d="M51.3534 13.9258L46.8872 19.1772L49.6524 25.423L53.8986 19.9677L51.3534 13.9258Z" fill="white" stroke="black" stroke-width="0.357724" stroke-linecap="round" stroke-linejoin="round"/>
<path d="M104.663 77.8993C104.828 79.3284 105.371 82.8645 105.91 86.1466C106.48 89.4216 107.133 92.9398 107.448 94.3439C108.609 99.5255 116.488 98.0123 116.488 98.0123L114.27 84.73L111.989 71.4585C111.989 71.4585 104.051 72.6247 104.661 77.8993H104.663Z" fill="url(#paint15_linear_15657_230702)" stroke="black" stroke-width="0.357724" stroke-miterlimit="10"/>
<defs>
<linearGradient id="paint0_linear_15657_230702" x1="93.2304" y1="7.12368" x2="93.2304" y2="21.9871" gradientUnits="userSpaceOnUse">
<stop/>
<stop offset="1" stop-color="white" stop-opacity="0.3"/>
</linearGradient>
<linearGradient id="paint1_linear_15657_230702" x1="83.084" y1="13.3801" x2="83.084" y2="27.5889" gradientUnits="userSpaceOnUse">
<stop/>
<stop offset="1" stop-color="white" stop-opacity="0.3"/>
</linearGradient>
<linearGradient id="paint2_linear_15657_230702" x1="75.2493" y1="26.9682" x2="77.2383" y2="26.9682" gradientUnits="userSpaceOnUse">
<stop/>
<stop offset="1" stop-color="white" stop-opacity="0.3"/>
</linearGradient>
<linearGradient id="paint3_linear_15657_230702" x1="89.2044" y1="1.61639" x2="89.2044" y2="18.3757" gradientUnits="userSpaceOnUse">
<stop/>
<stop offset="1" stop-color="white" stop-opacity="0.3"/>
</linearGradient>
<linearGradient id="paint4_linear_15657_230702" x1="27.3967" y1="45.8436" x2="34.011" y2="39.2292" gradientUnits="userSpaceOnUse">
<stop/>
<stop offset="1" stop-color="white" stop-opacity="0.3"/>
</linearGradient>
<linearGradient id="paint5_linear_15657_230702" x1="33.0935" y1="49.8572" x2="38.8314" y2="44.1193" gradientUnits="userSpaceOnUse">
<stop/>
<stop offset="1" stop-color="white" stop-opacity="0.3"/>
</linearGradient>
<linearGradient id="paint6_linear_15657_230702" x1="12.4616" y1="34.2229" x2="16.6756" y2="34.2229" gradientUnits="userSpaceOnUse">
<stop/>
<stop offset="1" stop-color="white" stop-opacity="0.3"/>
</linearGradient>
<linearGradient id="paint7_linear_15657_230702" x1="20.1476" y1="48.1439" x2="20.1476" y2="40.748" gradientUnits="userSpaceOnUse">
<stop/>
<stop offset="1" stop-color="white" stop-opacity="0.3"/>
</linearGradient>
<linearGradient id="paint8_linear_15657_230702" x1="27.8135" y1="54.7972" x2="27.8135" y2="47.3423" gradientUnits="userSpaceOnUse">
<stop/>
<stop offset="1" stop-color="white" stop-opacity="0.3"/>
</linearGradient>
<linearGradient id="paint9_linear_15657_230702" x1="14.6637" y1="31.3649" x2="17.1141" y2="31.3649" gradientUnits="userSpaceOnUse">
<stop/>
<stop offset="1" stop-color="white" stop-opacity="0.3"/>
</linearGradient>
<linearGradient id="paint10_linear_15657_230702" x1="39.8488" y1="55.0085" x2="39.8488" y2="49.9306" gradientUnits="userSpaceOnUse">
<stop/>
<stop offset="1" stop-color="white" stop-opacity="0.3"/>
</linearGradient>
<linearGradient id="paint11_linear_15657_230702" x1="68.3793" y1="132.867" x2="68.3793" y2="105.968" gradientUnits="userSpaceOnUse">
<stop/>
<stop offset="1" stop-color="white" stop-opacity="0.3"/>
</linearGradient>
<linearGradient id="paint12_linear_15657_230702" x1="73.0474" y1="53.3003" x2="73.0474" y2="71.4655" gradientUnits="userSpaceOnUse">
<stop/>
<stop offset="1" stop-color="white" stop-opacity="0.3"/>
</linearGradient>
<linearGradient id="paint13_linear_15657_230702" x1="91.8462" y1="41.7714" x2="107.583" y2="46.2986" gradientUnits="userSpaceOnUse">
<stop stop-color="#10BBD5"/>
<stop offset="0.22" stop-color="#13BCD2"/>
<stop offset="0.43" stop-color="#1FC0CB"/>
<stop offset="0.64" stop-color="#33C6BE"/>
<stop offset="0.85" stop-color="#4FCFAD"/>
<stop offset="1" stop-color="#67D79F"/>
</linearGradient>
<linearGradient id="paint14_linear_15657_230702" x1="51.1591" y1="13.7836" x2="40.9086" y2="19.5335" gradientUnits="userSpaceOnUse">
<stop stop-color="#10BBD5"/>
<stop offset="0.21" stop-color="#14BCD2"/>
<stop offset="0.43" stop-color="#20C0CB"/>
<stop offset="0.64" stop-color="#34C6BE"/>
<stop offset="0.86" stop-color="#50CFAD"/>
<stop offset="1" stop-color="#67D79F"/>
</linearGradient>
<linearGradient id="paint15_linear_15657_230702" x1="112.791" y1="101.372" x2="107.845" y2="72.1616" gradientUnits="userSpaceOnUse">
<stop stop-color="#10BBD5"/>
<stop offset="0.21" stop-color="#14BCD2"/>
<stop offset="0.43" stop-color="#20C0CA"/>
<stop offset="0.65" stop-color="#35C6BE"/>
<stop offset="0.87" stop-color="#51D0AC"/>
<stop offset="1" stop-color="#67D79F"/>
</linearGradient>
</defs>
</svg>
