<svg width="100%" height="100%" viewBox="0 0 23 20" fill="none" xmlns="http://www.w3.org/2000/svg">
<path d="M1.31194 4.21753L1.31124 4.21787C1.25449 4.24589 1.22678 4.32059 1.25864 4.38351L1.25962 4.38546L3.4979 8.85421L3.49806 8.85452C3.52728 8.91297 3.58701 8.93641 3.64041 8.92253L5.05404 7.87555C5.07835 7.85754 5.10425 7.84177 5.13141 7.82845C5.88081 7.46082 6.75006 8.01235 6.75006 8.83984V18.75C6.75006 19.1653 7.0848 19.5 7.50006 19.5H15.2501C15.6653 19.5 16.0001 19.1653 16.0001 18.75V8.84375C16.0001 8.00979 16.8716 7.46585 17.6187 7.83236C17.639 7.84233 17.6587 7.85367 17.6775 7.86631L19.2485 8.92257C19.3062 8.94004 19.3716 8.9146 19.4013 8.85693C19.4014 8.85668 19.4015 8.85642 19.4017 8.85617L21.6338 4.38804C21.6339 4.38782 21.634 4.3876 21.6341 4.38738C21.664 4.32592 21.6399 4.24926 21.5762 4.21622L14.3687 0.643953C14.3159 0.730626 14.266 0.816322 14.2159 0.902595C14.1973 0.934576 14.1786 0.966637 14.1597 0.998856C14.029 1.22211 13.8794 1.46879 13.6693 1.68092C13.2099 2.14482 12.5702 2.34375 11.501 2.34375C10.4294 2.34375 9.77451 2.14384 9.29198 1.69533C9.06686 1.48607 8.90229 1.24279 8.75727 1.01339C8.71922 0.953202 8.6825 0.893975 8.64594 0.835007C8.6061 0.77075 8.56645 0.7068 8.52548 0.64225L1.31194 4.21753Z" stroke="currentColor" stroke-linejoin="round"/>
</svg>
