<svg width="100%" height="100%" viewBox="0 0 18 18" fill="none" xmlns="http://www.w3.org/2000/svg">
<path d="M3.25 0C1.46403 0 0 1.46403 0 3.25V14.75C0 16.536 1.46403 18 3.25 18H14.75C16.536 18 18 16.536 18 14.75V3.25C18 1.46403 16.536 0 14.75 0H3.25ZM3.25 1.5H14.75C15.725 1.5 16.5 2.27497 16.5 3.25V4H1.5V3.25C1.5 2.27497 2.27497 1.5 3.25 1.5ZM1.5 5.5H16.5V14.75C16.5 15.725 15.725 16.5 14.75 16.5H3.25C2.27497 16.5 1.5 15.725 1.5 14.75V5.5ZM7.25 7.5C6.8355 7.5 6.5 7.8355 6.5 8.25C6.5 8.6645 6.8355 9 7.25 9H9.58496L7.56738 13.4395C7.39588 13.8165 7.56245 14.2611 7.93945 14.4326C8.04045 14.4786 8.14502 14.5 8.24902 14.5C8.53402 14.5 8.80712 14.3365 8.93262 14.0605L11.4326 8.56055C11.5381 8.32805 11.5189 8.05825 11.3809 7.84375C11.2429 7.62925 11.005 7.5 10.75 7.5H7.25Z" fill="currentColor"/>
</svg>
