<svg fill="currentColor" xmlns="http://www.w3.org/2000/svg">
<path d="M7.5 0C3.36475 0 0 3.36475 0 7.5C0 11.6353 3.36475 15 7.5 15C11.6353 15 15 11.6353 15 7.5C15 6.2959 14.7085 5.16211 14.2031 4.1543L13.3608 4.99512C13.6904 5.76416 13.875 6.61084 13.875 7.5C13.875 11.0156 11.0156 13.875 7.5 13.875C3.98438 13.875 1.125 11.0156 1.125 7.5C1.125 3.98438 3.98438 1.125 7.5 1.125C9.16699 1.125 10.6816 1.77393 11.8184 2.82422L12.6152 2.03027C11.2734 0.774902 9.47754 0 7.5 0ZM13.3008 2.61914C13.1558 2.62354 13.0166 2.68506 12.9141 2.78906L6.5625 9.14209L5.08594 7.66406C4.94385 7.51758 4.73438 7.45898 4.53809 7.51025C4.34033 7.56152 4.18652 7.71533 4.13525 7.91309C4.08398 8.10938 4.14258 8.31885 4.28906 8.46094L6.16406 10.3359C6.38379 10.5542 6.74121 10.5542 6.96094 10.3359L13.7109 3.58594C13.8765 3.42334 13.9263 3.17578 13.8354 2.96338C13.7461 2.74951 13.5337 2.61328 13.3008 2.61914Z"/>
</svg>
