<svg width="100%" height="100%" viewBox="0 0 10 6" fill="currentColor" xmlns="http://www.w3.org/2000/svg">
<path d="M0.187761 0.210793C0.0675962 0.338409 -2.39893e-07 0.511883 -2.3202e-07 0.69201C-2.24117e-07 0.8728 0.067593 1.04627 0.187761 1.17389L4.54123 5.80059C4.6614 5.92821 4.82412 6 4.99435 6C5.16458 6 5.3273 5.92821 5.44746 5.80059L9.80094 1.17389C9.92611 1.0476 9.99809 0.872136 9.99996 0.688674C10.0018 0.50523 9.93425 0.328421 9.81158 0.198813C9.68953 0.069202 9.52305 -0.00258297 9.35032 7.15937e-05C9.17759 0.00272615 9.01298 0.0791665 8.89407 0.212102L4.99433 4.35761L1.0946 0.212102C0.974436 0.0844855 0.811718 0.0120334 0.641485 0.0120334C0.471252 0.0113692 0.307909 0.0831532 0.187744 0.210775L0.187761 0.210793Z" />
</svg>
