<svg width="100%" height="100%" viewBox="0 0 30 30" fill="none" xmlns="http://www.w3.org/2000/svg">
<path d="M15 0C6.729 0 0 6.729 0 15C0 23.271 6.729 30 15 30C23.271 30 30 23.271 30 15C30 12.5933 29.4165 10.3254 28.4048 8.30713L26.7217 9.99023C27.3817 11.5285 27.75 13.2218 27.75 15C27.75 22.0305 22.0305 27.75 15 27.75C7.9695 27.75 2.25 22.0305 2.25 15C2.25 7.9695 7.9695 2.25 15 2.25C18.3345 2.25 21.3642 3.5469 23.6382 5.6499L25.229 4.05908C22.5463 1.54883 18.9548 0 15 0ZM26.603 5.23975C26.3109 5.24826 26.0335 5.37014 25.8296 5.57959L13.125 18.2842L10.1704 15.3296C10.0667 15.2216 9.94258 15.1354 9.80519 15.076C9.66779 15.0167 9.51993 14.9853 9.37026 14.9838C9.22059 14.9822 9.07213 15.0106 8.93355 15.0672C8.79498 15.1238 8.66909 15.2074 8.56325 15.3133C8.45741 15.4191 8.37376 15.545 8.31718 15.6836C8.26061 15.8221 8.23225 15.9706 8.23377 16.1203C8.23529 16.2699 8.26666 16.4178 8.32604 16.5552C8.38542 16.6926 8.47162 16.8167 8.57959 16.9204L12.3296 20.6704C12.5406 20.8813 12.8267 20.9998 13.125 20.9998C13.4233 20.9998 13.7094 20.8813 13.9204 20.6704L27.4204 7.17041C27.5827 7.01234 27.6935 6.80896 27.7383 6.58688C27.7831 6.3648 27.7598 6.13437 27.6715 5.92575C27.5832 5.71712 27.4339 5.54002 27.2433 5.41762C27.0526 5.29522 26.8295 5.23322 26.603 5.23975Z" fill="currentColor"/>
</svg>
