<svg width="100%" height="100%" viewBox="0 0 53 52" fill="currentColor" xmlns="http://www.w3.org/2000/svg">
<path fill-rule="evenodd" clip-rule="evenodd" d="M0.5 26C0.5 11.6391 12.1391 0 26.5 0C35.3279 0 43.1273 4.39812 47.8268 11.123C50.7723 15.338 52.5 20.467 52.5 26C52.5 40.3609 40.8609 52 26.5 52C12.1391 52 0.5 40.3609 0.5 26ZM26.5007 39.5829C34.002 39.5829 40.0829 33.502 40.0829 26.0007C40.0829 18.4995 34.002 12.4185 26.5007 12.4185C18.9995 12.4185 12.9185 18.4995 12.9185 26.0007C12.9185 33.502 18.9995 39.5829 26.5007 39.5829ZM26.5007 42.2507C35.4753 42.2507 42.7507 34.9753 42.7507 26.0007C42.7507 17.0261 35.4753 9.75071 26.5007 9.75071C17.5261 9.75071 10.2507 17.0261 10.2507 26.0007C10.2507 34.9753 17.5261 42.2507 26.5007 42.2507ZM26.1051 15.5522C26.8418 15.5522 27.439 16.1494 27.439 16.8861V26.6498H31.6539C32.3906 26.6498 32.9878 27.247 32.9878 27.9837C32.9878 28.7203 32.3906 29.3175 31.6539 29.3175H26.1051C25.3684 29.3175 24.7712 28.7203 24.7712 27.9837V16.8861C24.7712 16.1494 25.3684 15.5522 26.1051 15.5522Z" fill="currentColor"/>
</svg>
