<svg width="100%" height="100%" viewBox="0 0 10 10" fill="none" xmlns="http://www.w3.org/2000/svg">
<circle cx="5" cy="5" r="4.5" stroke="currentColor"/>
<mask id="path-2-inside-1" fill="white">
<path d="M7.64502 6.58258C7.65972 6.57117 7.67423 6.55959 7.68681 6.54623C7.69012 6.54276 7.69242 6.53845 7.69554 6.53489C7.70766 6.52094 7.71951 6.50674 7.72916 6.49092C7.83285 6.30828 7.76571 6.0886 7.57549 5.99001C7.57513 5.98984 7.57476 5.98967 7.57439 5.9895L5.28175 4.76629C5.25273 4.75073 5.23491 4.72232 5.23491 4.69137V2.59376C5.23491 2.38938 5.06095 2.22314 4.84703 2.22314C4.62136 2.22314 4.44446 2.38592 4.44446 2.59376V4.94674C4.44446 5.09691 4.53631 5.22907 4.6784 5.28353L7.1867 6.61937C7.28075 6.66807 7.39529 6.68059 7.50018 6.6537C7.54968 6.64093 7.59478 6.62013 7.63354 6.59256C7.63777 6.5896 7.64107 6.58571 7.64502 6.58258Z"/>
</mask>
<path d="M7.64502 6.58258L7.03155 5.79281L7.02408 5.79873L7.64502 6.58258ZM7.68681 6.54623L6.96316 5.85603L6.95886 5.8606L7.68681 6.54623ZM7.69554 6.53489L8.44652 7.19525L8.45036 7.19082L7.69554 6.53489ZM7.72916 6.49092L8.58289 7.01163L8.59104 6.99827L8.59877 6.98465L7.72916 6.49092ZM7.57549 5.99001L8.03567 5.10218L8.01489 5.09141L7.99363 5.08162L7.57549 5.99001ZM7.57439 5.9895L7.10366 6.87178L7.12958 6.8856L7.15625 6.89788L7.57439 5.9895ZM5.28175 4.76629L4.8093 5.64765L4.81102 5.64857L5.28175 4.76629ZM4.6784 5.28353L5.14846 4.4009L5.09394 4.37186L5.03626 4.34975L4.6784 5.28353ZM7.1867 6.61937L6.7166 7.50206L6.72685 7.50737L7.1867 6.61937ZM7.50018 6.6537L7.7485 7.62238L7.74991 7.62201L7.50018 6.6537ZM7.63354 6.59256L7.05981 5.77349L7.05398 5.77764L7.63354 6.59256ZM8.25847 7.37232C8.27245 7.36146 8.3432 7.30784 8.41477 7.23185L6.95886 5.8606C6.98469 5.83317 7.00653 5.81387 7.0184 5.80376C7.02943 5.79436 7.03699 5.78864 7.03158 5.79285L8.25847 7.37232ZM8.41045 7.2364C8.44238 7.20292 8.46631 7.17328 8.48162 7.15338C8.49616 7.13449 8.50719 7.11872 8.50872 7.11656C8.51116 7.11309 8.50877 7.11648 8.50817 7.11733C8.50663 7.11951 8.50303 7.12457 8.49827 7.13103C8.48904 7.14355 8.47119 7.16716 8.4465 7.19524L6.94458 5.87455C6.93118 5.88978 6.91983 5.9036 6.91063 5.91522C6.90145 5.92679 6.89392 5.93681 6.88838 5.94432C6.88291 5.95174 6.87862 5.95777 6.87639 5.96092C6.87524 5.96254 6.87431 5.96386 6.87394 5.96439C6.8732 5.96544 6.87375 5.96465 6.87377 5.96462C6.8742 5.96402 6.87683 5.96028 6.88036 5.95541C6.88402 5.95036 6.88961 5.94275 6.89665 5.9336C6.9105 5.9156 6.9329 5.88779 6.96318 5.85605L8.41045 7.2364ZM8.45036 7.19082C8.46598 7.17285 8.52615 7.10466 8.58289 7.01163L6.87542 5.97022C6.89579 5.93682 6.9142 5.91211 6.92535 5.89784C6.93589 5.88435 6.94343 5.87585 6.94072 5.87896L8.45036 7.19082ZM8.59877 6.98465C8.99125 6.29337 8.7137 5.45362 8.03567 5.10218L7.11532 6.87783C6.97832 6.80683 6.85961 6.6755 6.80642 6.50192C6.75294 6.32737 6.77645 6.14355 6.85954 5.99719L8.59877 6.98465ZM7.99363 5.08162C7.9936 5.08161 7.99359 5.0816 7.99356 5.08159C7.99355 5.08159 7.99353 5.08158 7.99353 5.08157C7.99348 5.08155 7.99354 5.08158 7.99349 5.08156C7.99338 5.08151 7.99347 5.08155 7.99335 5.0815C7.99323 5.08144 7.99334 5.08149 7.99322 5.08143C7.99317 5.08141 7.99319 5.08142 7.99315 5.0814C7.99314 5.0814 7.99313 5.08139 7.99313 5.08139C7.99312 5.08139 7.99312 5.08139 7.99311 5.08138C7.9931 5.08138 7.99311 5.08138 7.99309 5.08138C7.99309 5.08137 7.99308 5.08137 7.99308 5.08137C7.99279 5.08123 7.99309 5.08137 7.9928 5.08124C7.99274 5.08121 7.9928 5.08124 7.99273 5.08121C7.99271 5.0812 7.99268 5.08119 7.99266 5.08118C7.99239 5.08105 7.9928 5.08124 7.99253 5.08111L7.15625 6.89788C7.15678 6.89813 7.156 6.89777 7.15653 6.89801C7.15656 6.89802 7.15664 6.89806 7.15667 6.89807C7.15681 6.89814 7.1566 6.89804 7.15674 6.89811C7.15674 6.89811 7.15675 6.89811 7.15675 6.89811C7.15676 6.89812 7.15676 6.89812 7.15677 6.89812C7.15679 6.89813 7.15677 6.89812 7.15679 6.89813C7.1568 6.89814 7.15679 6.89813 7.15681 6.89814C7.1571 6.89827 7.15679 6.89813 7.15708 6.89826C7.15722 6.89833 7.15708 6.89826 7.15722 6.89833C7.15735 6.89839 7.15723 6.89833 7.15736 6.89839L7.99363 5.08162ZM8.04512 5.10722L5.75248 3.88401L4.81102 5.64857L7.10366 6.87178L8.04512 5.10722ZM5.75421 3.88494C6.02244 4.02872 6.23491 4.32351 6.23491 4.69137H4.23491C4.23491 5.12113 4.48301 5.47274 4.8093 5.64765L5.75421 3.88494ZM6.23491 4.69137V2.59376H4.23491V4.69137H6.23491ZM6.23491 2.59376C6.23491 1.79472 5.56988 1.22314 4.84703 1.22314V3.22314C4.55202 3.22314 4.23491 2.98405 4.23491 2.59376H6.23491ZM4.84703 1.22314C4.14871 1.22314 3.44446 1.75723 3.44446 2.59376H5.44446C5.44446 3.01461 5.09401 3.22314 4.84703 3.22314V1.22314ZM3.44446 2.59376V4.94674H5.44446V2.59376H3.44446ZM3.44446 4.94674C3.44446 5.51879 3.79888 6.01738 4.32054 6.2173L5.03626 4.34975C5.27373 4.44077 5.44446 4.67503 5.44446 4.94674H3.44446ZM4.20834 6.16616L6.71663 7.502L7.65676 5.73673L5.14846 4.4009L4.20834 6.16616ZM6.72685 7.50737C7.04461 7.67192 7.41181 7.70869 7.7485 7.62237L7.25185 5.68502C7.37876 5.65249 7.51689 5.66423 7.64654 5.73137L6.72685 7.50737ZM7.74991 7.62201C7.91132 7.58038 8.06938 7.50971 8.2131 7.40749L7.05398 5.77764C7.12018 5.73055 7.18805 5.70147 7.25044 5.68538L7.74991 7.62201ZM8.20726 7.41161C8.24209 7.38722 8.26951 7.36478 8.2882 7.34872C8.30615 7.3333 8.31987 7.32042 8.32345 7.31706C8.32452 7.31605 8.32544 7.31519 8.32565 7.31499C8.32608 7.31458 8.3257 7.31495 8.32526 7.31535C8.32437 7.31619 8.32106 7.3193 8.31663 7.32334C8.30803 7.3312 8.29007 7.34734 8.26596 7.36644L7.02408 5.79873C6.99799 5.81939 6.97815 5.83719 6.96768 5.84675C6.96232 5.85164 6.95809 5.85562 6.95627 5.85732C6.95538 5.85816 6.95453 5.85896 6.9545 5.85898C6.95425 5.85922 6.95471 5.85879 6.95532 5.85821C6.95705 5.85659 6.96891 5.84543 6.98492 5.83167C7.00168 5.81727 7.0271 5.79643 7.05982 5.77351L8.20726 7.41161Z" fill="currentColor" mask="url(#path-2-inside-1)"/>
</svg>
