<svg fill="currentColor" xmlns="http://www.w3.org/2000/svg">
<path fill-rule="evenodd" clip-rule="evenodd" d="M7.78149 0C7.39029 0 7.07316 0.317132 7.07316 0.708333C7.07316 1.09953 7.39029 1.41667 7.78149 1.41667H8.29168V2.46733C3.7897 2.82843 0.25 6.59875 0.25 11.1961C0.25 16.0323 4.16694 19.9532 9.00057 19.9532C13.8342 19.9532 17.7512 16.0323 17.7512 11.1961C17.7512 9.03278 16.9674 7.05256 15.6683 5.52452L16.5666 4.62553C16.8431 4.3488 16.8429 3.90031 16.5662 3.6238C16.2894 3.34729 15.841 3.34747 15.5644 3.6242L14.6669 4.52248C13.3086 3.36634 11.5927 2.61814 9.70834 2.46724V1.41667H10.2185C10.6097 1.41667 10.9269 1.09953 10.9269 0.708333C10.9269 0.317132 10.6097 0 10.2185 0H7.78149ZM14.1864 6.00551L14.1793 5.99827C12.8526 4.67417 11.0221 3.85568 9.00057 3.85568C4.95043 3.85568 1.66667 7.14129 1.66667 11.1961C1.66667 15.251 4.95043 18.5366 9.00057 18.5366C13.0507 18.5366 16.3345 15.251 16.3345 11.1961C16.3345 9.17204 15.5162 7.33963 14.1929 6.01189L14.1864 6.00551ZM9 12.6595C9.80727 12.6595 10.4622 12.0041 10.4622 11.1961C10.4622 11.0558 10.4425 10.9201 10.4056 10.7915L12.6692 8.52604C12.9457 8.24931 12.9456 7.80082 12.6688 7.52431C12.3921 7.2478 11.9436 7.24798 11.6671 7.52472L9.40424 9.78941C9.27585 9.75249 9.14022 9.73272 9 9.73272C8.19273 9.73272 7.53778 10.3882 7.53778 11.1961C7.53778 12.0041 8.19273 12.6595 9 12.6595Z" />
</svg>
