<svg width="100%" height="100%" viewBox="0 0 22 22" fill="currentColor" xmlns="http://www.w3.org/2000/svg">
    <path d="M18.6205 12.0096H18.0705V12.2853L18.2914 12.4502L18.6205 12.0096ZM20.7442 13.5962L21.1691 13.247L21.1268 13.1954L21.0733 13.1555L20.7442 13.5962ZM20.8429 14.3173L21.3164 14.5971L21.3247 14.5831L21.3322 14.5686L20.8429 14.3173ZM18.7687 17.8269L18.2952 17.5471L18.2869 17.5611L18.2795 17.5756L18.7687 17.8269ZM18.1761 18.0192L18.4168 17.5247L18.4089 17.5209L18.4008 17.5173L18.1761 18.0192ZM15.7067 16.9135L15.9315 16.4115L15.6259 16.2747L15.3641 16.4832L15.7067 16.9135ZM13.83 17.9231L13.6305 17.4106L13.3212 17.531L13.2836 17.8607L13.83 17.9231ZM13.5337 20.5192L12.9873 20.4569L12.9837 20.4879V20.5192H13.5337ZM8.4469 20.5192H8.9969V20.4879L8.99335 20.4569L8.4469 20.5192ZM8.15058 17.9231L8.69703 17.8607L8.65589 17.5003L8.30839 17.3962L8.15058 17.9231ZM6.27388 16.9135L6.61182 16.4795L6.35092 16.2763L6.0491 16.4115L6.27388 16.9135ZM3.80455 18.0192L3.57977 17.5173L3.57175 17.5209L3.56385 17.5247L3.80455 18.0192ZM3.21192 17.7308L3.73226 17.5526L3.71403 17.4994L3.6854 17.4509L3.21192 17.7308ZM1.13768 14.2212L0.663355 14.4996L0.66419 14.501L1.13768 14.2212ZM1.23645 13.5L1.47716 13.9945L1.51387 13.9767L1.54754 13.9536L1.23645 13.5ZM3.40946 12.0096L3.72055 12.4632L4.06518 12.2268L3.9298 11.8314L3.40946 12.0096ZM3.40946 9.99038H3.95946V9.71095L3.73378 9.54618L3.40946 9.99038ZM1.23645 8.40385L1.56077 7.95964L1.4898 7.90782L1.40621 7.8807L1.23645 8.40385ZM1.13768 7.68269L1.59147 7.99346L1.60022 7.98068L1.60824 7.96742L1.13768 7.68269ZM3.2613 4.17308L3.73186 4.45781L3.74179 4.44141L3.75054 4.42436L3.2613 4.17308ZM3.85394 3.98077L3.61323 4.4753L3.62928 4.48311L3.64579 4.48986L3.85394 3.98077ZM6.32327 4.99038L6.11512 5.49948L6.41365 5.62153L6.66593 5.4206L6.32327 4.99038ZM8.19996 3.98077L8.39953 4.49328L8.70727 4.37345L8.74614 4.04551L8.19996 3.98077ZM8.49628 1.48077L9.04246 1.54551L9.04628 1.51325V1.48077H8.49628ZM13.5831 1.48077H13.0331V1.51206L13.0367 1.54314L13.5831 1.48077ZM13.8794 4.07692L13.333 4.13929L13.3741 4.49971L13.7216 4.6038L13.8794 4.07692ZM15.7561 5.08654L15.4182 5.52047L15.6791 5.72366L15.9809 5.58851L15.7561 5.08654ZM18.2254 3.98077L18.4502 4.48274L18.4582 4.47915L18.4662 4.4753L18.2254 3.98077ZM18.8181 4.26923L18.2977 4.4474L18.316 4.50063L18.3446 4.54907L18.8181 4.26923ZM20.8923 7.77885L21.3666 7.50042L21.3658 7.49901L20.8923 7.77885ZM20.7935 8.5L20.5528 8.00547L20.5161 8.02334L20.4825 8.04643L20.7935 8.5ZM18.6205 9.99038L18.3095 9.53681L17.9648 9.77319L18.1002 10.1686L18.6205 9.99038ZM19.1705 12.0096C19.1705 11.911 19.1884 11.7723 19.2148 11.5794L18.125 11.4302C18.102 11.5979 18.0705 11.8198 18.0705 12.0096H19.1705ZM21.0733 13.1555L18.9497 11.569L18.2914 12.4502L20.415 14.0368L21.0733 13.1555ZM21.3322 14.5686C21.5274 14.1884 21.511 13.663 21.1691 13.247L20.3192 13.9454C20.3474 13.9796 20.3553 14.0084 20.3573 14.0283C20.3596 14.0524 20.3535 14.0664 20.3537 14.066L21.3322 14.5686ZM19.2422 18.1068L21.3164 14.5971L20.3694 14.0375L18.2952 17.5471L19.2422 18.1068ZM17.9354 18.5138C18.1912 18.6383 18.467 18.6232 18.6792 18.5544C18.8906 18.4858 19.1259 18.3352 19.2579 18.0782L18.2795 17.5756C18.2972 17.5411 18.3172 17.5231 18.3261 17.5163C18.3309 17.5125 18.3344 17.5105 18.3362 17.5096C18.3381 17.5086 18.3392 17.5083 18.3397 17.5081C18.3402 17.5079 18.341 17.5077 18.3426 17.5075C18.3442 17.5072 18.3474 17.5068 18.3526 17.507C18.3618 17.5072 18.3854 17.5094 18.4168 17.5247L17.9354 18.5138ZM15.4819 17.4154L17.9513 18.5212L18.4008 17.5173L15.9315 16.4115L15.4819 17.4154ZM14.0296 18.4356C14.7924 18.1385 15.4436 17.8262 16.0494 17.3437L15.3641 16.4832C14.8834 16.8661 14.3492 17.1307 13.6305 17.4106L14.0296 18.4356ZM14.0802 20.5816L14.3765 17.9854L13.2836 17.8607L12.9873 20.4569L14.0802 20.5816ZM13.0399 21.55C13.3086 21.55 13.5773 21.4608 13.7816 21.2619C13.9872 21.0617 14.0837 20.793 14.0837 20.5192H12.9837C12.9837 20.5284 12.9822 20.5252 12.9867 20.5139C12.9913 20.5022 13.0003 20.4873 13.0143 20.4737C13.0281 20.4602 13.0415 20.4532 13.0492 20.4504C13.0564 20.4477 13.0545 20.45 13.0399 20.45V21.55ZM8.94076 21.55H13.0399V20.45H8.94076V21.55ZM7.8969 20.5192C7.8969 20.793 7.99344 21.0617 8.19906 21.2619C8.40336 21.4608 8.67198 21.55 8.94076 21.55V20.45C8.92616 20.45 8.92425 20.4477 8.93144 20.4504C8.93911 20.4532 8.95247 20.4602 8.96636 20.4737C8.98035 20.4873 8.98926 20.5022 8.99392 20.5139C8.99837 20.5252 8.9969 20.5284 8.9969 20.5192H7.8969ZM7.60412 17.9854L7.90044 20.5816L8.99335 20.4569L8.69703 17.8607L7.60412 17.9854ZM5.93595 17.3474C6.46635 17.7605 7.26738 18.2327 7.99276 18.4499L8.30839 17.3962C7.74972 17.2289 7.06915 16.8357 6.61182 16.4795L5.93595 17.3474ZM4.02934 18.5212L6.49867 17.4154L6.0491 16.4115L3.57977 17.5173L4.02934 18.5212ZM2.69157 17.9089C2.89223 18.495 3.53628 18.7615 4.04526 18.5138L3.56385 17.5247C3.6251 17.4949 3.67044 17.5062 3.68959 17.5145C3.7022 17.5199 3.71284 17.5276 3.72097 17.5363C3.7296 17.5456 3.73229 17.5527 3.73226 17.5526L2.69157 17.9089ZM0.66419 14.501L2.73843 18.0106L3.6854 17.4509L1.61117 13.9413L0.66419 14.501ZM0.995742 13.0055C0.417226 13.2871 0.36078 13.9841 0.663357 14.4996L1.612 13.9427C1.56798 13.8677 1.58435 13.847 1.57867 13.876C1.57308 13.9046 1.54647 13.9608 1.47716 13.9945L0.995742 13.0055ZM3.09838 11.556L0.925365 13.0464L1.54754 13.9536L3.72055 12.4632L3.09838 11.556ZM2.76069 11C2.76069 11.2566 2.75423 11.7938 2.88912 12.1878L3.9298 11.8314C3.86715 11.6485 3.86069 11.3203 3.86069 11H2.76069ZM2.81516 10.4206C2.79219 10.5883 2.76069 10.8101 2.76069 11H3.86069C3.86069 10.9014 3.87858 10.7626 3.90499 10.5698L2.81516 10.4206ZM2.85946 9.99038C2.85946 10.089 2.84157 10.2277 2.81516 10.4206L3.90499 10.5698C3.92796 10.4021 3.95946 10.1802 3.95946 9.99038H2.85946ZM0.912133 8.84805L3.08514 10.4346L3.73378 9.54618L1.56077 7.95964L0.912133 8.84805ZM0.683889 7.37193C0.536581 7.58703 0.426523 7.86964 0.454247 8.16652C0.48588 8.50525 0.698275 8.80744 1.06669 8.92699L1.40621 7.8807C1.42499 7.88679 1.46605 7.90683 1.50228 7.95338C1.53728 7.99835 1.54739 8.04186 1.54948 8.06425C1.55134 8.0842 1.54721 8.08623 1.55277 8.06853C1.55803 8.05182 1.56961 8.02537 1.59147 7.99346L0.683889 7.37193ZM2.79074 3.88835L0.667116 7.39796L1.60824 7.96742L3.73186 4.45781L2.79074 3.88835ZM4.09465 3.48624C3.83879 3.3617 3.56301 3.37675 3.35082 3.4456C3.13942 3.5142 2.90408 3.66475 2.77206 3.92179L3.75054 4.42436C3.7328 4.45891 3.71276 4.47689 3.70391 4.48372C3.69906 4.48746 3.69556 4.48946 3.69376 4.4904C3.69193 4.49135 3.69084 4.49173 3.69034 4.4919C3.68983 4.49206 3.68896 4.49231 3.68739 4.49255C3.68584 4.49278 3.68257 4.49315 3.67743 4.49302C3.66818 4.49278 3.64462 4.49057 3.61323 4.4753L4.09465 3.48624ZM6.53142 4.48129L4.06209 3.47168L3.64579 4.48986L6.11512 5.49948L6.53142 4.48129ZM8.00039 3.46825C7.23756 3.7653 6.58642 4.07765 5.98061 4.56017L6.66593 5.4206C7.14662 5.03773 7.68077 4.77317 8.39953 4.49328L8.00039 3.46825ZM7.95011 1.41603L7.65379 3.91603L8.74614 4.04551L9.04246 1.54551L7.95011 1.41603ZM8.99015 0.45C8.72137 0.45 8.45275 0.53923 8.24845 0.738113C8.04282 0.938284 7.94628 1.20704 7.94628 1.48077H9.04628C9.04628 1.47164 9.04776 1.47477 9.0433 1.48605C9.03865 1.49782 9.02974 1.51269 9.01574 1.52631C9.00186 1.53983 8.9885 1.54676 8.98083 1.54964C8.97364 1.55233 8.97555 1.55 8.99015 1.55V0.45ZM13.0892 0.45H8.99015V1.55H13.0892V0.45ZM14.1331 1.48077C14.1331 1.20704 14.0366 0.938282 13.8309 0.738112C13.6266 0.53923 13.358 0.45 13.0892 0.45V1.55C13.1038 1.55 13.1057 1.55233 13.0986 1.54964C13.0909 1.54676 13.0775 1.53983 13.0636 1.52631C13.0496 1.51269 13.0407 1.49782 13.0361 1.48605C13.0316 1.47477 13.0331 1.47164 13.0331 1.48077H14.1331ZM14.4259 4.01455L14.1296 1.4184L13.0367 1.54314L13.333 4.13929L14.4259 4.01455ZM16.0941 4.65261C15.5636 4.23954 14.7626 3.76733 14.0372 3.55005L13.7216 4.6038C14.2803 4.77113 14.9608 5.16431 15.4182 5.52047L16.0941 4.65261ZM18.0007 3.4788L15.5313 4.58457L15.9809 5.58851L18.4502 4.48274L18.0007 3.4788ZM19.3384 4.09106C19.1378 3.50504 18.4937 3.2385 17.9847 3.48624L18.4662 4.4753C18.4049 4.50511 18.3596 4.49384 18.3404 4.48555C18.3278 4.4801 18.3172 4.47243 18.309 4.4637C18.3004 4.45443 18.2977 4.44729 18.2977 4.4474L19.3384 4.09106ZM21.3658 7.49901L19.2916 3.98939L18.3446 4.54907L20.4188 8.05868L21.3658 7.49901ZM21.0343 8.99453C21.6128 8.71294 21.6692 8.01589 21.3666 7.50042L20.418 8.05727C20.462 8.13227 20.4457 8.15296 20.4513 8.12395C20.4569 8.09537 20.4835 8.03921 20.5528 8.00547L21.0343 8.99453ZM18.9316 10.444L21.1046 8.95357L20.4825 8.04643L18.3095 9.53681L18.9316 10.444ZM19.2693 11C19.2693 10.7434 19.2758 10.2062 19.1409 9.81221L18.1002 10.1686C18.1628 10.3515 18.1693 10.6797 18.1693 11H19.2693ZM19.2148 11.5794C19.2378 11.4117 19.2693 11.1899 19.2693 11H18.1693C18.1693 11.0986 18.1514 11.2374 18.125 11.4302L19.2148 11.5794ZM11.0153 14.4404C9.03755 14.4404 7.46617 12.8501 7.46617 11H6.36617C6.36617 13.4768 8.4494 15.5404 11.0153 15.5404V14.4404ZM14.5643 11C14.5643 12.8501 12.993 14.4404 11.0153 14.4404V15.5404C13.5811 15.5404 15.6643 13.4768 15.6643 11H14.5643ZM11.0153 7.55962C12.9479 7.55962 14.5643 9.15414 14.5643 11H15.6643C15.6643 8.51894 13.5274 6.45962 11.0153 6.45962V7.55962ZM7.46617 11C7.46617 9.15414 9.08259 7.55962 11.0153 7.55962V6.45962C8.50313 6.45962 6.36617 8.51894 6.36617 11H7.46617Z" />
</svg>