<svg width="100%" height="100%" viewBox="0 0 14 13" fill="currentColor" xmlns="http://www.w3.org/2000/svg">
    <path d="M13.9097 7.30981C13.7773 6.58465 13.4824 5.91502 13.034 5.32026C12.542 4.66745 11.924 4.17448 11.1969 3.85649C10.6323 3.60916 10.0393 3.48886 9.43743 3.48718V3.31557C9.43662 3.13133 9.43662 2.9471 9.43823 2.76287C9.44308 2.29598 9.28636 1.87031 8.9721 1.49763C8.66673 1.1359 8.27734 0.852398 7.74577 0.605071C6.99284 0.255954 6.14539 0.0616259 5.15577 0.0119923C4.44242 -0.0250225 3.74847 0.0237698 3.09249 0.156687C2.37269 0.302222 1.76518 0.529359 1.23522 0.851557C0.870874 1.07365 0.588122 1.32518 0.370808 1.62046C0.122795 1.95864 0.00242358 2.29598 0.00242358 2.65351C0.00080786 3.94146 0.00080786 5.2294 0.00080786 6.51735V6.6141C0.00080786 7.82381 0.00080786 9.03268 0 10.2424C0 10.6992 0.148646 11.1131 0.444323 11.4715C0.756157 11.8509 1.15847 12.1453 1.71105 12.3993C2.39692 12.7148 3.16358 12.9024 4.05384 12.9739C4.27116 12.9916 4.4917 13 4.71063 13C5.05398 13 5.39974 12.9781 5.73904 12.9361C6.37806 12.8561 6.93225 12.7199 7.43312 12.5196C7.43716 12.518 7.4404 12.5171 7.44201 12.518C7.93965 12.7737 8.47607 12.9293 9.03511 12.9798C9.71291 13.0412 10.3729 12.9504 10.9974 12.7098C11.8618 12.3766 12.5679 11.8273 13.0954 11.0761C13.8871 9.95048 14.161 8.68272 13.9097 7.30981ZM4.95542 7.29551C4.89402 7.6135 4.86413 7.92139 4.86413 8.22929C4.07727 8.24107 3.36716 8.14685 2.69502 7.94158C2.20627 7.79268 1.82738 7.61097 1.501 7.37038C1.25299 7.18699 1.09304 7.00275 0.997708 6.78908C0.955699 6.69401 0.934695 6.604 0.934695 6.51315V6.24142C0.98155 6.2776 1.03083 6.31377 1.08092 6.34826C1.50424 6.63765 2.00188 6.8589 2.60212 7.02462C3.34939 7.23241 4.14029 7.32327 4.95542 7.29551ZM4.96026 9.19588C5.02166 9.51303 5.11376 9.82093 5.23413 10.1128C5.2002 10.1154 5.16546 10.1179 5.13153 10.1196C4.24531 10.1633 3.44149 10.0708 2.67483 9.83523C2.20223 9.68969 1.81769 9.50462 1.49939 9.26991C1.25299 9.08736 1.09384 8.90481 0.999323 8.69366C0.955699 8.59691 0.934695 8.50438 0.934695 8.41184V8.14264C1.50343 8.57168 2.17476 8.85181 3.08683 9.04109C3.69515 9.16728 4.32528 9.21944 4.96026 9.19588ZM8.45426 2.89915C8.31692 3.23313 8.08749 3.49559 7.75304 3.7017C7.379 3.9322 6.94114 4.10634 6.41441 4.23337C5.88607 4.36124 5.32542 4.42601 4.70175 4.43106C3.94559 4.42181 3.27991 4.32422 2.66594 4.13158C2.16345 3.97426 1.80395 3.79676 1.5002 3.55701C1.27884 3.38203 1.11969 3.19443 1.01467 2.98412C0.894302 2.74268 0.909651 2.52059 1.06395 2.2842C1.20694 2.06463 1.41295 1.8762 1.71105 1.69196C2.08832 1.4581 2.53022 1.28732 3.09976 1.15356C3.61518 1.03242 4.14109 0.973537 4.7074 0.973537C4.85605 0.973537 5.00954 0.977744 5.16546 0.986156C5.78994 1.01981 6.38533 1.13253 6.93387 1.32265C7.44282 1.49848 7.82009 1.70795 8.11981 1.98219C8.25149 2.10249 8.35005 2.22447 8.41952 2.35486C8.5205 2.54246 8.53101 2.71071 8.45426 2.89915ZM5.14849 5.39008C5.37793 5.37578 5.60736 5.34634 5.82952 5.31774C5.59686 5.62563 5.4062 5.95708 5.25917 6.31125C4.80273 6.34994 4.32771 6.33817 3.80745 6.27507C3.26941 6.20946 2.80247 6.09841 2.37915 5.93437C2.02369 5.79725 1.61572 5.61217 1.28207 5.28493C1.07769 5.08471 0.973472 4.90468 0.943581 4.70278C0.933887 4.63464 0.933887 4.55977 0.934695 4.48069C0.934695 4.44957 0.935502 4.41844 0.934695 4.38732C0.934695 4.37217 0.934695 4.35703 0.934695 4.34273C1.02517 4.41087 1.11889 4.47817 1.21664 4.53958C1.71994 4.85589 2.30806 5.08219 3.01494 5.23193C3.7202 5.38083 4.43758 5.43467 5.14849 5.39008ZM1.34509 10.3139C1.86293 10.6058 2.44297 10.8136 3.11915 10.9474C3.81633 11.0862 4.53371 11.1299 5.31168 11.082C5.40378 11.0761 5.49426 11.0668 5.58555 11.0567C5.63725 11.0508 5.68976 11.0458 5.74146 11.0407C5.94505 11.3276 6.17771 11.5901 6.43461 11.8239C6.08238 11.9114 5.71481 11.972 5.33996 12.0023C4.41496 12.078 3.5247 11.9897 2.69502 11.739C2.13921 11.5707 1.72074 11.3579 1.37821 11.0685C1.1714 10.8944 1.05103 10.7362 0.987206 10.5562C0.958123 10.4737 0.941158 10.3888 0.937118 10.3097C0.933079 10.2214 0.932271 10.1322 0.932271 10.0413C1.06557 10.1431 1.2021 10.2331 1.34509 10.3139ZM9.43339 4.45546C10.4093 4.4563 11.3246 4.85253 12.0113 5.57011C12.6963 6.28601 13.0712 7.2383 13.068 8.25032C13.0607 10.3341 11.4304 12.03 9.42935 12.0292C8.44053 12.0284 7.51633 11.6229 6.82723 10.8885C6.14055 10.1574 5.77459 9.1799 5.79559 8.13507C5.83598 6.10682 7.46867 4.45546 9.43339 4.45546Z" />
</svg>
