<svg viewBox="0 0 20 20" fill="currentColor" xmlns="http://www.w3.org/2000/svg">
<path d="M8.12566 2.28726C8.53871 1.82257 9.19838 1.5 10 1.5C10.8016 1.5 11.4613 1.82257 11.8743 2.28726C12.2957 2.76125 12.5 3.37774 12.5 4C12.5 4.62226 12.2957 5.23875 11.8743 5.71274C11.4613 6.17743 10.8016 6.5 10 6.5C9.19838 6.5 8.53871 6.17743 8.12566 5.71274C7.70433 5.23875 7.5 4.62226 7.5 4C7.5 3.37774 7.70433 2.76125 8.12566 2.28726ZM2.00066 3.13101C2.3304 2.76005 2.86508 2.5 3.5 2.5C4.13492 2.5 4.6696 2.76005 4.99934 3.13101C5.33738 3.5113 5.5 4.00281 5.5 4.5C5.5 4.99719 5.33738 5.4887 4.99934 5.86899C4.6696 6.23995 4.13492 6.5 3.5 6.5C2.86508 6.5 2.3304 6.23995 2.00066 5.86899C1.66262 5.4887 1.5 4.99719 1.5 4.5C1.5 4.00281 1.66262 3.5113 2.00066 3.13101ZM15.0007 3.13101C15.3304 2.76005 15.8651 2.5 16.5 2.5C17.1349 2.5 17.6696 2.76005 17.9993 3.13101C18.3374 3.5113 18.5 4.00281 18.5 4.5C18.5 4.99719 18.3374 5.4887 17.9993 5.86899C17.6696 6.23995 17.1349 6.5 16.5 6.5C15.8651 6.5 15.3304 6.23995 15.0007 5.86899C14.6626 5.4887 14.5 4.99719 14.5 4.5C14.5 4.00281 14.6626 3.5113 15.0007 3.13101ZM11.5007 2.61899C11.1633 2.23949 10.6978 2 10 2C9.30224 2 8.83668 2.23949 8.49934 2.61899C8.17003 2.98947 8 3.49834 8 4C8 4.50166 8.17003 5.01053 8.49934 5.38101C8.83668 5.76051 9.30224 6 10 6C10.6978 6 11.1633 5.76051 11.5007 5.38101C11.83 5.01053 12 4.50166 12 4C12 3.49834 11.83 2.98947 11.5007 2.61899ZM4.62566 3.46274C4.51239 3.33532 4.36686 3.21157 4.16661 3.12416C3.96976 3.03823 3.74891 3 3.5 3C3.25109 3 3.03024 3.03823 2.83339 3.12416C2.63314 3.21157 2.48761 3.33532 2.37434 3.46274C2.12816 3.7397 2 4.12369 2 4.5C2 4.87631 2.12816 5.2603 2.37434 5.53726C2.48761 5.66468 2.63314 5.78843 2.83339 5.87584C3.03024 5.96177 3.25109 6 3.5 6C3.74891 6 3.96976 5.96177 4.16661 5.87584C4.36686 5.78843 4.51239 5.66468 4.62566 5.53726C4.87184 5.2603 5 4.87631 5 4.5C5 4.12369 4.87184 3.7397 4.62566 3.46274ZM17.6257 3.46274C17.5124 3.33531 17.3669 3.21157 17.1666 3.12416C16.9698 3.03823 16.7489 3 16.5 3C16.2511 3 16.0302 3.03823 15.8334 3.12415C15.6331 3.21157 15.4876 3.33532 15.3743 3.46274C15.1282 3.7397 15 4.12369 15 4.5C15 4.87631 15.1282 5.2603 15.3743 5.53726C15.4876 5.66468 15.6331 5.78843 15.8334 5.87584C16.0302 5.96177 16.2511 6 16.5 6C16.7489 6 16.9698 5.96177 17.1666 5.87584C17.3669 5.78843 17.5124 5.66468 17.6257 5.53726C17.8718 5.2603 18 4.87631 18 4.5C18 4.12369 17.8718 3.7397 17.6257 3.46274ZM0.5 9.75C0.5 9.06114 1.06114 8.5 1.75 8.5H4.24992C4.18336 8.66048 4.12945 8.82751 4.08924 9H1.75C1.33386 9 1 9.33386 1 9.75V13C1 14.6561 2.34386 16 4 16C4.06347 16 4.12643 15.9979 4.18879 15.9938C4.23131 16.1604 4.28073 16.324 4.3365 16.4844C4.22604 16.4948 4.11381 16.5 4 16.5C2.07114 16.5 0.5 14.9289 0.5 13V9.75ZM6 9.75C6 9.06866 6.56867 8.5 7.25 8.5H12.75C13.4313 8.5 14 9.06866 14 9.75V14.5C14 16.7002 12.2002 18.5 10 18.5C7.79978 18.5 6 16.7002 6 14.5V9.75ZM18.25 9H15.9108C15.8706 8.82751 15.8166 8.66048 15.7501 8.5H18.25C18.9389 8.5 19.5 9.06114 19.5 9.75V13C19.5 14.9289 17.9289 16.5 16 16.5C15.8862 16.5 15.774 16.4948 15.6635 16.4844C15.7193 16.324 15.7687 16.1604 15.8112 15.9938C15.8736 15.9979 15.9365 16 16 16C17.6561 16 19 14.6561 19 13V9.75C19 9.33386 18.6661 9 18.25 9ZM12.75 9H7.25C7.05743 9 6.86328 9.06897 6.71613 9.21613C6.56897 9.36328 6.5 9.55743 6.5 9.75V14.5C6.5 16.4418 8.05822 18 10 18C11.9418 18 13.5 16.4418 13.5 14.5V9.75C13.5 9.55743 13.431 9.36328 13.2839 9.21613C13.1367 9.06897 12.9426 9 12.75 9Z" />
</svg>
