<svg viewBox="0 0 20 20" fill="none" xmlns="http://www.w3.org/2000/svg">
<path d="M3.77385 12.4296C3.40832 12.7023 3.09136 13.0368 2.83969 13.4231C2.54262 13.893 2.32929 14.4083 2.21007 14.9496C2.32627 14.4281 2.53306 13.9296 2.82854 13.4735L3.77385 12.4296ZM3.77385 12.4296H3.82966M3.77385 12.4296H3.82966M3.82966 12.4296C3.43654 12.7092 3.0957 13.0601 2.82859 13.4734L3.82966 12.4296ZM3.46206 11.4296H2.7425C1.95093 11.4296 1.36834 11.8562 1.00667 12.4437C0.692507 12.9541 0.534855 13.594 0.504841 14.2388C0.538014 13.4517 0.739871 12.7389 1.05514 12.2229C1.39854 11.6609 1.84015 11.3785 2.32893 11.3785H3.54316C3.51596 11.3953 3.48893 11.4123 3.46206 11.4296ZM3.49835 19.5C2.77976 19.5 2.15697 18.9137 2.10308 18.1219C2.15842 18.8422 2.74431 19.4388 3.49835 19.4388H16.0921C16.8424 19.4388 17.4263 18.848 17.4865 18.1324C17.4272 18.9118 16.8056 19.5 16.0921 19.5H3.49835ZM16.7517 13.4247C17.1661 14.0673 17.4114 14.798 17.4747 15.5675C17.4116 14.8223 17.1723 14.1071 16.7619 13.4735C16.5055 13.0768 16.1812 12.7376 15.808 12.4637C15.822 12.4606 15.836 12.4576 15.8501 12.4549C16.202 12.7233 16.5076 13.0496 16.7517 13.4247ZM12.9013 11.6814C12.4663 11.7212 12.1178 11.8207 11.7879 11.9169C11.7654 11.923 11.7429 11.9293 11.7204 11.9355C11.2309 12.0706 10.7105 12.2143 9.8052 12.2143C8.85304 12.2143 8.32488 12.0648 7.82751 11.9183L7.81875 11.9157L7.80991 11.9135C7.76298 11.9015 7.71548 11.8891 7.66725 11.8765C7.28288 11.776 6.85171 11.6633 6.28696 11.6633C6.12711 11.6633 5.96867 11.6718 5.81229 11.6885C5.82001 11.6824 5.82775 11.6763 5.83551 11.6702L5.8864 11.6304C6.01843 11.6184 6.15206 11.6122 6.28696 11.6122C6.8937 11.6122 7.26807 11.7181 7.71756 11.8478L7.72124 11.8488L7.74895 11.8566C8.2632 12.0008 8.84266 12.1633 9.7952 12.1633C10.7477 12.1633 11.3272 12.0008 11.8414 11.8566L11.8692 11.8488L11.8692 11.8488L11.8728 11.8478C12.196 11.7545 12.4803 11.6736 12.84 11.6355L12.9013 11.6814ZM17.4913 11.4296H16.1283C16.1022 11.4128 16.076 11.3963 16.0495 11.38C16.0684 11.379 16.0855 11.3785 16.1007 11.3785H17.8498C18.2028 11.3785 18.4577 11.4568 18.6485 11.5745C18.8398 11.6925 18.9978 11.8696 19.1257 12.1163C19.3899 12.6261 19.4991 13.381 19.5 14.3057C19.499 14.3188 19.4959 14.3288 19.4926 14.3359C19.4914 14.3311 19.4905 14.325 19.4905 14.3174C19.4905 13.6348 19.408 12.9381 19.1214 12.3961C18.9738 12.1169 18.7667 11.8687 18.4822 11.6925C18.1965 11.5156 17.8626 11.4296 17.4913 11.4296ZM9.7952 9.29592C7.61959 9.29592 5.7942 7.54067 5.61242 5.27097C5.79512 7.47998 7.5849 9.2449 9.7952 9.2449C12.0055 9.2449 13.7953 7.47998 13.978 5.27097C13.7962 7.54067 11.9708 9.29592 9.7952 9.29592ZM5.61242 4.52495C5.7942 2.25525 7.61959 0.5 9.7952 0.5C11.9708 0.5 13.7962 2.25525 13.978 4.52495C13.7953 2.31594 12.0055 0.55102 9.7952 0.55102C7.5849 0.55102 5.79512 2.31594 5.61242 4.52495Z" fill="#F2F5F9" stroke="white"/>
<path d="M5.56843 5.50001C5.56843 6.92037 4.41763 8.07143 2.9985 8.07143C1.57937 8.07143 0.428571 6.92037 0.428571 5.50001C0.428571 4.07964 1.57937 2.92858 2.9985 2.92858C4.41763 2.92858 5.56843 4.07964 5.56843 5.50001ZM19.5614 5.5C19.5614 6.92036 18.4106 8.07143 16.9915 8.07143C15.5724 8.07143 14.4216 6.92036 14.4216 5.5C14.4216 4.07964 15.5724 2.92857 16.9915 2.92857C18.4106 2.92857 19.5614 4.07964 19.5614 5.5Z" stroke="white" stroke-width="0.857143"/>
</svg>
