<svg viewBox="0 0 20 20" fill="none" xmlns="http://www.w3.org/2000/svg">
<path d="M5.57337 18.12C4.9527 18.12 4.4777 17.949 4.14837 17.607C3.81904 17.2777 3.65437 16.8027 3.65437 16.182V11.869C3.65437 11.337 3.55304 10.957 3.35037 10.729C3.1477 10.501 2.8057 10.368 2.32437 10.33L1.81137 10.292V9.114L2.32437 9.076C2.8057 9.05066 3.1477 8.924 3.35037 8.696C3.55304 8.45533 3.65437 8.07533 3.65437 7.556V3.243C3.65437 2.62233 3.81904 2.14733 4.14837 1.818C4.4777 1.476 4.9527 1.305 5.57337 1.305H7.43537V2.521H6.02937C5.47204 2.521 5.19337 2.806 5.19337 3.376V7.708C5.19337 8.21466 5.0667 8.65166 4.81337 9.019C4.56004 9.38633 4.2307 9.61433 3.82537 9.703C4.2307 9.79166 4.56004 10.0197 4.81337 10.387C5.0667 10.7543 5.19337 11.1913 5.19337 11.698V16.049C5.19337 16.619 5.47204 16.904 6.02937 16.904H7.43537V18.12H5.57337ZM12.5919 18.12V16.904H13.9979C14.5426 16.904 14.8149 16.619 14.8149 16.049V11.698C14.8149 11.1913 14.9416 10.7543 15.1949 10.387C15.4609 10.0197 15.7966 9.79166 16.2019 9.703C15.7966 9.61433 15.4609 9.38633 15.1949 9.019C14.9416 8.65166 14.8149 8.21466 14.8149 7.708V3.376C14.8149 2.806 14.5426 2.521 13.9979 2.521H12.5919V1.305H14.4539C15.0619 1.305 15.5306 1.476 15.8599 1.818C16.1893 2.14733 16.3539 2.62233 16.3539 3.243V7.556C16.3539 8.07533 16.4553 8.45533 16.6579 8.696C16.8606 8.924 17.2026 9.05066 17.6839 9.076L18.1969 9.114V10.292L17.6839 10.33C17.2026 10.3553 16.8606 10.4883 16.6579 10.729C16.4553 10.957 16.3539 11.337 16.3539 11.869V16.182C16.3539 16.8027 16.1893 17.2777 15.8599 17.607C15.5306 17.949 15.0619 18.12 14.4539 18.12H12.5919Z" fill="#F2F5F9"/>
</svg>
