<svg viewBox="0 0 20 20" fill="currentColor" xmlns="http://www.w3.org/2000/svg">
<path d="M12.0383 2.75007C11.893 2.75224 11.7522 2.80068 11.6364 2.88833C11.5206 2.97598 11.4359 3.09825 11.3947 3.23731L7.30385 16.3912C7.27376 16.4774 7.26135 16.5687 7.26737 16.6598C7.27339 16.7509 7.29772 16.8398 7.3389 16.9214C7.38009 17.0029 7.43729 17.0753 7.50709 17.1343C7.5769 17.1933 7.65789 17.2376 7.74524 17.2647C7.83259 17.2919 7.92451 17.3012 8.01554 17.2921C8.10656 17.283 8.19483 17.2558 8.27508 17.2119C8.35533 17.1681 8.42592 17.1086 8.48265 17.037C8.53939 16.9654 8.5811 16.8832 8.60532 16.7951L12.6961 3.64128C12.7298 3.53837 12.7383 3.42895 12.721 3.3221C12.7037 3.21524 12.6612 3.11404 12.5969 3.0269C12.5325 2.93975 12.4483 2.86917 12.3512 2.82103C12.254 2.77288 12.1468 2.74855 12.0383 2.75007ZM5.2318 5.01974C5.05451 5.02045 4.88447 5.09004 4.75774 5.21375L0.212369 9.52277C0.145275 9.58634 0.0918475 9.66287 0.0553377 9.7477C0.018828 9.83253 0 9.92389 0 10.0162C0 10.1085 0.018828 10.1999 0.0553377 10.2847C0.0918475 10.3696 0.145275 10.4461 0.212369 10.5097L4.75774 14.8187C4.82267 14.8802 4.89912 14.9284 4.98272 14.9605C5.06632 14.9926 5.15543 15.0079 5.24496 15.0056C5.3345 15.0033 5.4227 14.9834 5.50454 14.9471C5.58638 14.9108 5.66024 14.8588 5.72192 14.7939C5.7836 14.7291 5.83188 14.6528 5.86401 14.5694C5.89614 14.486 5.91148 14.3971 5.90917 14.3077C5.90685 14.2184 5.88692 14.1304 5.85052 14.0487C5.81411 13.967 5.76195 13.8933 5.69699 13.8318L1.67186 10.0162L5.69699 6.20065C5.79814 6.10767 5.86875 5.98635 5.89956 5.85261C5.93037 5.71887 5.91993 5.57895 5.86962 5.45124C5.81931 5.32352 5.73148 5.21397 5.61765 5.13696C5.50382 5.05996 5.36932 5.0191 5.2318 5.01974ZM14.7478 5.02063C14.6122 5.02418 14.4807 5.06801 14.3702 5.14651C14.2598 5.225 14.1752 5.3346 14.1275 5.46129C14.0797 5.58797 14.0709 5.72599 14.1022 5.85769C14.1335 5.9894 14.2034 6.1088 14.303 6.20065L18.3281 10.0162L14.303 13.8318C14.2381 13.8933 14.1859 13.967 14.1495 14.0487C14.1131 14.1304 14.0931 14.2184 14.0908 14.3077C14.0885 14.3971 14.1039 14.486 14.136 14.5694C14.1681 14.6528 14.2164 14.7291 14.2781 14.7939C14.3398 14.8588 14.4136 14.9108 14.4955 14.9471C14.5773 14.9834 14.6655 15.0033 14.755 15.0056C14.8446 15.0079 14.9337 14.9926 15.0173 14.9605C15.1009 14.9284 15.1773 14.8802 15.2423 14.8187L19.7876 10.5097C19.8547 10.4461 19.9082 10.3696 19.9447 10.2847C19.9812 10.1999 20 10.1085 20 10.0162C20 9.92389 19.9812 9.83253 19.9447 9.7477C19.9082 9.66287 19.8547 9.58634 19.7876 9.52277L15.2423 5.21375C15.177 5.1502 15.0996 5.10036 15.0146 5.06718C14.9297 5.03401 14.839 5.01818 14.7478 5.02063Z"/>
</svg>
