<svg width="100%" height="100%" viewBox="0 0 22 23" fill="none" xmlns="http://www.w3.org/2000/svg">
<path d="M15.8161 21L15.4109 21.2929L15.5674 21.5094L15.8343 21.4997C18.249 21.4114 19.678 20.4392 20.4962 19.4455C20.8994 18.9559 21.1456 18.472 21.2919 18.1083C21.3651 17.9262 21.4137 17.773 21.4446 17.6626C21.4495 17.645 21.454 17.6285 21.458 17.6131L21.5 17.5645V17.3786C21.5 13.5071 21.0317 10.006 20.564 7.47386C20.3301 6.20712 20.0959 5.18113 19.9199 4.47044C19.8319 4.11506 19.7583 3.83839 19.7066 3.64976C19.6807 3.55544 19.6602 3.48311 19.6461 3.43395L19.6298 3.37772L19.6255 3.3629L19.6243 3.35887L19.6239 3.3577L19.6238 3.35733C19.6238 3.3572 19.6238 3.3571 19.1447 3.50017L19.6238 3.3571L19.5822 3.21799L19.4726 3.12277C17.9302 1.78242 16.4187 1.1255 15.2841 0.804704C14.7174 0.644474 14.2453 0.568205 13.9105 0.532077C13.7431 0.514008 13.6098 0.50596 13.5161 0.502487C13.4692 0.500751 13.4321 0.500157 13.4056 0.500029L13.3738 0.5001L13.3639 0.500239L13.3605 0.500306L13.3592 0.500335L13.3586 0.500349C13.3584 0.500355 13.3582 0.50036 13.3696 0.95268L13.3581 0.500361L13.1173 0.506489L12.972 0.698674L12.6841 1.07953L12.2724 1.62413L12.4052 1.67123C12.2971 1.65442 12.1894 1.63883 12.082 1.62442L12.082 1.62442L12.0793 1.62407C11.9799 1.61128 11.8885 1.59934 11.8041 1.58832C11.2934 1.52164 11.0391 1.48843 10.8131 1.50161C10.677 1.50955 10.5528 1.53341 10.4174 1.55942L10.4057 1.56166L10.3972 1.5633C10.2584 1.58994 10.0764 1.62489 9.79759 1.6678C9.65026 1.67208 9.52261 1.6978 9.42589 1.71728C9.42239 1.71799 9.41892 1.71869 9.4155 1.71938C9.36083 1.72503 9.3013 1.73189 9.23712 1.74013L9.8172 1.54609L9.42316 0.995627L9.2181 0.709172L9.07317 0.506704L8.82425 0.500371L8.81595 0.826602C8.81595 0.826603 8.81595 0.826606 8.81594 0.826608C8.82419 0.500369 8.82398 0.500364 8.82376 0.500358L8.8232 0.500345L8.8219 0.500315L8.8185 0.500248L8.80863 0.50011L8.77677 0.500039C8.75024 0.500168 8.71319 0.500762 8.66629 0.502501C8.57252 0.505977 8.43927 0.514033 8.27185 0.532117C7.9371 0.568274 7.46499 0.644602 6.89837 0.804947C5.76392 1.12598 4.25265 1.78335 2.71094 3.12458L2.607 3.21501L2.56404 3.34592L3.03912 3.50181C2.56404 3.34592 2.564 3.34603 2.56396 3.34616L2.56384 3.34654L2.56345 3.34774L2.56212 3.35182L2.5573 3.36673L2.53934 3.42317C2.5238 3.47247 2.50129 3.54495 2.47279 3.63943C2.41581 3.8284 2.3349 4.10544 2.23806 4.46124C2.0444 5.17274 1.78688 6.19976 1.52955 7.46767C1.0152 10.002 0.5 13.5065 0.5 17.3819V17.4395L0.513095 17.4956L1 17.3819C0.513095 17.4956 0.513167 17.4959 0.513242 17.4962L0.513409 17.4969L0.513802 17.4986L0.514832 17.5028L0.517896 17.5151C0.520396 17.5249 0.52383 17.538 0.52829 17.5541C0.537207 17.5863 0.550248 17.6307 0.568168 17.6856C0.603979 17.7954 0.659462 17.9477 0.740774 18.1287C0.903129 18.4902 1.17046 18.9708 1.59343 19.4568C2.45013 20.441 3.91519 21.4107 6.32858 21.4981L6.59829 21.5078L6.75446 21.2877L6.34667 20.9984L6.75447 21.2877L6.7545 21.2876L6.75462 21.2875L6.75505 21.2869L6.75673 21.2845L6.76329 21.2752L6.78862 21.2395L6.88349 21.1053C6.96461 20.9904 7.07917 20.8278 7.21305 20.6368C7.48061 20.2552 7.82616 19.7592 8.13627 19.304L8.42414 18.8815C8.73046 18.9717 9.04982 19.0552 9.38215 19.1296L9.38548 19.1303C9.62256 19.1817 9.79668 19.2226 9.95451 19.2598C10.0653 19.2858 10.168 19.31 10.2789 19.3346C10.521 19.3882 10.7391 19.4281 10.9808 19.439C11.4545 19.4603 11.971 19.366 12.9401 19.1556C13.218 19.1007 13.4973 19.0344 13.7781 18.9565L14.0472 19.3524C14.3575 19.8089 14.6985 20.2941 14.9613 20.6644C15.0929 20.8497 15.2051 21.0067 15.2845 21.1174L15.3774 21.2465L15.4022 21.2809L15.4086 21.2898L15.4103 21.2921L15.4107 21.2927L15.4108 21.2929L15.4108 21.2929L15.8161 21ZM9.83264 12.5168L9.83259 12.5168V12.5235C9.83259 13.8177 9.02699 14.6668 8.23699 14.6684C7.46482 14.6683 6.64162 13.8151 6.64162 12.5252C6.64162 11.2302 7.44646 10.382 8.2371 10.382C9.03157 10.382 9.84998 11.2362 9.83264 12.5168ZM12.1658 12.5252C12.1658 11.2302 12.9707 10.3819 13.7613 10.3819C14.5519 10.3819 15.3568 11.2302 15.3568 12.5252C15.3568 13.8201 14.5519 14.6684 13.7613 14.6684C12.9891 14.6684 12.1658 13.8152 12.1658 12.5252Z" stroke="currentColor"/>
</svg>
