<svg width="28" height="20" viewBox="0 0 28 20" fill="currentColor" xmlns="http://www.w3.org/2000/svg">
<path d="M24.1407 2.15637C24.1292 2.14492 24.1063 2.13347 24.0892 2.1163C22.629 0.942749 20.6765 0.347389 19.2965 0.0611576C17.9337 -0.230797 16.571 0.547751 16.1301 1.85869C16.1243 1.88159 16.1129 1.90449 16.1072 1.92738C18.3975 2.15637 20.4417 2.78608 22.1022 3.77071C22.5374 4.02832 22.6806 4.58933 22.4229 5.03013C22.2511 5.31636 21.9476 5.47665 21.6327 5.47665C21.4781 5.47665 21.3121 5.43085 21.1632 5.34498C19.2965 4.2344 16.8172 3.65049 14 3.65049C11.1828 3.65049 8.70348 4.2344 6.83681 5.34498C6.39591 5.60259 5.83476 5.4652 5.5771 5.03013C5.31943 4.58933 5.46258 4.02832 5.89775 3.77071C7.55828 2.78608 9.60245 2.15637 11.8928 1.92738C11.8871 1.90449 11.8757 1.88159 11.8699 1.85869C11.429 0.547751 10.0663 -0.230797 8.70348 0.0611576C7.32352 0.347389 5.37096 0.942749 3.91084 2.1163C3.89366 2.13347 3.87076 2.14492 3.8593 2.15637C2.50797 3.41578 0 9.81591 0 15.6321C0 15.7867 0.0400807 15.9412 0.114519 16.0786C1.609 18.7005 5.11902 19.6622 6.56769 19.9485C6.74519 19.9828 6.9227 20 7.1002 20C7.96483 20 8.80082 19.5878 9.32188 18.8665L9.63681 18.4315C6.49325 17.6873 4.87853 16.342 4.78691 16.2618C4.40327 15.9355 4.35746 15.3631 4.68384 14.9738C5.01595 14.5902 5.58855 14.5444 5.97219 14.865C6.02372 14.9108 8.71493 17.0862 14 17.0862C19.308 17.0862 21.9992 14.8879 22.0278 14.865C22.4115 14.5444 22.9898 14.5902 23.3162 14.9795C23.6368 15.3688 23.5967 15.9412 23.2131 16.2618C23.1215 16.342 21.5067 17.6873 18.3632 18.4315L18.6781 18.8665C19.1992 19.5878 20.0352 20 20.8998 20C21.0773 20 21.2548 19.9828 21.4323 19.9485C22.881 19.6622 26.391 18.7005 27.8855 16.0786C27.9599 15.9412 28 15.7867 28 15.6321C28 9.81591 25.492 3.41578 24.1407 2.15637ZM10.0491 13.972C8.88098 13.972 7.93619 12.8958 7.93619 11.5562C7.93619 10.2166 8.88098 9.1404 10.0491 9.1404C11.2229 9.1404 12.1677 10.2166 12.1677 11.5562C12.1677 12.8958 11.2229 13.972 10.0491 13.972ZM17.9337 14.0235C16.7542 14.0235 15.798 12.9301 15.798 11.5791C15.798 10.2338 16.7542 9.1404 17.9337 9.1404C19.119 9.1404 20.0695 10.2338 20.0695 11.5791C20.0695 12.9301 19.119 14.0235 17.9337 14.0235Z"/>
</svg>
