<svg width="20" height="20" viewBox="0 0 20 20" fill="currentColor" xmlns="http://www.w3.org/2000/svg">
<path d="M9.98594 0C9.57344 0.00936928 9.24531 0.346685 9.25 0.763645V8.75615C9.24531 9.02788 9.39063 9.28086 9.62031 9.41672C9.85469 9.55259 10.1453 9.55259 10.3797 9.41672C10.6094 9.28086 10.7547 9.02788 10.75 8.75615V0.763645C10.7547 0.557508 10.675 0.365426 10.5297 0.220192C10.3844 0.0796436 10.1922 0 9.98594 0ZM13.2531 2.67041C12.8922 2.66573 12.5781 2.91403 12.5078 3.27009C12.4328 3.62146 12.6203 3.97751 12.9531 4.11338C15.625 5.26119 17.5 7.90818 17.5 11.0049C17.5 15.1558 14.1531 18.5008 10 18.5008C5.84687 18.5008 2.5 15.1558 2.5 11.0049C2.5 7.90818 4.375 5.26119 7.04687 4.11338C7.42656 3.9494 7.60469 3.50902 7.44063 3.12954C7.27656 2.75006 6.83594 2.57203 6.45625 2.736C3.24531 4.11338 1 7.30382 1 11.0049C1 15.9663 5.03594 20 10 20C14.9641 20 19 15.9663 19 11.0049C19 7.30382 16.7547 4.11338 13.5438 2.736C13.4547 2.69384 13.3563 2.6751 13.2531 2.67041Z"/>
</svg>
