<svg width="100%" height="100%" viewBox="0 0 22 22" fill="none" xmlns="http://www.w3.org/2000/svg">
<path d="M15.4497 1L15.4497 0.5H14.9497H2.23778C1.30968 0.5 0.5 1.20514 0.5 2.15307V19.8469C0.5 20.7949 1.30968 21.5 2.23778 21.5H19.7622C20.6903 21.5 21.5 20.7949 21.5 19.8469L21.5 7.05555V6.55555H21H16.1875C15.7489 6.55555 15.4497 6.22774 15.4497 5.90248L15.4497 1ZM21 6.01813H21.5V5.51813V5.22505C21.5 4.78527 21.3153 4.36721 20.9944 4.06107L18.1584 0.996697L18.1458 0.983095L18.1323 0.970461C17.8029 0.66364 17.3647 0.5 16.9147 0.5H16.6001H16.1001L16.1001 1L16.1001 5.51812L16.1001 6.01813H16.6001H21ZM15.6189 16.0725C15.6189 16.0799 15.6164 16.0951 15.5963 16.1139C15.5757 16.1331 15.5424 16.1491 15.5 16.1491H5.5C5.45761 16.1491 5.42432 16.1331 5.40372 16.1139C5.3836 16.0951 5.38111 16.0799 5.38111 16.0725V15.6882C5.38111 15.6808 5.3836 15.6656 5.40372 15.6469C5.42432 15.6277 5.45761 15.6117 5.5 15.6117H15.5C15.5424 15.6117 15.5757 15.6277 15.5963 15.6469C15.6164 15.6656 15.6189 15.6808 15.6189 15.6882V16.0725ZM15.6189 12.9977C15.6189 13.005 15.6164 13.0203 15.5963 13.039C15.5757 13.0582 15.5424 13.0742 15.5 13.0742H5.5C5.45761 13.0742 5.42432 13.0582 5.40372 13.039C5.3836 13.0203 5.38111 13.005 5.38111 12.9977V12.6133C5.38111 12.606 5.3836 12.5908 5.40372 12.572C5.42432 12.5528 5.45761 12.5368 5.5 12.5368H15.5C15.5424 12.5368 15.5757 12.5528 15.5963 12.572C15.6164 12.5908 15.6189 12.606 15.6189 12.6133V12.9977ZM15.6189 9.53848V9.92284C15.6189 9.93019 15.6164 9.94542 15.5963 9.96416C15.5757 9.98335 15.5424 9.99937 15.5 9.99937H5.5C5.45761 9.99937 5.42432 9.98335 5.40372 9.96416C5.3836 9.94542 5.38111 9.93018 5.38111 9.92284V9.53848C5.38111 9.53113 5.3836 9.5159 5.40372 9.49715C5.42432 9.47796 5.45761 9.46194 5.5 9.46194H15.5C15.5424 9.46194 15.5757 9.47796 15.5963 9.49715C15.6164 9.5159 15.6189 9.53113 15.6189 9.53848Z" stroke="currentColor"/>
</svg>
