<svg width="100%" height="100%" viewBox="0 0 9 16" fill="currentColor" xmlns="http://www.w3.org/2000/svg">
<path d="M7.04 5.776C6.88 5.46667 6.69867 5.17333 6.496 4.896C6.29333 4.608 6.048 4.37867 5.76 4.208C5.472 4.02667 5.12 3.936 4.704 3.936C4.064 3.936 3.59467 4.06933 3.296 4.336C3.008 4.592 2.864 4.96533 2.864 5.456C2.864 5.86133 2.98667 6.19733 3.232 6.464C3.47733 6.72 3.79733 6.944 4.192 7.136C4.58667 7.31733 5.008 7.49333 5.456 7.664C5.744 7.77067 6.05333 7.90933 6.384 8.08C6.71467 8.25067 7.024 8.464 7.312 8.72C7.6 8.96533 7.83467 9.27467 8.016 9.648C8.19733 10.0107 8.288 10.448 8.288 10.96C8.288 11.8453 8.03733 12.576 7.536 13.152C7.03467 13.728 6.29867 14.0587 5.328 14.144V15.792H4.144V14.096C3.39733 13.9467 2.74133 13.6053 2.176 13.072C1.61067 12.528 1.17867 11.8613 0.88 11.072L2.032 10.384C2.37333 11.152 2.77333 11.76 3.232 12.208C3.69067 12.656 4.26667 12.88 4.96 12.88C5.6 12.88 6.08 12.72 6.4 12.4C6.72 12.0693 6.88 11.6267 6.88 11.072C6.88 10.592 6.74667 10.1973 6.48 9.888C6.224 9.57867 5.89333 9.32267 5.488 9.12C5.09333 8.91733 4.68267 8.74133 4.256 8.592C3.97867 8.496 3.67467 8.368 3.344 8.208C3.024 8.048 2.72 7.84533 2.432 7.6C2.144 7.344 1.904 7.03467 1.712 6.672C1.53067 6.30933 1.44 5.872 1.44 5.36C1.44 4.90133 1.55733 4.48533 1.792 4.112C2.02667 3.728 2.34667 3.41333 2.752 3.168C3.15733 2.912 3.62133 2.74667 4.144 2.672V0.912H5.328V2.688C5.808 2.77333 6.23467 2.93867 6.608 3.184C6.992 3.42933 7.312 3.71733 7.568 4.048C7.824 4.37867 8.016 4.70933 8.144 5.04L7.04 5.776Z" />
</svg>
