<svg width="23" height="24" viewBox="0 0 23 24" fill="currentColor" xmlns="http://www.w3.org/2000/svg">
<path d="M13.8 0.147949V8.19795L17.3915 4.60645C19.4047 6.29216 20.7 8.80816 20.7 11.6479V12.7979H23V11.6479C23 8.18629 21.4494 5.08859 19.0199 2.97803L21.85 0.147949H13.8ZM0 10.4979V11.6479C0 15.1096 1.55059 18.2073 3.98008 20.3179L1.15 23.1479H9.2V15.0979L5.6085 18.6895C3.59532 17.0037 2.3 14.4877 2.3 11.6479V10.4979H0Z"/>
<path d="M4.7551 2.2623L6.74514 1.1123L7.89514 3.10459L5.9051 4.25459L4.7551 2.2623Z" />
<path d="M0.965942 6.8915L2.11594 4.90146L4.10823 6.05146L2.95823 8.0415L0.965942 6.8915Z" />
<path d="M18.892 17.2415L20.042 15.2492L22.0343 16.3992L20.8843 18.3915L18.892 17.2415Z" />
<path d="M15.1051 20.1884L17.0951 19.0384L18.2451 21.0307L16.2551 22.1807L15.1051 20.1884Z" />
</svg>
