<svg viewBox="0 0 20 21" fill="currentColor" xmlns="http://www.w3.org/2000/svg">
<path d="M19.2703 4.75018C19.2372 4.75134 19.2043 4.75484 19.1718 4.76068H14.5189C14.4243 4.7593 14.3304 4.77724 14.2427 4.81344C14.1549 4.84964 14.075 4.90339 14.0077 4.97156C13.9403 5.03972 13.8869 5.12095 13.8503 5.21052C13.8138 5.30009 13.795 5.39622 13.795 5.49331C13.795 5.5904 13.8138 5.68652 13.8503 5.77609C13.8869 5.86566 13.9403 5.94689 14.0077 6.01506C14.075 6.08323 14.1549 6.13697 14.2427 6.17317C14.3304 6.20938 14.4243 6.22731 14.5189 6.22594H17.5539L9.9989 13.9815L1.22561 4.97531C1.15909 4.90499 1.07949 4.84908 0.991543 4.8109C0.903592 4.77272 0.809072 4.75305 0.713581 4.75305C0.571548 4.75308 0.432754 4.79662 0.314959 4.87808C0.197164 4.95955 0.105723 5.07524 0.0523376 5.21035C-0.00104816 5.34546 -0.0139516 5.49385 0.0152781 5.63654C0.0445079 5.77922 0.114542 5.90971 0.216419 6.0113L9.4943 15.5355C9.62815 15.6728 9.80965 15.75 9.9989 15.75C10.1881 15.75 10.3696 15.6728 10.5035 15.5355L18.5631 7.26192V10.3775C18.5618 10.4746 18.5792 10.571 18.6145 10.6611C18.6498 10.7512 18.7021 10.8332 18.7685 10.9023C18.8349 10.9714 18.9141 11.0263 19.0013 11.0638C19.0886 11.1013 19.1822 11.1206 19.2768 11.1206C19.3714 11.1206 19.465 11.1013 19.5523 11.0638C19.6395 11.0263 19.7186 10.9714 19.785 10.9023C19.8514 10.8332 19.9038 10.7512 19.9391 10.6611C19.9743 10.571 19.9918 10.4746 19.9905 10.3775V5.60206C20.0076 5.4958 20.0016 5.38697 19.9731 5.28334C19.9445 5.1797 19.8941 5.0838 19.8253 5.00246C19.7565 4.92112 19.6712 4.85634 19.5752 4.81274C19.4793 4.76913 19.3752 4.74777 19.2703 4.75018Z"/>
</svg>
