<svg width="100%" height="100%" viewBox="0 0 20 20" fill="none" xmlns="http://www.w3.org/2000/svg">
<path d="M6.53461 5.82226L4.5 1.49998C4.5 1.49998 6.48754 0.367408 8.79257 1.48067C8.79257 1.48067 10.3021 2.1063 12.2104 1.35152C12.2104 1.35152 13.9367 0.501 15.5 1.5L14 5.82186L6.53461 5.82226Z" stroke="currentColor" stroke-width="1.35714" stroke-miterlimit="10" stroke-linecap="round" stroke-linejoin="round"/>
<path d="M6.53455 5.82202C6.53455 5.82202 2.0032 9.49048 2 15.4579C1.99894 17.4648 2.99996 18.5 4.28997 18.945C4.46196 18.9393 5.19575 18.9763 5.38051 18.9627C5.54505 18.9502 5.71064 18.9442 5.87624 18.945L15.8024 18.9977C15.8024 18.9977 17.9792 19.1476 18 15.5C18.0025 15.0635 18 15 18 15C18 15 18.5 9.50003 13.862 5.82202" stroke="currentColor" stroke-width="1.35714" stroke-miterlimit="10" stroke-linecap="round" stroke-linejoin="round"/>
<path d="M12.0694 10.1438H9.62061C9.20582 10.1438 8.79529 10.2303 8.45132 10.4057C8.09883 10.5852 7.76711 10.8756 7.78042 11.3311C7.79533 11.8561 8.28359 12.3051 8.95343 12.4435C9.40017 12.5357 9.98215 12.621 10.5466 12.6001C11.3879 12.5691 12.1344 13.0193 12.2291 13.6518C12.2323 13.6723 12.235 13.6932 12.2371 13.7145C12.2952 14.271 11.7457 14.8093 11.0119 14.8733C10.2745 14.9376 9.21008 14.899 8.01204 14.8733" stroke="currentColor" stroke-miterlimit="10" stroke-linecap="round" stroke-linejoin="round"/>
<path d="M10.01 9.14148V9.50002" stroke="currentColor" stroke-miterlimit="10" stroke-linecap="round" stroke-linejoin="round"/>
<path d="M10 15L10.0099 16.0181" stroke="currentColor" stroke-miterlimit="10" stroke-linecap="round" stroke-linejoin="round"/>
</svg>
