<svg viewBox="0 0 20 21" fill="currentColor" xmlns="http://www.w3.org/2000/svg">
<path d="M2.25 1.25C1.29252 1.25 0.5 2.04261 0.5 3.00019V11.5011C0.5 12.4587 1.29252 13.2513 2.25 13.2513H17.75C18.7075 13.2513 19.5 12.4587 19.5 11.5011V3.00019C19.5 2.04261 18.7075 1.25 17.75 1.25H2.25ZM3.5 2.75016H16.5C16.5 3.58025 17.17 4.25033 18 4.25033V10.251C17.17 10.251 16.5 10.921 16.5 11.7511H3.5C3.5 10.921 2.83 10.251 2 10.251V4.25033C2.83 4.25033 3.5 3.58025 3.5 2.75016ZM10 3.75027C9.02083 3.75027 8.19763 4.24238 7.70605 4.91837C7.21448 5.59436 7 6.4267 7 7.25065C7 8.0746 7.21448 8.90695 7.70605 9.58294C8.19763 10.2589 9.02083 10.751 10 10.751C10.9792 10.751 11.8024 10.2589 12.2939 9.58294C12.7855 8.90695 13 8.0746 13 7.25065C13 6.4267 12.7855 5.59436 12.2939 4.91837C11.8024 4.24238 10.9792 3.75027 10 3.75027ZM10 5.25043C10.5208 5.25043 10.8226 5.4459 11.0811 5.80127C11.3395 6.15665 11.5 6.69945 11.5 7.25065C11.5 7.80185 11.3395 8.34465 11.0811 8.70003C10.8226 9.0554 10.5208 9.25087 10 9.25087C9.47917 9.25087 9.17737 9.0554 8.91895 8.70003C8.66052 8.34465 8.5 7.80185 8.5 7.25065C8.5 6.69945 8.66052 6.15665 8.91895 5.80127C9.17737 5.4459 9.47917 5.25043 10 5.25043ZM4 6.25054C3.73478 6.25054 3.48043 6.35591 3.29289 6.54347C3.10536 6.73102 3 6.98541 3 7.25065C3 7.5159 3.10536 7.77028 3.29289 7.95783C3.48043 8.14539 3.73478 8.25076 4 8.25076C4.26522 8.25076 4.51957 8.14539 4.70711 7.95783C4.89464 7.77028 5 7.5159 5 7.25065C5 6.98541 4.89464 6.73102 4.70711 6.54347C4.51957 6.35591 4.26522 6.25054 4 6.25054ZM16 6.25054C15.7348 6.25054 15.4804 6.35591 15.2929 6.54347C15.1054 6.73102 15 6.98541 15 7.25065C15 7.5159 15.1054 7.77028 15.2929 7.95783C15.4804 8.14539 15.7348 8.25076 16 8.25076C16.2652 8.25076 16.5196 8.14539 16.7071 7.95783C16.8946 7.77028 17 7.5159 17 7.25065C17 6.98541 16.8946 6.73102 16.7071 6.54347C16.5196 6.35591 16.2652 6.25054 16 6.25054ZM2.02246 14.2504C2.13296 15.078 2.81671 15.7206 3.67871 15.7506C9.11621 15.9386 13.1412 17.7505 15.3037 18.7236C15.6887 18.8971 16.0199 19.0452 16.2939 19.1572C16.4454 19.2192 16.6042 19.25 16.7627 19.25C17.0047 19.25 17.2442 19.1785 17.4512 19.04C17.7947 18.8095 18 18.4237 18 18.0087V14.2514H16.5V16.2516C15.9323 16.2516 15.4453 16.5683 15.1904 17.032C12.8156 15.9834 8.90476 14.4302 3.73047 14.2514C3.72947 14.2514 3.72902 14.2504 3.72852 14.2504H2.02246Z"/>
</svg>
