<svg width="100%" height="100%" viewBox="0 0 20 20" fill="none" xmlns="http://www.w3.org/2000/svg">
<path d="M19.5 4.8686V7.8504H19.0467H0.953307H0.5V4.8686H0.953307H19.0467H19.5ZM1.77477 0.569397C1.37473 0.569397 1.03806 0.750775 0.804671 1.02557C1.04772 0.696334 1.40726 0.5 1.77477 0.5H18.2252C18.5928 0.5 18.9524 0.696401 19.1955 1.02574C18.9621 0.750854 18.6253 0.569397 18.2252 0.569397H1.77477ZM18.2252 19.4306C18.6258 19.4306 18.9629 19.2487 19.1963 18.9733C18.9533 19.3032 18.5934 19.5 18.2252 19.5H1.77477C1.40723 19.5 1.04766 19.3036 0.804618 18.9744C1.03801 19.2492 1.3747 19.4306 1.77477 19.4306H18.2252ZM14.7326 15.1314H9.58684V15.062H14.7326V15.1314ZM6.9439 15.1314H4.39436V15.062H6.9439V15.1314Z" fill="currentColor" stroke="currentColor"/>
</svg>
