<svg viewBox="0 0 20 20" fill="currentColor" xmlns="http://www.w3.org/2000/svg">
<path d="M2.25 1C1.29252 1 0.5 1.79261 0.5 2.75019V11.2511C0.5 12.2087 1.29252 13.0013 2.25 13.0013H17.75C18.7075 13.0013 19.5 12.2087 19.5 11.2511V2.75019C19.5 1.79261 18.7075 1 17.75 1H2.25ZM3.5 2.50016H16.5C16.5 3.33025 17.17 4.00033 18 4.00033V10.001C17.17 10.001 16.5 10.671 16.5 11.5011H3.5C3.5 10.671 2.83 10.001 2 10.001V4.00033C2.83 4.00033 3.5 3.33025 3.5 2.50016ZM10 3.50027C9.02083 3.50027 8.19763 3.99238 7.70605 4.66837C7.21448 5.34436 7 6.1767 7 7.00065C7 7.8246 7.21448 8.65695 7.70605 9.33294C8.19763 10.0089 9.02083 10.501 10 10.501C10.9792 10.501 11.8024 10.0089 12.2939 9.33294C12.7855 8.65695 13 7.8246 13 7.00065C13 6.1767 12.7855 5.34436 12.2939 4.66837C11.8024 3.99238 10.9792 3.50027 10 3.50027ZM10 5.00043C10.5208 5.00043 10.8226 5.1959 11.0811 5.55127C11.3395 5.90665 11.5 6.44945 11.5 7.00065C11.5 7.55185 11.3395 8.09465 11.0811 8.45003C10.8226 8.8054 10.5208 9.00087 10 9.00087C9.47917 9.00087 9.17737 8.8054 8.91895 8.45003C8.66052 8.09465 8.5 7.55185 8.5 7.00065C8.5 6.44945 8.66052 5.90665 8.91895 5.55127C9.17737 5.1959 9.47917 5.00043 10 5.00043ZM4 6.00054C3.73478 6.00054 3.48043 6.10591 3.29289 6.29347C3.10536 6.48102 3 6.73541 3 7.00065C3 7.2659 3.10536 7.52028 3.29289 7.70783C3.48043 7.89539 3.73478 8.00076 4 8.00076C4.26522 8.00076 4.51957 7.89539 4.70711 7.70783C4.89464 7.52028 5 7.2659 5 7.00065C5 6.73541 4.89464 6.48102 4.70711 6.29347C4.51957 6.10591 4.26522 6.00054 4 6.00054ZM16 6.00054C15.7348 6.00054 15.4804 6.10591 15.2929 6.29347C15.1054 6.48102 15 6.73541 15 7.00065C15 7.2659 15.1054 7.52028 15.2929 7.70783C15.4804 7.89539 15.7348 8.00076 16 8.00076C16.2652 8.00076 16.5196 7.89539 16.7071 7.70783C16.8946 7.52028 17 7.2659 17 7.00065C17 6.73541 16.8946 6.48102 16.7071 6.29347C16.5196 6.10591 16.2652 6.00054 16 6.00054ZM2.02246 14.0004C2.13296 14.828 2.81671 15.4706 3.67871 15.5006C9.11621 15.6886 13.1412 17.5005 15.3037 18.4736C15.6887 18.6471 16.0199 18.7952 16.2939 18.9072C16.4454 18.9692 16.6042 19 16.7627 19C17.0047 19 17.2442 18.9285 17.4512 18.79C17.7947 18.5595 18 18.1737 18 17.7587V14.0014H16.5V16.0016C15.9323 16.0016 15.4453 16.3183 15.1904 16.782C12.8156 15.7334 8.90476 14.1802 3.73047 14.0014C3.72947 14.0014 3.72902 14.0004 3.72852 14.0004H2.02246Z" />
</svg>
