<svg width="21" height="20" viewBox="0 0 21 20" stroke="currentColor" fill="none" xmlns="http://www.w3.org/2000/svg">
<path d="M15.8919 5.13208H17.4325C18.8507 5.13208 20 6.21965 20 7.56156V18.2683C20 18.665 19.5246 18.8947 19.1836 18.6612L14.3514 15.3359H7.67572C6.25754 15.3359 5.10815 14.2483 5.10815 12.9064V12.5989" stroke-width="1.5" stroke-miterlimit="10" stroke-linejoin="round"/>
<path d="M13.3243 1.24512H3.56757C2.14939 1.24512 1 2.33269 1 3.67459V14.3814C1 14.7781 1.4754 15.0077 1.81641 14.7743L6.64865 11.4489H13.3243C14.7425 11.4489 15.8919 10.3613 15.8919 9.01944V3.67459C15.8919 2.33269 14.7425 1.24512 13.3243 1.24512Z" stroke-width="1.5" stroke-miterlimit="10" stroke-linejoin="round"/>
</svg>
