<svg  viewBox="0 0 13 14" fill="currentColor" xmlns="http://www.w3.org/2000/svg">
<path d="M4.49383 0C3.25908 0 2.24691 0.999826 2.24691 2.21951C2.24691 2.66855 2.4177 3.06412 2.65268 3.41463H0.864197C0.392832 3.41463 0 3.80268 0 4.26829V6.65854C0 7.05811 0.311403 7.35172 0.691358 7.44083V11.7805C0.691358 13.0002 1.70353 14 2.93827 14H9.50617C10.7409 14 11.7531 13.0002 11.7531 11.7805V7.44083C12.133 7.35172 12.4444 7.05811 12.4444 6.65854V4.26829C12.4444 3.80268 12.0516 3.41463 11.5802 3.41463H9.79176C10.0267 3.06412 10.1975 2.66855 10.1975 2.21951C10.1975 0.999826 9.18536 0 7.95062 0C7.24253 0 6.635 0.34914 6.22222 0.859661C5.80944 0.34914 5.20191 0 4.49383 0ZM4.49383 1.02439C5.16792 1.02439 5.7037 1.55364 5.7037 2.21951V3.41463H4.49383C3.81973 3.41463 3.28395 2.88539 3.28395 2.21951C3.28395 1.55364 3.81973 1.02439 4.49383 1.02439ZM7.95062 1.02439C8.62471 1.02439 9.16049 1.55364 9.16049 2.21951C9.16049 2.88539 8.62471 3.41463 7.95062 3.41463H6.74074V2.21951C6.74074 1.55364 7.27652 1.02439 7.95062 1.02439ZM1.03704 4.43902H4.49383H5.7037V6.4878H1.03704V4.43902ZM6.74074 4.43902H7.95062H11.4074V6.4878H6.74074V4.43902ZM1.72839 7.5122H5.7037V12.9756H2.93827C2.26418 12.9756 1.72839 12.4464 1.72839 11.7805V7.5122ZM6.74074 7.5122H10.716V11.7805C10.716 12.4464 10.1803 12.9756 9.50617 12.9756H6.74074V7.5122Z"/>
</svg>
