<svg width="100%" height="100%" viewBox="0 0 22 22" fill="none" xmlns="http://www.w3.org/2000/svg">
<path d="M7.67792 21.4555L7.71171 21.4671L7.7468 21.4737C8.11409 21.5429 8.45908 21.4725 8.71004 21.2373C8.94395 21.0181 9.02187 20.724 9.02187 20.4882C9.02187 20.3746 9.01996 20.172 9.01742 19.9023C9.0145 19.5926 9.01075 19.1945 9.0081 18.7416L9.00448 18.1217L8.3994 18.2565C7.14446 18.536 6.46695 18.2175 6.10473 17.909C5.91285 17.7456 5.78799 17.5665 5.71162 17.4291C5.67366 17.3607 5.64856 17.3042 5.63381 17.2676C5.62646 17.2494 5.62177 17.2363 5.61941 17.2294L5.61792 17.2251L5.61788 17.2249L5.61338 17.2096L5.6062 17.1909C5.59054 17.1501 5.57464 17.1101 5.55852 17.071C6.03333 17.6217 6.60389 17.8625 7.16002 17.9135C7.83095 17.9749 8.42959 17.7567 8.74931 17.6094L8.99825 17.4946L9.03539 17.223C9.11315 16.6545 9.32754 16.3195 9.50895 16.1567L10.334 15.4163L9.2329 15.2879C8.15333 15.1621 7.13753 14.8927 6.39146 14.2488C5.66736 13.6238 5.12 12.5766 5.12 10.7175C5.12 9.72424 5.46187 8.9268 6.02241 8.29874L6.22811 8.06826L6.11404 7.78117C6.04639 7.61092 5.77909 6.83478 6.1089 5.7373C6.16274 5.74338 6.22637 5.75338 6.30007 5.7693C6.66969 5.84914 7.29694 6.07888 8.21166 6.71416L8.40617 6.84926L8.63393 6.78434C9.3839 6.57057 10.1924 6.46258 11.0006 6.45809C11.8076 6.46258 12.6167 6.57057 13.3674 6.78437L13.5952 6.84925L13.7897 6.71407C14.7039 6.07877 15.3303 5.84907 15.6993 5.76927C15.7727 5.7534 15.836 5.74342 15.8897 5.73734C16.2209 6.83488 15.9536 7.611 15.886 7.78117L15.7718 8.06857L15.9779 8.2991C16.5388 8.92638 16.8788 9.72344 16.8788 10.7175C16.8788 12.5816 16.3304 13.6274 15.6056 14.2496C14.8583 14.891 13.8404 15.1566 12.7565 15.2801L11.6388 15.4074L12.4823 16.1518C12.709 16.3518 12.9919 16.8261 12.9919 17.6756C12.9919 18.3595 12.9888 18.9774 12.9856 19.4666C12.9846 19.6299 12.9836 19.7793 12.9826 19.9123C12.9808 20.176 12.9794 20.375 12.9794 20.4882C12.9794 20.7218 13.0547 21.019 13.2912 21.2403C13.5455 21.4783 13.8948 21.5447 14.2641 21.4715L14.297 21.465L14.3287 21.4541C18.5017 20.0263 21.5 15.9957 21.5 11.2539C21.5 5.32594 16.8103 0.5 10.9994 0.5C5.18961 0.5 0.5 5.32598 0.5 11.2539C0.5 15.997 3.5009 20.0304 7.67792 21.4555Z" stroke="currentColor"/>
</svg>
