<svg width="40" height="40" viewBox="0 0 40 40" fill="none" xmlns="http://www.w3.org/2000/svg">
<path d="M20 0C8.96241 0 0 8.96241 0 20C0 31.0376 8.96241 40 20 40C31.0376 40 40 31.0376 40 20C40 8.96241 31.0376 0 20 0ZM19.0977 7.03759L25.1128 10.4361L19.0977 13.8045L13.0827 10.4361L19.0977 7.03759ZM26.4662 12.4211V19.218L20.3308 22.6767V15.8797L26.4662 12.4211ZM11.7293 12.4211L17.8647 15.8797V22.6767L11.7293 19.218V12.4211ZM19.1278 32.9624L11.8195 22.0451L19.1278 26.0451L35.5188 16.7218L19.1278 32.9624Z" fill="currentColor"/>
</svg>
