<svg viewBox="0 0 320 365" fill="none" xmlns="http://www.w3.org/2000/svg">
<path d="M130.144 160.226L160.463 141.972L190.783 160.226L160.463 178.479L130.144 160.226Z" fill="#10BBD5"/>
<path d="M27.6826 242.821L58.0025 224.568L88.3224 242.821L58.0025 261.075L27.6826 242.821Z" fill="#10BBD5"/>
<path d="M230.512 68.3084L260.832 50.0549L291.151 68.3084L260.832 86.5619L230.512 68.3084Z" fill="#10BBD5"/>
<path opacity="0.3" d="M292.197 68.1842L261.354 86.4014V363.621L292.197 346.309V68.1842Z" fill="url(#paint0_linear_13147_235184)"/>
<path d="M230.511 68.1842L261.354 86.4014V363.621L230.511 346.309V68.1842Z" fill="url(#paint1_linear_13147_235184)"/>
<path opacity="0.3" d="M190.784 160.791L159.941 179.008V363.228L190.784 345.916V160.791Z" fill="url(#paint2_linear_13147_235184)"/>
<path opacity="0.3" d="M89.368 243.387L58.5254 261.604V362.824L89.368 345.512V243.387Z" fill="url(#paint3_linear_13147_235184)"/>
<path d="M130.143 160.791L160.986 179.008V364.228L130.143 346.916V160.791Z" fill="url(#paint4_linear_13147_235184)"/>
<path d="M27.6828 243.387L58.5254 261.604V362.824L27.6828 345.512V243.387Z" fill="url(#paint5_linear_13147_235184)"/>
<path d="M230.51 68.1842L261.352 49.9669L292.195 68.1842M230.51 68.1842L261.352 86.4015M230.51 68.1842V346.309L261.352 363.621M261.352 86.4015L292.195 68.1842M261.352 86.4015V363.621M292.195 68.1842V346.309L261.352 363.621" stroke="url(#paint6_linear_13147_235184)" stroke-width="0.843085"/>
<path d="M130 159.973L160.32 141.719L190.64 159.973M130 159.973L160.32 178.226M130 159.973V346.612L160.32 363.958M160.32 178.226L190.64 159.973M160.32 178.226V363.958M190.64 159.973V346.612L160.32 363.958" stroke="url(#paint7_linear_13147_235184)" stroke-width="0.843085"/>
<path fill-rule="evenodd" clip-rule="evenodd" d="M175.795 100.408C176.051 100.493 176.305 100.586 176.557 100.687C181.665 102.74 184.917 107.695 186.153 113.851C187.39 120.015 186.639 127.487 183.658 134.83C180.677 142.173 176 148.067 170.808 151.645C165.628 155.216 159.837 156.535 154.733 154.49L148.916 152.359C148.661 152.274 148.407 152.181 148.155 152.08C143.047 150.027 139.795 145.072 138.559 138.916C137.322 132.752 138.073 125.279 141.054 117.937C144.035 110.594 148.711 104.7 153.903 101.121C159.084 97.5505 164.875 96.2319 169.979 98.2769L175.795 100.408Z" fill="black"/>
<ellipse cx="159.056" cy="125.034" rx="18.609" ry="28.3398" transform="rotate(21.9948 159.056 125.034)" fill="white"/>
<path fill-rule="evenodd" clip-rule="evenodd" d="M160.499 111.533L164.841 135.416L144.577 130.35L160.499 111.533ZM146.095 129.861L163.778 134.281L159.989 113.441L146.095 129.861Z" fill="black"/>
<path d="M141.815 112.526L135.371 111.129L141.815 109.733L143.212 103.288L144.608 109.733L151.053 111.129L144.608 112.526L143.212 118.971L141.815 112.526Z" fill="#10BBD5"/>
<path d="M27.6826 242.751L58.5253 224.568L89.3679 242.751M27.6826 242.751L58.5253 260.935M27.6826 242.751V347.066L58.5253 364.346M58.5253 260.935L89.3679 242.751M58.5253 260.935V364.346M89.3679 242.751V347.066L58.5253 364.346" stroke="url(#paint8_linear_13147_235184)" stroke-width="0.843085"/>
<path fill-rule="evenodd" clip-rule="evenodd" d="M251.732 9.7522C263.656 3.7001 278.668 9.68125 285.345 22.8352C291.293 34.5548 288.744 48.2281 279.694 55.3694C278.743 56.1204 277.835 56.9226 276.907 57.7427C276.734 57.8958 276.56 58.0495 276.385 58.2036C275.282 59.1752 274.142 60.1558 272.908 61.0348C272.035 61.6559 271.109 62.2181 270.131 62.7146C258.207 68.7667 243.195 62.7855 236.518 49.6315C230.612 37.9955 233.084 24.4349 241.976 17.2517C242.873 16.5265 243.743 15.7625 244.628 14.9844C244.868 14.7736 245.109 14.5618 245.352 14.3495C246.483 13.3611 247.648 12.3704 248.89 11.4787C249.782 10.839 250.73 10.2611 251.732 9.7522Z" fill="black"/>
<ellipse cx="263.9" cy="33.7211" rx="23.2083" ry="26.0364" transform="rotate(-26.9108 263.9 33.7211)" fill="white"/>
<path fill-rule="evenodd" clip-rule="evenodd" d="M31.6811 221.042C31.5429 220.709 31.4218 220.371 31.3174 220.029C29.9648 215.597 31.4482 210.644 34.7836 206.206C38.1285 201.756 43.4037 197.717 49.8933 195.029C56.2965 192.377 62.7933 191.492 68.2596 192.22C73.7102 192.946 78.2538 195.301 80.5265 199.252C80.7656 199.667 80.9788 200.1 81.1645 200.548M31.6811 221.042C31.8268 221.394 31.9895 221.736 32.1683 222.068ZM32.1683 222.068L34.3625 227.299L34.3632 227.301C36.2289 231.803 40.7851 234.555 46.4094 235.498C52.0481 236.445 58.8939 235.609 65.6338 232.818C72.2158 230.092 77.5492 225.976 80.8859 221.45C84.2137 216.935 85.6239 211.903 84.0873 207.442C84.0136 207.228 83.9332 207.015 83.846 206.805M83.846 206.805C83.7137 206.485 83.5674 206.174 83.4078 205.871ZM83.4078 205.871L81.51 201.502C81.4098 201.181 81.2947 200.862 81.1645 200.548" fill="black"/>
<path d="M31.3174 220.029C31.4218 220.371 31.5429 220.709 31.6811 221.042L32.1683 222.068L34.3625 227.299L34.3632 227.301C36.2289 231.803 40.7851 234.555 46.4094 235.498C52.0481 236.445 58.8939 235.609 65.6338 232.818C72.2158 230.092 77.5492 225.976 80.8859 221.45C84.2137 216.935 85.6239 211.903 84.0873 207.442C84.0136 207.228 83.9332 207.015 83.846 206.805L83.4078 205.871L81.51 201.502C81.4098 201.181 81.2947 200.862 81.1645 200.548C80.9788 200.1 80.7656 199.667 80.5265 199.252C78.2538 195.301 73.7102 192.946 68.2596 192.22C62.7933 191.492 56.2965 192.377 49.8933 195.029C43.4037 197.717 38.1285 201.756 34.7836 206.206C31.4482 210.644 29.9648 215.597 31.3174 220.029Z" fill="black"/>
<path d="M80.3858 200.87C83.8138 209.147 75.8643 220.301 62.6299 225.782C49.3956 231.263 35.888 228.996 32.46 220.719C29.0319 212.442 36.9815 201.289 50.2158 195.808C63.4501 190.327 76.9577 192.593 80.3858 200.87Z" fill="white"/>
<path d="M81.1773 203.486L74.7324 202.089L81.1773 200.693L82.5738 194.248L83.9703 200.693L90.4151 202.089L83.9703 203.486L82.5738 209.93L81.1773 203.486Z" fill="#10BBD5"/>
<path d="M275.641 12.1566L269.196 10.7601L275.641 9.3636L277.037 2.91875L278.434 9.3636L284.878 10.7601L278.434 12.1566L277.037 18.6014L275.641 12.1566Z" fill="#10BBD5"/>
<path d="M318.842 118.932C318.823 118.467 318.43 118.105 317.965 118.125L310.384 118.44C309.919 118.459 309.557 118.852 309.576 119.317C309.596 119.783 309.989 120.144 310.454 120.125L317.193 119.844L317.473 126.583C317.492 127.049 317.885 127.41 318.35 127.391C318.815 127.371 319.177 126.979 319.158 126.513L318.842 118.932ZM271.428 170.825L318.62 119.538L317.38 118.396L270.187 169.683L271.428 170.825ZM1.22351 335.61C104.954 307.089 198.582 249.99 271.428 170.825L270.187 169.683C197.555 248.616 104.203 305.547 0.776489 333.984L1.22351 335.61Z" fill="url(#paint9_linear_13147_235184)"/>
<path fill-rule="evenodd" clip-rule="evenodd" d="M262.524 18.6638L274.628 32.1157L269.637 49.8391L256.82 35.6782L262.524 18.6638ZM262.864 20.3021L257.776 35.4783L269.239 48.1428L273.691 32.3344L262.864 20.3021Z" fill="black"/>
<path fill-rule="evenodd" clip-rule="evenodd" d="M59.5097 200.234L70.8359 209.634L53.1299 221.531L42.4854 210.132L59.5097 200.234ZM43.8232 210.33L53.2559 220.43L69.4301 209.563L59.4244 201.259L43.8232 210.33Z" fill="black"/>
<defs>
<linearGradient id="paint0_linear_13147_235184" x1="260.831" y1="90.7419" x2="292.197" y2="332.778" gradientUnits="userSpaceOnUse">
<stop stop-color="#10BBD5"/>
<stop offset="1" stop-color="#10BBD5" stop-opacity="0"/>
</linearGradient>
<linearGradient id="paint1_linear_13147_235184" x1="245.933" y1="68.1842" x2="246.194" y2="339.574" gradientUnits="userSpaceOnUse">
<stop stop-color="white"/>
<stop offset="1" stop-color="white" stop-opacity="0"/>
</linearGradient>
<linearGradient id="paint2_linear_13147_235184" x1="159.419" y1="183.27" x2="190.784" y2="302.458" gradientUnits="userSpaceOnUse">
<stop stop-color="#10BBD5"/>
<stop offset="1" stop-color="#10BBD5" stop-opacity="0"/>
</linearGradient>
<linearGradient id="paint3_linear_13147_235184" x1="54.3433" y1="247.569" x2="73.6853" y2="290.958" gradientUnits="userSpaceOnUse">
<stop stop-color="#10BBD5"/>
<stop offset="1" stop-color="#10BBD5" stop-opacity="0"/>
</linearGradient>
<linearGradient id="paint4_linear_13147_235184" x1="145.565" y1="160.791" x2="145.826" y2="283.639" gradientUnits="userSpaceOnUse">
<stop stop-color="white"/>
<stop offset="1" stop-color="white" stop-opacity="0"/>
</linearGradient>
<linearGradient id="paint5_linear_13147_235184" x1="43.1041" y1="243.387" x2="43.3655" y2="284.685" gradientUnits="userSpaceOnUse">
<stop stop-color="white"/>
<stop offset="1" stop-color="white" stop-opacity="0"/>
</linearGradient>
<linearGradient id="paint6_linear_13147_235184" x1="261.352" y1="49.9669" x2="260.83" y2="347.415" gradientUnits="userSpaceOnUse">
<stop/>
<stop offset="1" stop-opacity="0"/>
</linearGradient>
<linearGradient id="paint7_linear_13147_235184" x1="160.32" y1="141.719" x2="160.32" y2="315.274" gradientUnits="userSpaceOnUse">
<stop/>
<stop offset="1" stop-opacity="0"/>
</linearGradient>
<linearGradient id="paint8_linear_13147_235184" x1="57.9219" y1="260.211" x2="58.0025" y2="285.73" gradientUnits="userSpaceOnUse">
<stop/>
<stop offset="0.433998" stop-opacity="0.34"/>
<stop offset="1" stop-opacity="0"/>
</linearGradient>
<linearGradient id="paint9_linear_13147_235184" x1="229.267" y1="236.921" x2="39.9858" y2="384.723" gradientUnits="userSpaceOnUse">
<stop stop-color="#10BBD5"/>
<stop offset="1" stop-color="#10BBD5" stop-opacity="0"/>
</linearGradient>
</defs>
</svg>
