<svg width="17" height="20" viewBox="0 0 17 20" fill="currentColor" xmlns="http://www.w3.org/2000/svg">
<path d="M8.44566 9.75931C7.80333 9.38691 7.28456 9.09269 6.77286 8.78706C6.56056 8.66003 6.36242 8.67143 6.15774 8.78923C5.84365 8.96946 5.52792 9.14806 5.21492 9.33046C3.8524 10.1236 2.49097 10.9188 1.1279 11.7114C0.930847 11.826 0.725625 11.9275 0.457258 12.0713C0.437117 11.8118 0.412077 11.6387 0.411532 11.4655C0.408266 9.36629 0.416431 7.26761 0.401189 5.16839C0.397923 4.73574 0.559597 4.45562 0.927036 4.24228C3.26232 2.88677 5.59379 1.52421 7.92308 0.158929C8.25024 -0.0326991 8.5627 -0.0625561 8.89585 0.132872C11.4592 1.63766 14.0237 3.1392 16.587 4.64399C16.6616 4.68796 16.7231 4.75474 16.8325 4.84594C14.0509 6.47124 11.3013 8.07809 8.51316 9.70774C8.59699 9.8022 8.64 9.88146 8.70695 9.92108C9.15822 10.1903 9.6182 10.4444 10.0668 10.718C10.3128 10.8684 10.5371 10.8597 10.7788 10.7158C11.2148 10.4558 11.6568 10.2072 12.095 9.95094C13.347 9.21972 14.598 8.4874 15.8505 7.75672C16.0182 7.65901 16.1913 7.57106 16.4346 7.43861C16.4575 7.69049 16.4858 7.86204 16.4863 8.03358C16.4923 10.1507 16.4852 12.2678 16.5037 14.385C16.5076 14.8339 16.2904 15.0755 15.9338 15.2829C13.9431 16.4381 11.9584 17.6036 9.97258 18.7664C9.65958 18.9493 9.35093 19.1393 9.0401 19.3255C8.66613 19.5497 8.28617 19.5573 7.9024 19.3516C7.77447 19.2832 7.6471 19.2137 7.52189 19.1409C5.23724 17.8066 2.95204 16.4728 0.668468 15.1357C0.468145 15.0185 0.279254 14.8833 0 14.7009C2.82629 13.0474 5.58072 11.4356 8.44566 9.75931ZM7.92254 18.3342C7.94703 18.0867 7.97643 17.932 7.97589 17.7767C7.97207 16.1845 7.96935 14.5923 7.95248 13.0007C7.94758 12.5632 8.06516 12.2342 8.48976 12.0306C8.8131 11.8754 9.10869 11.6631 9.42387 11.472C8.79786 10.8418 8.43532 10.7647 7.77556 11.1501C5.88175 12.2554 3.99393 13.3709 2.10556 14.4849C2.00431 14.5446 1.91667 14.6287 1.76262 14.7476C3.82627 15.9495 5.83712 17.1204 7.92254 18.3342ZM7.47181 8.02598C8.07441 8.71106 8.35367 8.7762 9.04718 8.37395C10.9257 7.28498 12.7989 6.18624 14.6725 5.08859C14.8032 5.01205 14.9191 4.91054 15.0754 4.79599C14.9409 4.70045 14.8593 4.63151 14.7683 4.57939C12.8413 3.46654 10.9138 2.35586 8.98512 1.24627C8.97423 1.24029 8.95082 1.25278 8.93449 1.26038C8.91925 1.26744 8.90619 1.27829 8.87026 1.30218C8.86427 1.42921 8.85066 1.57144 8.85121 1.71421C8.85284 3.35851 8.84849 5.00282 8.86427 6.64658C8.86808 7.05535 8.74234 7.32787 8.35149 7.50158C8.04393 7.63729 7.76903 7.84521 7.47181 8.02598ZM1.73649 4.79654C1.933 4.92628 2.0348 4.99902 2.14149 5.06308C3.27375 5.74165 4.40546 6.42076 5.54044 7.0939C5.71028 7.19432 5.89101 7.28878 6.07935 7.34361C6.63514 7.50647 7.09784 7.28281 7.55183 6.98207C7.94322 6.72258 7.98405 6.3567 7.98133 5.94196C7.97208 4.56962 7.97915 3.19674 7.97643 1.82441C7.97589 1.63658 7.95302 1.44875 7.93506 1.17624C5.8382 2.40092 3.82899 3.57457 1.73649 4.79654ZM8.88659 18.3684C11.0243 17.1231 13.0498 15.943 15.1401 14.7253C14.9093 14.5793 14.7613 14.48 14.6078 14.3893C13.5299 13.7553 12.4576 13.1125 11.371 12.4937C10.2567 11.8585 10.6193 11.839 9.43476 12.4747C9.02105 12.6967 8.83379 12.9866 8.8425 13.4681C8.86645 14.8426 8.84958 16.2177 8.8523 17.5927C8.8523 17.8077 8.87026 18.0216 8.88659 18.3684ZM15.5392 8.94449C14.1031 9.78103 12.7379 10.5758 11.2741 11.4286C12.7374 12.2776 14.1021 13.0696 15.5392 13.9035C15.5392 12.2125 15.5392 10.6333 15.5392 8.94449ZM5.59597 8.09221C4.13546 7.24535 2.78437 6.46201 1.36579 5.63959C1.36579 7.31104 1.36579 8.88206 1.36579 10.5584C2.78873 9.72891 4.1371 8.94286 5.59597 8.09221Z" fill="currentColor"/>
</svg>
