<svg width="100%" height="100%" viewBox="0 0 6 11" fill="none" xmlns="http://www.w3.org/2000/svg">
<path d="M2.72559 6.19487e-05C2.43177 -0.00371155 2.15004 0.165109 2.02441 0.451234L0.0976562 4.84967C0.0366562 4.99117 0 5.15247 0 5.31647C0 5.95897 0.520586 6.47858 1.16309 6.47858H1.28906H3.16113L2.52441 9.55182C2.45341 9.89332 2.62844 10.2491 2.96094 10.3946C3.34244 10.5616 3.7866 10.3884 3.9541 10.0069L5.88086 5.60944C5.94186 5.46794 5.97852 5.30664 5.97852 5.14264C5.97802 4.50014 5.45695 3.97955 4.81445 3.97955H4.68945H2.81738L3.4541 0.907288C3.5251 0.565788 3.35008 0.209038 3.01758 0.0635385C2.9222 0.0217885 2.82352 0.00131945 2.72559 6.19487e-05Z" fill="currentColor"/>
</svg>
