<svg width="100%" height="100%" viewBox="0 0 17 24" fill="none" xmlns="http://www.w3.org/2000/svg">
<path d="M8.5 0C3.52799 0 -0.00578833 3.91594 7.11796e-06 8.26125C0.00290484 10.3369 0.796882 12.2302 2.10376 13.6772C3.34253 15.0483 4.53253 17.2819 4.63637 18L4.63927 21.5241C4.63927 21.6717 4.68466 21.8156 4.7687 21.9384L5.95242 23.6653C6.09586 23.8744 6.33733 24 6.59572 24H10.4038C10.6627 24 10.9042 23.8744 11.0471 23.6653L12.2308 21.9384C12.3149 21.8156 12.3598 21.6712 12.3603 21.5241L12.3636 18C12.4728 17.2631 13.6671 15.038 14.8963 13.6772C16.2055 12.2273 17 10.3298 17 8.25C17 3.69375 13.1943 0 8.5 0ZM10.8153 21.2958L9.98992 22.5H7.00961L6.18424 21.2958L6.18375 21H10.8153V21.2958ZM10.8172 19.5H6.18231L6.17893 18H10.8192L10.8172 19.5ZM13.7343 12.6881C13.0586 13.4362 11.9797 14.9428 11.2915 16.4995H5.70901C5.02032 14.9423 3.94188 13.4362 3.26623 12.6881C2.14915 11.4516 1.55174 9.88359 1.54788 8.25C1.53918 4.64109 4.46395 1.5 8.5 1.5C12.3347 1.5 15.4545 4.52812 15.4545 8.25C15.4545 9.88359 14.8436 11.46 13.7343 12.6881ZM8.5 3C5.51776 3 3.09091 5.35547 3.09091 8.25C3.09091 8.66438 3.43671 9 3.86364 9C4.29057 9 4.63637 8.66438 4.63637 8.25C4.63637 6.18234 6.36921 4.5 8.5 4.5C8.92694 4.5 9.27273 4.16437 9.27273 3.75C9.27273 3.33562 8.92694 3 8.5 3Z" fill="currentColor"/>
</svg>
