<svg viewBox="0 0 20 20" xmlns="http://www.w3.org/2000/svg">
<path d="M10 0C7.59593 0 5.62756 1.97277 5.62756 4.38222V6.57591H3.71046C2.36233 6.57591 1.25 7.68559 1.25 9.04187L1.25 17.534C1.25 18.8903 2.36233 20 3.71046 20H16.2895C17.6377 20 18.75 18.8903 18.75 17.534V9.04187C18.75 7.68559 17.6377 6.57591 16.2895 6.57591H14.3724V4.38222C14.3724 1.97277 12.4041 0 10 0ZM10 1.64398C11.5173 1.64398 12.7321 2.86155 12.7321 4.38222V6.57591H7.26787V4.38222C7.26787 2.86155 8.48272 1.64398 10 1.64398ZM3.71046 8.21988H16.2895C16.7509 8.21988 17.1097 8.57436 17.1097 9.04187V17.534C17.1097 18.0015 16.7509 18.356 16.2895 18.356H3.71046C3.24912 18.356 2.8903 18.0015 2.8903 17.534V9.04187C2.8903 8.57436 3.24912 8.21988 3.71046 8.21988Z" fill="currentColor"/>
</svg>
