<svg width="31" height="31" viewBox="0 0 31 31" fill="none" xmlns="http://www.w3.org/2000/svg">
<g>
<circle cx="15.5" cy="14.5" r="11.75" fill="#0A2540" stroke="white" stroke-width="1.5"/>
<path d="M17.7541 9.20654C17.6052 9.07436 17.4028 9 17.1927 9C16.9817 9 16.7793 9.07435 16.6305 9.20654L11.2326 13.9954C11.0838 14.1275 11 14.3065 11 14.4938C11 14.681 11.0837 14.86 11.2326 14.9922L16.6305 19.781C16.7778 19.9187 16.9825 19.9979 17.1965 20C17.4106 20.002 17.6168 19.9277 17.7681 19.7927C17.9193 19.6585 18.003 19.4754 17.9999 19.2854C17.9968 19.0953 17.9076 18.9143 17.7525 18.7835L12.9161 14.4938L17.7525 10.2041C17.9014 10.0719 17.986 9.89289 17.986 9.70563C17.9867 9.51838 17.903 9.3387 17.7541 9.20652L17.7541 9.20654Z" fill="white"/>
</g>
</svg>
