<svg width="20" height="20" viewBox="0 0 20 20" fill="currentColor" xmlns="http://www.w3.org/2000/svg">
<path d="M2.14589 6.50006C2.0615 6.49887 1.97772 6.51445 1.89941 6.54589C1.8211 6.57734 1.74983 6.62402 1.68973 6.68323C1.62964 6.74244 1.58192 6.81299 1.54935 6.89079C1.51677 6.96859 1.5 7.05208 1.5 7.13642C1.5 7.22075 1.51677 7.30424 1.54935 7.38204C1.58192 7.45984 1.62964 7.53039 1.68973 7.5896C1.74983 7.64881 1.8211 7.69549 1.89941 7.72694C1.97772 7.75838 2.0615 7.77396 2.14589 7.77277H17.8541C17.9385 7.77396 18.0223 7.75838 18.1006 7.72694C18.1789 7.69549 18.2502 7.64881 18.3103 7.5896C18.3704 7.53039 18.4181 7.45984 18.4507 7.38204C18.4832 7.30424 18.5 7.22075 18.5 7.13642C18.5 7.05208 18.4832 6.96859 18.4507 6.89079C18.4181 6.81299 18.3704 6.74244 18.3103 6.68323C18.2502 6.62402 18.1789 6.57734 18.1006 6.54589C18.0223 6.51445 17.9385 6.49887 17.8541 6.50006H2.14589ZM7.24045 12.2272C7.15606 12.226 7.07228 12.2416 6.99397 12.2731C6.91566 12.3045 6.84439 12.3512 6.78429 12.4104C6.7242 12.4696 6.67648 12.5402 6.6439 12.618C6.61133 12.6958 6.59456 12.7793 6.59456 12.8636C6.59456 12.9479 6.61133 13.0314 6.6439 13.1092C6.67648 13.187 6.7242 13.2576 6.78429 13.3168C6.84439 13.376 6.91566 13.4227 6.99397 13.4541C7.07228 13.4855 7.15606 13.5011 7.24045 13.4999H17.8541C17.9385 13.5011 18.0223 13.4855 18.1006 13.4541C18.1789 13.4227 18.2502 13.376 18.3103 13.3168C18.3704 13.2576 18.4181 13.187 18.4507 13.1092C18.4832 13.0314 18.5 12.9479 18.5 12.8636C18.5 12.7793 18.4832 12.6958 18.4507 12.618C18.4181 12.5402 18.3704 12.4696 18.3103 12.4104C18.2502 12.3512 18.1789 12.3045 18.1006 12.2731C18.0223 12.2416 17.9385 12.226 17.8541 12.2272H7.24045Z"/>
</svg>
