<svg viewBox="0 0 20 20" fill="currentColor" xmlns="http://www.w3.org/2000/svg">
<path d="M15.4564 3.40269e-05C15.0623 0.00747082 14.7481 0.33095 14.7536 0.725075V1.43896H14.0398C13.7832 1.43524 13.5434 1.57096 13.4133 1.79219C13.2831 2.01528 13.2831 2.29042 13.4133 2.51351C13.5434 2.73474 13.7832 2.87045 14.0398 2.86673H14.7536V3.58062C14.7499 3.83717 14.8856 4.07699 15.1069 4.20713C15.33 4.33726 15.6051 4.33726 15.8282 4.20713C16.0494 4.07699 16.1851 3.83717 16.1814 3.58062V2.86673H16.8953C17.1519 2.87045 17.3917 2.73474 17.5218 2.51351C17.652 2.29042 17.652 2.01528 17.5218 1.79219C17.3917 1.57096 17.1519 1.43524 16.8953 1.43896H16.1814V0.725075C16.1833 0.531731 16.1089 0.345823 15.9713 0.21011C15.8356 0.0725382 15.6497 -0.00182493 15.4564 3.40269e-05ZM9.28052 1.43896C4.16434 1.43896 0 5.6033 0 10.7195C0 15.8357 4.16434 20 9.28052 20C12.7421 20 15.7594 18.0926 17.3508 15.2779C17.4698 15.0697 17.4753 14.8187 17.3675 14.605C17.2597 14.393 17.0533 14.248 16.8172 14.2183C12.7031 13.7107 9.51848 10.2194 9.51848 5.96024C9.51848 4.7128 9.7992 3.536 10.2919 2.47075C10.3922 2.2551 10.3774 2.00412 10.2547 1.79962C10.1301 1.59698 9.91261 1.46871 9.67464 1.45755C9.58541 1.45383 9.45527 1.43896 9.28052 1.43896ZM8.63542 2.9318C8.31752 3.89109 8.09071 4.89313 8.09071 5.96024C8.09071 10.5261 11.2549 14.3298 15.501 15.3858C14.0714 17.295 11.8535 18.5722 9.28052 18.5722C4.93585 18.5722 1.42777 15.0641 1.42777 10.7195C1.42777 6.59419 4.59936 3.26272 8.63542 2.9318ZM17.836 6.18891C17.4419 6.19448 17.1277 6.51796 17.1333 6.91209V7.62597H16.4194C16.1628 7.62226 15.923 7.75797 15.7929 7.9792C15.6627 8.20229 15.6627 8.47743 15.7929 8.70052C15.923 8.92175 16.1628 9.05746 16.4194 9.05375H17.1333V9.76763C17.1295 10.0242 17.2653 10.264 17.4865 10.3941C17.7096 10.5243 17.9847 10.5243 18.2078 10.3941C18.429 10.264 18.5648 10.0242 18.561 9.76763V9.05375H19.2749C19.5315 9.05746 19.7713 8.92175 19.9014 8.70052C20.0316 8.47743 20.0316 8.20229 19.9014 7.9792C19.7713 7.75797 19.5315 7.62226 19.2749 7.62597H18.561V6.91209C18.5629 6.71874 18.4885 6.53284 18.351 6.39712C18.2153 6.25955 18.0293 6.18519 17.836 6.18891Z"/>
</svg>
