<svg width="19" height="6" viewBox="0 0 19 6" fill="currentColor" xmlns="http://www.w3.org/2000/svg">
<path fill-rule="evenodd" clip-rule="evenodd" d="M2.375 5.25C3.61764 5.25 4.625 4.24264 4.625 3C4.625 1.75736 3.61764 0.75 2.375 0.75C1.13236 0.75 0.125 1.75736 0.125 3C0.125 4.24264 1.13236 5.25 2.375 5.25ZM11.375 3C11.375 4.24264 10.3676 5.25 9.125 5.25C7.88236 5.25 6.875 4.24264 6.875 3C6.875 1.75736 7.88236 0.75 9.125 0.75C10.3676 0.75 11.375 1.75736 11.375 3ZM18.125 3C18.125 4.24264 17.1176 5.25 15.875 5.25C14.6324 5.25 13.625 4.24264 13.625 3C13.625 1.75736 14.6324 0.75 15.875 0.75C17.1176 0.75 18.125 1.75736 18.125 3Z" />
</svg>
