<svg width="16" height="16" viewBox="0 0 16 16" fill="currentColor" xmlns="http://www.w3.org/2000/svg">
<path d="M13.3877 1.20018C13.3005 1.20269 13.2149 1.22311 13.1369 1.26C13.0589 1.29689 12.9904 1.34938 12.9361 1.41379L2.13613 13.859C2.08256 13.916 2.04175 13.9827 2.01615 14.0549C1.99054 14.1271 1.98067 14.2035 1.98713 14.2794C1.99359 14.3554 2.01624 14.4293 2.05373 14.4967C2.09122 14.5642 2.14277 14.6238 2.20529 14.6721C2.26782 14.7203 2.34003 14.7561 2.41759 14.7774C2.49516 14.7987 2.57648 14.805 2.6567 14.7959C2.73691 14.7869 2.81435 14.7626 2.88438 14.7247C2.95442 14.6867 3.0156 14.6358 3.06426 14.575L13.8643 2.12975C13.9387 2.04622 13.986 1.94417 14.0004 1.83589C14.0147 1.72762 13.9956 1.61774 13.9452 1.51949C13.8948 1.42125 13.8154 1.33883 13.7165 1.28218C13.6176 1.22553 13.5034 1.19705 13.3877 1.20018V1.20018ZM3.8002 1.58321C2.37197 1.58321 1.2002 2.68798 1.2002 4.03454V5.54305C1.2002 6.88961 2.37197 7.99439 3.8002 7.99439C5.22842 7.99439 6.4002 6.88961 6.4002 5.54305V4.03454C6.4002 2.68798 5.22842 1.58321 3.8002 1.58321ZM3.8002 2.71459C4.57757 2.71459 5.2002 3.30162 5.2002 4.03454V5.54305C5.2002 6.27598 4.57757 6.863 3.8002 6.863C3.02282 6.863 2.4002 6.27598 2.4002 5.54305V4.03454C2.4002 3.30162 3.02282 2.71459 3.8002 2.71459ZM12.2002 7.99439C10.772 7.99439 9.6002 9.09916 9.6002 10.4457V11.9542C9.6002 13.3008 10.772 14.4056 12.2002 14.4056C13.6284 14.4056 14.8002 13.3008 14.8002 11.9542V10.4457C14.8002 9.09916 13.6284 7.99439 12.2002 7.99439ZM12.2002 9.12577C12.9776 9.12577 13.6002 9.7128 13.6002 10.4457V11.9542C13.6002 12.6872 12.9776 13.2742 12.2002 13.2742C11.4228 13.2742 10.8002 12.6872 10.8002 11.9542V10.4457C10.8002 9.7128 11.4228 9.12577 12.2002 9.12577Z"/>
</svg>
