<svg width="100%" height="100%" viewBox="0 0 25 25" fill="none" xmlns="http://www.w3.org/2000/svg">
<path d="M23.3039 12.4976C23.3039 18.4636 18.4675 23.3 12.5015 23.3C6.53558 23.3 1.69922 18.4636 1.69922 12.4976C1.69922 6.53168 6.53558 1.69531 12.5015 1.69531C18.4675 1.69531 23.3039 6.53168 23.3039 12.4976Z" stroke="currentColor" stroke-width="2"/>
<path d="M13.3245 13.0481H13.301V13.0715V16.7761C13.301 17.0054 13.1023 17.1953 12.8567 17.1953H12.1464C11.9009 17.1953 11.7021 17.0054 11.7021 16.7761V13.0715V13.0481H11.6787H8.2484C8.00284 13.0481 7.80408 12.8582 7.80408 12.6289V11.9568C7.80408 11.7276 8.00284 11.5377 8.2484 11.5377L8.24885 11.5377L11.6791 11.4721L11.7021 11.4717V11.4487V8.21944C11.7021 7.99017 11.9009 7.80029 12.1464 7.80029H12.8567C13.1023 7.80029 13.301 7.99017 13.301 8.21944V11.5143V11.5377H13.3245H16.7547C17.0003 11.5377 17.1991 11.7276 17.1991 11.9568V12.6289C17.1991 12.8582 17.0003 13.0481 16.7547 13.0481H13.3245Z" fill="currentColor" stroke="currentColor" stroke-width="0.046875"/>
</svg>
