<svg width="15" height="18" viewBox="0 0 15 18" fill="currentColor" xmlns="http://www.w3.org/2000/svg">
<path d="M7.37432 0C4.89703 0 2.87432 2.02271 2.87432 4.5C2.87432 6.97729 4.89703 9 7.37432 9C9.8516 9 11.8743 6.97729 11.8743 4.5C11.8743 2.02271 9.8516 0 7.37432 0ZM7.37432 1.35C9.12201 1.35 10.5243 2.75231 10.5243 4.5C10.5243 6.24769 9.12201 7.65 7.37432 7.65C5.62662 7.65 4.22432 6.24769 4.22432 4.5C4.22432 2.75231 5.62662 1.35 7.37432 1.35ZM1.96465 10.8C0.983733 10.8 0.174316 11.6094 0.174316 12.5903L0.174316 13.275C0.174316 14.8969 1.19999 16.1515 2.5623 16.9031C3.92462 17.6547 5.64996 18 7.37432 18C9.09867 18 10.824 17.6547 12.1863 16.9031C13.3479 16.2623 14.2221 15.2382 14.4671 13.95H14.5752L14.5752 12.5903C14.5752 11.6094 13.7649 10.8 12.784 10.8L1.96465 10.8ZM1.96465 12.15L12.784 12.15C13.0352 12.15 13.2252 12.3391 13.2252 12.5903V12.6H13.2243V13.275C13.2243 14.3531 12.6187 15.1235 11.5342 15.7219C10.4496 16.3203 8.91246 16.65 7.37432 16.65C5.83617 16.65 4.29901 16.3203 3.21445 15.7219C2.12989 15.1235 1.52432 14.3531 1.52432 13.275L1.52432 12.5903C1.52432 12.3391 1.71346 12.15 1.96465 12.15Z"/>
</svg>
