<svg width="15" height="16" viewBox="0 0 15 16" fill="currentColor" xmlns="http://www.w3.org/2000/svg">
<path d="M7.51573 0.500232C7.38597 0.496326 7.26015 0.541898 7.16447 0.627834C7.16447 0.627834 4.64409 2.83353 1.62829 2.83353C1.35043 2.83353 1.125 3.05748 1.125 3.33352V7.4207C1.125 9.64592 2.16172 13.3086 7.30471 15.4609C7.42922 15.513 7.57078 15.513 7.69529 15.4609C12.8383 13.3086 13.875 9.64592 13.875 7.4207V3.33352C13.875 3.05748 13.6496 2.83353 13.3717 2.83353C10.3559 2.83353 7.83553 0.627834 7.83553 0.627834C7.74771 0.54971 7.635 0.504138 7.51573 0.500232ZM7.5 1.64344C8.19202 2.19552 10.2209 3.61216 12.8684 3.79185V7.4207C12.8684 9.33473 12.1279 12.4219 7.5 14.4427C2.8721 12.4219 2.13158 9.33473 2.13158 7.4207V3.79185C4.77909 3.61216 6.80798 2.19552 7.5 1.64344ZM10.006 5.82827C9.87621 5.83218 9.7517 5.88687 9.65995 5.97931L6.66118 8.95974L5.34005 7.64596C5.21292 7.51575 5.02549 7.46367 4.84987 7.50924C4.67293 7.55481 4.53531 7.69153 4.48944 7.86731C4.44356 8.04178 4.49599 8.22798 4.62706 8.35428L6.30469 10.0209C6.50129 10.2149 6.82108 10.2149 7.01768 10.0209L10.3729 6.68764C10.521 6.54311 10.5656 6.32306 10.4843 6.13426C10.4044 5.94416 10.2144 5.82307 10.006 5.82827Z"/>
</svg>
