<svg width="20" height="20" viewBox="0 0 20 20" fill="currentColor" xmlns="http://www.w3.org/2000/svg">
<path d="M10.0003 1.66667C5.40535 1.66667 1.66699 5.40503 1.66699 10C1.66699 14.595 5.40535 18.3333 10.0003 18.3333C14.5953 18.3333 18.3337 14.595 18.3337 10C18.3337 5.40503 14.5953 1.66667 10.0003 1.66667ZM10.0003 2.91667C13.9197 2.91667 17.0837 6.08058 17.0837 10C17.0837 13.9194 13.9197 17.0833 10.0003 17.0833C6.0809 17.0833 2.91699 13.9194 2.91699 10C2.91699 6.08058 6.0809 2.91667 10.0003 2.91667Z"/>
<path d="M11.8988 6.66686C11.3108 6.65939 10.7198 6.8749 10.2695 7.31464L9.99527 7.5832L9.72102 7.31546C9.2707 6.87596 8.68037 6.66036 8.0926 6.66767C7.50483 6.67498 6.91967 6.90501 6.48046 7.35533C5.60165 8.25578 5.61992 9.71712 6.52033 10.5959L9.55907 13.5614C9.67579 13.6751 9.83231 13.7387 9.99527 13.7387C10.1582 13.7387 10.3147 13.6751 10.4315 13.5614L13.471 10.5951C14.3712 9.71658 14.3889 8.25585 13.5109 7.35533C13.0717 6.90476 12.4867 6.67432 11.8988 6.66686ZM8.10725 7.90953C8.37256 7.90631 8.63938 8.00641 8.84781 8.20982L9.55907 8.90318C9.67579 9.0169 9.83231 9.08055 9.99527 9.08055C10.1582 9.08055 10.3147 9.0169 10.4315 8.90318L11.1427 8.20982L11.1435 8.20901C11.352 8.00542 11.6181 7.90622 11.8833 7.90953C12.1484 7.91286 12.4124 8.01913 12.6157 8.22773C13.0227 8.64478 13.0149 9.29365 12.5978 9.70071L9.99527 12.2406L7.39273 9.70071C6.97564 9.29365 6.9678 8.64559 7.37482 8.22854V8.22773C7.57811 8.0193 7.84193 7.91276 8.10725 7.90953Z"/>
</svg>
