<svg width="100%" height="100%" viewBox="0 0 18 20" fill="none" xmlns="http://www.w3.org/2000/svg">
<path fill-rule="evenodd" clip-rule="evenodd" d="M17.9747 4.06142C17.9777 4.10626 17.9806 4.15111 17.9821 4.19596C18.1137 7.22476 17.5203 10.0925 16.1556 12.7776C14.5442 15.9488 12.1811 18.3412 9.09743 19.9702C9.03166 20.0058 8.98084 20.012 8.91209 19.9748C4.40696 17.5345 1.56098 13.75 0.384627 8.62767C0.0513017 7.17831 -0.0473508 5.70262 0.0199123 4.21454C0.021407 4.16499 0.0243965 4.11389 0.0273859 4.06279C0.0393438 3.86304 0.190312 3.70355 0.383133 3.68496C3.53403 3.37992 6.31723 2.1845 8.75066 0.0940694C8.89714 -0.0313565 9.1064 -0.0313565 9.25139 0.0940694C11.6773 2.1814 14.465 3.37992 17.6189 3.68496C17.8102 3.70355 17.9627 3.86149 17.9747 4.06124L17.9747 4.06142ZM8.63332 11.5392C8.62257 11.5502 8.61147 11.5615 8.59994 11.5735C8.57049 11.5446 8.54569 11.5191 8.52245 11.4918L6.46737 9.26517C6.43792 9.23283 6.40848 9.20219 6.37748 9.17325C6.03342 8.86512 5.51423 9.05578 5.41659 9.53074C5.36544 9.77417 5.43673 9.98186 5.59947 10.1572C6.44567 11.0714 7.28878 11.9855 8.13189 12.8997C8.42791 13.2214 8.77042 13.2214 9.06644 12.9014C10.3536 11.508 11.6407 10.1129 12.9278 8.71786L12.9302 8.71532C13 8.63964 13.07 8.56426 13.1399 8.48892C13.3028 8.31344 13.4656 8.13813 13.626 7.95948C13.9376 7.6122 13.8136 7.03681 13.392 6.89041C13.1456 6.80529 12.9333 6.87849 12.7488 7.07937C11.665 8.25759 10.5792 9.43362 9.49374 10.6092C9.22418 10.9012 8.95465 11.1931 8.68518 11.485C8.66863 11.5032 8.65147 11.5207 8.63332 11.5392Z" fill="currentColor"/>
</svg>
