<svg fill="currentColor" xmlns="http://www.w3.org/2000/svg">
<path d="M9.02097 0.000309147C8.84796 -0.00489922 8.6802 0.0558639 8.55263 0.170445C8.55263 0.170445 5.19213 3.11137 1.17105 3.11137C0.800576 3.11137 0.5 3.40998 0.5 3.77803V9.2276C0.5 12.1946 1.8823 17.0782 8.73962 19.9479C8.90563 20.0174 9.09437 20.0174 9.26038 19.9479C16.1177 17.0782 17.5 12.1946 17.5 9.2276V3.77803C17.5 3.40998 17.1994 3.11137 16.8289 3.11137C12.8079 3.11137 9.44737 0.170445 9.44737 0.170445C9.33028 0.0662806 9.18 0.00551751 9.02097 0.000309147ZM9 1.52459C9.9227 2.26069 12.6279 4.14955 16.1579 4.38913V9.2276C16.1579 11.7796 15.1705 15.8959 9 18.5903C2.82946 15.8959 1.84211 11.7796 1.84211 9.2276V4.38913C5.37212 4.14955 8.0773 2.26069 9 1.52459ZM12.3413 7.10437C12.1683 7.10957 12.0023 7.18249 11.8799 7.30575L7.88158 11.2796L6.12007 9.52794C5.95056 9.35433 5.70066 9.28489 5.46649 9.34565C5.23057 9.40641 5.04708 9.5887 4.98592 9.82307C4.92475 10.0557 4.99465 10.304 5.16941 10.4724L7.40625 12.6946C7.66838 12.9532 8.09478 12.9532 8.35691 12.6946L12.8306 8.25018C13.0281 8.05748 13.0875 7.76408 12.9791 7.51235C12.8725 7.25888 12.6191 7.09742 12.3413 7.10437Z"/>
</svg>
