<svg width="21" height="27" viewBox="0 0 21 27" fill="currentColor" xmlns="http://www.w3.org/2000/svg">
<path d="M10.4333 0.612488L0.375977 6.4234C0.375977 6.4234 0.375977 10.8933 0.375977 13.1283C0.375977 21.8782 7.57145 25.9637 10.4333 26.5381C13.2952 25.9637 20.4907 21.8782 20.4907 13.1283C20.4907 10.8933 20.4907 6.4234 20.4907 6.4234L10.4333 0.612488ZM9.31584 19.1784L4.63918 14.5017L6.2193 12.9216L9.31584 16.0181L15.7883 9.54565L17.3684 11.1258L9.31584 19.1784Z" />
<path d="M9.31584 19.1784L4.63918 14.5017L6.2193 12.9216L9.31584 16.0181L15.7883 9.54565L17.3684 11.1258L9.31584 19.1784Z"/>
<path d="M10.6667 6.66669L6 15.3334H10V21.3334L14.6667 12.6667H10.6667V6.66669Z" fill="white"/>
</svg>
