<svg width="100%" height="100%" viewBox="0 0 23 21" fill="none" xmlns="http://www.w3.org/2000/svg">
<path d="M11.944 1.18683L11.9412 1.19716L11.9388 1.2076L10.7011 6.67423C8.66683 6.81948 7.38918 7.43693 6.00508 8.34049C5.52861 7.98414 4.93347 7.77605 4.29635 7.77605C1.50657 7.77605 0.462039 11.3095 2.74391 12.7796C2.70551 13.0408 2.6883 13.3059 2.6883 13.5677C2.6883 17.4967 6.34353 20.5 11.5444 20.5C16.7706 20.5 20.3699 17.4938 20.3699 13.5677C20.3699 13.304 20.3505 13.0254 20.3032 12.7515C22.531 11.2698 21.4644 7.77605 18.7011 7.77605C18.0623 7.77605 17.4853 7.98483 17.0193 8.32615C15.6901 7.45395 14.4738 6.84739 12.5499 6.69044L13.5123 2.45954L16.5071 3.11557C16.704 4.11912 17.6082 4.86666 18.6706 4.86666C19.8944 4.86666 20.8957 3.88358 20.8957 2.68333C20.8957 1.4839 19.8996 0.5 18.6706 0.5C17.9455 0.5 17.3106 0.855036 16.9075 1.37164L13.0182 0.530001C12.498 0.402343 12.0579 0.767779 11.944 1.18683ZM7.75094 13.9073L7.74872 13.9073C7.05606 13.9104 6.52586 13.3705 6.52586 12.7451C6.52586 12.0991 7.05599 11.5618 7.75094 11.5618C8.42082 11.5618 8.95429 12.0916 8.95429 12.7451C8.95429 13.3734 8.425 13.9073 7.75094 13.9073ZM15.303 13.9115C14.629 13.9115 14.0997 13.3776 14.0997 12.7494C14.0997 12.0993 14.634 11.5661 15.303 11.5661C15.9949 11.5661 16.5275 12.1001 16.5281 12.7482C16.5245 13.3716 15.996 13.9115 15.303 13.9115Z" stroke="currentColor"/>
</svg>
