<svg width="31" height="28" viewBox="0 0 31 28" fill="currentColor" xmlns="http://www.w3.org/2000/svg">
<path d="M17.6001 0C17.1048 0.00656311 16.6821 0.347867 16.5765 0.833567L14.9915 8.421C11.5375 8.51289 8.42032 9.55649 6.12207 11.2171C5.48807 10.7642 4.71538 10.5016 3.87665 10.5016C1.7369 10.5016 0 12.2213 0 14.3479C0 15.8575 0.871751 17.1571 2.14636 17.7872C2.13315 17.925 2.11334 18.0628 2.11334 18.2007C2.11334 23.6156 8.10993 28 15.5 28C22.8901 28 28.8867 23.6156 28.8867 18.2007C28.8867 18.0628 28.8669 17.925 28.8602 17.7872C30.1282 17.1571 31 15.8575 31 14.3479C31 12.2213 29.2631 10.5016 27.1233 10.5016C26.2846 10.5016 25.5119 10.7642 24.8779 11.2171C22.8306 9.74027 20.1361 8.74918 17.1312 8.48008L18.4389 2.27098L22.6325 3.06517C22.9099 4.11533 23.8675 4.89639 25.01 4.89639C26.3705 4.89639 27.4734 3.80028 27.4734 2.44819C27.4734 1.09611 26.3705 0 25.01 0C24.1977 0 23.4778 0.400375 23.0288 1.00422L17.8115 0.019691C17.7388 0.00656309 17.6728 0 17.6001 0ZM10.2167 14C11.5771 14 12.68 15.0961 12.68 16.4482C12.68 17.8068 11.5771 18.903 10.2167 18.903C8.8562 18.903 7.7533 17.8068 7.7533 16.4482C7.7533 15.0961 8.8562 14 10.2167 14ZM20.7833 14C22.1438 14 23.2467 15.0961 23.2467 16.4482C23.2467 17.8068 22.1438 18.903 20.7833 18.903C19.4229 18.903 18.32 17.8068 18.32 16.4482C18.32 15.0961 19.4229 14 20.7833 14ZM10.9233 21.0033C11.1941 21.0033 11.4648 21.1017 11.6696 21.3118C11.7026 21.3446 12.8649 22.4013 15.5 22.4013C18.1549 22.4013 19.3172 21.3183 19.3304 21.3118C19.7465 20.8983 20.4135 20.8983 20.823 21.3118C21.239 21.7187 21.239 22.3816 20.823 22.7951C20.6513 22.9658 19.0068 24.5016 15.5 24.5016C11.9932 24.5016 10.3487 22.9658 10.177 22.7951C9.76097 22.3816 9.76097 21.7187 10.177 21.3118C10.3818 21.1017 10.6525 21.0033 10.9233 21.0033Z"/>
</svg>
