<svg width="17" height="18" viewBox="0 0 17 18" fill="currentColor" xmlns="http://www.w3.org/2000/svg">
<path d="M8.48878 0.866615C8.33546 0.866615 8.18962 0.928221 8.07743 1.03331L7.09767 1.9719L5.76265 1.63488C5.44479 1.55153 5.11945 1.73635 5.03344 2.04075L4.6707 3.33085L3.33942 3.68599C3.02156 3.76934 2.83458 4.08462 2.91685 4.38903L3.26837 5.68638L2.29608 6.63583C2.06797 6.86051 2.06797 7.22652 2.29608 7.4512L3.26837 8.40429L2.91685 9.69801C2.83458 10.0024 3.02156 10.3177 3.33942 10.401L4.6707 10.7562L4.91377 11.6223C4.91003 11.6477 4.91003 11.673 4.91003 11.6984V17.2864C4.91003 17.5002 5.0297 17.6959 5.22789 17.7974C5.42235 17.8989 5.65794 17.888 5.84118 17.7684L8.38781 16.1195C8.45886 16.076 8.54114 16.076 8.61219 16.1195L11.1588 17.7684C11.3421 17.888 11.5777 17.8989 11.7721 17.7974C11.9703 17.6959 12.09 17.5002 12.09 17.2864V11.6984C12.09 11.673 12.09 11.6477 12.0862 11.6223L12.3293 10.7562L13.6606 10.401C13.9784 10.3177 14.1654 10.006 14.0832 9.69801L13.7316 8.40429L14.7039 7.4512C14.932 7.22652 14.932 6.86051 14.7039 6.63583L13.7316 5.68638L14.0832 4.39265C14.1654 4.08462 13.9784 3.76934 13.6606 3.68599L12.3293 3.33085L11.9666 2.04075C11.8806 1.73635 11.5552 1.55153 11.2374 1.63488L9.90233 1.9719L8.92257 1.03331C8.80664 0.920974 8.64958 0.862991 8.48878 0.866615ZM8.5 2.26181L9.304 3.03007C9.45359 3.17503 9.67048 3.23301 9.87616 3.17865L10.9681 2.90324L11.2673 3.95778C11.3234 4.1571 11.4804 4.3093 11.6861 4.36366L12.7743 4.65357L12.4864 5.71174C12.434 5.90743 12.4938 6.11762 12.6397 6.2662L13.4362 7.04533L12.6397 7.82084C12.4938 7.96942 12.434 8.1796 12.4864 8.37892L12.7743 9.43709L11.6861 9.72338C11.4804 9.77774 11.3196 9.93356 11.2635 10.1293L10.9681 11.1874L9.87616 10.9084C9.67048 10.8577 9.45359 10.912 9.304 11.057L8.5 11.8252L7.696 11.057C7.54641 10.912 7.32952 10.8577 7.12385 10.9084L6.0319 11.1874L5.73273 10.1293C5.68038 9.93356 5.51958 9.77774 5.3139 9.72338L4.22569 9.43709L4.51364 8.37892C4.56599 8.1796 4.50616 7.96942 4.36032 7.82084L3.56379 7.04533L4.36032 6.2662C4.50616 6.11762 4.56599 5.90743 4.51364 5.71174L4.22569 4.64995L5.3139 4.36366C5.51958 4.3093 5.68038 4.15347 5.73647 3.95778L6.0319 2.90324L7.12385 3.17865C7.32952 3.23301 7.54641 3.17503 7.696 3.03007L8.5 2.26181ZM7.09767 12.1151L8.07743 13.0537C8.31302 13.2784 8.68698 13.2784 8.92257 13.0537L9.90233 12.1151L10.8933 12.3652V16.2029L9.27409 15.1556C8.80664 14.8548 8.19336 14.8548 7.72591 15.1556L6.10669 16.2029V12.3652L7.09767 12.1151Z"/>
</svg>
