<svg width="100%" height="100%" viewBox="0 0 21 15" fill="none" xmlns="http://www.w3.org/2000/svg">
<path d="M14.9272 0.125C14.0381 0.125 13.2711 0.487142 12.7808 1.03849C12.4756 1.38029 12.3068 1.78719 12.1949 2.20833H0.864705C0.583944 2.20426 0.321492 2.35278 0.179077 2.59489C0.0366617 2.83903 0.0366617 3.14014 0.179077 3.38428C0.321492 3.62638 0.583944 3.7749 0.864705 3.77083H12.1949C12.3068 4.19198 12.4756 4.59888 12.7808 4.94067C13.2711 5.49203 14.0381 5.85417 14.9272 5.85417C15.8163 5.85417 16.5833 5.49203 17.0736 4.94067C17.3788 4.59888 17.5476 4.19198 17.6595 3.77083H20.1355C20.4163 3.7749 20.6788 3.62638 20.8212 3.38428C20.9636 3.14014 20.9636 2.83903 20.8212 2.59489C20.6788 2.35278 20.4163 2.20426 20.1355 2.20833H17.6595C17.5476 1.78719 17.3788 1.38029 17.0736 1.03849C16.5833 0.487142 15.8163 0.125 14.9272 0.125ZM14.9272 1.6875C15.4257 1.6875 15.7024 1.84619 15.9058 2.07609C16.1093 2.30599 16.2293 2.64168 16.2293 2.98958C16.2293 3.33748 16.1093 3.67318 15.9058 3.90308C15.7024 4.13298 15.4257 4.29167 14.9272 4.29167C14.4288 4.29167 14.1521 4.13298 13.9486 3.90308C13.7452 3.67318 13.6251 3.33748 13.6251 2.98958C13.6251 2.64168 13.7452 2.30599 13.9486 2.07609C14.1521 1.84619 14.4288 1.6875 14.9272 1.6875ZM6.07304 8.71875C5.18396 8.71875 4.41695 9.08089 3.92664 9.63224C3.62146 9.97404 3.4526 10.3809 3.3407 10.8021H0.864705C0.583944 10.798 0.321492 10.9465 0.179077 11.1886C0.0366617 11.4328 0.0366617 11.7339 0.179077 11.978C0.321492 12.2201 0.583944 12.3687 0.864705 12.3646H3.3407C3.4526 12.7857 3.62146 13.1926 3.92664 13.5344C4.41695 14.0858 5.18396 14.4479 6.07304 14.4479C6.96212 14.4479 7.72913 14.0858 8.21944 13.5344C8.52462 13.1926 8.69348 12.7857 8.80538 12.3646H20.1355C20.4163 12.3687 20.6788 12.2201 20.8212 11.978C20.9636 11.7339 20.9636 11.4328 20.8212 11.1886C20.6788 10.9465 20.4163 10.798 20.1355 10.8021H8.80538C8.69348 10.3809 8.52462 9.97404 8.21944 9.63224C7.72913 9.08089 6.96212 8.71875 6.07304 8.71875ZM6.07304 10.2813C6.57149 10.2813 6.84819 10.4399 7.05164 10.6698C7.25509 10.8997 7.37512 11.2354 7.37512 11.5833C7.37512 11.9312 7.25509 12.2669 7.05164 12.4968C6.84819 12.7267 6.57149 12.8854 6.07304 12.8854C5.57458 12.8854 5.29789 12.7267 5.09444 12.4968C4.89099 12.2669 4.77096 11.9312 4.77096 11.5833C4.77096 11.2354 4.89099 10.8997 5.09444 10.6698C5.29789 10.4399 5.57458 10.2813 6.07304 10.2813Z" fill="currentColor"/>
</svg>
