<svg fill="currentColor" xmlns="http://www.w3.org/2000/svg">
<path d="M8.12866 0.500012C8.02353 0.499321 7.92032 0.529653 7.83073 0.587568C7.74115 0.645483 7.66877 0.728663 7.62182 0.827676L5.68965 4.89534L1.10166 5.63855C0.998963 5.65526 0.902669 5.70158 0.823456 5.77237C0.744243 5.84317 0.685206 5.93567 0.652892 6.03963C0.620578 6.14359 0.61625 6.25494 0.640388 6.36133C0.664526 6.46772 0.716186 6.56499 0.78964 6.64236L3.96329 9.98299L3.25649 14.8178C3.24068 14.9259 3.25365 15.0366 3.29397 15.1375C3.33429 15.2384 3.40038 15.3255 3.48491 15.3892C3.56943 15.453 3.66908 15.4908 3.77279 15.4985C3.8765 15.5062 3.98022 15.4836 4.07242 15.433L8.125 13.2072L12.1776 15.433C12.2698 15.4836 12.3735 15.5062 12.4772 15.4985C12.5809 15.4908 12.6806 15.453 12.7651 15.3892C12.8496 15.3255 12.9157 15.2384 12.956 15.1375C12.9963 15.0366 13.0093 14.9259 12.9935 14.8178L12.2867 9.98299L15.4604 6.64236C15.5338 6.56499 15.5855 6.46772 15.6096 6.36133C15.6338 6.25494 15.6294 6.14359 15.5971 6.03963C15.5648 5.93567 15.5058 5.84317 15.4265 5.77237C15.3473 5.70158 15.251 5.65526 15.1483 5.63855L10.5604 4.89534L8.62818 0.827676C8.58178 0.729835 8.51055 0.64743 8.42238 0.589595C8.33421 0.53176 8.23255 0.500753 8.12866 0.500012V0.500012Z"/>
</svg>
