<svg width="20" height="20" viewBox="0 0 20 20" fill="none" xmlns="http://www.w3.org/2000/svg">
<g clip-path="url(#clip0_11197_397264)">
<path d="M9.98779 20C9.57419 19.9922 9.24448 19.6527 9.25034 19.2391V17.7408C9.24643 17.4716 9.38885 17.2199 9.62101 17.0833C9.85512 16.9468 10.1439 16.9468 10.378 17.0833C10.6101 17.2199 10.7526 17.4716 10.7487 17.7408V19.2391C10.7506 19.442 10.6726 19.6371 10.5282 19.7795C10.3858 19.9239 10.1907 20.0019 9.98779 20ZM3.45802 17.2882C3.15368 17.2882 2.8786 17.1048 2.76349 16.8219C2.64839 16.539 2.71667 16.2152 2.93713 16.0025L3.99648 14.9432C4.28912 14.6505 4.7632 14.6505 5.05584 14.9432C5.34848 15.2358 5.34848 15.7099 5.05584 16.0025L3.99648 17.0619C3.85406 17.2082 3.66092 17.2901 3.45802 17.2882ZM16.5176 17.2882C16.3225 17.2843 16.1391 17.2023 16.0025 17.0619L14.9432 16.0025C14.6505 15.7099 14.6505 15.2358 14.9432 14.9432C15.2358 14.6505 15.7099 14.6505 16.0025 14.9432L17.0619 16.0025C17.2843 16.2171 17.3526 16.5468 17.2316 16.8336C17.1106 17.1184 16.8277 17.2979 16.5176 17.2882ZM9.99949 15.4933C6.9736 15.4933 4.50567 13.0254 4.50567 9.99949C4.50567 6.9736 6.9736 4.50567 9.99949 4.50567C13.0254 4.50567 15.4933 6.9736 15.4933 9.99949C15.4933 13.0254 13.0254 15.4933 9.99949 15.4933ZM9.99949 13.995C12.2158 13.995 13.995 12.2158 13.995 9.99949C13.995 7.78324 12.2158 6.00399 9.99949 6.00399C7.78324 6.00399 6.00399 7.78324 6.00399 9.99949C6.00399 12.2158 7.78324 13.995 9.99949 13.995ZM0.759887 10.7487C0.490659 10.7526 0.238989 10.6101 0.102424 10.378C-0.0341413 10.1439 -0.0341413 9.85513 0.102424 9.62101C0.238989 9.38885 0.490659 9.24644 0.759887 9.25034H2.2582C2.52743 9.24644 2.7791 9.38885 2.91567 9.62101C3.05223 9.85513 3.05223 10.1439 2.91567 10.378C2.7791 10.6101 2.52743 10.7526 2.2582 10.7487H0.759887ZM17.7408 10.7487C17.4716 10.7526 17.2199 10.6101 17.0833 10.378C16.9468 10.1439 16.9468 9.85513 17.0833 9.62101C17.2199 9.38885 17.4716 9.24644 17.7408 9.25034H19.2391C19.5083 9.24644 19.76 9.38885 19.8966 9.62101C20.0331 9.85513 20.0331 10.1439 19.8966 10.378C19.76 10.6101 19.5083 10.7526 19.2391 10.7487H17.7408ZM4.51153 5.28214C4.31643 5.27629 4.13109 5.19435 3.99648 5.05584L2.93713 3.99648C2.64253 3.70384 2.64253 3.22976 2.93517 2.93517C3.22976 2.64254 3.70384 2.64254 3.99648 2.93713L5.05584 3.99648C5.27824 4.21108 5.34457 4.54079 5.22362 4.82563C5.10266 5.11046 4.81977 5.2919 4.51153 5.28214ZM15.464 5.28214C15.1597 5.28214 14.8846 5.09681 14.7715 4.81392C14.6564 4.53104 14.7246 4.20718 14.9432 3.99648L16.0025 2.93713C16.2951 2.64254 16.7692 2.64254 17.0619 2.93713C17.3565 3.22976 17.3565 3.70384 17.0619 3.99648L16.0025 5.05584C15.862 5.20021 15.6669 5.28214 15.464 5.28214ZM9.98779 3.01711C9.57419 3.01126 9.24448 2.6718 9.25034 2.2582V0.759888C9.24643 0.49066 9.38885 0.238989 9.62101 0.102425C9.85512 -0.0341415 10.1439 -0.0341415 10.378 0.102425C10.6101 0.238989 10.7526 0.49066 10.7487 0.759888V2.2582C10.7506 2.4611 10.6726 2.65619 10.5282 2.79861C10.3858 2.94298 10.1907 3.02102 9.98779 3.01711Z" fill="currentColor"/>
</g>
<defs>
<clipPath id="clip0_11197_397264">
<rect width="20" height="20" fill="currentColor"/>
</clipPath>
</defs>
</svg>
