<svg width="24" height="20" viewBox="0 0 24 20" fill="currentColor" xmlns="http://www.w3.org/2000/svg">
<path d="M1.61678 8.59848C8.99837 5.3445 18.5559 1.37905 19.8779 0.833045C23.3374 -0.60643 24.4006 -0.330669 23.8717 2.85162C23.4916 5.14043 22.3899 12.7073 21.5195 17.4228C20.9962 20.2135 19.8339 20.5445 18.005 19.3366C17.1236 18.7575 12.6837 15.8124 11.7196 15.123C10.8383 14.4943 9.62085 13.7387 11.1467 12.244C11.6866 11.7146 15.2397 8.3172 18.005 5.67541C18.3686 5.32795 17.9114 4.75988 17.4927 5.03565C13.7633 7.51198 8.59624 10.9535 7.9352 11.4002C6.94364 12.0731 5.98514 12.3874 4.27195 11.8911C2.97741 11.5216 1.71043 11.0748 1.22016 10.9038C-0.67482 10.253 -0.223111 9.40922 1.61678 8.59848Z"/>
</svg>
