<svg width="14" height="14" viewBox="0 0 14 14" fill="currentColor" xmlns="http://www.w3.org/2000/svg">
<path d="M7 0C3.14022 0 0 3.14023 0 7C0 10.8598 3.14022 14 7 14C10.8598 14 14 10.8598 14 7C14 3.14023 10.8598 0 7 0ZM7 1.05C10.2923 1.05 12.95 3.70769 12.95 7C12.95 10.2923 10.2923 12.95 7 12.95C3.70768 12.95 1.05 10.2923 1.05 7C1.05 3.70769 3.70768 1.05 7 1.05ZM6.4668 2.79248C6.32768 2.79465 6.19511 2.85196 6.09821 2.9518C6.00131 3.05165 5.948 3.18588 5.95 3.325V7.175C5.95003 7.31423 6.00535 7.44775 6.10381 7.54619L7.85381 9.29619C7.90218 9.34658 7.96013 9.3868 8.02425 9.41451C8.08836 9.44222 8.15736 9.45686 8.22721 9.45757C8.29706 9.45828 8.36634 9.44505 8.43101 9.41865C8.49568 9.39225 8.55443 9.35321 8.60382 9.30382C8.65321 9.25443 8.69225 9.19568 8.71865 9.13101C8.74505 9.06634 8.75828 8.99706 8.75757 8.92721C8.75686 8.85736 8.74222 8.78836 8.71451 8.72425C8.6868 8.66013 8.64658 8.60218 8.59619 8.55381L7 6.95762V3.325C7.00101 3.25473 6.9879 3.18498 6.96145 3.11987C6.935 3.05476 6.89576 2.99562 6.84603 2.94596C6.79631 2.8963 6.73712 2.85713 6.67198 2.83077C6.60684 2.8044 6.53706 2.79138 6.4668 2.79248V2.79248Z"/>
</svg>
