<svg  viewBox="0 0 20 21" fill="currentColor" xmlns="http://www.w3.org/2000/svg">
<path d="M14.4895 1.25C14.3482 1.25003 14.2102 1.29221 14.093 1.37114C13.9758 1.45007 13.8849 1.56216 13.8318 1.69307C13.7787 1.82398 13.7659 1.96775 13.7949 2.10599C13.824 2.24424 13.8937 2.37066 13.995 2.46909L16.569 5.04315H1.71994C1.62588 5.04182 1.53249 5.0592 1.4452 5.09427C1.35792 5.12935 1.27847 5.18142 1.21149 5.24747C1.1445 5.31351 1.09131 5.39221 1.055 5.47899C1.0187 5.56577 1 5.65891 1 5.75298C1 5.84705 1.0187 5.94018 1.055 6.02696C1.09131 6.11374 1.1445 6.19244 1.21149 6.25849C1.27847 6.32453 1.35792 6.37661 1.4452 6.41168C1.53249 6.44676 1.62588 6.46414 1.71994 6.46281H16.569L13.995 9.03686C13.9269 9.10227 13.8725 9.18061 13.835 9.2673C13.7975 9.35399 13.7777 9.44728 13.7768 9.54172C13.7758 9.63615 13.7937 9.72983 13.8294 9.81727C13.8651 9.9047 13.9179 9.98413 13.9847 10.0509C14.0515 10.1177 14.1309 10.1705 14.2183 10.2062C14.3058 10.2419 14.3994 10.2598 14.4939 10.2588C14.5883 10.2578 14.6816 10.238 14.7683 10.2006C14.855 10.1631 14.9333 10.1087 14.9987 10.0406L18.7845 6.25485C18.9176 6.12172 18.9923 5.9412 18.9923 5.75298C18.9923 5.56475 18.9176 5.38423 18.7845 5.25111L14.9987 1.46535C14.9326 1.39721 14.8534 1.34305 14.7659 1.30606C14.6784 1.26907 14.5844 1.25 14.4895 1.25V1.25ZM5.49183 10.2421C5.30748 10.2475 5.13246 10.3244 5.00382 10.4565L1.21807 14.2423C1.085 14.3754 1.01025 14.5559 1.01025 14.7441C1.01025 14.9324 1.085 15.1129 1.21807 15.246L5.00382 19.0318C5.06923 19.0999 5.14757 19.1543 5.23426 19.1917C5.32095 19.2292 5.41425 19.249 5.50868 19.25C5.60312 19.2509 5.69679 19.233 5.78423 19.1973C5.87166 19.1616 5.95109 19.1089 6.01787 19.0421C6.08465 18.9753 6.13744 18.8959 6.17313 18.8084C6.20883 18.721 6.22672 18.6273 6.22576 18.5329C6.2248 18.4385 6.20501 18.3452 6.16754 18.2585C6.13007 18.1718 6.07569 18.0934 6.00756 18.028L3.43351 15.454H18.2826C18.3767 15.4553 18.4701 15.4379 18.5573 15.4028C18.6446 15.3678 18.7241 15.3157 18.7911 15.2497C18.858 15.1836 18.9112 15.1049 18.9475 15.0181C18.9839 14.9313 19.0025 14.8382 19.0025 14.7441C19.0025 14.6501 18.9839 14.5569 18.9475 14.4702C18.9112 14.3834 18.858 14.3047 18.7911 14.2386C18.7241 14.1726 18.6446 14.1205 18.5573 14.0854C18.4701 14.0504 18.3767 14.033 18.2826 14.0343H3.43351L6.00756 11.4603C6.10997 11.3605 6.17988 11.2322 6.20815 11.0921C6.23641 10.952 6.22172 10.8066 6.16599 10.6749C6.11026 10.5433 6.01609 10.4315 5.8958 10.3543C5.77552 10.2771 5.63472 10.238 5.49183 10.2421V10.2421Z" />
</svg>
