<svg width="23" height="20" viewBox="0 0 23 20" fill="currentColor" xmlns="http://www.w3.org/2000/svg">
<path d="M22.8462 2.39063C22.6871 2.22396 22.4355 2.17187 22.2251 2.27083L22.1326 2.3125C22.0608 2.34896 21.9838 2.38542 21.9068 2.42187C22.1275 2.0625 22.3072 1.67187 22.4253 1.27604C22.4971 1.05729 22.4201 0.8125 22.2405 0.671875C22.0608 0.531251 21.8144 0.515625 21.6193 0.635416C20.993 1.02083 20.3975 1.29687 19.7763 1.48958C18.8368 0.567708 17.5637 0 16.1571 0C13.2822 0 10.9515 2.36458 10.9515 5.27604C10.9515 5.28125 10.9515 5.39063 10.9515 5.55729L10.4074 5.51042C5.08375 4.86979 3.56419 1.23958 3.50258 1.08333C3.39991 0.822917 3.17916 0.630208 2.90708 0.572917C2.63499 0.515625 2.35264 0.598959 2.15756 0.796875C2.04976 0.911459 1.09489 1.93229 1.09489 3.89063C1.09489 5.28125 1.71093 6.41146 2.50152 7.29167C2.1319 7.0625 1.91628 6.88021 1.91115 6.875C1.6596 6.65104 1.29511 6.60417 0.997355 6.75521C0.699603 6.91146 0.519924 7.23437 0.550727 7.57813C0.560994 7.69271 0.797143 9.91667 3.32804 11.5937L2.86601 11.6823C2.58366 11.7292 2.35264 11.9271 2.24997 12.1979C2.14216 12.4635 2.18323 12.7708 2.35778 13C2.41425 13.0781 3.48205 14.4896 5.8076 15.3021C4.56525 15.7187 2.86087 16.1094 0.822811 16.1094C0.49939 16.1094 0.206771 16.3021 0.0732967 16.599C-0.0601792 16.8958 -0.00884189 17.2448 0.206771 17.4948C0.294043 17.5937 2.42965 20 7.9432 20C17.0914 20 21.3575 11.3802 21.3575 5.55729V5.27604C21.3575 5.19792 21.3472 5.11458 21.3472 5.03646C22.492 3.91146 22.9232 3.06771 22.9438 3.02604C23.0464 2.8125 23.0054 2.5625 22.8462 2.39063Z"/>
</svg>
