<svg width="20" height="21" viewBox="0 0 20 21" fill="currentColor" xmlns="http://www.w3.org/2000/svg">
<path d="M10.0001 2.51636C5.40535 2.51636 1.66675 6.25496 1.66675 10.8497C1.66675 15.4444 5.40535 19.183 10.0001 19.183C14.5948 19.183 18.3334 15.4444 18.3334 10.8497C18.3334 6.25496 14.5948 2.51636 10.0001 2.51636ZM10.0001 3.76636C13.9194 3.76636 17.0834 6.93042 17.0834 10.8497C17.0834 14.769 13.9194 17.933 10.0001 17.933C6.08081 17.933 2.91675 14.769 2.91675 10.8497C2.91675 6.93042 6.08081 3.76636 10.0001 3.76636ZM9.78198 5.42489C9.43693 5.42977 9.16186 5.71297 9.16675 6.05802V6.53817C8.00301 6.6993 7.08341 7.6661 7.08341 8.87052C7.08341 10.1856 8.16414 11.2664 9.47925 11.2664H10.3126C11.0678 11.2664 11.6667 11.8653 11.6667 12.6205C11.6667 13.3757 11.0678 13.9747 10.3126 13.9747H9.37508C8.88354 13.9747 8.48315 13.6427 8.36597 13.1967C8.31551 12.9753 8.14787 12.7996 7.92977 12.7361C7.71004 12.6742 7.47567 12.7345 7.31453 12.8972C7.15503 13.0583 7.09481 13.2927 7.15666 13.5125C7.39754 14.4304 8.20321 15.0994 9.16675 15.1905V15.6414C9.16349 15.866 9.28231 16.0759 9.47599 16.1899C9.6713 16.3038 9.91219 16.3038 10.1075 16.1899C10.3012 16.0759 10.42 15.866 10.4167 15.6414V15.2035C11.797 15.1449 12.9167 14.0138 12.9167 12.6205C12.9167 11.1899 11.7432 10.0164 10.3126 10.0164H9.47925C8.8396 10.0164 8.33341 9.51017 8.33341 8.87052C8.33341 8.23088 8.8396 7.72469 9.47925 7.72469H9.68921C9.75594 7.73608 9.8243 7.73608 9.89103 7.72469H10.2084C10.6951 7.72469 11.0955 8.05184 11.2143 8.49292C11.3038 8.82658 11.6472 9.02352 11.9809 8.934C12.3145 8.84448 12.5115 8.50106 12.422 8.1674C12.1746 7.25757 11.3738 6.60002 10.4167 6.50887V6.05802C10.4184 5.88875 10.3533 5.72599 10.2328 5.60718C10.114 5.48673 9.95125 5.42163 9.78198 5.42489Z"/>
</svg>
