<svg viewBox="0 0 20 21" fill="currentColor" xmlns="http://www.w3.org/2000/svg">
<path d="M9.22596 0.250477C9.10076 0.254165 8.97818 0.286963 8.86813 0.346225C8.75808 0.405486 8.66363 0.489551 8.59241 0.591635C8.59241 0.591635 7.75268 1.7987 6.73755 3.16939C5.72241 4.54009 4.48586 6.10723 3.89856 6.65725C2.78666 7.69886 2 9.11603 2 10.7202V14.1813C2 17.5236 4.75181 20.25 8.12531 20.25H13.1001C15.1072 20.25 16.8126 18.7586 17.0636 16.7858L17.3414 14.8183L17.7887 11.652L17.9718 10.3616C18.2166 8.62962 16.8352 7.05716 15.0704 7.05716H10.5586C10.9273 6.15239 11.1985 5.33324 11.3877 4.41138C11.3881 4.41138 11.3884 4.41138 11.3887 4.41138C11.4995 3.87132 11.5926 3.44763 11.5926 2.99727C11.5926 1.91208 11.0333 1.1329 10.491 0.743147C9.94858 0.35339 9.38512 0.260784 9.38512 0.260784C9.33255 0.252097 9.27923 0.248644 9.22596 0.250477ZM9.53077 2.01502C9.54213 2.02266 9.54112 2.01707 9.55261 2.02533C9.78204 2.1902 9.99474 2.3885 9.99474 2.99727C9.99474 3.19494 9.93183 3.56056 9.82205 4.09598C9.62587 5.0516 9.4032 5.79625 8.99085 6.75001C8.99085 6.75036 8.99085 6.7507 8.99085 6.75104C8.81772 7.1528 8.83492 7.60636 9.04702 7.98169C9.25913 8.35699 9.71175 8.6403 10.1893 8.6403H15.0704C15.8931 8.6403 16.5026 9.33459 16.3885 10.142L16.2064 11.4335L15.7591 14.5998L15.4803 16.5746C15.4795 16.5787 15.4788 16.5828 15.4782 16.5869C15.3272 17.782 14.3152 18.6669 13.1001 18.6669H8.12531C5.61533 18.6669 3.59791 16.6681 3.59791 14.1813V10.7202C3.59791 9.62887 4.13296 8.61606 4.99608 7.8075C5.82932 7.02716 6.99433 5.49857 8.02544 4.10629C8.84977 2.99324 9.2794 2.37341 9.53077 2.01502Z"/>
</svg>
