<svg width="100%" height="100%" viewBox="0 0 22 22" fill="none" xmlns="http://www.w3.org/2000/svg">
<path d="M11 1C5.4812 1 1 5.4812 1 11C1 16.5188 5.4812 21 11 21C16.5188 21 21 16.5188 21 11C21 5.4812 16.5188 1 11 1ZM10.5489 4.5188L13.5564 6.21805L10.5489 7.90226L7.54135 6.21805L10.5489 4.5188ZM14.2331 7.21053V10.609L11.1654 12.3383V8.93985L14.2331 7.21053ZM6.86466 7.21053L9.93233 8.93985V12.3383L6.86466 10.609V7.21053ZM10.5639 18.5L6.90977 13L10.5639 15L18.7594 10L10.5639 18.5Z" stroke="currentColor" stroke-width="0.8" stroke-linejoin="round"/>
</svg>
