<svg xmlns="http://www.w3.org/2000/svg" viewBox="0 0 21 20" fill="currentColor">
<path d="M17.9374 4.13837H17.9387H17.9436H17.9485H17.9535H17.9585H17.9635H17.9686H17.9737H17.9789H17.9841H17.9893H17.9946H18H18.0053H18.0108H18.0162H18.0218H18.0273H18.0329H18.0386H18.0442H18.05H18.0557H18.0616H18.0674H18.0733H18.0793H18.0853H18.0913H18.0974H18.1036H18.1098H18.116H18.1223H18.1286H18.1349H18.1414H18.1478H18.1543H18.1609H18.1675H18.1741H18.1808H18.1875H18.1943H18.2012H18.208H18.215H18.222H18.229H18.2361H18.2432H18.2504H18.2576C19.4762 4.13837 20.4768 5.40327 20.4768 6.97002V17.1451C20.4768 18.7119 19.4762 19.9768 18.2576 19.9768L4.03535 19.9763C2.1036 19.9763 0.523233 17.9732 0.523233 15.4986V4.50042C0.523233 2.02628 2.1036 0.0232328 4.03535 0.0232328H15.6717C16.8903 0.0232328 17.8909 1.28813 17.8909 2.85488V4.09191H17.8905H17.8897H17.8888H17.8879H17.8878H17.887H17.886H17.8851H17.8842H17.8835H17.8832H17.8822H17.8812H17.8802H17.8792H17.8791H17.8782H17.8771H17.8761H17.875H17.8748H17.874H17.8729H17.8718H17.8707H17.8706H17.8696H17.8684H17.8673H17.8663H17.8662H17.865H17.8638H17.8627H17.8622H17.8615H17.8603H17.8591H17.858H17.8578H17.8566H17.8554H17.8541H17.8539H17.8529H17.8516H17.8504H17.8498H17.8491H17.8478H17.8465H17.8458H17.8452H17.8439H17.8426H17.8418H17.8412H17.8399H17.8385H17.8379H17.8372H17.8358H17.8345H17.834H17.8331H17.8317H17.8303H17.8301H17.8289H17.8275H17.8263H17.8261H17.8247H17.8233H17.8225H17.8219H17.8205H17.819H17.8187H17.8176H17.8161H17.815H17.8147H17.8132H17.8118H17.8113H17.8103H17.8089H17.8076H17.8074H17.8059H17.8044H17.804H17.8029H17.8014H17.8005H17.7999H17.7985H17.797H17.7969H17.7954H17.7939H17.7934H17.7924H17.7909H17.79H17.7894H17.7879H17.7865H17.7864H17.7848H17.7833H17.7832H17.7818H17.7802H17.7798H17.7787H17.7772H17.7765H17.7756H17.7741H17.7732H17.7726H17.771H17.77H17.7695H17.7679H17.7668H17.7664H17.7649H17.7636H17.7633H17.7618H17.7605H17.7602H17.7587H17.7574H17.7571H17.7556H17.7543H17.754H17.7525H17.7513H17.7509H17.7494H17.7483H17.7479H17.7463H17.7453H17.7448H17.7432H17.7424H17.7417H17.7402H17.7395H17.7386H17.7371H17.7367H17.7356H17.734H17.7338H17.7325H17.731H17.731H17.7294H17.7283H17.7279H17.7264H17.7256H17.7249H17.7234H17.7229H17.7219H17.7204H17.7202H17.7189H17.7176H17.7174H17.7159H17.715H17.7144H17.7129H17.7125H17.7114H17.71H17.7099H17.7084H17.7075H17.707H17.7055H17.705H17.704H17.7026H17.7026H17.7011H17.7002H17.6997H17.6982H17.6979H17.6968H17.6956H17.6954H17.694H17.6933H17.6925H17.6911H17.691H17.6897H17.6888H17.6883H17.6869H17.6866H17.6855H17.6845H17.6841H17.6828H17.6823H17.6814H17.6802H17.68H17.6787H17.6782H17.6773H17.6761H17.676H17.6747H17.6741H17.6733H17.6721H17.672H17.6707H17.6702H17.6694H17.6683H17.6681H17.6668H17.6664H17.6656H17.6646H17.6643H17.663H17.6627H17.6618H17.661H17.6605H17.6593H17.6592H17.6581H17.6575H17.6569H17.6558H17.6557H17.6545H17.6541H17.6533H17.6524H17.6521H17.651H17.6508H17.6498H17.6493H17.6487H17.6477H17.6475H17.6464H17.6462H17.6453H17.6447H17.6442H17.6432H17.6431H17.642H17.6418H17.641H17.6404H17.6399H17.639H17.6389H17.6378H17.6376H17.6368H17.6363H17.6358H17.635H17.6348H17.6338H17.6337H17.6329H17.6325H17.6319H17.6313H17.631H17.6301H17.63H17.6291H17.6289H17.6282H17.6278H17.6273H17.6267H17.6264H17.6256H17.6256H17.6247H17.6245H17.6239H17.6235H17.623H17.6225H17.6222H17.6215H17.6214H17.6206H17.6206H17.6199H17.6196H17.6191H17.6187H17.6184H17.6179H17.6177H17.617H17.6169H17.6162H17.6162H17.6156H17.6154H17.6149H17.6146H17.6143H17.6139H17.6136H17.6132H17.613H17.6125H17.6124H17.6118H17.6118H17.6112H17.6111H17.6107H17.6105H17.6102H17.6099H17.6096H17.6093H17.6091H17.6088H17.6086H17.6083H17.6082H17.6078H17.6077H17.6073H17.6069H17.6068H17.6065H17.6064H17.6061H17.606H17.6057H17.6056H17.6054H17.6052H17.605H17.6049H17.6047H17.6046H17.6044H17.6043H17.6042H17.604H17.6039H17.6037H17.6037H17.6035H17.6035H17.6033H17.6033H17.6031H17.6029H17.6028H17.6027H17.6026H17.6025H17.6024H17.6024H17.6024L17.6024 4.13837H17.6024H17.6024H17.6025H17.6026H17.6027H17.6028H17.6029H17.6031H17.6033H17.6033H17.6035H17.6035H17.6037H17.6037H17.6039H17.604H17.6042H17.6043H17.6044H17.6046H17.6047H17.6049H17.605H17.6052H17.6054H17.6056H17.6057H17.606H17.6061H17.6064H17.6065H17.6068H17.6069H17.6073H17.6077H17.6078H17.6082H17.6083H17.6086H17.6088H17.6091H17.6093H17.6096H17.6099H17.6102H17.6105H17.6107H17.6111H17.6112H17.6118H17.6118H17.6124H17.6125H17.613H17.6132H17.6136H17.6139H17.6143H17.6146H17.6149H17.6154H17.6156H17.6162H17.6162H17.6169H17.617H17.6177H17.6179H17.6184H17.6187H17.6191H17.6196H17.6199H17.6206H17.6206H17.6214H17.6215H17.6222H17.6225H17.623H17.6235H17.6239H17.6245H17.6247H17.6256H17.6256H17.6264H17.6267H17.6273H17.6278H17.6282H17.6289H17.6291H17.63H17.6301H17.631H17.6313H17.6319H17.6325H17.6329H17.6337H17.6338H17.6348H17.635H17.6358H17.6363H17.6368H17.6376H17.6378H17.6389H17.639H17.6399H17.6404H17.641H17.6418H17.642H17.6431H17.6432H17.6442H17.6447H17.6453H17.6462H17.6464H17.6475H17.6477H17.6487H17.6493H17.6498H17.6508H17.651H17.6521H17.6524H17.6533H17.6541H17.6545H17.6557H17.6558H17.6569H17.6575H17.6581H17.6592H17.6593H17.6605H17.661H17.6618H17.6627H17.663H17.6643H17.6646H17.6656H17.6664H17.6668H17.6681H17.6683H17.6694H17.6702H17.6707H17.672H17.6721H17.6733H17.6741H17.6747H17.676H17.6761H17.6773H17.6782H17.6787H17.68H17.6802H17.6814H17.6823H17.6828H17.6841H17.6845H17.6855H17.6866H17.6869H17.6883H17.6888H17.6897H17.691H17.6911H17.6925H17.6933H17.694H17.6954H17.6956H17.6968H17.6979H17.6982H17.6997H17.7002H17.7011H17.7026H17.7026H17.704H17.705H17.7055H17.707H17.7075H17.7084H17.7099H17.71H17.7114H17.7125H17.7129H17.7144H17.715H17.7159H17.7174H17.7176H17.7189H17.7202H17.7204H17.7219H17.7229H17.7234H17.7249H17.7256H17.7264H17.7279H17.7283H17.7294H17.731H17.731H17.7325H17.7338H17.734H17.7356H17.7367H17.7371H17.7386H17.7395H17.7402H17.7417H17.7424H17.7432H17.7448H17.7453H17.7463H17.7479H17.7483H17.7494H17.7509H17.7513H17.7525H17.754H17.7543H17.7556H17.7571H17.7574H17.7587H17.7602H17.7605H17.7618H17.7633H17.7636H17.7649H17.7664H17.7668H17.7679H17.7695H17.77H17.771H17.7726H17.7732H17.7741H17.7756H17.7765H17.7772H17.7787H17.7798H17.7802H17.7818H17.7832H17.7833H17.7848H17.7864H17.7865H17.7879H17.7894H17.79H17.7909H17.7924H17.7934H17.7939H17.7954H17.7969H17.797H17.7985H17.7999H17.8005H17.8014H17.8029H17.804H17.8044H17.8059H17.8074H17.8076H17.8089H17.8103H17.8113H17.8118H17.8132H17.8147H17.815H17.8161H17.8176H17.8187H17.819H17.8205H17.8219H17.8225H17.8233H17.8247H17.8261H17.8263H17.8275H17.8289H17.8301H17.8303H17.8317H17.8331H17.834H17.8345H17.8358H17.8372H17.8379H17.8385H17.8399H17.8412H17.8418H17.8426H17.8439H17.8452H17.8458H17.8465H17.8478H17.8491H17.8498H17.8504H17.8516H17.8529H17.8539H17.8541H17.8554H17.8566H17.8578H17.858H17.8591H17.8603H17.8615H17.8622H17.8627H17.8638H17.865H17.8662H17.8663H17.8673H17.8684H17.8696H17.8706H17.8707H17.8718H17.8729H17.874H17.8748H17.875H17.8761H17.8771H17.8782H17.8791H17.8792H17.8802H17.8812H17.8822H17.8832H17.8835H17.8842H17.8851H17.886H17.887H17.8878H17.8879H17.8888H17.8897H17.8905H17.8914H17.8923H17.8931H17.8939H17.8947H17.8955H17.8963H17.8967H17.897H17.8978H17.8985H17.8992H17.8999H17.9006H17.9012H17.9013H17.9019H17.9026H17.9032H17.9038H17.9044H17.905H17.9056H17.9058H17.9061H17.9066H17.9071H17.9076H17.9081H17.9086H17.909H17.9094H17.9098H17.9102H17.9104H17.9106H17.911H17.9113H17.9116H17.9119H17.9122H17.9125H17.9127H17.9129H17.9131H17.9133H17.9135H17.9136H17.9138H17.9139H17.914H17.914H17.9141H17.9141H17.915H17.9196H17.9244H17.9291H17.9339H17.9374ZM17 4.13837H17.0232V4.11514V2.85488C17.0232 2.4234 16.8972 1.95525 16.666 1.59433C16.4349 1.23334 16.0964 0.976767 15.6717 0.976767L4.03535 0.976253C3.39456 0.976253 2.75466 1.45845 2.27658 2.13568C1.79784 2.81384 1.47677 3.69367 1.47677 4.50042V15.4986C1.47677 16.3056 1.79794 17.1855 2.27673 17.8637C2.75486 18.541 3.39476 19.0232 4.03535 19.0232V19C4.03535 19.0232 4.03541 19.0232 4.03551 19.0232H4.03597H4.03674H4.03781H4.03919H4.04086H4.04285H4.04513H4.04771H4.05058H4.05376H4.05723H4.061H4.06505H4.0694H4.07405H4.07898H4.0842H4.0897H4.0955H4.10158H4.10794H4.11458H4.12151H4.12872H4.1362H4.14397H4.15201H4.16033H4.16892H4.17778H4.18692H4.19633H4.20601H4.21595H4.22617H4.23665H4.24739H4.2584H4.26967H4.28121H4.293H4.30506H4.31737H4.32994H4.34276H4.35584H4.36918H4.38276H4.3966H4.41068H4.42502H4.4396H4.45443H4.4695H4.48482H4.50038H4.51619H4.53223H4.54851H4.56503H4.58179H4.59878H4.61601H4.63348H4.65117H4.6691H4.68725H4.70564H4.72425H4.74309H4.76215H4.78144H4.80095H4.82068H4.84064H4.86081H4.8812H4.90181H4.92263H4.94367H4.96492H4.98639H5.00807H5.02995H5.05205H5.07435H5.09686H5.11958H5.14249H5.16562H5.18894H5.21247H5.23619H5.26011H5.28423H5.30855H5.33306H5.35776H5.38266H5.40775H5.43303H5.45849H5.48415H5.50999H5.53602H5.56223H5.58863H5.6152H5.64196H5.6689H5.69601H5.72331H5.75077H5.77842H5.80624H5.83423H5.86239H5.89072H5.91922H5.94789H5.97672H6.00572H6.03489H6.06422H6.09371H6.12336H6.15317H6.18314H6.21327H6.24355H6.27399H6.30458H6.33533H6.36622H6.39727H6.42846H6.45981H6.4913H6.52293H6.55471H6.58664H6.6187H6.65091H6.68326H6.71574H6.74836H6.78112H6.81402H6.84704H6.88021H6.9135H6.94692H6.98047H7.01415H7.04796H7.08189H7.11595H7.15013H7.18443H7.21885H7.25339H7.28806H7.32283H7.35773H7.39274H7.42787H7.4631H7.49845H7.53391H7.56948H7.60516H7.64094H7.67683H7.71283H7.74892H7.78512H7.82142H7.85783H7.89432H7.93092H7.96762H8.0044H8.04129H8.07826H8.11533H8.15249H8.18974H8.22707H8.26449H8.302H8.3396H8.37727H8.41503H8.45287H8.49079H8.52879H8.56687H8.60502H8.64325H8.68155H8.71993H8.75837H8.79689H8.83548H8.87414H8.91286H8.95165H8.9905H9.02942H9.0684H9.10744H9.14654H9.1857H9.22491H9.26419H9.30352H9.3429H9.38234H9.42182H9.46136H9.50095H9.54059H9.58027H9.62H9.65978H9.6996H9.73946H9.77936H9.8193H9.85928H9.8993H9.93936H9.97945H10.0196H10.0597H10.0999H10.1401H10.1804H10.2207H10.261H10.3013H10.3417H10.3821H10.4225H10.4629H10.5033H10.5438H10.5843H10.6248H10.6653H10.7058H10.7464H10.7869H10.8275H10.8681H10.9086H10.9492H10.9898H11.0304H11.071H11.1116H11.1522H11.1929H11.2335H11.2741H11.3147H11.3553H11.3959H11.4365H11.477H11.5176H11.5582H11.5987H11.6393H11.6798H11.7203H11.7608H11.8012H11.8417H11.8821H11.9226H11.9629H12.0033H12.0437H12.084H12.1243H12.1645H12.2048H12.245H12.2852H12.3253H12.3654H12.4055H12.4455H12.4855H12.5255H12.5654H12.6053H12.6451H12.6849H12.7247H12.7644H12.804H12.8437H12.8832H12.9227H12.9622H13.0016H13.041H13.0803H13.1195H13.1587H13.1978H13.2369H13.2759H13.3149H13.3537H13.3926H13.4313H13.47H13.5086H13.5472H13.5857H13.6241H13.6624H13.7007H13.7389H13.777H13.815H13.853H13.8909H13.9287H13.9664H14.004H14.0416H14.079H14.1164H14.1537H14.1909H14.228H14.265H14.302H14.3388H14.3755H14.4122H14.4487H14.4852H14.5215H14.5578H14.5939H14.63H14.6659H14.7018H14.7375H14.7731H14.8086H14.844H14.8793H14.9145H14.9496H14.9845H15.0194H15.0541H15.0887H15.1232H15.1575H15.1918H15.2259H15.2599H15.2938H15.3275H15.3611H15.3946H15.428H15.4612H15.4943H15.5272H15.5601H15.5928H15.6253H15.6577H15.69H15.7221H15.7541H15.786H15.8177H15.8493H15.8807H15.9119H15.9431H15.974H16.0049H16.0355H16.066H16.0964H16.1266H16.1567H16.1865H16.2163H16.2458H16.2753H16.3045H16.3336H16.3625H16.3913H16.4198H16.4483H16.4765H16.5046H16.5325H16.5602H16.5878H16.6152H16.6424H16.6694H16.6962H16.7229H16.7494H16.7757H16.8018H16.8277H16.8535H16.8791H16.9044H16.9296H16.9546H16.9794H17.004H17.0284H17.0526H17.0767H17.1005H17.1241H17.1475H17.1708H17.1938H17.2166H17.2392H17.2616H17.2838H17.3058H17.3276H17.3492H17.3705H17.3917H17.4126H17.4333H17.4538H17.4741H17.4942H17.514H17.5336H17.553H17.5722H17.5911H17.6099H17.6284H17.6466H17.6647H17.6825H17.7001H17.7174H17.7345H17.7514H17.768H17.7844H17.8006H17.8165H17.8322H17.8476H17.8628H17.8778H17.8925H17.907H17.9212H17.9351H17.9488H17.9623H17.9755H17.9885H18.0012H18.0136H18.0258H18.0377H18.0494H18.0608H18.0719H18.0828H18.0934H18.1037H18.1138H18.1236H18.1332H18.1425H18.1515H18.1602H18.1686H18.1768H18.1847H18.1923H18.1997H18.2068H18.2135H18.22H18.2263H18.2322H18.2379H18.2432H18.2483H18.2531H18.2576C18.6403 19.0232 18.9571 18.7656 19.177 18.4052C19.3972 18.0444 19.5232 17.5763 19.5232 17.1446V6.9695C19.5232 6.61838 19.4278 6.22002 19.2631 5.90881C19.0992 5.59897 18.8621 5.36783 18.5758 5.36783H5C4.97926 5.36783 4.94967 5.36936 4.91355 5.37122C4.79746 5.37722 4.61402 5.3867 4.44096 5.36007C4.32797 5.34268 4.22296 5.31022 4.14666 5.25341C4.07155 5.19748 4.02323 5.11731 4.02323 5C4.02323 4.57136 4.15029 4.35828 4.29218 4.25116C4.43524 4.14316 4.59889 4.13837 4.68182 4.13837H17ZM15.6717 13.1941C15.4136 13.1941 15.1824 13.1272 15.0159 12.9808C14.85 12.8349 14.7455 12.6073 14.7455 12.2792C14.7455 11.9511 14.85 11.7238 15.0159 11.5782C15.1823 11.4321 15.4136 11.3654 15.6717 11.3654C15.9299 11.3654 16.1611 11.4321 16.3275 11.5782C16.4934 11.7238 16.598 11.9511 16.598 12.2792C16.598 12.6073 16.4933 12.8349 16.3273 12.9808C16.1609 13.1272 15.9296 13.1941 15.6717 13.1941Z" fill="currentColor" stroke="currentColor" stroke-width="0.3"/>
</svg>