<svg width="21" height="22" viewBox="0 0 21 22" fill="none" xmlns="http://www.w3.org/2000/svg">
<path d="M8.63465 11C8.63652 9.31287 9.28852 7.69537 10.4476 6.50238C11.6067 5.30938 13.1783 4.63831 14.8175 4.63638H19.2196C19.1851 3.66142 18.7851 2.73809 18.1035 2.06011C17.4219 1.38213 16.5117 1.0022 15.5638 1.00002L8.63465 1.00001C7.66168 1.00121 5.5 0.5 3 4.00001C1.31279 6.3621 0.5 8.5 0.5 11C0.5 13.5 1 15 2.5 17.5C5.5 21.5 7.66168 20.9988 8.63465 21C9.60762 21.0012 15.5638 21 15.5638 21C16.5117 20.9978 17.4219 20.6179 18.1035 19.9399C18.7851 19.262 19.1851 18.3386 19.2196 17.3637H14.8175C13.1783 17.3617 11.6067 16.6907 10.4476 15.4977C9.28852 14.3047 8.63652 12.6872 8.63465 11Z" fill="#3A86FF"/>
<path d="M20.1167 6.45454H14.8172C13.6459 6.45454 12.5226 6.93344 11.6944 7.78588C10.8662 8.63831 10.4009 9.79447 10.4009 11C10.4009 12.2055 10.8662 13.3617 11.6944 14.2141C12.5226 15.0666 13.6459 15.5455 14.8172 15.5455H20.1167C20.351 15.5455 20.5757 15.4497 20.7413 15.2792C20.9069 15.1087 21 14.8775 21 14.6364V7.36363C21 7.12253 20.9069 6.8913 20.7413 6.72081C20.5757 6.55032 20.351 6.45454 20.1167 6.45454ZM16.1491 11.3073C16.1157 11.5554 16.0116 11.7877 15.85 11.9749C15.6883 12.162 15.4763 12.2957 15.2409 12.3589C15.0054 12.4221 14.757 12.412 14.5271 12.3299C14.2973 12.2479 14.0962 12.0974 13.9493 11.8977C13.8025 11.698 13.7164 11.458 13.7021 11.208C13.6878 10.958 13.7459 10.7092 13.8689 10.4931C13.992 10.2771 14.1745 10.1034 14.3934 9.9941C14.6124 9.8848 14.8579 9.84478 15.0989 9.87909C15.259 9.90187 15.4132 9.95689 15.5526 10.041C15.692 10.1251 15.8139 10.2367 15.9115 10.3693C16.009 10.5019 16.0802 10.653 16.121 10.8139C16.1617 10.9749 16.1713 11.1425 16.1491 11.3073Z" fill="#3A86FF"/>
</svg>
