<svg viewBox="0 0 20 21" fill="currentColor" xmlns="http://www.w3.org/2000/svg">
<path d="M5.125 4.50006C4.27441 4.50006 3.57476 5.17149 3.51128 6.00656C3.50423 6.04606 3.5 6.08555 3.5 6.12505V15.875C3.5 16.7665 4.23351 17.5 5.125 17.5H14.875C15.7665 17.5 16.5 16.7665 16.5 15.875V8.29171C16.5 7.40022 15.7665 6.66671 14.875 6.66671H5.125C4.8189 6.66671 4.58333 6.43115 4.58333 6.12505C4.58333 5.81895 4.8189 5.58339 5.125 5.58339H14.1528C14.3474 5.58621 14.5294 5.48323 14.6281 5.31537C14.7269 5.1461 14.7269 4.93734 14.6281 4.76807C14.5294 4.60021 14.3474 4.49724 14.1528 4.50006H5.125ZM4.58333 7.75004H14.875C15.1811 7.75004 15.4167 7.98561 15.4167 8.29171V15.875C15.4167 16.1811 15.1811 16.4167 14.875 16.4167H5.125C4.8189 16.4167 4.58333 16.1811 4.58333 15.875V7.75004ZM13.4306 11C12.9326 11 12.5278 11.4049 12.5278 11.9028C12.5278 12.4007 12.9326 12.8056 13.4306 12.8056C13.9285 12.8056 14.3333 12.4007 14.3333 11.9028C14.3333 11.4049 13.9285 11 13.4306 11Z"/>
</svg>
