<svg width="166" height="20" viewBox="0 0 166 20" fill="none" xmlns="http://www.w3.org/2000/svg">
    <path d="M77 5.856C76.7227 5.856 76.488 5.76533 76.296 5.584C76.104 5.392 76.008 5.15733 76.008 4.88C76.008 4.61333 76.104 4.384 76.296 4.192C76.488 4 76.7227 3.904 77 3.904C77.2773 3.904 77.5067 4 77.688 4.192C77.8693 4.384 77.96 4.61333 77.96 4.88C77.96 5.15733 77.8693 5.392 77.688 5.584C77.5067 5.76533 77.2773 5.856 77 5.856ZM76.296 8H77.672V16H76.296V8ZM82.8564 16.16C82.4297 16.16 82.0244 16.1067 81.6404 16C81.2564 15.8933 80.9204 15.7387 80.6324 15.536C80.3444 15.3227 80.1097 15.0613 79.9284 14.752C79.747 14.4427 79.6404 14.0853 79.6084 13.68H81.0164C81.059 13.9253 81.139 14.1333 81.2564 14.304C81.3844 14.464 81.5337 14.5973 81.7044 14.704C81.875 14.8107 82.0564 14.8853 82.2484 14.928C82.451 14.9707 82.659 14.992 82.8724 14.992C83.3097 14.992 83.6724 14.9067 83.9604 14.736C84.259 14.5547 84.4084 14.288 84.4084 13.936C84.4084 13.616 84.307 13.3547 84.1044 13.152C83.9017 12.9493 83.5604 12.784 83.0804 12.656L81.9284 12.352C81.235 12.1707 80.7177 11.8773 80.3764 11.472C80.035 11.0667 79.8644 10.576 79.8644 10C79.8644 9.66933 79.9337 9.37067 80.0724 9.104C80.211 8.83733 80.403 8.61333 80.6484 8.432C80.8937 8.24 81.1817 8.096 81.5124 8C81.8537 7.89333 82.227 7.84 82.6324 7.84C83.059 7.84 83.443 7.89867 83.7844 8.016C84.1257 8.13333 84.419 8.29867 84.6644 8.512C84.9204 8.71467 85.123 8.95467 85.2724 9.232C85.4217 9.50933 85.5124 9.808 85.5444 10.128H84.1684C84.0617 9.776 83.8697 9.49867 83.5924 9.296C83.3257 9.09333 83.0057 8.992 82.6324 8.992C82.2484 8.992 81.923 9.08267 81.6564 9.264C81.3897 9.43467 81.2564 9.67467 81.2564 9.984C81.2564 10.2827 81.3524 10.5227 81.5444 10.704C81.7364 10.8747 82.0457 11.0187 82.4724 11.136L83.7524 11.472C84.4244 11.6427 84.931 11.9307 85.2724 12.336C85.6244 12.7307 85.8004 13.232 85.8004 13.84C85.8004 14.2347 85.7257 14.5813 85.5764 14.88C85.427 15.168 85.219 15.408 84.9524 15.6C84.6857 15.792 84.371 15.9307 84.0084 16.016C83.6564 16.112 83.2724 16.16 82.8564 16.16ZM95.1605 16.16C94.5525 16.16 93.9925 16.0533 93.4805 15.84C92.9685 15.616 92.5258 15.3173 92.1525 14.944C91.7898 14.56 91.5018 14.1173 91.2885 13.616C91.0858 13.1147 90.9845 12.576 90.9845 12C90.9845 11.424 91.0858 10.8853 91.2885 10.384C91.5018 9.88267 91.7898 9.44533 92.1525 9.072C92.5258 8.688 92.9685 8.38933 93.4805 8.176C93.9925 7.952 94.5525 7.84 95.1605 7.84C95.6618 7.84 96.1312 7.91467 96.5685 8.064C97.0165 8.21333 97.4165 8.42133 97.7685 8.688C98.1205 8.944 98.4138 9.25867 98.6485 9.632C98.8938 9.99467 99.0752 10.3893 99.1925 10.816H97.7205C97.5392 10.304 97.2245 9.89333 96.7765 9.584C96.3285 9.264 95.7898 9.104 95.1605 9.104C94.7445 9.104 94.3658 9.17867 94.0245 9.328C93.6832 9.47733 93.3898 9.68533 93.1445 9.952C92.8992 10.208 92.7072 10.512 92.5685 10.864C92.4405 11.216 92.3765 11.5947 92.3765 12C92.3765 12.4053 92.4405 12.784 92.5685 13.136C92.7072 13.488 92.8992 13.7973 93.1445 14.064C93.3898 14.32 93.6832 14.5227 94.0245 14.672C94.3658 14.8213 94.7445 14.896 95.1605 14.896C95.7898 14.896 96.3285 14.7413 96.7765 14.432C97.2245 14.112 97.5392 13.696 97.7205 13.184H99.1925C99.0752 13.6213 98.8938 14.0213 98.6485 14.384C98.4138 14.7467 98.1205 15.0613 97.7685 15.328C97.4165 15.584 97.0165 15.7867 96.5685 15.936C96.1312 16.0853 95.6618 16.16 95.1605 16.16ZM104.567 16.16C103.959 16.16 103.399 16.0533 102.887 15.84C102.375 15.616 101.932 15.3173 101.559 14.944C101.185 14.5707 100.892 14.1333 100.679 13.632C100.476 13.12 100.375 12.576 100.375 12C100.375 11.424 100.476 10.8853 100.679 10.384C100.892 9.872 101.185 9.42933 101.559 9.056C101.932 8.68267 102.375 8.38933 102.887 8.176C103.399 7.952 103.959 7.84 104.567 7.84C105.164 7.84 105.719 7.952 106.231 8.176C106.743 8.38933 107.185 8.68267 107.559 9.056C107.932 9.42933 108.22 9.872 108.423 10.384C108.636 10.8853 108.743 11.424 108.743 12C108.743 12.576 108.636 13.12 108.423 13.632C108.22 14.1333 107.932 14.5707 107.559 14.944C107.185 15.3173 106.743 15.616 106.231 15.84C105.719 16.0533 105.164 16.16 104.567 16.16ZM104.567 14.88C104.983 14.88 105.361 14.8053 105.703 14.656C106.044 14.5067 106.332 14.304 106.567 14.048C106.812 13.7813 106.999 13.4773 107.127 13.136C107.265 12.784 107.335 12.4053 107.335 12C107.335 11.6053 107.265 11.232 107.127 10.88C106.999 10.528 106.812 10.224 106.567 9.968C106.332 9.70133 106.044 9.49333 105.703 9.344C105.361 9.19467 104.983 9.12 104.567 9.12C104.151 9.12 103.772 9.19467 103.431 9.344C103.089 9.49333 102.796 9.70133 102.551 9.968C102.305 10.224 102.113 10.528 101.975 10.88C101.847 11.232 101.783 11.6053 101.783 12C101.783 12.4053 101.847 12.784 101.975 13.136C102.113 13.4773 102.305 13.7813 102.551 14.048C102.796 14.304 103.089 14.5067 103.431 14.656C103.772 14.8053 104.151 14.88 104.567 14.88ZM121.022 11.296C121.022 10.6453 120.889 10.1173 120.622 9.712C120.355 9.30667 119.961 9.104 119.438 9.104C118.798 9.104 118.275 9.35467 117.87 9.856C117.475 10.3573 117.267 11.04 117.246 11.904V16H115.87V11.296C115.87 10.6453 115.737 10.1173 115.47 9.712C115.214 9.30667 114.825 9.104 114.302 9.104C113.651 9.104 113.118 9.36533 112.702 9.888C112.297 10.4107 112.094 11.1253 112.094 12.032V16H110.718V8H112.094V9.232C112.329 8.80533 112.654 8.46933 113.07 8.224C113.486 7.968 113.966 7.84 114.51 7.84C115.107 7.84 115.614 7.99467 116.03 8.304C116.457 8.60267 116.771 9.01867 116.974 9.552C117.187 9.02933 117.523 8.61333 117.982 8.304C118.451 7.99467 118.99 7.84 119.598 7.84C120.035 7.84 120.425 7.92 120.766 8.08C121.118 8.22933 121.411 8.448 121.646 8.736C121.891 9.01333 122.078 9.35467 122.206 9.76C122.334 10.1547 122.398 10.5973 122.398 11.088V16H121.022V11.296ZM125.578 5.856C125.301 5.856 125.066 5.76533 124.874 5.584C124.682 5.392 124.586 5.15733 124.586 4.88C124.586 4.61333 124.682 4.384 124.874 4.192C125.066 4 125.301 3.904 125.578 3.904C125.855 3.904 126.085 4 126.266 4.192C126.447 4.384 126.538 4.61333 126.538 4.88C126.538 5.15733 126.447 5.392 126.266 5.584C126.085 5.76533 125.855 5.856 125.578 5.856ZM124.874 8H126.25V16H124.874V8ZM128.859 8H130.235V9.232C130.512 8.752 130.875 8.4 131.323 8.176C131.771 7.952 132.256 7.84 132.779 7.84C133.227 7.84 133.637 7.91467 134.011 8.064C134.384 8.21333 134.699 8.432 134.955 8.72C135.221 8.99733 135.429 9.33867 135.579 9.744C135.728 10.1387 135.803 10.5813 135.803 11.072V16H134.443V11.28C134.443 10.608 134.267 10.08 133.915 9.696C133.573 9.30133 133.12 9.104 132.555 9.104C132.235 9.104 131.931 9.168 131.643 9.296C131.365 9.424 131.12 9.616 130.907 9.872C130.704 10.1173 130.539 10.4213 130.411 10.784C130.293 11.1467 130.235 11.5627 130.235 12.032V16H128.859V8ZM141.8 19.504C141.267 19.504 140.776 19.4347 140.328 19.296C139.88 19.1573 139.486 18.9653 139.144 18.72C138.814 18.4747 138.542 18.1813 138.328 17.84C138.126 17.5093 137.992 17.1413 137.928 16.736H139.272C139.454 17.2693 139.763 17.6587 140.2 17.904C140.638 18.16 141.182 18.288 141.832 18.288C142.195 18.288 142.531 18.2293 142.84 18.112C143.15 17.9947 143.416 17.8187 143.64 17.584C143.864 17.3493 144.04 17.056 144.168 16.704C144.296 16.3627 144.36 15.968 144.36 15.52V14.576C144.083 14.9813 143.699 15.3173 143.208 15.584C142.718 15.8507 142.174 15.984 141.576 15.984C141.022 15.984 140.504 15.8827 140.024 15.68C139.544 15.4667 139.128 15.1787 138.776 14.816C138.424 14.4427 138.147 14.0107 137.944 13.52C137.752 13.0187 137.656 12.48 137.656 11.904C137.656 11.3387 137.752 10.8107 137.944 10.32C138.147 9.81867 138.424 9.38667 138.776 9.024C139.128 8.65067 139.544 8.36267 140.024 8.16C140.504 7.94667 141.022 7.84 141.576 7.84C142.174 7.84 142.718 7.97333 143.208 8.24C143.699 8.496 144.083 8.82667 144.36 9.232V8H145.736V15.504C145.736 16.176 145.63 16.7573 145.416 17.248C145.214 17.7493 144.936 18.1653 144.584 18.496C144.232 18.8373 143.816 19.088 143.336 19.248C142.856 19.4187 142.344 19.504 141.8 19.504ZM141.768 14.704C142.163 14.704 142.526 14.6347 142.856 14.496C143.198 14.3573 143.486 14.1653 143.72 13.92C143.955 13.664 144.136 13.3653 144.264 13.024C144.403 12.6827 144.472 12.3093 144.472 11.904C144.472 11.5093 144.403 11.1413 144.264 10.8C144.136 10.448 143.955 10.1493 143.72 9.904C143.486 9.65867 143.198 9.46667 142.856 9.328C142.526 9.17867 142.163 9.104 141.768 9.104C141.363 9.104 140.995 9.17867 140.664 9.328C140.334 9.46667 140.051 9.65867 139.816 9.904C139.582 10.1493 139.395 10.448 139.256 10.8C139.128 11.1413 139.064 11.5093 139.064 11.904C139.064 12.3093 139.128 12.6827 139.256 13.024C139.395 13.3653 139.582 13.664 139.816 13.92C140.051 14.1653 140.334 14.3573 140.664 14.496C140.995 14.6347 141.363 14.704 141.768 14.704Z" fill="white"/>
    <path d="M158.768 16.096L162.288 12.576H152.928V11.424H162.288L158.768 7.904L159.552 7.104L164.448 12L159.552 16.896L158.768 16.096Z" fill="#10BBD5"/>
    <path d="M60.436 14.2331H64.2044C65.0496 14.2331 65.6777 14.0369 66.0886 13.6444C66.4994 13.252 66.7049 12.7557 66.7049 12.1555C66.7049 11.5552 66.4994 11.0531 66.0886 10.6492C65.6777 10.2452 65.0496 10.0432 64.2044 10.0432H60.436V8.69274H63.7818C64.4509 8.69274 64.9674 8.51383 65.3314 8.15602C65.707 7.78666 65.8949 7.32496 65.8949 6.77093C65.8949 6.51699 65.8479 6.2746 65.754 6.04376C65.6601 5.80137 65.5192 5.5936 65.3314 5.42047C65.1553 5.24733 64.9322 5.10882 64.6622 5.00494C64.4039 4.90106 64.1105 4.84912 63.7818 4.84912H60.436V3.39478H63.817C64.4157 3.39478 64.944 3.48134 65.4018 3.65448C65.8714 3.82762 66.2588 4.05846 66.564 4.34702C66.8692 4.63559 67.0981 4.97608 67.2508 5.36853C67.4151 5.76097 67.4973 6.17072 67.4973 6.59779C67.4973 7.22108 67.3799 7.74049 67.1451 8.15602C66.922 8.56 66.6051 8.89473 66.1942 9.1602C66.8164 9.39105 67.327 9.75464 67.7262 10.251C68.1254 10.7357 68.3249 11.3937 68.3249 12.2247C68.3249 12.7787 68.2193 13.2751 68.008 13.7137C67.7966 14.1408 67.5031 14.5044 67.1275 14.8044C66.7519 15.093 66.2999 15.3123 65.7716 15.4624C65.2433 15.6124 64.6564 15.6874 64.0107 15.6874H60.436V14.2331Z" fill="#10BBD5"/>
    <path d="M0 3.33447H4.1816C4.78149 3.33447 5.3108 3.42118 5.76954 3.59458C6.24004 3.76797 6.62821 3.99918 6.93403 4.28818C7.23986 4.57718 7.46923 4.91821 7.62215 5.31125C7.78682 5.7043 7.86916 6.11468 7.86916 6.5424C7.86916 7.16664 7.75153 7.68685 7.51628 8.10302C7.29279 8.50762 6.97521 8.84286 6.56352 9.10874C7.18693 9.33995 7.6986 9.70409 8.09853 10.2012C8.49846 10.6867 8.69842 11.3456 8.69842 12.1779C8.69842 12.7328 8.59256 13.2299 8.38083 13.6692C8.16911 14.0969 7.87504 14.4611 7.49863 14.7616C7.12223 15.0506 6.66938 15.2703 6.14007 15.4205C5.61074 15.5708 5.02261 15.646 4.37567 15.646H0V3.33447ZM4.14631 8.64056C4.81677 8.64056 5.33433 8.46138 5.69897 8.10302C6.07537 7.73309 6.26357 7.27069 6.26357 6.7158C6.26357 6.46148 6.21652 6.21871 6.12242 5.98752C6.02832 5.74475 5.88717 5.53668 5.69897 5.36327C5.52253 5.18987 5.29904 5.05115 5.0285 4.94711C4.76972 4.84307 4.47566 4.79104 4.14631 4.79104H1.60559V8.64056H4.14631ZM4.56976 14.1894C5.41666 14.1894 6.04596 13.9928 6.45765 13.5999C6.86934 13.2068 7.07518 12.7097 7.07518 12.1086C7.07518 11.5075 6.86934 11.0046 6.45765 10.6C6.04596 10.1954 5.41666 9.99309 4.56976 9.99309H1.60559V14.1894H4.56976Z" fill="white"/>
    <path d="M17.9052 14.7789C17.5288 15.1142 17.0995 15.3685 16.6172 15.5419C16.1467 15.7038 15.6409 15.7847 15.0998 15.7847C14.4528 15.7847 13.8529 15.6691 13.3001 15.4379C12.7473 15.2067 12.2709 14.8946 11.871 14.5015C11.4711 14.0969 11.1593 13.6229 10.9359 13.0796C10.7124 12.5248 10.6006 11.9351 10.6006 11.311C10.6006 10.6867 10.7124 10.1029 10.9359 9.55956C11.1593 9.00468 11.4711 8.53071 11.871 8.13766C12.2709 7.73306 12.7473 7.41516 13.3001 7.18396C13.8529 6.95275 14.4528 6.83716 15.0998 6.83716C15.6409 6.83716 16.1467 6.92385 16.6172 7.09725C17.0995 7.25909 17.5288 7.50764 17.9052 7.84288V6.97587H19.4226V15.646H17.9052V14.7789ZM15.135 14.3801C15.7703 14.3801 16.3231 14.2472 16.7936 13.9813C17.2759 13.7154 17.6464 13.3801 17.9052 12.9756V9.64626C17.6464 9.24166 17.2759 8.90642 16.7936 8.64053C16.3231 8.37465 15.7703 8.24171 15.135 8.24171C14.6999 8.24171 14.3 8.32263 13.9353 8.48447C13.5825 8.63475 13.2708 8.84861 13.0002 9.12606C12.7414 9.40349 12.5356 9.73296 12.3827 10.1145C12.2415 10.4844 12.171 10.8832 12.171 11.311C12.171 11.7386 12.2415 12.1433 12.3827 12.5248C12.5356 12.8947 12.7414 13.2184 13.0002 13.4958C13.2708 13.7732 13.5825 13.9928 13.9353 14.1547C14.3 14.3049 14.6999 14.3801 15.135 14.3801Z" fill="white"/>
    <path d="M28.6 10.4971C28.6 9.24196 27.5653 8.22451 26.2887 8.22451C25.0122 8.22451 23.9774 9.24196 23.9774 10.4971V15.6459H22.46V10.5497C22.46 8.47068 24.1742 6.78528 26.2887 6.78528C28.4033 6.78528 30.1175 8.47068 30.1175 10.5497V15.6459H28.6V10.4971Z" fill="white"/>
    <path d="M37.0862 15.7847C36.4276 15.7847 35.8217 15.6691 35.2689 15.4379C34.7161 15.2067 34.2397 14.8887 33.8398 14.4842C33.4398 14.0796 33.1223 13.6056 32.887 13.0623C32.6635 12.5189 32.5518 11.9351 32.5518 11.311C32.5518 10.6867 32.6635 10.1029 32.887 9.55956C33.1223 9.01623 33.4398 8.54227 33.8398 8.13766C34.2397 7.73306 34.7161 7.41516 35.2689 7.18396C35.8217 6.95275 36.4276 6.83716 37.0862 6.83716C37.8273 6.83716 38.4742 6.97009 39.0271 7.23597C39.5917 7.4903 40.068 7.81399 40.4562 8.20703L39.4858 9.24744C39.2035 8.96999 38.8624 8.73301 38.4625 8.53649C38.0743 8.33997 37.6156 8.24171 37.0862 8.24171C36.651 8.24171 36.2511 8.32263 35.8864 8.48447C35.5336 8.63475 35.2219 8.84861 34.9514 9.12606C34.6926 9.40349 34.4867 9.73296 34.3338 10.1145C34.1927 10.4844 34.122 10.8832 34.122 11.311C34.122 11.7386 34.1927 12.1433 34.3338 12.5248C34.4867 12.8947 34.6926 13.2184 34.9514 13.4958C35.2219 13.7732 35.5336 13.9928 35.8864 14.1547C36.2511 14.3049 36.651 14.3801 37.0862 14.3801C37.6156 14.3801 38.0743 14.2819 38.4625 14.0853C38.8624 13.8888 39.2035 13.6518 39.4858 13.3744L40.4562 14.4148C40.068 14.8078 39.5917 15.1373 39.0271 15.4032C38.4742 15.6575 37.8273 15.7847 37.0862 15.7847Z" fill="white"/>
    <path d="M46.4868 15.7847C45.8163 15.7847 45.1988 15.6691 44.6342 15.4379C44.0814 15.2067 43.5991 14.8887 43.1874 14.4842C42.7875 14.0796 42.4698 13.6056 42.2346 13.0623C42.0111 12.5189 41.8994 11.9351 41.8994 11.311C41.8994 10.6867 42.0111 10.1029 42.2346 9.55956C42.4698 9.01623 42.7875 8.54227 43.1874 8.13766C43.5991 7.73306 44.0814 7.41516 44.6342 7.18396C45.1988 6.95275 45.8163 6.83716 46.4868 6.83716C47.1455 6.83716 47.7512 6.95275 48.3041 7.18396C48.8687 7.41516 49.351 7.73306 49.7509 8.13766C50.1626 8.54227 50.4801 9.01623 50.7036 9.55956C50.9389 10.1029 51.0565 10.6867 51.0565 11.311C51.0565 11.9351 50.9389 12.5189 50.7036 13.0623C50.4801 13.6056 50.1626 14.0796 49.7509 14.4842C49.351 14.8887 48.8687 15.2067 48.3041 15.4379C47.7512 15.6691 47.1455 15.7847 46.4868 15.7847ZM46.4868 14.3801C46.9338 14.3801 47.3396 14.3049 47.7042 14.1547C48.0806 13.9928 48.3982 13.7732 48.657 13.4958C48.9276 13.2184 49.1333 12.8947 49.2745 12.5248C49.4157 12.1433 49.4862 11.7386 49.4862 11.311C49.4862 10.8832 49.4157 10.4844 49.2745 10.1145C49.1333 9.73296 48.9276 9.40349 48.657 9.12606C48.3982 8.84861 48.0806 8.63475 47.7042 8.48447C47.3396 8.32263 46.9338 8.24171 46.4868 8.24171C46.0398 8.24171 45.6281 8.32263 45.2517 8.48447C44.887 8.63475 44.5695 8.84861 44.2989 9.12606C44.0401 9.40349 43.8343 9.73296 43.6814 10.1145C43.5402 10.4844 43.4697 10.8832 43.4697 11.311C43.4697 11.7386 43.5402 12.1433 43.6814 12.5248C43.8343 12.8947 44.0401 13.2184 44.2989 13.4958C44.5695 13.7732 44.887 13.9928 45.2517 14.1547C45.6281 14.3049 46.0398 14.3801 46.4868 14.3801Z" fill="white"/>
    <path d="M53.501 6.97585H55.0183V7.99892C55.3242 7.62901 55.6829 7.35156 56.0947 7.1666C56.5063 6.98164 56.9592 6.88916 57.4532 6.88916C57.665 6.88916 57.8708 6.90649 58.0708 6.94118V8.48445C57.8237 8.41509 57.5414 8.38041 57.2238 8.38041C56.7416 8.38041 56.3004 8.49601 55.9006 8.72721C55.5124 8.95842 55.2184 9.29944 55.0183 9.75028V15.646H53.501V6.97585Z" fill="white"/>
</svg>