<svg width="106" height="26" viewBox="0 0 106 26" fill="none" xmlns="http://www.w3.org/2000/svg">
    <path d="M92.6416 20.5654H98.4181C99.7137 20.5654 100.676 20.2605 101.306 19.6506C101.936 19.0407 102.251 18.2694 102.251 17.3366C102.251 16.4038 101.936 15.6235 101.306 14.9957C100.676 14.3679 99.7137 14.054 98.4181 14.054H92.6416V11.9552H97.7702C98.796 11.9552 99.5877 11.6772 100.146 11.1211C100.721 10.5471 101.009 9.82956 101.009 8.96854C101.009 8.5739 100.937 8.1972 100.793 7.83845C100.65 7.46175 100.434 7.13886 100.146 6.8698C99.8757 6.60073 99.5337 6.38547 99.1199 6.22403C98.7239 6.06259 98.2741 5.98187 97.7702 5.98187H92.6416V3.72168H97.8242C98.742 3.72168 99.5518 3.85621 100.254 4.12528C100.973 4.39435 101.567 4.75311 102.035 5.20156C102.503 5.65002 102.854 6.17918 103.088 6.78907C103.34 7.39897 103.466 8.03576 103.466 8.69947C103.466 9.66812 103.286 10.4753 102.926 11.1211C102.584 11.7489 102.098 12.2691 101.468 12.6817C102.422 13.0405 103.205 13.6055 103.817 14.3768C104.428 15.1302 104.734 16.1527 104.734 17.4442C104.734 18.3053 104.572 19.0766 104.248 19.7582C103.925 20.422 103.475 20.987 102.899 21.4534C102.323 21.9019 101.63 22.2426 100.82 22.4758C100.011 22.7091 99.1109 22.8256 98.1211 22.8256H92.6416V20.5654Z" fill="#10BBD5"/>
    <path d="M0 3.62793H6.40991C7.32947 3.62793 8.14084 3.76268 8.84404 4.03215C9.56526 4.30163 10.1603 4.66095 10.6291 5.11008C11.0979 5.55922 11.4495 6.08921 11.6839 6.70003C11.9363 7.31086 12.0625 7.94863 12.0625 8.61335C12.0625 9.58349 11.8822 10.3919 11.5216 11.0387C11.179 11.6675 10.6922 12.1885 10.0611 12.6017C11.0167 12.961 11.8011 13.5269 12.4141 14.2994C13.0272 15.054 13.3337 16.078 13.3337 17.3715C13.3337 18.2339 13.1714 19.0063 12.8469 19.6891C12.5223 20.3538 12.0715 20.9197 11.4945 21.3868C10.9176 21.8359 10.2234 22.1773 9.41201 22.4108C8.60062 22.6444 7.69909 22.7612 6.7074 22.7612H0V3.62793ZM6.35581 11.8741C7.38356 11.8741 8.17691 11.5956 8.73586 11.0387C9.31284 10.4638 9.60133 9.74519 9.60133 8.88283C9.60133 8.4876 9.5292 8.11031 9.38496 7.75102C9.24071 7.37373 9.02435 7.05036 8.73586 6.78087C8.4654 6.51139 8.12281 6.2958 7.70811 6.13412C7.31144 5.97243 6.86067 5.89158 6.35581 5.89158H2.46119V11.8741H6.35581ZM7.00492 20.4975C8.30312 20.4975 9.26777 20.192 9.89884 19.5813C10.5299 18.9705 10.8454 18.1979 10.8454 17.2637C10.8454 16.3295 10.5299 15.548 9.89884 14.9192C9.26777 14.2905 8.30312 13.9761 7.00492 13.9761H2.46119V20.4975H7.00492Z" fill="white"/>
    <path d="M27.4472 21.4137C26.8702 21.9347 26.212 22.3299 25.4728 22.5994C24.7515 22.8509 23.9762 22.9767 23.1468 22.9767C22.1551 22.9767 21.2355 22.7971 20.3881 22.4378C19.5407 22.0785 18.8104 21.5934 18.1974 20.9826C17.5843 20.3537 17.1065 19.6171 16.7639 18.7727C16.4214 17.9105 16.25 16.9941 16.25 16.0241C16.25 15.0539 16.4214 14.1467 16.7639 13.3023C17.1065 12.4399 17.5843 11.7034 18.1974 11.0925C18.8104 10.4637 19.5407 9.96968 20.3881 9.61037C21.2355 9.25105 22.1551 9.07141 23.1468 9.07141C23.9762 9.07141 24.7515 9.20614 25.4728 9.47562C26.212 9.72714 26.8702 10.1134 27.4472 10.6344V9.28698H29.7731V22.7611H27.4472V21.4137ZM23.2008 20.7939C24.1745 20.7939 25.0219 20.5873 25.7431 20.1741C26.4824 19.7609 27.0505 19.2398 27.4472 18.6111V13.437C27.0505 12.8082 26.4824 12.2872 25.7431 11.874C25.0219 11.4608 24.1745 11.2542 23.2008 11.2542C22.5337 11.2542 21.9208 11.38 21.3618 11.6315C20.8209 11.865 20.3431 12.1974 19.9283 12.6286C19.5316 13.0597 19.2162 13.5718 18.9817 14.1646C18.7653 14.7395 18.6572 15.3593 18.6572 16.0241C18.6572 16.6888 18.7653 17.3176 18.9817 17.9105C19.2162 18.4854 19.5316 18.9884 19.9283 19.4195C20.3431 19.8507 20.8209 20.192 21.3618 20.4435C21.9208 20.6771 22.5337 20.7939 23.2008 20.7939Z" fill="white"/>
    <path d="M43.8408 14.7594C43.8408 12.8089 42.2545 11.2277 40.2977 11.2277C38.341 11.2277 36.7548 12.8089 36.7548 14.7594V22.7612H34.4287V14.8413C34.4287 11.6102 37.0564 8.99097 40.2977 8.99097C43.5391 8.99097 46.1668 11.6102 46.1668 14.8413V22.7612H43.8408V14.7594Z" fill="white"/>
    <path d="M56.8488 22.9767C55.8391 22.9767 54.9104 22.7971 54.063 22.4378C53.2156 22.0785 52.4853 21.5843 51.8724 20.9557C51.2593 20.3268 50.7725 19.5902 50.4119 18.7458C50.0693 17.9014 49.8979 16.9941 49.8979 16.0241C49.8979 15.0539 50.0693 14.1467 50.4119 13.3023C50.7725 12.4579 51.2593 11.7213 51.8724 11.0925C52.4853 10.4637 53.2156 9.96968 54.063 9.61037C54.9104 9.25105 55.8391 9.07141 56.8488 9.07141C57.9847 9.07141 58.9764 9.278 59.8239 9.69121C60.6893 10.0865 61.4195 10.5895 62.0146 11.2003L60.5271 12.8172C60.0943 12.386 59.5714 12.0177 58.9585 11.7123C58.3634 11.4069 57.6602 11.2542 56.8488 11.2542C56.1817 11.2542 55.5686 11.38 55.0096 11.6315C54.4687 11.865 53.991 12.1974 53.5763 12.6286C53.1796 13.0597 52.864 13.5718 52.6297 14.1646C52.4133 14.7395 52.305 15.3593 52.305 16.0241C52.305 16.6888 52.4133 17.3176 52.6297 17.9105C52.864 18.4854 53.1796 18.9884 53.5763 19.4195C53.991 19.8507 54.4687 20.192 55.0096 20.4435C55.5686 20.6771 56.1817 20.7939 56.8488 20.7939C57.6602 20.7939 58.3634 20.6412 58.9585 20.3357C59.5714 20.0304 60.0943 19.662 60.5271 19.2309L62.0146 20.8477C61.4195 21.4586 60.6893 21.9706 59.8239 22.3838C58.9764 22.7791 57.9847 22.9767 56.8488 22.9767Z" fill="white"/>
    <path d="M71.259 22.9767C70.2311 22.9767 69.2846 22.7971 68.4191 22.4378C67.5717 22.0785 66.8325 21.5843 66.2013 20.9557C65.5884 20.3268 65.1014 19.5902 64.7408 18.7458C64.3983 17.9014 64.2271 16.9941 64.2271 16.0241C64.2271 15.0539 64.3983 14.1467 64.7408 13.3023C65.1014 12.4579 65.5884 11.7213 66.2013 11.0925C66.8325 10.4637 67.5717 9.96968 68.4191 9.61037C69.2846 9.25105 70.2311 9.07141 71.259 9.07141C72.2686 9.07141 73.1972 9.25105 74.0447 9.61037C74.9102 9.96968 75.6494 10.4637 76.2625 11.0925C76.8935 11.7213 77.3803 12.4579 77.7229 13.3023C78.0835 14.1467 78.2638 15.0539 78.2638 16.0241C78.2638 16.9941 78.0835 17.9014 77.7229 18.7458C77.3803 19.5902 76.8935 20.3268 76.2625 20.9557C75.6494 21.5843 74.9102 22.0785 74.0447 22.4378C73.1972 22.7971 72.2686 22.9767 71.259 22.9767ZM71.259 20.7939C71.9441 20.7939 72.5662 20.6771 73.1251 20.4435C73.7021 20.192 74.1889 19.8507 74.5856 19.4195C75.0004 18.9884 75.3158 18.4854 75.5322 17.9105C75.7486 17.3176 75.8567 16.6888 75.8567 16.0241C75.8567 15.3593 75.7486 14.7395 75.5322 14.1646C75.3158 13.5718 75.0004 13.0597 74.5856 12.6286C74.1889 12.1974 73.7021 11.865 73.1251 11.6315C72.5662 11.38 71.9441 11.2542 71.259 11.2542C70.5737 11.2542 69.9427 11.38 69.3657 11.6315C68.8067 11.865 68.32 12.1974 67.9052 12.6286C67.5085 13.0597 67.1931 13.5718 66.9586 14.1646C66.7422 14.7395 66.6341 15.3593 66.6341 16.0241C66.6341 16.6888 66.7422 17.3176 66.9586 17.9105C67.1931 18.4854 67.5085 18.9884 67.9052 19.4195C68.32 19.8507 68.8067 20.192 69.3657 20.4435C69.9427 20.6771 70.5737 20.7939 71.259 20.7939Z" fill="white"/>
    <path d="M82.0112 9.28708H84.3372V10.877C84.806 10.3021 85.3559 9.87096 85.9871 9.58351C86.6181 9.29607 87.3123 9.15234 88.0696 9.15234C88.3941 9.15234 88.7097 9.17928 89.0162 9.23319V11.6316C88.6375 11.5238 88.2047 11.4699 87.7179 11.4699C86.9787 11.4699 86.3025 11.6495 85.6895 12.0089C85.0945 12.3682 84.6438 12.8981 84.3372 13.5988V22.7612H82.0112V9.28708Z" fill="white"/>
</svg>