<svg width="135" height="22" viewBox="0 0 135 22" fill="currentColor" xmlns="http://www.w3.org/2000/svg">
<path d="M18.9169 10.6829C22.6958 13.6624 21.9449 19.7444 17.1809 21.5504C16.4578 21.8294 15.6243 21.9371 14.8429 21.9434C10.2762 21.9792 5.70872 21.9622 1.14121 21.9604C0.149828 21.9604 0.000897174 21.8079 0 20.8183C0 14.4238 0 8.02997 0 1.63671C0 0.619315 0.194688 0.431805 1.24707 0.430908C5.32024 0.430908 9.39341 0.430908 13.4666 0.430908C16.1141 0.430908 18.1776 1.51918 19.4436 3.8321C20.661 6.05529 20.4502 8.28387 19.0775 10.4066C19.0255 10.482 18.9842 10.5636 18.9169 10.6829ZM10.0232 18.1384C11.5305 18.1384 13.0377 18.1456 14.545 18.1384C15.8665 18.1304 16.8884 17.0708 16.9216 15.6936C16.9548 14.3479 16.011 13.1663 14.7316 13.1466C11.5771 13.0981 8.42088 13.1214 5.26552 13.1277C4.61327 13.1277 4.27324 13.474 4.27862 14.1406C4.28401 15.1006 4.27055 16.0615 4.27862 17.0215C4.28849 17.8917 4.54778 18.1366 5.4306 18.1393C6.96207 18.142 8.49265 18.1384 10.0232 18.1384ZM9.45442 9.28153C10.819 9.28153 12.1845 9.29051 13.5491 9.28153C14.7774 9.27166 15.7625 8.21659 15.8181 6.87621C15.8719 5.56364 14.9344 4.34169 13.7214 4.32195C10.8746 4.27709 8.02612 4.30491 5.17849 4.3085C4.57021 4.3085 4.28132 4.64404 4.28132 5.23707C4.28132 6.26703 4.26606 7.30057 4.2867 8.32784C4.30016 9.04558 4.55585 9.27705 5.29153 9.28153C6.67857 9.28781 8.0656 9.28153 9.45442 9.28153Z" />
<path d="M72.3418 15.0225V14.346C72.3418 10.1527 72.3418 5.95926 72.3418 1.76587C72.3418 0.562759 72.4764 0.431771 73.666 0.430874C74.3488 0.430874 75.0324 0.425491 75.7152 0.430874C76.3055 0.437154 76.6123 0.700026 76.6123 1.33343C76.6028 7.9163 76.6028 14.4992 76.6123 21.082C76.6123 21.7163 76.3315 21.9792 75.7152 21.9604C75.3384 21.9478 74.9615 21.9604 74.5847 21.9604C72.3562 21.9604 72.3867 21.9343 70.9449 20.2557C67.245 15.9583 63.5118 11.6823 59.7912 7.39564C59.6869 7.24772 59.5299 7.14532 59.3525 7.10944V20.5007C59.3525 21.8581 59.2457 21.9604 57.8596 21.9613C57.2944 21.9613 56.7292 21.9613 56.1648 21.9613C55.178 21.9559 55.0443 21.8195 55.0398 20.8084C55.0398 20.2701 55.0398 19.7318 55.0398 19.1935C55.0398 13.3601 55.0398 7.52842 55.0398 1.69858C55.0398 0.577114 55.178 0.442539 56.2958 0.438053C57.0737 0.438053 57.9679 0.414778 58.6285 0.426389C59.2891 0.438124 59.6898 0.625561 60.0882 1.08761C63.9759 5.60398 67.8688 10.1138 71.7667 14.617C71.9022 14.7731 72.0439 14.9247 72.1821 15.0781L72.3418 15.0225Z" />
<path d="M37.7406 21.9613C34.3017 21.9613 30.8611 21.8886 27.4231 21.9882C25.3838 22.0474 24.4364 20.2002 25.4206 18.5431C28.7644 12.9088 32.022 7.22342 35.3137 1.55867C36.5124 -0.504835 39.0657 -0.525471 40.2634 1.53265C43.5943 7.25482 46.9178 12.9818 50.2337 18.7135C51.1704 20.3284 50.2337 21.9487 48.338 21.9568C44.8085 21.9721 41.2737 21.9613 37.7406 21.9613ZM30.6529 17.8128H44.918L37.7854 5.52149L30.6529 17.8128Z" />
<path d="M96.1204 10.7126C97.8815 12.812 99.6113 14.8755 101.343 16.939C102.308 18.0883 103.302 19.216 104.225 20.3994C104.447 20.6865 104.59 21.2069 104.479 21.5209C104.397 21.7523 103.851 21.9228 103.502 21.9416C102.493 21.9964 101.476 21.9156 100.467 21.9766C99.7494 22.0197 99.2856 21.7452 98.8594 21.2006C97.1548 19.0222 95.4215 16.8672 93.6971 14.705C93.5957 14.5785 93.4791 14.4637 93.3158 14.2843L89.876 18.5674C89.0982 19.5372 88.3508 20.5313 87.5272 21.4634C87.2596 21.7386 86.9014 21.9075 86.5188 21.939C85.4153 21.9991 84.3055 21.991 83.1993 21.9443C82.8404 21.9291 82.2222 21.7649 82.189 21.5855C82.1164 21.1907 82.2195 20.6425 82.4699 20.3294C83.9376 18.5019 85.4682 16.7246 86.9764 14.9302C88.1499 13.5333 89.3216 12.1355 90.5112 10.7135C88.5446 8.31446 86.613 5.95848 84.6796 3.6034C84.249 3.07766 83.7645 2.58421 83.4101 2.01092C83.2136 1.69242 83.0997 1.19718 83.2073 0.86343C83.2782 0.643622 83.7035 0.449834 84.1341 0.449834C85.0941 0.449828 85.9464 0.418438 86.9584 0.418432C87.651 0.418432 88.1382 0.630166 88.5679 1.19C89.9774 3.0328 91.4335 4.8406 92.8744 6.66276C93.0045 6.82695 93.1516 6.97767 93.3454 7.19658C94.3197 5.96656 95.2734 4.76704 96.2235 3.56392C96.9206 2.68111 97.5828 1.76958 98.3247 0.925335C98.5952 0.651914 98.9551 0.485029 99.3385 0.455217C100.394 0.395106 101.458 0.40587 102.515 0.450729C102.83 0.464187 103.341 0.625678 103.399 0.823954C103.501 1.17116 103.453 1.6996 103.239 1.97862C102.096 3.46434 100.883 4.89623 99.6938 6.34696L96.1204 10.7126Z" />
<path d="M121.626 21.9613C118.187 21.9613 114.746 21.8886 111.308 21.9882C109.269 22.0474 108.321 20.2002 109.306 18.5431C112.649 12.9088 115.907 7.22342 119.199 1.55867C120.397 -0.504835 122.951 -0.525471 124.148 1.53265C127.479 7.25482 130.803 12.9818 134.119 18.7135C135.055 20.3284 134.119 21.9487 132.223 21.9568C128.694 21.9721 125.159 21.9613 121.626 21.9613ZM114.538 17.8128H128.803L121.67 5.52149L114.538 17.8128Z" fill="url(#paint0_linear)"/>
<defs>
<linearGradient id="paint0_linear" x1="129.235" y1="10.1383" x2="108.914" y2="20.8147" gradientUnits="userSpaceOnUse">
<stop stop-color="#00D2BC"/>
<stop offset="1" stop-color="#0071CF"/>
</linearGradient>
</defs>
</svg>
