<svg width="42" height="42" viewBox="0 0 800 800" fill="none" xmlns="http://www.w3.org/2000/svg">
<path d="M121.367 781.937L109.859 770.284C101.119 778.441 93.1072 783.54 80.5799 783.54C61.0606 783.54 46.931 767.225 46.931 747.123C46.931 727.021 61.0606 710.998 80.5799 710.998C92.2332 710.998 100.973 716.096 109.131 723.671L120.638 710.415C110.879 701.093 99.5166 694.538 80.7256 694.538C49.8443 694.538 28.14 718.281 28.14 747.414C28.14 776.839 50.2813 800 79.9973 800C99.0796 800 110.733 793.008 121.367 781.937Z" fill="#F0B90B"/>
<path d="M239.466 747.123C239.466 718.281 217.616 694.538 186.297 694.538C154.979 694.538 132.838 718.572 132.838 747.414C132.838 776.256 154.688 800 186.006 800C217.324 800 239.466 775.965 239.466 747.123ZM220.675 747.414C220.675 767.371 206.545 783.54 186.297 783.54C166.05 783.54 151.629 767.079 151.629 747.123C151.629 727.167 165.758 710.998 186.006 710.998C206.254 710.998 220.675 727.458 220.675 747.414Z" fill="#F0B90B"/>
<path d="M332.344 766.788L277.719 696.286H261.113V798.252H278.739V725.71L334.966 798.252H349.97V696.286H332.344V766.788Z" fill="#F0B90B"/>
<path d="M447.426 766.788L392.801 696.286H376.195V798.252H393.821V725.71L450.048 798.252H465.052V696.286H447.426V766.788Z" fill="#F0B90B"/>
<path d="M566.878 696.286H491.277V798.252H567.607V782.229H509.194V754.843H560.323V738.82H509.194V712.309H566.878V696.286Z" fill="#F0B90B"/>
<path d="M677.573 781.937L666.066 770.284C657.326 778.441 649.314 783.54 636.787 783.54C617.267 783.54 603.138 767.225 603.138 747.123C603.138 727.021 617.267 710.998 636.787 710.998C648.44 710.998 657.18 716.096 665.337 723.671L676.845 710.415C667.085 701.093 655.723 694.538 636.932 694.538C606.051 694.538 584.347 718.281 584.347 747.414C584.347 776.839 606.488 800 636.204 800C655.286 800 666.94 793.008 677.573 781.937Z" fill="#F0B90B"/>
<path d="M739.523 712.892H771.86V696.286H689.122V712.892H721.46V798.252H739.523V712.892Z" fill="#F0B90B"/>
<path d="M400.139 450.998L287.32 338.179L221.486 404.013L400.139 582.666L578.792 404.013L512.957 338.179L400.139 450.998ZM108.667 291.471L174.501 357.306L240.335 291.471L174.501 225.637L108.667 291.471ZM334.166 291.471L400 357.306L465.834 291.471L400 225.637L334.166 291.471ZM559.665 291.471L625.499 357.306L691.333 291.471L625.638 225.499L559.665 291.471ZM400.139 0L221.486 178.653L287.32 244.487L400.139 131.668L512.957 244.487L578.792 178.653L400.139 0Z" fill="#F0B90B"/>
</svg>
