<svg width="215" height="14" viewBox="0 0 215 14" fill="none" xmlns="http://www.w3.org/2000/svg">
    <path d="M0.504 1.64H3.768C4.64267 1.64 5.448 1.784 6.184 2.072C6.92 2.36 7.55467 2.76 8.088 3.272C8.632 3.77333 9.05333 4.37067 9.352 5.064C9.66133 5.75733 9.816 6.50933 9.816 7.32C9.816 8.13067 9.66133 8.88267 9.352 9.576C9.05333 10.2693 8.632 10.872 8.088 11.384C7.55467 11.8853 6.92 12.28 6.184 12.568C5.448 12.856 4.64267 13 3.768 13H0.504V1.64ZM3.768 11.608C4.45067 11.608 5.06933 11.5013 5.624 11.288C6.18933 11.0747 6.66933 10.776 7.064 10.392C7.45867 10.008 7.76267 9.55467 7.976 9.032C8.2 8.50933 8.312 7.93867 8.312 7.32C8.312 6.70133 8.2 6.13067 7.976 5.608C7.76267 5.08533 7.45867 4.632 7.064 4.248C6.66933 3.864 6.18933 3.56533 5.624 3.352C5.06933 3.13867 4.45067 3.032 3.768 3.032H1.992V11.608H3.768ZM12.4531 2.856C12.1758 2.856 11.9411 2.76533 11.7491 2.584C11.5571 2.392 11.4611 2.15733 11.4611 1.88C11.4611 1.61333 11.5571 1.384 11.7491 1.192C11.9411 0.999999 12.1758 0.903999 12.4531 0.903999C12.7305 0.903999 12.9598 0.999999 13.1411 1.192C13.3225 1.384 13.4131 1.61333 13.4131 1.88C13.4131 2.15733 13.3225 2.392 13.1411 2.584C12.9598 2.76533 12.7305 2.856 12.4531 2.856ZM11.7491 5H13.1251V13H11.7491V5ZM18.3095 13.16C17.8828 13.16 17.4775 13.1067 17.0935 13C16.7095 12.8933 16.3735 12.7387 16.0855 12.536C15.7975 12.3227 15.5628 12.0613 15.3815 11.752C15.2002 11.4427 15.0935 11.0853 15.0615 10.68H16.4695C16.5122 10.9253 16.5922 11.1333 16.7095 11.304C16.8375 11.464 16.9868 11.5973 17.1575 11.704C17.3282 11.8107 17.5095 11.8853 17.7015 11.928C17.9042 11.9707 18.1122 11.992 18.3255 11.992C18.7628 11.992 19.1255 11.9067 19.4135 11.736C19.7122 11.5547 19.8615 11.288 19.8615 10.936C19.8615 10.616 19.7602 10.3547 19.5575 10.152C19.3548 9.94933 19.0135 9.784 18.5335 9.656L17.3815 9.352C16.6882 9.17067 16.1708 8.87733 15.8295 8.472C15.4882 8.06667 15.3175 7.576 15.3175 7C15.3175 6.66933 15.3868 6.37067 15.5255 6.104C15.6642 5.83733 15.8562 5.61333 16.1015 5.432C16.3468 5.24 16.6348 5.096 16.9655 5C17.3068 4.89333 17.6802 4.84 18.0855 4.84C18.5122 4.84 18.8962 4.89867 19.2375 5.016C19.5788 5.13333 19.8722 5.29867 20.1175 5.512C20.3735 5.71467 20.5762 5.95467 20.7255 6.232C20.8748 6.50933 20.9655 6.808 20.9975 7.128H19.6215C19.5148 6.776 19.3228 6.49867 19.0455 6.296C18.7788 6.09333 18.4588 5.992 18.0855 5.992C17.7015 5.992 17.3762 6.08267 17.1095 6.264C16.8428 6.43467 16.7095 6.67467 16.7095 6.984C16.7095 7.28267 16.8055 7.52267 16.9975 7.704C17.1895 7.87467 17.4988 8.01867 17.9255 8.136L19.2055 8.472C19.8775 8.64267 20.3842 8.93067 20.7255 9.336C21.0775 9.73067 21.2535 10.232 21.2535 10.84C21.2535 11.2347 21.1788 11.5813 21.0295 11.88C20.8802 12.168 20.6722 12.408 20.4055 12.6C20.1388 12.792 19.8242 12.9307 19.4615 13.016C19.1095 13.112 18.7255 13.16 18.3095 13.16ZM26.7543 13.16C26.1463 13.16 25.5863 13.0533 25.0743 12.84C24.5623 12.616 24.1196 12.3173 23.7463 11.944C23.3836 11.56 23.0956 11.1173 22.8823 10.616C22.6796 10.1147 22.5783 9.576 22.5783 9C22.5783 8.424 22.6796 7.88533 22.8823 7.384C23.0956 6.88267 23.3836 6.44533 23.7463 6.072C24.1196 5.688 24.5623 5.38933 25.0743 5.176C25.5863 4.952 26.1463 4.84 26.7543 4.84C27.2556 4.84 27.7249 4.91467 28.1623 5.064C28.6103 5.21333 29.0103 5.42133 29.3623 5.688C29.7143 5.944 30.0076 6.25867 30.2423 6.632C30.4876 6.99467 30.6689 7.38933 30.7863 7.816H29.3143C29.1329 7.304 28.8183 6.89333 28.3703 6.584C27.9223 6.264 27.3836 6.104 26.7543 6.104C26.3383 6.104 25.9596 6.17867 25.6183 6.328C25.2769 6.47733 24.9836 6.68533 24.7383 6.952C24.4929 7.208 24.3009 7.512 24.1623 7.864C24.0343 8.216 23.9703 8.59467 23.9703 9C23.9703 9.40533 24.0343 9.784 24.1623 10.136C24.3009 10.488 24.4929 10.7973 24.7383 11.064C24.9836 11.32 25.2769 11.5227 25.6183 11.672C25.9596 11.8213 26.3383 11.896 26.7543 11.896C27.3836 11.896 27.9223 11.7413 28.3703 11.432C28.8183 11.112 29.1329 10.696 29.3143 10.184H30.7863C30.6689 10.6213 30.4876 11.0213 30.2423 11.384C30.0076 11.7467 29.7143 12.0613 29.3623 12.328C29.0103 12.584 28.6103 12.7867 28.1623 12.936C27.7249 13.0853 27.2556 13.16 26.7543 13.16ZM36.1605 13.16C35.5525 13.16 34.9925 13.0533 34.4805 12.84C33.9685 12.616 33.5258 12.3173 33.1525 11.944C32.7792 11.5707 32.4858 11.1333 32.2725 10.632C32.0698 10.12 31.9685 9.576 31.9685 9C31.9685 8.424 32.0698 7.88533 32.2725 7.384C32.4858 6.872 32.7792 6.42933 33.1525 6.056C33.5258 5.68267 33.9685 5.38933 34.4805 5.176C34.9925 4.952 35.5525 4.84 36.1605 4.84C36.7578 4.84 37.3125 4.952 37.8245 5.176C38.3365 5.38933 38.7792 5.68267 39.1525 6.056C39.5258 6.42933 39.8138 6.872 40.0165 7.384C40.2298 7.88533 40.3365 8.424 40.3365 9C40.3365 9.576 40.2298 10.12 40.0165 10.632C39.8138 11.1333 39.5258 11.5707 39.1525 11.944C38.7792 12.3173 38.3365 12.616 37.8245 12.84C37.3125 13.0533 36.7578 13.16 36.1605 13.16ZM36.1605 11.88C36.5765 11.88 36.9552 11.8053 37.2965 11.656C37.6378 11.5067 37.9258 11.304 38.1605 11.048C38.4058 10.7813 38.5925 10.4773 38.7205 10.136C38.8592 9.784 38.9285 9.40533 38.9285 9C38.9285 8.60533 38.8592 8.232 38.7205 7.88C38.5925 7.528 38.4058 7.224 38.1605 6.968C37.9258 6.70133 37.6378 6.49333 37.2965 6.344C36.9552 6.19467 36.5765 6.12 36.1605 6.12C35.7445 6.12 35.3658 6.19467 35.0245 6.344C34.6832 6.49333 34.3898 6.70133 34.1445 6.968C33.8992 7.224 33.7072 7.528 33.5685 7.88C33.4405 8.232 33.3765 8.60533 33.3765 9C33.3765 9.40533 33.4405 9.784 33.5685 10.136C33.7072 10.4773 33.8992 10.7813 34.1445 11.048C34.3898 11.304 34.6832 11.5067 35.0245 11.656C35.3658 11.8053 35.7445 11.88 36.1605 11.88ZM40.9398 5H42.4758L45.2118 11.064L47.9478 5H49.4838L45.7878 13H44.6358L40.9398 5ZM54.1102 13.16C53.5236 13.16 52.9849 13.0587 52.4943 12.856C52.0036 12.6427 51.5769 12.3493 51.2143 11.976C50.8623 11.6027 50.5849 11.1653 50.3823 10.664C50.1796 10.152 50.0783 9.59733 50.0783 9C50.0783 8.41333 50.1689 7.86933 50.3503 7.368C50.5423 6.856 50.8143 6.41333 51.1663 6.04C51.5183 5.66667 51.9449 5.37333 52.4463 5.16C52.9476 4.94667 53.5129 4.84 54.1423 4.84C54.7716 4.84 55.3316 4.96267 55.8223 5.208C56.3236 5.44267 56.7396 5.768 57.0703 6.184C57.4116 6.58933 57.6569 7.06933 57.8063 7.624C57.9663 8.168 58.0249 8.74933 57.9823 9.368H51.4703C51.4809 9.73067 51.5556 10.0667 51.6943 10.376C51.8436 10.6853 52.0356 10.9573 52.2703 11.192C52.5049 11.416 52.7823 11.592 53.1023 11.72C53.4223 11.848 53.7636 11.912 54.1263 11.912C54.6276 11.912 55.0756 11.8107 55.4703 11.608C55.8756 11.3947 56.2009 11.048 56.4463 10.568H57.8542C57.7583 10.92 57.6036 11.256 57.3903 11.576C57.1769 11.8853 56.9103 12.1573 56.5903 12.392C56.2809 12.6267 55.9183 12.8133 55.5023 12.952C55.0863 13.0907 54.6223 13.16 54.1102 13.16ZM54.0943 6.056C53.8063 6.056 53.5236 6.09867 53.2463 6.184C52.9689 6.26933 52.7129 6.40267 52.4783 6.584C52.2543 6.76533 52.0569 6.99467 51.8863 7.272C51.7156 7.54933 51.5983 7.88533 51.5343 8.28H56.5263C56.3983 7.53333 56.1103 6.97867 55.6623 6.616C55.2143 6.24267 54.6916 6.056 54.0943 6.056ZM59.9679 5H61.3439V6.552C61.4185 6.296 61.5359 6.06667 61.6959 5.864C61.8559 5.66133 62.0372 5.49067 62.2399 5.352C62.4425 5.21333 62.6559 5.10667 62.8799 5.032C63.1145 4.95733 63.3492 4.92 63.5839 4.92C63.7972 4.92 64.0052 4.94133 64.2079 4.984V6.408C64.0799 6.35467 63.9572 6.32267 63.8399 6.312C63.7225 6.29067 63.5945 6.28 63.4559 6.28C63.1999 6.28 62.9439 6.33867 62.6879 6.456C62.4425 6.56267 62.2185 6.728 62.0159 6.952C61.8239 7.176 61.6639 7.464 61.5359 7.816C61.4079 8.15733 61.3439 8.56267 61.3439 9.032V13H59.9679V5ZM72.7906 13.08C72.4386 13.08 72.1133 13.032 71.8146 12.936C71.516 12.8293 71.2546 12.68 71.0306 12.488C70.8173 12.2853 70.6466 12.0293 70.5186 11.72C70.4013 11.4107 70.3426 11.048 70.3426 10.632V6.264H68.6466V5H70.3426V2.776H71.7186V5H74.0226V6.264H71.7186V10.456C71.7186 10.968 71.8306 11.3253 72.0546 11.528C72.2786 11.72 72.6093 11.816 73.0466 11.816C73.2173 11.816 73.388 11.8053 73.5586 11.784C73.74 11.752 73.8946 11.7093 74.0226 11.656V12.888C73.852 12.9413 73.6653 12.984 73.4626 13.016C73.26 13.0587 73.036 13.08 72.7906 13.08ZM75.7804 13V0.999999H77.1564V6.232C77.4337 5.752 77.7964 5.4 78.2444 5.176C78.6924 4.952 79.1777 4.84 79.7004 4.84C80.1484 4.84 80.559 4.91467 80.9324 5.064C81.3057 5.21333 81.6204 5.432 81.8764 5.72C82.143 5.99733 82.351 6.33867 82.5004 6.744C82.6497 7.13867 82.7244 7.58133 82.7244 8.072V13H81.3644V8.28C81.3644 7.608 81.1884 7.08 80.8364 6.696C80.495 6.30133 80.0417 6.104 79.4764 6.104C79.1564 6.104 78.8524 6.168 78.5644 6.296C78.287 6.424 78.0417 6.616 77.8284 6.872C77.6257 7.11733 77.4604 7.42133 77.3324 7.784C77.215 8.14667 77.1564 8.56267 77.1564 9.032V13H75.7804ZM88.6102 13.16C88.0236 13.16 87.4849 13.0587 86.9943 12.856C86.5036 12.6427 86.0769 12.3493 85.7143 11.976C85.3623 11.6027 85.0849 11.1653 84.8823 10.664C84.6796 10.152 84.5783 9.59733 84.5783 9C84.5783 8.41333 84.6689 7.86933 84.8503 7.368C85.0423 6.856 85.3143 6.41333 85.6663 6.04C86.0183 5.66667 86.4449 5.37333 86.9463 5.16C87.4476 4.94667 88.0129 4.84 88.6423 4.84C89.2716 4.84 89.8316 4.96267 90.3223 5.208C90.8236 5.44267 91.2396 5.768 91.5703 6.184C91.9116 6.58933 92.1569 7.06933 92.3063 7.624C92.4663 8.168 92.5249 8.74933 92.4823 9.368H85.9703C85.9809 9.73067 86.0556 10.0667 86.1943 10.376C86.3436 10.6853 86.5356 10.9573 86.7703 11.192C87.0049 11.416 87.2823 11.592 87.6023 11.72C87.9223 11.848 88.2636 11.912 88.6263 11.912C89.1276 11.912 89.5756 11.8107 89.9703 11.608C90.3756 11.3947 90.7009 11.048 90.9463 10.568H92.3542C92.2583 10.92 92.1036 11.256 91.8903 11.576C91.6769 11.8853 91.4103 12.1573 91.0903 12.392C90.7809 12.6267 90.4183 12.8133 90.0023 12.952C89.5863 13.0907 89.1223 13.16 88.6102 13.16ZM88.5943 6.056C88.3063 6.056 88.0236 6.09867 87.7463 6.184C87.4689 6.26933 87.2129 6.40267 86.9783 6.584C86.7543 6.76533 86.5569 6.99467 86.3863 7.272C86.2156 7.54933 86.0983 7.88533 86.0343 8.28H91.0263C90.8983 7.53333 90.6103 6.97867 90.1623 6.616C89.7143 6.24267 89.1916 6.056 88.5943 6.056ZM98.7961 6.264H97.1001V5H98.7961V3.384C98.7961 2.968 98.8548 2.60533 98.9721 2.296C99.1001 1.98667 99.2708 1.73067 99.4841 1.528C99.7081 1.31467 99.9695 1.16 100.268 1.064C100.567 0.957333 100.892 0.903999 101.244 0.903999C101.489 0.903999 101.713 0.925333 101.916 0.967999C102.119 1 102.311 1.048 102.492 1.112V2.328C102.364 2.27467 102.204 2.23733 102.012 2.216C101.831 2.184 101.66 2.168 101.5 2.168C101.052 2.168 100.716 2.26933 100.492 2.472C100.279 2.664 100.172 3.016 100.172 3.528V5H102.492V6.264H100.172V13H98.7961V6.264ZM106.831 13.16C106.394 13.16 105.994 13.0853 105.631 12.936C105.268 12.776 104.959 12.5573 104.703 12.28C104.447 12.0027 104.244 11.6667 104.095 11.272C103.956 10.8667 103.887 10.4133 103.887 9.912V5H105.263V9.704C105.263 10.376 105.423 10.9093 105.743 11.304C106.074 11.6987 106.516 11.896 107.071 11.896C107.38 11.896 107.668 11.832 107.935 11.704C108.212 11.5653 108.447 11.3733 108.639 11.128C108.842 10.872 109.002 10.5627 109.119 10.2C109.236 9.83733 109.295 9.42667 109.295 8.968V5H110.671V13H109.295V11.768C109.028 12.2373 108.676 12.5893 108.239 12.824C107.812 13.048 107.343 13.16 106.831 13.16ZM116.369 13.08C116.017 13.08 115.691 13.032 115.393 12.936C115.094 12.8293 114.833 12.68 114.609 12.488C114.395 12.2853 114.225 12.0293 114.097 11.72C113.979 11.4107 113.921 11.048 113.921 10.632V6.264H112.225V5H113.921V2.776H115.297V5H117.601V6.264H115.297V10.456C115.297 10.968 115.409 11.3253 115.633 11.528C115.857 11.72 116.187 11.816 116.625 11.816C116.795 11.816 116.966 11.8053 117.137 11.784C117.318 11.752 117.473 11.7093 117.601 11.656V12.888C117.43 12.9413 117.243 12.984 117.041 13.016C116.838 13.0587 116.614 13.08 116.369 13.08ZM122.191 13.16C121.753 13.16 121.353 13.0853 120.991 12.936C120.628 12.776 120.319 12.5573 120.062 12.28C119.807 12.0027 119.604 11.6667 119.455 11.272C119.316 10.8667 119.247 10.4133 119.247 9.912V5H120.623V9.704C120.623 10.376 120.783 10.9093 121.103 11.304C121.433 11.6987 121.876 11.896 122.431 11.896C122.74 11.896 123.028 11.832 123.295 11.704C123.572 11.5653 123.807 11.3733 123.999 11.128C124.201 10.872 124.361 10.5627 124.479 10.2C124.596 9.83733 124.655 9.42667 124.655 8.968V5H126.031V13H124.655V11.768C124.388 12.2373 124.036 12.5893 123.599 12.824C123.172 13.048 122.703 13.16 122.191 13.16ZM128.624 5H130V6.552C130.075 6.296 130.192 6.06667 130.352 5.864C130.512 5.66133 130.693 5.49067 130.896 5.352C131.099 5.21333 131.312 5.10667 131.536 5.032C131.771 4.95733 132.005 4.92 132.24 4.92C132.453 4.92 132.661 4.94133 132.864 4.984V6.408C132.736 6.35467 132.613 6.32267 132.496 6.312C132.379 6.29067 132.251 6.28 132.112 6.28C131.856 6.28 131.6 6.33867 131.344 6.456C131.099 6.56267 130.875 6.728 130.672 6.952C130.48 7.176 130.32 7.464 130.192 7.816C130.064 8.15733 130 8.56267 130 9.032V13H128.624V5ZM137.61 13.16C137.024 13.16 136.485 13.0587 135.994 12.856C135.504 12.6427 135.077 12.3493 134.714 11.976C134.362 11.6027 134.085 11.1653 133.882 10.664C133.68 10.152 133.578 9.59733 133.578 9C133.578 8.41333 133.669 7.86933 133.85 7.368C134.042 6.856 134.314 6.41333 134.666 6.04C135.018 5.66667 135.445 5.37333 135.946 5.16C136.448 4.94667 137.013 4.84 137.642 4.84C138.272 4.84 138.832 4.96267 139.322 5.208C139.824 5.44267 140.24 5.768 140.57 6.184C140.912 6.58933 141.157 7.06933 141.306 7.624C141.466 8.168 141.525 8.74933 141.482 9.368H134.97C134.981 9.73067 135.056 10.0667 135.194 10.376C135.344 10.6853 135.536 10.9573 135.77 11.192C136.005 11.416 136.282 11.592 136.602 11.72C136.922 11.848 137.264 11.912 137.626 11.912C138.128 11.912 138.576 11.8107 138.97 11.608C139.376 11.3947 139.701 11.048 139.946 10.568H141.354C141.258 10.92 141.104 11.256 140.89 11.576C140.677 11.8853 140.41 12.1573 140.09 12.392C139.781 12.6267 139.418 12.8133 139.002 12.952C138.586 13.0907 138.122 13.16 137.61 13.16ZM137.594 6.056C137.306 6.056 137.024 6.09867 136.746 6.184C136.469 6.26933 136.213 6.40267 135.978 6.584C135.754 6.76533 135.557 6.99467 135.386 7.272C135.216 7.54933 135.098 7.88533 135.034 8.28H140.026C139.898 7.53333 139.61 6.97867 139.162 6.616C138.714 6.24267 138.192 6.056 137.594 6.056ZM150.879 13.16C150.271 13.16 149.711 13.0533 149.199 12.84C148.687 12.616 148.245 12.3173 147.871 11.944C147.498 11.5707 147.205 11.1333 146.991 10.632C146.789 10.12 146.687 9.576 146.687 9C146.687 8.424 146.789 7.88533 146.991 7.384C147.205 6.872 147.498 6.42933 147.871 6.056C148.245 5.68267 148.687 5.38933 149.199 5.176C149.711 4.952 150.271 4.84 150.879 4.84C151.477 4.84 152.031 4.952 152.543 5.176C153.055 5.38933 153.498 5.68267 153.871 6.056C154.245 6.42933 154.533 6.872 154.735 7.384C154.949 7.88533 155.055 8.424 155.055 9C155.055 9.576 154.949 10.12 154.735 10.632C154.533 11.1333 154.245 11.5707 153.871 11.944C153.498 12.3173 153.055 12.616 152.543 12.84C152.031 13.0533 151.477 13.16 150.879 13.16ZM150.879 11.88C151.295 11.88 151.674 11.8053 152.015 11.656C152.357 11.5067 152.645 11.304 152.879 11.048C153.125 10.7813 153.311 10.4773 153.439 10.136C153.578 9.784 153.647 9.40533 153.647 9C153.647 8.60533 153.578 8.232 153.439 7.88C153.311 7.528 153.125 7.224 152.879 6.968C152.645 6.70133 152.357 6.49333 152.015 6.344C151.674 6.19467 151.295 6.12 150.879 6.12C150.463 6.12 150.085 6.19467 149.743 6.344C149.402 6.49333 149.109 6.70133 148.863 6.968C148.618 7.224 148.426 7.528 148.287 7.88C148.159 8.232 148.095 8.60533 148.095 9C148.095 9.40533 148.159 9.784 148.287 10.136C148.426 10.4773 148.618 10.7813 148.863 11.048C149.109 11.304 149.402 11.5067 149.743 11.656C150.085 11.8053 150.463 11.88 150.879 11.88ZM157.577 6.264H155.881V5H157.577V3.384C157.577 2.968 157.636 2.60533 157.753 2.296C157.881 1.98667 158.052 1.73067 158.265 1.528C158.489 1.31467 158.751 1.16 159.049 1.064C159.348 0.957333 159.673 0.903999 160.025 0.903999C160.271 0.903999 160.495 0.925333 160.697 0.967999C160.9 1 161.092 1.048 161.273 1.112V2.328C161.145 2.27467 160.985 2.23733 160.793 2.216C160.612 2.184 160.441 2.168 160.281 2.168C159.833 2.168 159.497 2.26933 159.273 2.472C159.06 2.664 158.953 3.016 158.953 3.528V5H161.273V6.264H158.953V13H157.577V6.264ZM166.426 1.64H169.69C170.565 1.64 171.37 1.784 172.106 2.072C172.842 2.36 173.477 2.76 174.01 3.272C174.554 3.77333 174.975 4.37067 175.274 5.064C175.583 5.75733 175.738 6.50933 175.738 7.32C175.738 8.13067 175.583 8.88267 175.274 9.576C174.975 10.2693 174.554 10.872 174.01 11.384C173.477 11.8853 172.842 12.28 172.106 12.568C171.37 12.856 170.565 13 169.69 13H166.426V1.64ZM169.69 11.608C170.373 11.608 170.991 11.5013 171.546 11.288C172.111 11.0747 172.591 10.776 172.986 10.392C173.381 10.008 173.685 9.55467 173.898 9.032C174.122 8.50933 174.234 7.93867 174.234 7.32C174.234 6.70133 174.122 6.13067 173.898 5.608C173.685 5.08533 173.381 4.632 172.986 4.248C172.591 3.864 172.111 3.56533 171.546 3.352C170.991 3.13867 170.373 3.032 169.69 3.032H167.914V11.608H169.69ZM181.157 13.16C180.57 13.16 180.032 13.0587 179.541 12.856C179.05 12.6427 178.624 12.3493 178.261 11.976C177.909 11.6027 177.632 11.1653 177.429 10.664C177.226 10.152 177.125 9.59733 177.125 9C177.125 8.41333 177.216 7.86933 177.397 7.368C177.589 6.856 177.861 6.41333 178.213 6.04C178.565 5.66667 178.992 5.37333 179.493 5.16C179.994 4.94667 180.56 4.84 181.189 4.84C181.818 4.84 182.378 4.96267 182.869 5.208C183.37 5.44267 183.786 5.768 184.117 6.184C184.458 6.58933 184.704 7.06933 184.853 7.624C185.013 8.168 185.072 8.74933 185.029 9.368H178.517C178.528 9.73067 178.602 10.0667 178.741 10.376C178.89 10.6853 179.082 10.9573 179.317 11.192C179.552 11.416 179.829 11.592 180.149 11.72C180.469 11.848 180.81 11.912 181.173 11.912C181.674 11.912 182.122 11.8107 182.517 11.608C182.922 11.3947 183.248 11.048 183.493 10.568H184.901C184.805 10.92 184.65 11.256 184.437 11.576C184.224 11.8853 183.957 12.1573 183.637 12.392C183.328 12.6267 182.965 12.8133 182.549 12.952C182.133 13.0907 181.669 13.16 181.157 13.16ZM181.141 6.056C180.853 6.056 180.57 6.09867 180.293 6.184C180.016 6.26933 179.76 6.40267 179.525 6.584C179.301 6.76533 179.104 6.99467 178.933 7.272C178.762 7.54933 178.645 7.88533 178.581 8.28H183.573C183.445 7.53333 183.157 6.97867 182.709 6.616C182.261 6.24267 181.738 6.056 181.141 6.056ZM187.176 1.64H193.784V3.048H188.664V6.488H192.712V7.896H188.664V13H187.176V1.64ZM196.156 2.856C195.879 2.856 195.644 2.76533 195.452 2.584C195.26 2.392 195.164 2.15733 195.164 1.88C195.164 1.61333 195.26 1.384 195.452 1.192C195.644 0.999999 195.879 0.903999 196.156 0.903999C196.434 0.903999 196.663 0.999999 196.844 1.192C197.026 1.384 197.116 1.61333 197.116 1.88C197.116 2.15733 197.026 2.392 196.844 2.584C196.663 2.76533 196.434 2.856 196.156 2.856ZM195.452 5H196.828V13H195.452V5ZM208.768 13.096L212.288 9.576H202.928V8.424H212.288L208.768 4.904L209.552 4.104L214.448 9L209.552 13.896L208.768 13.096Z" fill="white"/>
</svg>