<svg width="101" height="33" viewBox="0 0 101 33" fill="currentColor" xmlns="http://www.w3.org/2000/svg">
<g opacity="0.9">
<path d="M41.8887 22.458C42.9307 23.5997 44.2673 24.0608 45.853 24.0608C48.6621 24.0608 50.7915 22.5239 50.7915 19.2744V9.15215H48.5261V19.2519C48.5261 20.9647 47.4388 22.1062 45.6945 22.1062C44.4485 22.1062 43.6103 21.4917 42.976 20.7888L41.8887 22.458ZM54.1564 18.0668C54.1564 21.6676 56.2858 24.0608 60.522 24.0608C64.7582 24.0608 66.865 21.6895 66.865 18.0448V9.15265H64.577V18.0009C64.577 20.5039 63.1725 22.1067 60.522 22.1067C57.8716 22.1067 56.4444 20.5039 56.4444 18.0009V9.15265H54.1564V18.0668ZM80.8638 23.7973H83.0612V9.15265H80.7959V20.1306L72.5726 9.15265H70.2393V23.7973H72.5047V12.5558L80.8638 23.7973ZM85.7766 16.486C85.7766 20.8332 88.8801 24.0608 93.3881 24.0608C97.8962 24.0608 101 20.8332 101 16.486C101 12.1387 97.8962 8.91113 93.3881 8.91113C88.8801 8.91113 85.7766 12.1387 85.7766 16.486ZM98.6664 16.486C98.6664 19.6915 96.5823 22.1067 93.3881 22.1067C90.1487 22.1067 88.1099 19.6915 88.1099 16.486C88.1099 13.2584 90.1487 10.8652 93.3881 10.8652C96.5823 10.8652 98.6664 13.2582 98.6664 16.486Z" />
<path d="M16.0712 32.0816C14.0936 32.0724 9.0503 31.6085 4.83902 27.4787C0.368236 23.1058 0 17.5987 0 16.0189V16.0062C0.0257205 14.0284 0.537584 8.9891 4.70456 4.78754C8.91584 0.552888 14.0072 0.0283306 16.0012 0.000320301C16.1069 -0.00273537 16.2121 0.016108 16.3104 0.0553224C16.4084 0.0945369 16.4975 0.153613 16.5719 0.228477C16.6473 0.302323 16.7069 0.390173 16.7479 0.487446C16.7886 0.584209 16.8095 0.688611 16.8095 0.794032V4.23523C16.8097 4.33912 16.7896 4.442 16.7499 4.53825C16.7104 4.6345 16.6524 4.72159 16.579 4.79544C16.5057 4.86928 16.4186 4.92785 16.3226 4.96783C16.2266 5.00781 16.1234 5.02843 16.0195 5.02869C14.9258 5.02869 11.1291 5.28842 8.13862 8.37414C6.17011 10.4306 5.06108 13.1611 5.0379 16.0077C5.04529 17.3077 5.33993 20.6218 7.9489 23.4572C10.9651 26.74 14.9332 27.0273 16.0766 27.0364C17.1815 27.0364 21.0078 26.7787 24.0092 23.6505C26.7712 20.7802 27.0712 17.3647 27.075 16.0299V0.860493C27.075 0.650415 27.1583 0.448995 27.3067 0.30054C27.4555 0.152085 27.6567 0.0688183 27.8667 0.0688183H31.2899C31.3938 0.0685637 31.4969 0.0889349 31.5932 0.128404C31.6892 0.168128 31.7765 0.22644 31.8501 0.300031C31.9237 0.373877 31.982 0.460963 32.0217 0.557217C32.0615 0.653471 32.0818 0.756345 32.0816 0.860238V16.0706C32.0816 17.643 31.7317 23.1076 27.3162 27.4657C23.1016 31.625 18.0451 32.0798 16.0712 32.0816V32.0816ZM1.5855 16.0189C1.5855 17.4571 1.9298 22.4134 5.94372 26.3481C9.74628 30.073 14.2942 30.4926 16.0712 30.4982C17.4576 30.4982 22.2966 30.1945 26.1985 26.3407C30.1757 22.4134 30.4887 17.4885 30.4907 16.0724V1.65802H28.6493V16.0375C28.6493 17.5659 28.2958 21.4692 25.1508 24.7538C21.7147 28.3315 17.3305 28.6205 16.0692 28.6205C14.7546 28.6093 10.2248 28.2816 6.77798 24.5292C3.80612 21.2925 3.46182 17.4923 3.45062 16.0192C3.45062 14.4801 3.81885 10.5656 6.99546 7.28097C9.88609 4.2966 13.4398 3.62613 15.2184 3.48812V1.6267C13.241 1.78509 9.17712 2.53806 5.82785 5.90923C2.07699 9.69088 1.61122 14.2311 1.58525 16.0189H1.5855Z" />
<path d="M16.0404 24.9525C14.2777 24.9525 12.5548 24.4298 11.0894 23.4506C9.62398 22.4714 8.48154 21.0795 7.80695 19.4514C7.13286 17.823 6.95628 16.0311 7.30012 14.3026C7.64396 12.5736 8.49261 10.9857 9.73892 9.7394C10.9852 8.49309 12.5731 7.64444 14.3016 7.3006C16.0304 6.95676 17.8222 7.13334 19.4506 7.80768C21.079 8.48227 22.471 9.62446 23.4499 11.0901C24.4293 12.5555 24.952 14.2785 24.952 16.0409C24.9477 18.403 24.0073 20.6672 22.3371 22.3376C20.6668 24.0078 18.4025 24.9482 16.0404 24.9525ZM16.0404 8.68425C14.5866 8.68425 13.1652 9.11537 11.9564 9.92327C10.7475 10.7309 9.80508 11.8791 9.2487 13.2223C8.69232 14.5655 8.54694 16.0437 8.83041 17.4696C9.11413 18.8957 9.81438 20.2054 10.8424 21.2334C11.8704 22.2617 13.1803 22.9617 14.6062 23.2454C16.0324 23.5291 17.5103 23.3835 18.8535 22.8271C20.1967 22.2707 21.3449 21.3285 22.1528 20.1197C22.9602 18.9106 23.3915 17.4895 23.3915 16.0354C23.389 14.0865 22.6138 12.2182 21.236 10.8401C19.8576 9.46197 17.9893 8.68677 16.0404 8.6845V8.68425Z" />
</g>
</svg>
