<svg width="178" height="34" viewBox="0 0 178 34" fill="currentColor" xmlns="http://www.w3.org/2000/svg">
<path d="M16.1509 32.8009C11.8331 32.8009 7.78638 31.1014 4.73324 28.0132C1.68012 24.9248 0 20.8315 0 16.464C0 12.0966 1.68012 8.00323 4.73324 4.91495C7.78638 1.82666 11.8331 0.127197 16.1509 0.127197C20.4686 0.127197 24.5154 1.82666 27.5685 4.91495C30.6216 8.00323 32.3017 12.0966 32.3017 16.464C32.3017 20.8315 30.6216 24.9248 27.5685 28.0132C24.5154 31.1014 20.4686 32.8009 16.1509 32.8009Z" fill="black"/>
<path d="M16.586 32.8923H22.8729C22.8729 29.9867 26.0706 25.8202 26.0706 19.5523C26.0706 14.2164 25.2034 11.3291 24.6615 9.97683C24.2279 8.86212 23.722 8.22253 22.638 8.22253C21.5541 8.22253 20.5063 8.64285 20.2172 11.1098C19.3681 18.4376 16.1344 22.6772 16.586 32.8923Z" fill="white"/>
<path d="M15.6291 32.8923H9.34217C9.34217 29.9868 6.14453 25.8203 6.14453 19.5525C6.14453 14.2165 7.01168 11.3292 7.55365 9.97693C7.98723 8.86224 8.49307 8.22266 9.57703 8.22266C10.661 8.22266 11.7088 8.64295 11.9978 11.1099C12.8289 18.4378 16.0627 22.6773 15.6291 32.8923Z" fill="white"/>
<path d="M23.074 33.0568H16.4618V32.8923C16.1909 26.5146 17.3471 22.4578 18.4491 18.529C19.1356 16.1169 19.7859 13.8326 20.1111 11.0733C20.2556 9.90373 20.5628 9.09967 21.0687 8.60629C21.4661 8.22255 21.9901 8.03979 22.6945 8.03979C23.8869 8.03979 24.4288 8.78902 24.8624 9.90373C25.7838 12.2428 26.2716 15.5869 26.2716 19.534C26.2716 23.2984 25.1335 26.3137 24.2121 28.7258C23.5978 30.3339 23.074 31.7226 23.074 32.874V33.0568ZM16.787 32.7279H22.7488C22.803 31.5582 23.3088 30.1878 23.905 28.6344C24.8083 26.2406 25.9464 23.2619 25.9464 19.5523C25.9464 15.6417 25.4586 12.3524 24.5554 10.0499C24.0855 8.84385 23.5799 8.40528 22.6945 8.40528C21.7371 8.40528 20.7254 8.73421 20.4363 11.1463C20.1111 13.9422 19.4608 16.2265 18.7742 18.657C17.6903 22.4944 16.5522 26.4782 16.787 32.7279Z" fill="black"/>
<path d="M15.8332 33.0568H9.22109V32.8923C9.22109 31.741 8.69718 30.3522 8.08295 28.7441C7.16158 26.332 6.02344 23.3167 6.02344 19.5523C6.02344 15.5869 6.51121 12.2611 7.43258 9.92203C7.86616 8.80733 8.40813 8.05811 9.60046 8.05811C10.305 8.05811 10.8109 8.24084 11.2264 8.62458C11.7322 9.11799 12.0574 9.92203 12.1839 11.0915C12.5091 13.8509 13.1594 16.1351 13.8459 18.5473C14.966 22.4761 16.1042 26.5146 15.8332 32.9105V33.0568ZM9.56435 32.7279H15.5261C15.779 26.4965 14.6408 22.4944 13.5388 18.6387C12.8523 16.2082 12.202 13.924 11.8768 11.1281C11.6058 8.71597 10.576 8.38704 9.61853 8.38704C8.7333 8.38704 8.22746 8.82561 7.75776 10.0317C6.85446 12.3342 6.36669 15.6235 6.36669 19.534C6.36669 23.2253 7.50483 26.2223 8.40812 28.6161C9.0043 30.1878 9.51014 31.54 9.56435 32.7279Z" fill="black"/>
<path d="M16.1649 32.9654H16.0023C14.6293 32.9654 13.4912 32.216 12.6963 30.7907C11.9917 29.5481 11.5762 27.8305 11.4678 25.8202C11.251 21.9461 10.8355 14.5636 10.5645 11.256C10.4562 9.7941 9.98643 9.66618 9.57092 9.66618C9.08315 9.66618 8.77603 10.0682 8.48697 11.1098C8.23406 12.0418 7.34882 16.4092 7.71015 20.868C7.92694 23.5909 8.79408 25.8751 9.57092 27.8852C10.2755 29.7309 10.8717 31.3207 10.8717 32.874H10.5465C10.5465 31.3754 9.95031 29.8223 9.2638 28.0131C8.48697 25.9665 7.60175 23.6639 7.38496 20.8863C7.02364 16.391 7.92694 11.9504 8.17985 11.0185C8.41471 10.1413 8.75796 9.31897 9.57092 9.31897C10.3839 9.31897 10.7813 9.88546 10.8897 11.2012C11.1426 14.5087 11.5762 21.9097 11.793 25.7837C11.9014 27.7391 12.3169 29.402 12.9854 30.6081C13.7261 31.942 14.7558 32.6182 16.0023 32.6182H16.1649C16.8153 32.6182 17.4115 32.4354 17.9354 32.0882C18.4413 31.7593 18.8747 31.2476 19.2542 30.6081C19.9587 29.402 20.3923 27.7025 20.5008 25.7837C20.7175 21.9097 21.133 14.5087 21.404 11.2012C21.5125 9.86719 21.9099 9.31897 22.7228 9.31897C23.5357 9.31897 23.879 10.123 24.1138 11.0185C24.3667 11.9504 25.2702 16.391 24.9088 20.8863C24.6921 23.6456 23.8068 25.9846 23.03 28.0314C22.3435 29.8587 21.7473 31.4304 21.7473 32.9288H21.4221C21.4221 31.3754 22.0363 29.7675 22.7228 27.9217C23.4816 25.8934 24.3667 23.5909 24.5836 20.868C24.945 16.4275 24.0597 12.0418 23.8068 11.1098C23.5178 10.0682 23.2106 9.66618 22.7228 9.66618C22.3073 9.66618 21.8557 9.7941 21.7292 11.256C21.4763 14.5636 21.0426 21.9461 20.8259 25.8202C20.7175 27.8122 20.2659 29.5298 19.5432 30.7907C18.6942 32.1979 17.5379 32.9654 16.1649 32.9654Z" fill="black"/>
<path d="M18.6273 8.25912V8.49668C17.1459 8.82561 16.5678 9.3921 16.2426 10.9454H15.9535C15.6283 9.37383 15.1044 8.82561 13.5508 8.49668V8.25912C15.0864 7.93018 15.6103 7.36371 15.9535 5.81042H16.2426C16.5858 7.38199 17.1639 7.93018 18.6273 8.25912Z" fill="white"/>
<path d="M16.1509 32.8009C11.8331 32.8009 7.78638 31.1014 4.73324 28.0132C1.68012 24.9248 0 20.8315 0 16.464C0 12.0966 1.68012 8.00323 4.73324 4.91495C7.78638 1.82666 11.8331 0.127197 16.1509 0.127197C20.4686 0.127197 24.5154 1.82666 27.5685 4.91495C30.6216 8.00323 32.3017 12.0966 32.3017 16.464C32.3017 20.8315 30.6216 24.9248 27.5685 28.0132C24.5154 31.1014 20.4686 32.8009 16.1509 32.8009ZM16.1509 0.529225C7.46119 0.529225 0.397447 7.67429 0.397447 16.464C0.397447 25.2537 7.46119 32.3987 16.1509 32.3987C24.8406 32.3987 31.9043 25.2537 31.9043 16.464C31.9043 7.69257 24.8406 0.529225 16.1509 0.529225Z" />
<path d="M171.013 11.3336C167.192 11.3336 164.094 14.4674 164.094 18.3324C164.094 22.1974 167.192 25.3311 171.013 25.3311C174.834 25.3311 177.932 22.1974 177.932 18.3324C177.932 14.4674 174.834 11.3336 171.013 11.3336ZM171.013 23.4178C168.235 23.4178 165.985 21.1399 165.985 18.3324C165.985 15.523 168.237 13.2469 171.013 13.2469C173.79 13.2469 176.04 15.5248 176.04 18.3324C176.04 21.1418 173.788 23.4178 171.013 23.4178Z" />
<path d="M93.2699 11.3336C91.3188 11.3336 89.8421 12.8968 89.4145 14.1705V11.8816H83.675V13.8003H87.534V22.9506L83.6641 22.956V24.8583L94.1922 24.8528V22.9506H89.4145V17.1485C89.4145 16.278 90.1574 13.1259 92.73 13.1259C93.5164 13.1259 94.2356 13.3367 94.7031 13.8883C94.5201 14.1375 94.4114 14.4454 94.4114 14.7789C94.4114 15.6091 95.0763 16.2799 95.8951 16.2799C96.7774 16.2799 97.35 15.5523 97.35 14.6708C97.3537 13.2212 95.7322 11.3336 93.2699 11.3336Z" />
<path d="M142.274 11.3281C140.323 11.3281 138.846 12.884 138.418 14.1577V11.8852L132.679 11.8816V13.8021H136.538V22.9377L132.668 22.9431V24.8455L143.196 24.8399V22.9377H138.418V17.1375C138.418 16.267 139.161 13.1149 141.734 13.1149C142.52 13.1149 143.24 13.3257 143.707 13.8773C143.524 14.1265 143.415 14.4344 143.415 14.7679C143.415 15.5981 144.08 16.2688 144.899 16.2688C145.781 16.2688 146.354 15.5413 146.354 14.6598C146.358 13.2084 144.736 11.3281 142.274 11.3281Z" />
<path d="M110.964 17.4563C111.785 17.4563 112.448 16.7838 112.448 15.9554C112.448 15.8913 112.442 15.8271 112.435 15.7648C112.247 14.0349 109.561 11.3629 106.145 11.3629C102.275 11.3629 99.1367 14.504 99.1367 18.3763C99.1367 22.2487 102.275 25.3897 106.145 25.3897C108.824 25.3897 111.15 23.8833 112.328 21.6714L110.813 20.6359C109.886 22.3127 108.161 23.4746 106.143 23.4746C103.331 23.4746 101.126 21.1931 101.126 18.3781C101.126 15.5633 103.331 13.2816 106.143 13.2816C107.703 13.2816 109.018 13.8846 109.891 14.9163C109.634 15.1857 109.476 15.5523 109.476 15.9573C109.48 16.7838 110.145 17.4563 110.964 17.4563Z" />
<path d="M157.506 13.804H159.063L155.7 22.617L152.03 13.8058H153.624V11.8834H148.102V13.804H150.013L154.722 25.1882L152.124 32.0036H154.137L161.074 13.8058H163.029V11.8834H157.506V13.804Z" />
<path d="M63.5666 16.8424C63.5666 13.4393 61.32 11.3318 58.5696 11.3318C56.41 11.3318 54.6092 12.9097 53.8192 14.5205C53.0511 12.5211 51.281 11.3318 49.2283 11.3318C47.1755 11.3318 45.42 12.8858 44.8728 14.1613V11.8779L40.9648 11.8852V13.804H42.9922V24.84H44.8728V17.1173C44.8728 16.2285 45.9273 13.0819 48.9548 13.0819C50.3897 13.0819 52.3445 14.3941 52.3445 17.0807C52.3445 18.4369 52.3445 24.8418 52.3445 24.8418H54.225C54.225 24.8418 54.225 17.2163 54.225 17.0807C54.225 16.1919 55.1618 13.0819 58.2979 13.0819C59.7328 13.0819 61.6878 14.2658 61.6878 16.9506C61.6878 18.3067 61.6878 24.8418 61.6878 24.8418H65.592V22.9524H63.5683L63.5666 16.8424Z" />
<path d="M74.5976 11.3263C70.7675 11.3263 67.6641 14.4124 67.6641 18.2865C67.6641 18.4149 67.6931 18.928 67.7003 19.0067C68.05 22.5529 71.0375 25.3257 74.6718 25.3257C77.3515 25.3257 79.6777 23.8193 80.8554 21.6072L79.3407 20.5718C78.4133 22.2487 76.6885 23.4106 74.6701 23.4106C72.0902 23.4106 69.9395 21.488 69.6152 18.9958L81.2322 19.0031C81.2559 18.7684 81.2684 18.5284 81.2684 18.2883C81.2702 14.4124 78.4276 11.3263 74.5976 11.3263ZM69.6841 17.0917C70.2168 14.8394 72.2187 13.1644 74.6086 13.1644C76.9982 13.1644 78.7393 14.8394 79.2719 17.0917H69.6841Z" />
<path d="M127.786 11.8834H125.905L125.907 19.5639C125.907 21.3122 124.103 23.6708 121.813 23.6708C120.378 23.6708 118.436 22.2964 118.436 19.8004C118.436 18.4441 118.436 11.8834 118.436 11.8834L114.531 11.8871V13.7985H116.555V19.9084C116.555 23.3116 118.796 25.3239 121.546 25.3239C123.494 25.3239 125 24.1089 125.907 22.8351V24.8564L129.815 24.8492V22.947H127.788L127.786 11.8834Z" />
</svg>
