<svg width="133" height="41" viewBox="0 0 133 41" fill="currentColor" xmlns="http://www.w3.org/2000/svg">
<path d="M43.8286 31.0219H46.5974V20.6321L50.8624 31.0219H53.0952L57.3378 20.6321V31.0219H60.1068V15.3477H56.7126L51.9788 26.9242L47.245 15.3477H43.8286V31.0219Z" />
<path d="M67.6826 31.2012C71.099 31.2012 73.5552 28.738 73.5552 25.3793C73.5552 22.0205 71.099 19.5574 67.6826 19.5574C64.2441 19.5574 61.7876 22.0205 61.7876 25.3793C61.7876 28.738 64.2441 31.2012 67.6826 31.2012ZM67.6826 28.8277C65.807 28.8277 64.5567 27.4169 64.5567 25.3793C64.5567 23.3416 65.807 21.9309 67.6826 21.9309C69.536 21.9309 70.7864 23.3416 70.7864 25.3793C70.7864 27.4169 69.536 28.8277 67.6826 28.8277Z" />
<path d="M80.2541 31.2012C83.6705 31.2012 86.1267 28.738 86.1267 25.3793C86.1267 22.0205 83.6705 19.5574 80.2541 19.5574C76.8153 19.5574 74.3591 22.0205 74.3591 25.3793C74.3591 28.738 76.8153 31.2012 80.2541 31.2012ZM80.2541 28.8277C78.3783 28.8277 77.1279 27.4169 77.1279 25.3793C77.1279 23.3416 78.3783 21.9309 80.2541 21.9309C82.1073 21.9309 83.3579 23.3416 83.3579 25.3793C83.3579 27.4169 82.1073 28.8277 80.2541 28.8277Z" />
<path d="M87.5334 31.022H90.2801V24.8643C90.2801 23.2072 91.3519 21.9981 92.8924 21.9981C94.2992 21.9981 95.237 23.0729 95.237 24.6179V31.022H97.9836V24.0357C97.9836 21.3935 96.3312 19.5574 93.7856 19.5574C92.1781 19.5574 90.9053 20.2515 90.2801 21.4831V19.7365H87.5334V31.022Z" />
<path d="M100.264 31.0219H103.234V25.0657H106.538C109.799 25.0657 111.741 23.0504 111.741 20.2067C111.741 17.3629 109.799 15.3477 106.538 15.3477H100.264V31.0219ZM103.234 22.5802V17.8331H106.405C108.146 17.8331 108.861 18.9527 108.861 20.2067C108.861 21.4606 108.146 22.5802 106.405 22.5802H103.234Z" />
<path d="M117.014 19.5574C114.089 19.5574 112.191 21.304 112.057 23.5431H114.514C114.558 22.5355 115.429 21.6174 116.881 21.6174C118.332 21.6174 119.18 22.4011 119.18 23.4983C119.18 23.9462 118.912 24.2597 118.354 24.2597H116.278C113.754 24.2597 112.057 25.6256 112.057 27.82C112.057 29.768 113.576 31.2012 115.809 31.2012C117.416 31.2012 118.712 30.4621 119.18 29.3427V31.022H121.882V23.767C121.882 21.2144 119.873 19.5574 117.014 19.5574ZM116.456 29.1635C115.429 29.1635 114.715 28.5812 114.715 27.708C114.715 26.7228 115.496 26.0734 116.657 26.0734H119.18V26.2525C119.18 27.9543 118.176 29.1635 116.456 29.1635Z" />
<path d="M133 19.7366H130.187L127.596 27.4841L124.984 19.7366H122.193L126.301 31.0221L124.716 35.5899H127.328L129.07 30.4846L133 19.7366Z" />
<path d="M32.5634 23.7912C32.5634 32.8086 25.2739 40.1186 16.2818 40.1186C7.2896 40.1186 0 32.8086 0 23.7912C0 14.7739 7.2896 7.46387 16.2818 7.46387C25.2739 7.46387 32.5634 14.7739 32.5634 23.7912Z" />
<path d="M42.3326 5.8312C42.3326 9.05168 39.7292 11.6624 36.5175 11.6624C33.306 11.6624 30.7026 9.05168 30.7026 5.8312C30.7026 2.61072 33.306 0 36.5175 0C39.7292 0 42.3326 2.61072 42.3326 5.8312Z" />
</svg>
