<svg xmlns="http://www.w3.org/2000/svg" width="133" height="34" viewBox="0 0 133 34" fill="currentColor">
<path d="M40.2109 17.4859C40.2109 21.8332 43.3145 25.0608 47.8225 25.0608C52.3305 25.0608 55.4341 21.8332 55.4341 17.4859C55.4341 13.1386 52.3305 9.91112 47.8225 9.91112C43.3145 9.91112 40.2109 13.1386 40.2109 17.4859V17.4859ZM53.1008 17.4859C53.1008 20.6915 51.0166 23.1067 47.8225 23.1067C44.5831 23.1067 42.5442 20.6915 42.5442 17.4859C42.5442 14.2584 44.5831 11.8652 47.8225 11.8652C51.0166 11.8652 53.1008 14.2582 53.1008 17.4859ZM68.7915 24.7973H70.9888V10.1526H68.7235V21.1306L60.5003 10.1526H58.167V24.7973H60.4323V13.5558L68.7915 24.7973ZM72.8889 23.458C73.931 24.5997 75.2675 25.0608 76.8533 25.0608C79.6623 25.0608 81.7917 23.5238 81.7917 20.2744V10.1521H79.5264V20.2519C79.5264 21.9647 78.439 23.1062 76.6947 23.1062C75.4488 23.1062 74.6106 22.4917 73.9763 21.7888L72.8889 23.4577V23.458ZM85.1567 19.0668C85.1567 22.6676 87.2861 25.0608 91.5223 25.0608C95.7585 25.0608 97.8653 22.6895 97.8653 19.0448V10.1526H95.5773V19.0009C95.5773 21.5039 94.1727 23.1067 91.5223 23.1067C88.8718 23.1067 87.4447 21.5039 87.4447 19.0009V10.1526H85.1567V19.0668V19.0668ZM111.864 24.7973H114.061V10.1526H111.796V21.1306L103.573 10.1526H101.24V24.7973H103.505V13.5558L111.864 24.7973ZM116.777 17.4859C116.777 21.8332 119.88 25.0608 124.388 25.0608C128.896 25.0608 132 21.8332 132 17.4859C132 13.1386 128.896 9.91112 124.388 9.91112C119.88 9.91112 116.777 13.1386 116.777 17.4859ZM129.667 17.4859C129.667 20.6915 127.583 23.1067 124.388 23.1067C121.149 23.1067 119.11 20.6915 119.11 17.4859C119.11 14.2584 121.149 11.8652 124.388 11.8652C127.583 11.8652 129.667 14.2582 129.667 17.4859Z"/>
<path d="M17.0712 33.0816C15.0936 33.0724 10.0503 32.6085 5.83902 28.4787C1.36824 24.1058 1 18.5987 1 17.0189V17.0062C1.02572 15.0284 1.53758 9.9891 5.70456 5.78754C9.91584 1.55289 15.0072 1.02833 17.0012 1.00032C17.1069 0.997265 17.2121 1.01611 17.3104 1.05532C17.4084 1.09454 17.4975 1.15361 17.5719 1.22848C17.6473 1.30232 17.7069 1.39017 17.7479 1.48745C17.7886 1.58421 17.8095 1.68861 17.8095 1.79403V5.23523C17.8097 5.33912 17.7896 5.442 17.7499 5.53825C17.7104 5.6345 17.6524 5.72159 17.579 5.79544C17.5057 5.86928 17.4186 5.92785 17.3226 5.96783C17.2266 6.00781 17.1234 6.02843 17.0195 6.02869C15.9258 6.02869 12.1291 6.28842 9.13862 9.37414C7.17011 11.4306 6.06108 14.1611 6.0379 17.0077C6.04529 18.3077 6.33993 21.6218 8.9489 24.4572C11.9651 27.74 15.9332 28.0273 17.0766 28.0364C18.1815 28.0364 22.0078 27.7787 25.0092 24.6505C27.7712 21.7802 28.0712 18.3647 28.075 17.0299V1.86049C28.075 1.65042 28.1583 1.449 28.3067 1.30054C28.4555 1.15209 28.6567 1.06882 28.8667 1.06882H32.2899C32.3938 1.06856 32.4969 1.08893 32.5932 1.1284C32.6892 1.16813 32.7765 1.22644 32.8501 1.30003C32.9237 1.37388 32.982 1.46096 33.0217 1.55722C33.0615 1.65347 33.0818 1.75635 33.0816 1.86024V17.0706C33.0816 18.643 32.7317 24.1076 28.3162 28.4657C24.1016 32.625 19.0451 33.0798 17.0712 33.0816V33.0816ZM2.5855 17.0189C2.5855 18.4571 2.9298 23.4134 6.94372 27.3481C10.7463 31.073 15.2942 31.4926 17.0712 31.4982C18.4576 31.4982 23.2966 31.1945 27.1985 27.3407C31.1757 23.4134 31.4887 18.4885 31.4907 17.0724V2.65802H29.6493V17.0375C29.6493 18.5659 29.2958 22.4692 26.1508 25.7538C22.7147 29.3315 18.3305 29.6205 17.0692 29.6205C15.7546 29.6093 11.2248 29.2816 7.77798 25.5292C4.80612 22.2925 4.46182 18.4923 4.45062 17.0192C4.45062 15.4801 4.81885 11.5656 7.99546 8.28097C10.8861 5.2966 14.4398 4.62613 16.2184 4.48812V2.6267C14.241 2.78509 10.1771 3.53806 6.82785 6.90923C3.07699 10.6909 2.61122 15.2311 2.58525 17.0189H2.5855Z"/>
<path d="M17.0404 25.9525C15.2777 25.9525 13.5548 25.4298 12.0894 24.4506C10.624 23.4714 9.48154 22.0795 8.80695 20.4514C8.13286 18.823 7.95628 17.0311 8.30012 15.3026C8.64396 13.5736 9.49261 11.9857 10.7389 10.7394C11.9852 9.49309 13.5731 8.64444 15.3016 8.3006C17.0304 7.95676 18.8222 8.13334 20.4506 8.80768C22.079 9.48227 23.471 10.6245 24.4499 12.0901C25.4293 13.5555 25.952 15.2785 25.952 17.0409C25.9477 19.403 25.0073 21.6672 23.3371 23.3376C21.6668 25.0078 19.4025 25.9482 17.0404 25.9525ZM17.0404 9.68425C15.5866 9.68425 14.1652 10.1154 12.9564 10.9233C11.7475 11.7309 10.8051 12.8791 10.2487 14.2223C9.69232 15.5655 9.54694 17.0437 9.83041 18.4696C10.1141 19.8957 10.8144 21.2054 11.8424 22.2334C12.8704 23.2617 14.1803 23.9617 15.6062 24.2454C17.0324 24.5291 18.5103 24.3835 19.8535 23.8271C21.1967 23.2707 22.3449 22.3285 23.1528 21.1197C23.9602 19.9106 24.3915 18.4895 24.3915 17.0354C24.389 15.0865 23.6138 13.2182 22.236 11.8401C20.8576 10.462 18.9893 9.68677 17.0404 9.6845V9.68425Z"/>
</svg>