<svg width="138" height="32" viewBox="0 0 138 32" fill="currentColor" xmlns="http://www.w3.org/2000/svg">
<g clip-path="url(#clip0)">
<path d="M34.4432 18.8309L28.3844 24.912C27.8711 25.4272 27.8716 26.2647 28.3854 26.7792L33.0154 31.4158C33.8045 32.1947 35.0945 32.1947 35.8836 31.4158L50.0746 17.4093C50.8637 16.6305 50.8637 15.3571 50.0746 14.5783L35.8836 0.584122C35.0945 -0.194707 33.8045 -0.194707 33.0154 0.584122L28.3854 5.22078C27.8716 5.73535 27.8711 6.57281 28.3844 7.08795L34.4432 13.1691C36.0214 14.7267 36.0214 17.2733 34.4432 18.8309Z" fill="#0A6E5C"/>
<path d="M16.2232 18.8309L22.282 24.912C22.7953 25.4272 22.7948 26.2647 22.281 26.7792L17.651 31.4158C16.8619 32.1947 15.5719 32.1947 14.7828 31.4158L0.591812 17.4093C-0.197271 16.6305 -0.197271 15.3571 0.591812 14.5783L14.7828 0.584122C15.5719 -0.194707 16.8619 -0.194707 17.651 0.584122L22.281 5.22078C22.7948 5.73535 22.7953 6.57281 22.282 7.08795L16.2232 13.1691C14.645 14.7267 14.645 17.2733 16.2232 18.8309Z" fill="#21BF73"/>
<path d="M17.8114 17.157C17.1723 16.518 17.1723 15.482 17.8114 14.843L24.1751 8.47926C24.8141 7.84025 25.8501 7.84025 26.4891 8.47926L32.8528 14.843C33.4918 15.482 33.4918 16.518 32.8528 17.157L26.4891 23.5207C25.8501 24.1598 24.8141 24.1598 24.1751 23.5207L17.8114 17.157Z" fill="#21BF73"/>
<path d="M77.8036 25.6003H73.2814L70.7874 19.0761C70.5864 18.5622 70.2758 18.2043 69.8555 18.0025C69.4536 17.8006 68.942 17.6996 68.3208 17.6996H65.5527V25.6003H61.332V6H70.02C72.2856 6 74.0031 6.49551 75.1725 7.48654C76.3418 8.47757 76.9265 9.89988 76.9265 11.7535C76.9265 13.0565 76.5794 14.176 75.8851 15.112C75.209 16.0479 74.2315 16.7178 72.9525 17.1215C74.1036 17.3601 74.935 18.1585 75.4466 19.5165L77.8036 25.6003ZM69.3896 14.4237C70.6138 14.4237 71.5091 14.2219 72.0755 13.8181C72.6419 13.396 72.9251 12.7445 72.9251 11.8636C72.9251 10.9827 72.6419 10.3403 72.0755 9.93659C71.5091 9.51448 70.6138 9.30343 69.3896 9.30343H65.4978V14.4237H69.3896Z" />
<path d="M94.3851 11.6435V25.6004H90.3015V23.5358C89.8813 24.2515 89.2875 24.8113 88.5201 25.215C87.7527 25.6188 86.8848 25.8207 85.9164 25.8207C84.7105 25.8207 83.6416 25.527 82.7098 24.9398C81.7962 24.3525 81.0745 23.5174 80.5447 22.4347C80.0331 21.3335 79.7773 20.0672 79.7773 18.6357C79.7773 17.2042 80.0331 15.9287 80.5447 14.8092C81.0745 13.6897 81.8054 12.8272 82.7372 12.2216C83.669 11.5976 84.7288 11.2856 85.9164 11.2856C86.8848 11.2856 87.7527 11.4966 88.5201 11.9187C89.2875 12.3408 89.8813 12.9098 90.3015 13.6255V11.6435H94.3851ZM87.1223 22.6549C88.1455 22.6549 88.9312 22.3062 89.4793 21.6088C90.0274 20.9114 90.3015 19.902 90.3015 18.5807C90.3015 17.2593 90.0274 16.2499 89.4793 15.5525C88.9312 14.8368 88.1455 14.4789 87.1223 14.4789C86.0991 14.4789 85.3043 14.8459 84.7379 15.58C84.1715 16.3141 83.8883 17.3327 83.8883 18.6357C83.8883 19.9387 84.1624 20.9389 84.7105 21.6363C85.2769 22.3154 86.0809 22.6549 87.1223 22.6549Z" />
<path d="M114.719 11.2854C116.309 11.2854 117.487 11.7717 118.255 12.7444C119.04 13.6987 119.433 15.1669 119.433 17.149V25.6002H115.295V17.2866C115.295 16.3139 115.139 15.6165 114.829 15.1944C114.518 14.754 114.007 14.5338 113.294 14.5338C112.454 14.5338 111.805 14.8274 111.348 15.4147C110.891 16.0019 110.663 16.8278 110.663 17.8922V25.6002H106.524V17.2866C106.524 16.3323 106.36 15.6349 106.031 15.1944C105.721 14.754 105.218 14.5338 104.524 14.5338C103.683 14.5338 103.026 14.8274 102.55 15.4147C102.094 16.0019 101.865 16.8278 101.865 17.8922V25.6002H97.7269V15.6349C97.7269 14.1484 97.6538 12.8178 97.5076 11.6433H101.399L101.646 13.7354C102.066 12.9463 102.651 12.3406 103.4 11.9185C104.167 11.4964 105.045 11.2854 106.031 11.2854C108.096 11.2854 109.466 12.1479 110.142 13.8731C110.599 13.0839 111.229 12.4599 112.033 12.0011C112.855 11.524 113.751 11.2854 114.719 11.2854Z" />
<path d="M131.195 11.2856C132.383 11.2856 133.443 11.5976 134.375 12.2216C135.306 12.8272 136.028 13.6897 136.54 14.8092C137.07 15.9287 137.334 17.2042 137.334 18.6357C137.334 20.0672 137.079 21.3335 136.567 22.4347C136.056 23.5174 135.334 24.3525 134.402 24.9398C133.47 25.527 132.401 25.8207 131.195 25.8207C130.227 25.8207 129.359 25.6188 128.592 25.215C127.824 24.8113 127.24 24.2515 126.838 23.5358V32.0001H122.699V15.6351C122.699 14.1486 122.626 12.818 122.48 11.6435H126.372L126.646 13.9559C127.011 13.13 127.596 12.4785 128.4 12.0013C129.222 11.5242 130.154 11.2856 131.195 11.2856ZM130.017 22.6549C131.04 22.6549 131.826 22.3154 132.374 21.6363C132.922 20.9389 133.196 19.9387 133.196 18.6357C133.196 17.3327 132.913 16.3141 132.346 15.58C131.798 14.8459 131.022 14.4789 130.017 14.4789C128.994 14.4789 128.199 14.8368 127.632 15.5525C127.084 16.2499 126.81 17.2593 126.81 18.5807C126.81 19.902 127.084 20.9114 127.632 21.6088C128.199 22.3062 128.994 22.6549 130.017 22.6549Z" />
</g>
<defs>
<clipPath id="clip0">
<rect width="138" height="32" fill="white"/>
</clipPath>
</defs>
</svg>
