<svg width="128" height="40" viewBox="0 0 128 40" fill="none" xmlns="http://www.w3.org/2000/svg">
<path d="M127.835 24.9565C127.591 25.5864 127.097 25.6576 126.638 25.1438C125.399 23.7509 124.138 22.3579 122.895 20.965C122.733 20.7824 122.643 20.7499 122.46 20.965C121.222 22.3579 119.972 23.7276 118.724 25.1082L118.588 25.2506C118.313 25.5369 117.969 25.5601 117.721 25.328C117.617 25.2069 117.561 25.0521 117.563 24.8926C117.565 24.733 117.625 24.5797 117.732 24.4613C118.232 23.9118 118.741 23.3686 119.246 22.8222C120.061 21.9385 120.874 21.0501 121.697 20.1726C121.84 20.0178 121.84 19.9281 121.697 19.7748C120.447 18.4284 119.201 17.0767 117.961 15.7199C117.845 15.6192 117.759 15.4878 117.714 15.3407C117.663 15.0745 117.652 14.8099 117.929 14.6427C118.056 14.5646 118.208 14.5346 118.356 14.5581C118.503 14.5817 118.638 14.6572 118.735 14.7712C119.244 15.3268 119.746 15.8917 120.249 16.4551C121.004 17.3047 121.761 18.1575 122.51 19.0118C122.646 19.1666 122.73 19.196 122.881 19.0227C124.11 17.6298 125.35 16.2368 126.585 14.8516C126.856 14.5421 127.264 14.474 127.514 14.6969C127.763 14.9197 127.722 15.3376 127.473 15.6116C126.213 16.9942 124.951 18.3742 123.686 19.7516C123.547 19.9064 123.531 19.9807 123.677 20.1386C124.944 21.5005 126.201 22.8718 127.462 24.2368C127.636 24.4027 127.768 24.6082 127.845 24.8358L127.835 24.9565Z" fill="currentColor"/>
<path d="M66.1583 16.3745C67.627 13.7125 72.2577 13.7017 73.3659 16.6965C73.5996 16.2996 73.8734 15.9277 74.183 15.5868C75.1117 14.6674 76.2631 14.3796 77.5199 14.4183C78.3045 14.4415 79.0676 14.6009 79.7253 15.0575C80.6787 15.7106 81.0842 16.6794 81.273 17.7644C81.3656 18.3363 81.4065 18.9154 81.3953 19.4947V24.5835C81.3953 24.681 81.3953 24.78 81.3953 24.8776C81.3643 25.2614 81.1585 25.4827 80.8397 25.4842C80.4775 25.4842 80.2438 25.2614 80.2314 24.8652C80.2175 24.3405 80.2314 23.8143 80.2314 23.2896C80.2314 21.8998 80.2314 20.51 80.2314 19.1201C80.2309 18.5733 80.1479 18.0296 79.9853 17.5075C79.4916 15.8963 78.1281 15.3252 76.6423 15.5558C75.1844 15.7833 74.2094 16.845 73.9168 18.3726C73.8182 18.9101 73.771 19.4558 73.776 20.0023C73.776 21.6104 73.776 23.22 73.776 24.828C73.776 25.3805 73.3721 25.6468 72.9093 25.4131C72.64 25.2784 72.6168 25.0292 72.6168 24.7692C72.6168 22.9306 72.6168 21.0919 72.6168 19.2548C72.6342 18.5973 72.5293 17.9424 72.3072 17.3233C71.7377 15.8406 70.4841 15.336 69.0246 15.5543C67.5651 15.7725 66.6102 16.8048 66.2976 18.3649C66.204 18.8233 66.1568 19.2899 66.1567 19.7578C66.1567 21.4417 66.1567 23.1271 66.1567 24.8125C66.1567 25.1221 66.0716 25.3666 65.7265 25.4533C65.6485 25.4805 65.5653 25.4893 65.4834 25.4788C65.4015 25.4684 65.3232 25.439 65.2546 25.3931C65.186 25.3472 65.129 25.2859 65.0881 25.2142C65.0473 25.1424 65.0237 25.0621 65.0192 24.9797C65.0161 24.9251 65.0161 24.8703 65.0192 24.8156C65.0192 21.6171 65.0192 18.4221 65.0192 15.2308C65.0192 14.7944 65.1631 14.5993 65.4835 14.5668C65.9014 14.5235 66.1382 14.7324 66.1505 15.1766C66.166 15.5465 66.1583 15.9195 66.1583 16.3745Z" fill="currentColor"/>
<path d="M51.4769 25.6188C50.0979 25.594 48.7453 25.447 47.5365 24.701C47.2812 24.533 47.0353 24.3511 46.7998 24.1562C46.6975 24.0744 46.6176 23.9679 46.5677 23.8467C46.5027 23.7309 46.4799 23.5961 46.5034 23.4654C46.5268 23.3347 46.5949 23.2161 46.6961 23.1301C46.8679 22.9754 47.2703 23.0094 47.4622 23.1796C49.2576 24.7815 51.3423 24.8279 53.4982 24.2243C54.642 23.9055 55.1295 23.0434 54.9871 21.9276C54.9689 21.7304 54.9001 21.5413 54.7873 21.3786C54.6745 21.2159 54.5215 21.0851 54.3433 20.999C53.5447 20.5795 52.6733 20.496 51.7973 20.4604C50.7712 20.4186 49.7404 20.4309 48.7329 20.1771C47.795 19.9403 46.9855 19.541 46.7642 18.4948C46.5212 17.348 46.7472 16.3172 47.665 15.5155C48.3738 14.8964 49.2312 14.6163 50.1413 14.4971C51.6456 14.3021 53.1082 14.4259 54.4748 15.1332C54.8392 15.3115 55.1747 15.5437 55.47 15.8219C55.5799 15.9369 55.6447 16.0876 55.6527 16.2464C55.6606 16.4053 55.6112 16.5617 55.5133 16.6871C55.3991 16.7919 55.2497 16.8501 55.0947 16.8501C54.9396 16.8501 54.7902 16.7919 54.676 16.6871C53.4688 15.5851 52.0155 15.4071 50.474 15.5619C49.8096 15.6459 49.1715 15.8741 48.6044 16.2305C47.9219 16.6298 47.5984 17.7101 47.9451 18.4236C48.0665 18.6592 48.2712 18.8412 48.5193 18.9343C49.3303 19.2872 50.1939 19.3367 51.0591 19.3615C52.1099 19.3909 53.1577 19.4203 54.1792 19.7113C54.6473 19.8452 55.0721 20.0994 55.4113 20.4486C55.7505 20.7978 55.9922 21.2298 56.1125 21.7016C56.2327 22.1733 56.2273 22.6683 56.0966 23.1373C55.9659 23.6063 55.7147 24.0328 55.3678 24.3745C54.6929 25.0744 53.78 25.4958 52.8095 25.5553C52.367 25.6038 51.922 25.625 51.4769 25.6188Z" fill="currentColor"/>
<path d="M59.8098 19.7237C59.8098 18.0707 59.8098 16.4193 59.8098 14.7711C59.8233 14.6824 59.8027 14.5919 59.7522 14.5178C59.7016 14.4437 59.6249 14.3915 59.5374 14.3718C59.035 14.1871 58.6098 13.838 58.3311 13.3811C58.0523 12.9242 57.9364 12.3864 58.0021 11.8552C58.0479 11.4711 58.1858 11.1037 58.404 10.7843C58.6222 10.4649 58.9143 10.2028 59.2555 10.0205C59.5966 9.83808 59.9768 9.74074 60.3636 9.7367C60.7504 9.73267 61.1325 9.82206 61.4774 9.99729C61.8223 10.1725 62.1198 10.4284 62.3446 10.7432C62.5694 11.058 62.715 11.4224 62.7688 11.8055C62.8227 12.1886 62.7833 12.579 62.654 12.9436C62.5247 13.3082 62.3092 13.6362 62.0261 13.8997C61.8186 14.1141 61.5613 14.2737 61.277 14.364C60.9999 14.4383 60.9674 14.5884 60.9674 14.8283C60.9767 18.0743 60.9793 21.3198 60.9752 24.5648C60.9785 24.696 60.9749 24.8272 60.9643 24.958C60.9631 25.0296 60.9477 25.1002 60.919 25.1658C60.8902 25.2314 60.8487 25.2906 60.7969 25.34C60.745 25.3894 60.6839 25.428 60.617 25.4535C60.5501 25.4791 60.4787 25.4911 60.4072 25.4888C60.2683 25.5004 60.1305 25.4566 60.0238 25.3671C59.9172 25.2775 59.8502 25.1493 59.8376 25.0106C59.8167 24.8702 59.8074 24.7284 59.8098 24.5865C59.8098 22.9635 59.8098 21.3425 59.8098 19.7237Z" fill="#43AF2A"/>
<path d="M101.294 17.5275V24.7784C101.294 25.0648 101.274 25.3279 100.944 25.4424C100.545 25.5817 100.208 25.3836 100.158 24.9657C100.146 24.8351 100.141 24.7038 100.144 24.5726V10.4577C100.144 10.3602 100.144 10.2611 100.144 10.1636C100.166 9.75656 100.366 9.53369 100.706 9.53369C101.081 9.53369 101.285 9.75037 101.286 10.1713C101.286 10.8833 101.286 11.5937 101.286 12.3041L101.294 17.5275Z" fill="currentColor"/>
<path d="M37.5571 25.492C37.4655 25.4711 37.3853 25.4161 37.333 25.3381C37.2806 25.2602 37.26 25.1652 37.2754 25.0725C37.2816 21.6913 37.2816 18.3102 37.2754 14.929C37.2621 14.8364 37.2849 14.7422 37.339 14.6659C37.3932 14.5896 37.4745 14.5369 37.5663 14.5188C37.8901 14.4012 38.1856 14.2171 38.434 13.9784C38.6823 13.7397 38.878 13.4516 39.0083 13.1327C39.1386 12.8139 39.2008 12.4713 39.1908 12.127C39.1808 11.7826 39.0988 11.4442 38.9502 11.1335C38.8015 10.8227 38.5895 10.5465 38.3277 10.3226C38.0659 10.0987 37.7601 9.93213 37.4301 9.8335C37.1001 9.73487 36.753 9.7064 36.4113 9.74993C36.0696 9.79346 35.7408 9.90802 35.446 10.0863C35.1984 10.241 35.0777 10.1745 34.8919 10.0274C32.3042 7.9556 29.7134 5.88944 27.1194 3.82895C26.8594 3.62156 26.7635 3.47298 26.8703 3.11082C26.9633 2.78111 26.9859 2.43553 26.9367 2.0965C26.8876 1.75747 26.7676 1.43257 26.5848 1.14288C26.4019 0.853194 26.1602 0.605186 25.8753 0.414955C25.5904 0.224723 25.2687 0.0965166 24.931 0.0386552C24.5971 -0.0210486 24.2544 -0.0115068 23.9244 0.0666887C23.5943 0.144884 23.2838 0.290066 23.0121 0.493228C22.7404 0.696391 22.5134 0.953202 22.3451 1.24773C22.1768 1.54226 22.0708 1.86823 22.0337 2.20542C22.0152 2.39269 21.9579 2.46543 21.7768 2.50567C18.4421 3.26094 15.1073 4.02086 11.7725 4.78542C11.6892 4.81538 11.5976 4.81273 11.516 4.778C11.4345 4.74327 11.3692 4.67903 11.333 4.59815C10.7588 3.72989 9.92461 3.36 8.90623 3.50238C8.45467 3.54884 8.02664 3.72665 7.67509 4.01383C7.32354 4.30102 7.0639 4.68496 6.92828 5.11817C6.59398 6.06381 6.80137 6.93516 7.48545 7.66412C7.55431 7.71757 7.60072 7.7948 7.61561 7.88069C7.6305 7.96657 7.61278 8.05492 7.56593 8.12843C6.0884 11.1825 4.61449 14.2387 3.14418 17.2969C3.11787 17.3836 3.05953 17.4569 2.98103 17.5021C2.90253 17.5472 2.80978 17.5608 2.72166 17.5399C2.37283 17.4936 2.01803 17.5268 1.68381 17.6369C1.3496 17.7471 1.04462 17.9314 0.791693 18.176C0.416369 18.5244 0.158274 18.9805 0.0529481 19.4817C-0.0523781 19.9828 0.000245107 20.5043 0.203571 20.9743C0.406897 21.4507 0.756269 21.8503 1.20132 22.1153C1.64637 22.3804 2.1641 22.4973 2.67987 22.4492C2.92131 22.4291 3.04668 22.4678 3.14418 22.7061C3.45372 23.384 3.78183 24.0464 4.10375 24.7181C5.25213 27.0912 6.40104 29.4685 7.55045 31.8499C7.60014 31.9244 7.61948 32.0151 7.60452 32.1034C7.58956 32.1917 7.54143 32.271 7.46997 32.325C7.18327 32.6063 6.97277 32.9558 6.85825 33.3408C6.74373 33.7258 6.72895 34.1336 6.8153 34.5258C6.90737 35.0137 7.14441 35.4625 7.49547 35.8135C7.84653 36.1646 8.29529 36.4017 8.78316 36.4938C9.27103 36.5859 9.77533 36.5287 10.2302 36.3298C10.6851 36.1308 11.0694 35.7993 11.333 35.3786C11.3485 35.3396 11.3718 35.3042 11.4014 35.2745C11.431 35.2447 11.4664 35.2213 11.5053 35.2057C11.5443 35.1901 11.586 35.1825 11.6279 35.1835C11.6699 35.1845 11.7112 35.194 11.7493 35.2114C12.0589 35.2935 12.3885 35.3662 12.7074 35.4312C15.7006 36.1184 18.6923 36.8087 21.684 37.4819C21.7789 37.4875 21.868 37.5296 21.9327 37.5994C21.9973 37.6692 22.0324 37.7613 22.0306 37.8564C22.076 38.2772 22.2327 38.6783 22.4846 39.0183C22.7365 39.3584 23.0745 39.6251 23.4638 39.7911C23.6371 39.8715 23.8213 39.9304 24.0024 40H24.9883C25.0007 39.9474 25.044 39.9427 25.0858 39.9319C25.4227 39.8455 25.7376 39.689 26.01 39.4728C26.2825 39.2565 26.5063 38.9853 26.6669 38.6767C26.8275 38.3682 26.9213 38.0293 26.9422 37.6821C26.9631 37.3349 26.9107 36.9872 26.7882 36.6616C26.7108 36.4465 26.8347 36.3892 26.9507 36.2964C29.621 34.1719 32.2908 32.0454 34.96 29.9168C35.0145 29.8618 35.0877 29.8292 35.1651 29.8255C35.2424 29.8217 35.3184 29.8471 35.3779 29.8967C36.6609 30.6705 38.2845 30.2062 38.9128 28.9108C39.0691 28.6005 39.1578 28.2606 39.1733 27.9135C39.1887 27.5664 39.1305 27.22 39.0024 26.897C38.8743 26.5741 38.6793 26.2819 38.4302 26.0397C38.1811 25.7975 37.8835 25.6109 37.5571 25.492ZM8.68027 31.3732L8.61681 31.3871C7.12587 28.3051 5.63751 25.2196 4.15173 22.1304L4.19351 22.1041C5.63802 23.2545 7.08254 24.4034 8.52705 25.5508C8.57845 25.5887 8.61955 25.6388 8.64659 25.6967C8.67362 25.7545 8.68573 25.8182 8.68181 25.882C8.67769 27.7144 8.67717 29.5474 8.68027 31.3809V31.3732ZM8.68027 24.1857L4.83271 21.1306L7.44366 21.7233C7.78415 21.8007 8.12465 21.8781 8.46669 21.957C8.61217 21.988 8.68646 22.0453 8.68336 22.217C8.67253 22.8485 8.68027 23.48 8.68027 24.1934V24.1857ZM8.6911 19.3724C8.6911 19.8367 8.6911 20.3087 8.6911 20.8148L5.08498 20.0039C6.29528 19.7299 7.40652 19.4807 8.5224 19.2192C8.70193 19.1712 8.69265 19.2625 8.6911 19.3848V19.3724ZM8.54716 18.0228C7.3864 18.2813 6.22563 18.5444 5.06641 18.7967C5.05093 18.7967 5.03236 18.7812 4.972 18.7502L8.68646 15.7879C8.68646 16.5185 8.68646 17.1809 8.68646 17.8402C8.69043 17.8615 8.68989 17.8833 8.68488 17.9044C8.67987 17.9254 8.6705 17.9452 8.65738 17.9624C8.64425 17.9796 8.62766 17.9939 8.60867 18.0043C8.58969 18.0147 8.56874 18.021 8.54716 18.0228ZM8.68336 8.82179C8.68336 10.5614 8.68336 12.301 8.68336 14.0406C8.68336 14.1799 8.69884 14.3084 8.558 14.4198C7.1073 15.563 5.66279 16.7119 4.22447 17.8665L4.17185 17.8247C5.65763 14.7448 7.14702 11.6582 8.64003 8.56488C8.66538 8.60205 8.68285 8.64403 8.69137 8.68821C8.69989 8.7324 8.69927 8.77786 8.68955 8.82179H8.68336ZM23.9111 16.8806L22.7704 15.9706C23.1372 15.887 23.4452 15.8158 23.7486 15.7446C23.877 15.7106 23.9033 15.7678 23.9033 15.87C23.9173 16.1826 23.9173 16.4937 23.9173 16.8806H23.9111ZM23.9033 27.829C23.9033 28.5161 23.9033 29.2049 23.9033 29.8936C23.9033 30.0623 23.86 30.1397 23.6805 30.1753C23.1032 30.2944 22.529 30.4291 21.9579 30.5715C21.8232 30.6055 21.7629 30.5715 21.7056 30.4569C21.0865 29.16 20.4675 27.863 19.8329 26.5722C19.7648 26.4314 19.8236 26.3757 19.9149 26.3045C20.4396 25.8913 20.9627 25.4796 21.4812 25.0663C21.52 25.0292 21.5679 25.0029 21.62 24.9899C21.6721 24.9768 21.7266 24.9776 21.7784 24.9921C22.4036 25.1437 23.031 25.2882 23.6604 25.4254C23.6976 25.4274 23.7339 25.4373 23.767 25.4545C23.8 25.4717 23.829 25.4958 23.852 25.5251C23.875 25.5544 23.8915 25.5883 23.9004 25.6245C23.9092 25.6607 23.9102 25.6983 23.9033 25.7349C23.9033 26.4299 23.9095 27.1232 23.9095 27.829H23.9033ZM18.9353 12.6616C18.8687 12.7994 18.8192 12.838 18.6799 12.7251C17.709 11.9409 16.735 11.1629 15.7578 10.3912C15.6557 10.3107 15.6418 10.2596 15.7578 10.1729C16.4265 9.64362 17.093 9.11121 17.7575 8.57571C17.7825 8.54826 17.8154 8.52911 17.8516 8.52081C17.8878 8.51252 17.9257 8.51547 17.9602 8.52928L20.4257 9.08645C20.5805 9.1205 20.6238 9.17312 20.5449 9.33408C20.0042 10.4381 19.4697 11.5457 18.9414 12.657L18.9353 12.6616ZM19.3841 14.751C19.624 14.9537 19.8716 15.1472 20.1579 15.3809L18.7619 15.6982C18.9167 15.3809 19.0513 15.0992 19.1829 14.8144C19.2262 14.7077 19.2711 14.6458 19.3903 14.7417L19.3841 14.751ZM18.1459 13.779C18.2094 13.8301 18.3007 13.8673 18.2837 13.988C18.2636 14.0313 18.2388 14.0793 18.2156 14.1288C17.9463 14.6891 17.6708 15.2463 17.4123 15.8096C17.3819 15.8821 17.3336 15.9457 17.2719 15.9945C17.2101 16.0432 17.1371 16.0754 17.0595 16.0882C16.4512 16.2197 15.843 16.3513 15.2394 16.5014C15.0691 16.5448 14.9933 16.52 14.9159 16.3559C14.3133 15.0868 13.7036 13.8208 13.0865 12.5579C13.0669 12.533 13.0532 12.504 13.0463 12.4731C13.0394 12.4421 13.0395 12.4101 13.0466 12.3792C13.0537 12.3483 13.0677 12.3194 13.0875 12.2946C13.1072 12.2698 13.1323 12.2498 13.1608 12.236C13.6251 11.8785 14.0894 11.507 14.5429 11.1325C14.5621 11.1102 14.5858 11.0924 14.6126 11.0801C14.6393 11.0679 14.6683 11.0616 14.6977 11.0616C14.7271 11.0616 14.7561 11.0679 14.7828 11.0801C14.8095 11.0924 14.8333 11.1102 14.8525 11.1325C15.9513 12.0178 17.0595 12.8938 18.1568 13.7744L18.1459 13.779ZM16.654 17.3681L16.0256 18.6713L15.5241 17.6281L16.654 17.3681ZM16.64 22.6164C16.2646 22.5661 15.8936 22.487 15.5303 22.3796C15.6851 22.0422 15.8399 21.714 16.0225 21.3426L16.64 22.6164ZM17.0889 23.9226C17.1431 23.9272 17.1954 23.9451 17.2411 23.9748C17.2867 24.0045 17.3243 24.0451 17.3504 24.0928C17.6517 24.7233 17.9545 25.3516 18.2589 25.9779C18.2682 25.9965 18.2759 26.0182 18.2837 26.0383C18.3053 26.1373 18.2233 26.1714 18.1676 26.2163C17.0491 27.1077 15.9302 27.9992 14.8107 28.8907C14.6977 28.982 14.6296 28.9541 14.5321 28.8752C14.0755 28.5022 13.6158 28.1323 13.1484 27.7702C13.1204 27.7551 13.096 27.7342 13.0769 27.7089C13.0578 27.6835 13.0443 27.6543 13.0376 27.6233C13.0308 27.5922 13.0309 27.5601 13.0377 27.5291C13.0446 27.4981 13.058 27.4689 13.0773 27.4436C13.6901 26.191 14.2968 24.9358 14.8973 23.6781C14.9732 23.5233 15.0351 23.4521 15.2378 23.5047C15.86 23.6579 16.4822 23.7818 17.0997 23.918L17.0889 23.9226ZM18.6985 27.278C18.8238 27.1774 18.8734 27.2161 18.9322 27.3384C19.463 28.4496 19.9939 29.5608 20.5356 30.6674C20.6176 30.8377 20.5789 30.8918 20.4102 30.929C19.6364 31.1023 18.8625 31.2834 18.0794 31.4552C18.0299 31.4769 17.9759 31.4862 17.9219 31.4825C17.868 31.4787 17.8158 31.4619 17.7698 31.4335L15.6248 29.7311C16.6679 28.8969 17.6785 28.089 18.6985 27.278ZM18.7573 24.3049L20.1626 24.6283C19.8778 24.8574 19.6395 25.0431 19.4088 25.2366C19.2974 25.3294 19.2355 25.331 19.1721 25.1871C19.0467 24.9007 18.9167 24.6222 18.7619 24.3033L18.7573 24.3049ZM23.908 24.1377C23.908 24.2554 23.86 24.2817 23.7455 24.2538C23.4514 24.1826 23.1543 24.1223 22.7766 24.0402L23.908 23.1395V24.1377ZM23.908 19.9915C23.908 20.4558 23.908 20.9309 23.908 21.4014C23.9144 21.4765 23.9013 21.5519 23.8702 21.6205C23.839 21.689 23.7907 21.7484 23.73 21.793C22.9809 22.3801 22.2365 22.9723 21.4967 23.5697C21.4453 23.6166 21.3828 23.6496 21.3151 23.6656C21.2474 23.6816 21.1767 23.68 21.1098 23.661C20.1966 23.4459 19.2804 23.2432 18.3626 23.042C18.2835 23.0308 18.2086 22.9995 18.1452 22.951C18.0817 22.9024 18.0319 22.8384 18.0005 22.7649C17.612 21.9369 17.2096 21.1135 16.8041 20.2886C16.7548 20.205 16.728 20.1101 16.7261 20.013C16.7242 19.916 16.7473 19.8201 16.7933 19.7346C17.206 18.9091 17.611 18.0759 18.0082 17.235C18.0334 17.1697 18.0752 17.112 18.1295 17.0678C18.1837 17.0236 18.2486 16.9942 18.3177 16.9828C19.2556 16.7764 20.192 16.5644 21.1268 16.3467C21.1878 16.3271 21.2529 16.3238 21.3156 16.3371C21.3783 16.3504 21.4365 16.3798 21.4843 16.4225C22.2148 17.0117 22.95 17.5967 23.6898 18.1776C23.7651 18.2279 23.8255 18.2976 23.8647 18.3793C23.9039 18.4609 23.9204 18.5516 23.9126 18.6419C23.8972 19.0923 23.9095 19.5395 23.9095 19.9899L23.908 19.9915ZM23.908 12.1911C23.908 12.8814 23.908 13.5701 23.908 14.2588C23.908 14.4616 23.8476 14.5498 23.648 14.59C23.0289 14.718 22.4098 14.8562 21.7907 15.0048C21.7352 15.0232 21.6757 15.0262 21.6185 15.0137C21.5613 15.0012 21.5086 14.9735 21.4657 14.9336C20.9643 14.5281 20.4592 14.1268 19.9505 13.7295C19.8236 13.6305 19.7726 13.55 19.8561 13.3797C20.4649 12.1416 21.0633 10.9034 21.6515 9.66528C21.7536 9.44861 21.865 9.40063 22.0941 9.46099C22.6002 9.59409 23.114 9.69933 23.6263 9.80767C23.6688 9.80895 23.7104 9.81941 23.7484 9.83834C23.7865 9.85726 23.8199 9.88419 23.8466 9.91728C23.8732 9.95037 23.8923 9.98884 23.9027 10.03C23.913 10.0712 23.9143 10.1142 23.9064 10.1559C23.8972 10.8338 23.9095 11.5117 23.9095 12.1896L23.908 12.1911ZM23.908 5.18163V6.7386C23.908 7.30661 23.908 7.87461 23.908 8.44106C23.908 8.62214 23.8863 8.69643 23.6712 8.63607C23.2936 8.53083 22.8973 8.46273 22.5228 8.37451C22.4408 8.35439 22.2953 8.36368 22.368 8.20272C22.854 7.18743 23.3415 6.17318 23.8306 5.15996L23.908 5.18163ZM22.7859 4.57493L22.8261 4.60434L21.2274 7.93187C21.2215 7.95275 21.2116 7.97225 21.198 7.98922C21.1845 8.00618 21.1678 8.02027 21.1487 8.03066C21.1297 8.04104 21.1088 8.04751 21.0872 8.04968C21.0656 8.05186 21.0438 8.04969 21.0231 8.04331C20.3793 7.88854 19.7354 7.7477 19.0219 7.579L22.7859 4.57493ZM22.0399 3.6293C21.8106 3.87365 21.557 4.09404 21.2831 4.28706C20.1038 5.22961 18.9213 6.16596 17.742 7.1085C17.7029 7.15299 17.6531 7.18674 17.5973 7.20651C17.5415 7.22629 17.4815 7.23145 17.4232 7.22148C15.6258 6.80361 13.8284 6.38728 12.031 5.9725C12.003 5.95761 11.9766 5.93998 11.9521 5.91988L22.0399 3.6293ZM16.4032 8.16712C15.8538 8.60666 15.3415 9.01216 14.8339 9.42384C14.7457 9.49504 14.6791 9.51671 14.5801 9.43932C13.6267 8.67786 12.6702 7.91949 11.74 7.10541L16.4032 8.16712ZM13.7644 10.2735C13.3821 10.5831 13.0231 10.8647 12.6671 11.1526C12.5464 11.2501 12.4675 11.2826 12.3823 11.1C11.918 10.1141 11.4398 9.13443 10.9678 8.15938C10.9554 8.11956 10.9471 8.0786 10.943 8.03712L13.7644 10.2735ZM9.86425 8.65929L9.91378 8.64536C10.2697 9.36761 10.6247 10.0955 10.9786 10.8291C11.1442 11.1712 11.3005 11.5179 11.4692 11.8584C11.5234 11.9682 11.545 12.0456 11.429 12.1369C10.9213 12.5301 10.4214 12.934 9.86425 13.3751V8.65929ZM10.392 14.4322C10.9089 14.087 11.3779 13.6692 11.8592 13.2729C12.014 13.1476 12.0836 13.1182 12.1827 13.3302C12.6986 14.426 13.2238 15.5171 13.7582 16.6036C13.8495 16.7908 13.7985 16.845 13.6174 16.8853C12.4442 17.1422 11.2726 17.4079 10.1026 17.6823C9.8983 17.7303 9.83329 17.6823 9.84103 17.4749C9.85496 17.0694 9.84103 16.6655 9.84103 16.26C9.85653 16.042 9.85653 15.8233 9.84103 15.6053C9.7652 15.0791 9.94009 14.7231 10.392 14.4322ZM10.2852 18.8075C11.5342 18.5397 12.7785 18.2534 14.0198 17.9578C14.2922 17.8944 14.4268 17.9578 14.5383 18.2178C14.7751 18.7564 15.0366 19.2842 15.2997 19.8088C15.3347 19.8684 15.3531 19.9363 15.3531 20.0054C15.3531 20.0745 15.3347 20.1424 15.2997 20.202C15.0165 20.7669 14.7364 21.3333 14.4764 21.9044C14.3928 22.0901 14.2937 22.1072 14.1219 22.0669C12.7703 21.7574 11.4192 21.4509 10.0685 21.1476C9.90294 21.1104 9.82865 21.0393 9.83639 20.8597C9.85032 20.5657 9.83639 20.2701 9.83639 19.9744C9.85326 19.7684 9.85326 19.5614 9.83639 19.3554C9.77603 18.9808 9.95866 18.8725 10.2852 18.8028V18.8075ZM9.84103 22.539C9.84103 22.3223 9.8983 22.2867 10.1026 22.3347C11.2804 22.6102 12.4613 22.8733 13.6422 23.141C13.7691 23.1689 13.8635 23.1874 13.7722 23.3732C13.2011 24.5339 12.6454 25.6947 12.0697 26.9004C11.3562 26.3339 10.6768 25.7938 10.0051 25.2644C9.95072 25.2214 9.90806 25.1654 9.88101 25.1016C9.85396 25.0378 9.84341 24.9682 9.85032 24.8992C9.84722 24.1083 9.85187 23.3205 9.84103 22.5343V22.539ZM9.87353 26.6403L11.4599 27.8971C11.5714 27.9853 11.5002 28.0689 11.4599 28.1571L9.87353 31.4444V26.6403ZM11.0003 31.9211L10.9492 31.8855C11.1039 31.5512 11.2726 31.2153 11.4336 30.8795C11.7431 30.2217 12.0713 29.5639 12.3839 28.9031C12.4473 28.7684 12.4953 28.7065 12.6377 28.8241C12.9999 29.1244 13.3698 29.4138 13.7598 29.7264L11.0003 31.9211ZM11.7168 32.8992L11.6952 32.8543L14.5832 30.556C14.6435 30.508 14.693 30.4693 14.7782 30.539C15.3013 30.963 15.8306 31.3809 16.4001 31.8359L11.7168 32.8992ZM11.8608 34.0522C13.3032 33.7226 14.6466 33.413 16.0055 33.1066C16.4203 33.0122 16.8397 32.9363 17.2436 32.8218C17.3398 32.7889 17.4431 32.7829 17.5424 32.8044C17.6416 32.826 17.7332 32.8743 17.807 32.9441C19.1349 34.0151 20.4706 35.0753 21.8031 36.1401C21.8727 36.1914 21.9202 36.2671 21.9362 36.3521L11.8608 34.0522ZM19.0142 32.4225C19.7091 32.2677 20.3251 32.1284 20.9364 31.9814C20.9661 31.9687 20.9982 31.9625 21.0305 31.9631C21.0628 31.9636 21.0946 31.971 21.1238 31.9848C21.153 31.9985 21.179 32.0183 21.2001 32.0428C21.2211 32.0673 21.2368 32.0959 21.246 32.1269C21.7598 33.2103 22.2814 34.2828 22.7565 35.4065L19.0142 32.4225ZM23.8507 34.8725L22.303 31.6765C22.7844 31.5635 23.2224 31.4707 23.6542 31.3546C23.8693 31.2958 23.9173 31.3546 23.9157 31.5651C23.9126 32.6624 23.9157 33.7535 23.8507 34.8771V34.8725ZM35.0127 14.3734L32.9418 18.6682C32.6323 18.0166 32.3475 17.43 32.0612 16.845C32.0475 16.8252 32.0381 16.8027 32.0337 16.7791C32.0293 16.7554 32.03 16.731 32.0357 16.7076C32.0414 16.6842 32.052 16.6623 32.0668 16.6433C32.0816 16.6243 32.1003 16.6086 32.1216 16.5974C33.0688 15.8452 34.0128 15.0899 35.0127 14.3734ZM30.7612 25.8572L31.3802 24.5804C31.4251 24.4906 31.4514 24.3575 31.6062 24.4813C32.4713 25.1747 33.3396 25.865 34.1769 26.6311L30.7612 25.8572ZM33.9865 27.8305L29.2939 28.8969C29.6035 28.2437 29.8991 27.6494 30.1823 27.052C30.1886 27.0314 30.1992 27.0123 30.2134 26.996C30.2275 26.9797 30.2449 26.9665 30.2644 26.9574C30.284 26.9482 30.3052 26.9432 30.3268 26.9427C30.3483 26.9422 30.3698 26.9462 30.3897 26.9545C31.5582 27.2238 32.7298 27.4885 33.8999 27.7578C33.9293 27.764 33.9478 27.798 33.9865 27.8305ZM31.1744 22.3486C31.0924 22.5204 31.0366 22.5513 30.8741 22.4213C29.9239 21.6475 28.9643 20.8938 28.0047 20.137C27.8778 20.0364 27.8639 19.9822 28.0047 19.8754C28.9756 19.1129 29.9419 18.3447 30.9035 17.5709C31.0351 17.4641 31.0924 17.4796 31.162 17.6281C31.5133 18.3664 31.8724 19.1 32.2268 19.8352C32.25 19.8847 32.2671 19.9373 32.2918 20.0008C32.264 20.0704 32.2346 20.1555 32.1974 20.2283C31.8538 20.9325 31.5071 21.6382 31.1744 22.3486ZM34.2295 13.3627C34.1134 13.5298 33.9643 13.6715 33.7915 13.779C33.0935 14.344 32.3847 14.8949 31.6898 15.4645C31.5071 15.6192 31.4359 15.5806 31.3477 15.3809C31.1682 14.9739 30.9685 14.5746 30.7673 14.1505L34.2295 13.3627ZM30.4872 13.0392C30.2953 13.0857 30.2179 13.0392 30.1405 12.8845C29.8774 12.3134 29.5988 11.75 29.2986 11.1248L33.9819 12.1911C33.8271 12.3366 33.646 12.3196 33.4835 12.3583C32.4853 12.5749 31.4839 12.7932 30.4872 13.0392ZM26.2249 4.5997L34.2388 10.987L34.2249 11.0458L31.7362 10.484C30.8076 10.2735 29.879 10.0615 28.9504 9.8541C28.8556 9.84201 28.7656 9.80577 28.6889 9.74885C28.6122 9.69194 28.5514 9.61626 28.5124 9.52909C27.7571 7.93342 26.9848 6.34549 26.2171 4.75601C26.2064 4.73109 26.2016 4.70405 26.2029 4.67696C26.2042 4.64987 26.2118 4.62344 26.2249 4.5997ZM25.1167 5.11353L27.203 9.43777C26.4802 9.28301 25.824 9.12824 25.1678 8.98275C25.0362 8.95335 25.0641 8.82798 25.0641 8.73977C25.0626 7.53876 25.0626 6.3362 25.1167 5.11353ZM25.3086 10.1915C26.1057 10.3803 26.9043 10.5598 27.7029 10.7378C27.7605 10.7529 27.8134 10.7822 27.8566 10.823C27.8999 10.8638 27.9322 10.9149 27.9505 10.9715C28.2926 11.6881 28.6346 12.4078 28.9844 13.1213C29.0633 13.276 29.0726 13.3581 28.8652 13.4045C27.6611 13.6676 26.4591 13.9395 25.2591 14.2201C25.0811 14.2619 25.0595 14.2201 25.061 14.0654C25.061 13.4463 25.061 12.8272 25.061 12.1973C25.061 11.6076 25.061 11.018 25.061 10.4283C25.0548 10.224 25.0904 10.1389 25.3086 10.1915ZM25.0595 15.6703C25.0595 15.5156 25.1013 15.4397 25.2607 15.4041C26.6458 15.0946 28.0295 14.785 29.4131 14.4662L29.5106 14.4507C29.6282 14.4322 29.6499 14.5204 29.6886 14.6055C29.9424 15.1364 30.1947 15.6688 30.4624 16.1934C30.5383 16.3482 30.5073 16.4132 30.3789 16.5138C29.2893 17.3743 28.2059 18.2405 27.1287 19.1124C26.9554 19.2532 26.8563 19.2393 26.6923 19.1015C26.228 18.7146 25.7559 18.3478 25.2792 17.981C25.2078 17.9339 25.1501 17.8687 25.112 17.792C25.074 17.7154 25.0569 17.63 25.0626 17.5446C25.0718 16.9085 25.0688 16.2894 25.0595 15.6703ZM25.9788 20.0039L25.0688 20.7313V19.2935L25.9788 20.0039ZM25.9927 21.468C26.2566 21.293 26.5065 21.0979 26.7403 20.8845C26.7594 20.8593 26.784 20.8388 26.8121 20.8244C26.8403 20.81 26.8713 20.802 26.9029 20.8011C26.9345 20.8002 26.9659 20.8064 26.9948 20.8193C27.0237 20.8321 27.0494 20.8512 27.0699 20.8752C28.1667 21.7574 29.2692 22.6344 30.3773 23.5063C30.4056 23.5209 30.4305 23.5413 30.4503 23.5663C30.4701 23.5913 30.4843 23.6201 30.4921 23.651C30.4998 23.6819 30.5009 23.7141 30.4953 23.7455C30.4896 23.7768 30.4774 23.8066 30.4594 23.8328C30.1962 24.359 29.9347 24.8868 29.6855 25.4208C29.6112 25.5755 29.5122 25.5848 29.376 25.5523C28.015 25.2428 26.6536 24.9332 25.2916 24.6237C25.2548 24.6217 25.2188 24.6117 25.1863 24.5943C25.1537 24.577 25.1254 24.5527 25.1033 24.5232C25.0811 24.4936 25.0657 24.4596 25.0582 24.4235C25.0506 24.3874 25.051 24.3501 25.0595 24.3142C25.078 24.0046 25.0595 23.6812 25.0595 23.2076C24.7979 22.4415 25.2839 21.906 25.9927 21.4618V21.468ZM25.0641 25.7489L29.0881 26.6667C28.6919 27.4885 28.3143 28.2701 27.9397 29.0594C27.9108 29.1222 27.8664 29.1766 27.8106 29.2175C27.7548 29.2584 27.6895 29.2844 27.6209 29.2931C26.8656 29.4664 26.1088 29.6305 25.3566 29.8116C25.1307 29.8657 25.0579 29.8255 25.061 29.5748C25.0703 28.3041 25.0626 27.0381 25.0626 25.7427L25.0641 25.7489ZM25.0641 34.8802V32.6361C25.0641 32.1718 25.0641 31.7183 25.0641 31.2602C25.0641 31.1488 25.0548 31.0466 25.208 31.0141C25.8472 30.8779 26.4833 30.734 27.1999 30.5746C26.4864 32.0557 25.807 33.4734 25.1198 34.8926L25.0641 34.8802ZM26.228 35.4095L26.1784 35.3709C26.4214 34.8632 26.6613 34.354 26.9074 33.8479C27.4568 32.7088 28.0109 31.5728 28.5557 30.4322C28.5821 30.3679 28.6243 30.3113 28.6784 30.2678C28.7325 30.2242 28.7968 30.195 28.8652 30.183L34.1661 28.9804C34.2052 28.9808 34.2441 28.9855 34.2821 28.9944L26.228 35.4095ZM34.96 25.6808C34.0128 24.9255 33.0657 24.1702 32.1185 23.415C32.0976 23.403 32.0795 23.3868 32.0653 23.3674C32.0511 23.348 32.0411 23.3259 32.036 23.3024C32.0309 23.2789 32.0308 23.2546 32.0357 23.2311C32.0405 23.2076 32.0503 23.1853 32.0643 23.1658C32.3506 22.5823 32.6292 21.9957 32.9418 21.3457L35.0127 25.6204L34.96 25.6808ZM36.1007 25.2165C35.2587 23.4738 34.4601 21.8116 33.6584 20.1586C33.6324 20.1176 33.6174 20.0706 33.6147 20.0221C33.612 19.9736 33.6217 19.9252 33.6429 19.8816C34.4493 18.2147 35.2541 16.5479 36.1007 14.7959V25.2165Z" fill="#43AF2A"/>
<path d="M96.6714 19.264C96.5011 17.5615 95.7706 16.2011 94.3359 15.2477C93.3624 14.6008 92.2604 14.3965 91.1151 14.4089C90.1252 14.3903 89.1501 14.651 88.3014 15.1611C87.6697 15.5573 87.1175 16.068 86.6733 16.667C86.6733 16.1531 86.6733 15.6378 86.6733 15.1193C86.6733 14.7416 86.4659 14.5559 86.0975 14.559C85.6859 14.559 85.5357 14.7494 85.5342 15.2632C85.5342 19.8031 85.5342 24.343 85.5342 28.8829C85.5342 28.9711 85.5342 29.0578 85.5419 29.1444C85.5442 29.2677 85.5936 29.3855 85.6799 29.4736C85.7662 29.5616 85.883 29.6133 86.0062 29.618C86.4349 29.683 86.6779 29.4633 86.6795 28.999C86.6795 27.2263 86.6795 25.4537 86.6795 23.6811C86.6578 23.5613 86.6729 23.4377 86.7228 23.3267C87.3499 24.3148 88.312 25.0439 89.4328 25.3805C90.3599 25.6611 91.341 25.7142 92.2929 25.5352C94.1192 25.2009 95.5121 24.2491 96.2442 22.4971C96.6558 21.4724 96.8027 20.3605 96.6714 19.264ZM94.0155 23.5418C93.1844 24.2584 92.1846 24.5308 90.9697 24.5153C88.2535 24.5447 86.3622 22.2557 86.7197 19.3692C86.9194 17.7534 87.7102 16.5261 89.2363 15.8807C91.7126 14.833 95.1175 15.8684 95.4936 19.4017C95.6623 21.0113 95.2831 22.446 94.0155 23.5418Z" fill="currentColor"/>
<path d="M113.827 15.5927C112.156 14.3097 110.254 14.0899 108.288 14.7013C106.613 15.2213 105.46 16.3511 104.911 18.052C104.628 18.9844 104.55 19.9669 104.682 20.9323C104.837 22.3252 105.436 23.5169 106.539 24.3573C108.526 25.871 110.726 25.9716 112.994 25.0553C113.723 24.742 114.364 24.2553 114.861 23.6376C114.95 23.5392 115.004 23.4142 115.015 23.2818C115.026 23.1495 114.993 23.0172 114.921 22.9056C114.791 22.6641 114.564 22.6363 114.325 22.6579C114.087 22.6796 113.994 22.8545 113.861 23.0015C113.468 23.46 112.983 23.8311 112.438 24.0907C111.892 24.3503 111.298 24.4928 110.695 24.509C108.005 24.6328 106.24 23.2399 105.843 20.714C105.802 20.454 105.88 20.4262 106.101 20.4277C107.581 20.4277 109.06 20.4277 110.538 20.4277H114.781C114.901 20.4311 115.021 20.4259 115.141 20.4122C115.528 20.3534 115.735 20.1414 115.735 19.7529C115.739 18.0783 115.183 16.6312 113.827 15.5927ZM114.321 19.3753C112.964 19.366 111.606 19.3753 110.25 19.3753H106.206C105.83 19.3753 105.819 19.3629 105.897 18.9868C106.428 16.4471 108.491 15.2584 110.849 15.5463C112.914 15.7986 114.163 17.0398 114.587 19.0719C114.647 19.3412 114.564 19.3846 114.321 19.3753Z" fill="currentColor"/>
</svg>
