<svg width="750" height="345" viewBox="0 0 750 345" fill="none" xmlns="http://www.w3.org/2000/svg">
<rect width="750" height="345" rx="10" fill="white"/>
<path d="M23.112 308.06H24.554L27.9 315.97L31.26 308.06H32.674L28.446 318H27.354L23.112 308.06ZM36.0004 318.14C35.5058 318.14 35.0484 318.047 34.6284 317.86C34.2178 317.664 33.8584 317.403 33.5504 317.076C33.2424 316.74 32.9998 316.353 32.8224 315.914C32.6544 315.475 32.5704 315.004 32.5704 314.5C32.5704 313.996 32.6544 313.525 32.8224 313.086C32.9998 312.647 33.2424 312.265 33.5504 311.938C33.8584 311.602 34.2178 311.341 34.6284 311.154C35.0484 310.958 35.5058 310.86 36.0004 310.86C36.5324 310.86 37.0178 310.981 37.4564 311.224C37.8951 311.457 38.2311 311.742 38.4644 312.078V311H39.6684V318H38.4644V316.922C38.2311 317.258 37.8951 317.547 37.4564 317.79C37.0178 318.023 36.5324 318.14 36.0004 318.14ZM36.1824 317.034C36.5371 317.034 36.8591 316.969 37.1484 316.838C37.4378 316.707 37.6851 316.53 37.8904 316.306C38.1051 316.073 38.2684 315.802 38.3804 315.494C38.5018 315.186 38.5624 314.855 38.5624 314.5C38.5624 314.145 38.5018 313.814 38.3804 313.506C38.2684 313.198 38.1051 312.932 37.8904 312.708C37.6851 312.475 37.4378 312.293 37.1484 312.162C36.8591 312.031 36.5371 311.966 36.1824 311.966C35.8278 311.966 35.5011 312.031 35.2024 312.162C34.9131 312.293 34.6611 312.475 34.4464 312.708C34.2411 312.932 34.0778 313.198 33.9564 313.506C33.8444 313.814 33.7884 314.145 33.7884 314.5C33.7884 314.855 33.8444 315.186 33.9564 315.494C34.0778 315.802 34.2411 316.073 34.4464 316.306C34.6611 316.53 34.9131 316.707 35.2024 316.838C35.5011 316.969 35.8278 317.034 36.1824 317.034ZM41.9348 307.5H43.1388V318H41.9348V307.5ZM47.8991 318.14C47.5164 318.14 47.1664 318.075 46.8491 317.944C46.5318 317.804 46.2611 317.613 46.0371 317.37C45.8131 317.127 45.6358 316.833 45.5051 316.488C45.3838 316.133 45.3231 315.737 45.3231 315.298V311H46.5271V315.116C46.5271 315.704 46.6671 316.171 46.9471 316.516C47.2364 316.861 47.6238 317.034 48.1091 317.034C48.3798 317.034 48.6318 316.978 48.8651 316.866C49.1078 316.745 49.3131 316.577 49.4811 316.362C49.6584 316.138 49.7984 315.867 49.9011 315.55C50.0038 315.233 50.0551 314.873 50.0551 314.472V311H51.2591V318H50.0551V316.922C49.8218 317.333 49.5138 317.641 49.1311 317.846C48.7578 318.042 48.3471 318.14 47.8991 318.14ZM56.5105 318.14C55.9972 318.14 55.5259 318.051 55.0965 317.874C54.6672 317.687 54.2939 317.431 53.9765 317.104C53.6685 316.777 53.4259 316.395 53.2485 315.956C53.0712 315.508 52.9825 315.023 52.9825 314.5C52.9825 313.987 53.0619 313.511 53.2205 313.072C53.3885 312.624 53.6265 312.237 53.9345 311.91C54.2425 311.583 54.6159 311.327 55.0545 311.14C55.4932 310.953 55.9879 310.86 56.5385 310.86C57.0892 310.86 57.5792 310.967 58.0085 311.182C58.4472 311.387 58.8112 311.672 59.1005 312.036C59.3992 312.391 59.6139 312.811 59.7445 313.296C59.8845 313.772 59.9359 314.281 59.8985 314.822H54.2005C54.2099 315.139 54.2752 315.433 54.3965 315.704C54.5272 315.975 54.6952 316.213 54.9005 316.418C55.1059 316.614 55.3485 316.768 55.6285 316.88C55.9085 316.992 56.2072 317.048 56.5245 317.048C56.9632 317.048 57.3552 316.959 57.7005 316.782C58.0552 316.595 58.3399 316.292 58.5545 315.872H59.7865C59.7025 316.18 59.5672 316.474 59.3805 316.754C59.1939 317.025 58.9605 317.263 58.6805 317.468C58.4099 317.673 58.0925 317.837 57.7285 317.958C57.3645 318.079 56.9585 318.14 56.5105 318.14ZM56.4965 311.924C56.2445 311.924 55.9972 311.961 55.7545 312.036C55.5119 312.111 55.2879 312.227 55.0825 312.386C54.8865 312.545 54.7139 312.745 54.5645 312.988C54.4152 313.231 54.3125 313.525 54.2565 313.87H58.6245C58.5125 313.217 58.2605 312.731 57.8685 312.414C57.4765 312.087 57.0192 311.924 56.4965 311.924Z" fill="#10BBD5"/>
<path d="M63.6485 311H64.9925L67.3865 316.306L69.7805 311H71.1245L67.8905 318H66.8825L63.6485 311ZM74.513 318.14C74.1397 318.14 73.785 318.093 73.449 318C73.113 317.907 72.819 317.771 72.567 317.594C72.315 317.407 72.1097 317.179 71.951 316.908C71.7923 316.637 71.699 316.325 71.671 315.97H72.903C72.9403 316.185 73.0103 316.367 73.113 316.516C73.225 316.656 73.3557 316.773 73.505 316.866C73.6543 316.959 73.813 317.025 73.981 317.062C74.1583 317.099 74.3403 317.118 74.527 317.118C74.9097 317.118 75.227 317.043 75.479 316.894C75.7403 316.735 75.871 316.502 75.871 316.194C75.871 315.914 75.7823 315.685 75.605 315.508C75.4277 315.331 75.129 315.186 74.709 315.074L73.701 314.808C73.0943 314.649 72.6417 314.393 72.343 314.038C72.0443 313.683 71.895 313.254 71.895 312.75C71.895 312.461 71.9557 312.199 72.077 311.966C72.1983 311.733 72.3663 311.537 72.581 311.378C72.7957 311.21 73.0477 311.084 73.337 311C73.6357 310.907 73.9623 310.86 74.317 310.86C74.6903 310.86 75.0263 310.911 75.325 311.014C75.6237 311.117 75.8803 311.261 76.095 311.448C76.319 311.625 76.4963 311.835 76.627 312.078C76.7577 312.321 76.837 312.582 76.865 312.862H75.661C75.5677 312.554 75.3997 312.311 75.157 312.134C74.9237 311.957 74.6437 311.868 74.317 311.868C73.981 311.868 73.6963 311.947 73.463 312.106C73.2297 312.255 73.113 312.465 73.113 312.736C73.113 312.997 73.197 313.207 73.365 313.366C73.533 313.515 73.8037 313.641 74.177 313.744L75.297 314.038C75.885 314.187 76.3283 314.439 76.627 314.794C76.935 315.139 77.089 315.578 77.089 316.11C77.089 316.455 77.0237 316.759 76.893 317.02C76.7623 317.272 76.5803 317.482 76.347 317.65C76.1137 317.818 75.8383 317.939 75.521 318.014C75.213 318.098 74.877 318.14 74.513 318.14ZM82.3531 308.06H83.6551V312.302H89.1011V308.06H90.4031V318H89.1011V313.52H83.6551V318H82.3531V308.06ZM97.4828 316.936C98.0242 316.936 98.5282 316.838 98.9948 316.642C99.4708 316.437 99.8768 316.157 100.213 315.802C100.558 315.447 100.829 315.037 101.025 314.57C101.221 314.094 101.319 313.581 101.319 313.03C101.319 312.489 101.221 311.98 101.025 311.504C100.829 311.028 100.558 310.613 100.213 310.258C99.8768 309.903 99.4708 309.628 98.9948 309.432C98.5282 309.227 98.0242 309.124 97.4828 309.124C96.9415 309.124 96.4375 309.227 95.9708 309.432C95.5042 309.628 95.0982 309.903 94.7528 310.258C94.4168 310.613 94.1508 311.028 93.9548 311.504C93.7588 311.98 93.6608 312.489 93.6608 313.03C93.6608 313.581 93.7588 314.094 93.9548 314.57C94.1508 315.037 94.4168 315.447 94.7528 315.802C95.0982 316.157 95.5042 316.437 95.9708 316.642C96.4375 316.838 96.9415 316.936 97.4828 316.936ZM97.4828 318.168C96.7642 318.168 96.0922 318.037 95.4668 317.776C94.8508 317.505 94.3095 317.141 93.8428 316.684C93.3762 316.217 93.0075 315.671 92.7368 315.046C92.4755 314.421 92.3448 313.749 92.3448 313.03C92.3448 312.311 92.4755 311.639 92.7368 311.014C93.0075 310.389 93.3762 309.847 93.8428 309.39C94.3095 308.923 94.8508 308.559 95.4668 308.298C96.0922 308.027 96.7642 307.892 97.4828 307.892C98.2015 307.892 98.8735 308.027 99.4988 308.298C100.124 308.559 100.666 308.923 101.123 309.39C101.59 309.847 101.954 310.389 102.215 311.014C102.486 311.639 102.621 312.311 102.621 313.03C102.621 313.749 102.486 314.421 102.215 315.046C101.954 315.671 101.59 316.217 101.123 316.684C100.666 317.141 100.124 317.505 99.4988 317.776C98.8735 318.037 98.2015 318.168 97.4828 318.168ZM104.584 308.06H107.44C108.205 308.06 108.91 308.186 109.554 308.438C110.198 308.69 110.753 309.04 111.22 309.488C111.696 309.927 112.064 310.449 112.326 311.056C112.596 311.663 112.732 312.321 112.732 313.03C112.732 313.739 112.596 314.397 112.326 315.004C112.064 315.611 111.696 316.138 111.22 316.586C110.753 317.025 110.198 317.37 109.554 317.622C108.91 317.874 108.205 318 107.44 318H104.584V308.06ZM107.44 316.782C108.037 316.782 108.578 316.689 109.064 316.502C109.558 316.315 109.978 316.054 110.324 315.718C110.669 315.382 110.935 314.985 111.122 314.528C111.318 314.071 111.416 313.571 111.416 313.03C111.416 312.489 111.318 311.989 111.122 311.532C110.935 311.075 110.669 310.678 110.324 310.342C109.978 310.006 109.558 309.745 109.064 309.558C108.578 309.371 108.037 309.278 107.44 309.278H105.886V316.782H107.44ZM114.673 308.06H115.975V316.768H120.777V318H114.673V308.06Z" fill="#18181A" fill-opacity="0.5"/>
<path d="M30.11 74.24C29.33 74.16 28.59 73.97 27.89 73.67C27.21 73.37 26.61 72.96 26.09 72.44C25.57 71.92 25.15 71.29 24.83 70.55C24.53 69.81 24.37 68.96 24.35 68H26.93C27.07 69.12 27.42 69.98 27.98 70.58C28.54 71.18 29.25 71.56 30.11 71.72V64.25L29.09 63.86C27.49 63.22 26.32 62.4 25.58 61.4C24.84 60.38 24.47 59.18 24.47 57.8C24.47 56.98 24.61 56.25 24.89 55.61C25.19 54.95 25.59 54.39 26.09 53.93C26.61 53.47 27.21 53.11 27.89 52.85C28.59 52.59 29.33 52.43 30.11 52.37V50.06H31.73V52.43C32.39 52.53 33.03 52.72 33.65 53C34.27 53.26 34.81 53.62 35.27 54.08C35.75 54.52 36.13 55.05 36.41 55.67C36.71 56.29 36.86 56.99 36.86 57.77H34.28C34.16 57.03 33.88 56.42 33.44 55.94C33 55.44 32.43 55.11 31.73 54.95V61.97L32.48 62.27C34.06 62.91 35.26 63.73 36.08 64.73C36.92 65.71 37.34 66.97 37.34 68.51C37.34 69.43 37.19 70.24 36.89 70.94C36.61 71.62 36.22 72.2 35.72 72.68C35.22 73.16 34.63 73.53 33.95 73.79C33.27 74.05 32.53 74.21 31.73 74.27V76.64H30.11V74.24ZM34.76 68.69C34.76 67.73 34.5 66.97 33.98 66.41C33.46 65.83 32.71 65.33 31.73 64.91V71.78C32.57 71.68 33.28 71.35 33.86 70.79C34.46 70.23 34.76 69.53 34.76 68.69ZM27.05 57.8C27.05 58.62 27.29 59.3 27.77 59.84C28.25 60.38 29.03 60.88 30.11 61.34V54.86C29.15 54.96 28.4 55.28 27.86 55.82C27.32 56.36 27.05 57.02 27.05 57.8ZM43.0238 55.25H38.9138L41.0138 52.7H45.6038V74H43.0238V55.25ZM57.7597 74.3C56.6597 74.3 55.6497 74.11 54.7297 73.73C53.8097 73.33 53.0097 72.78 52.3297 72.08C51.6697 71.38 51.1497 70.54 50.7697 69.56C50.4097 68.56 50.2297 67.47 50.2297 66.29V60.35C50.2297 59.17 50.4097 58.09 50.7697 57.11C51.1497 56.13 51.6697 55.29 52.3297 54.59C53.0097 53.87 53.8097 53.32 54.7297 52.94C55.6497 52.54 56.6597 52.34 57.7597 52.34C58.8597 52.34 59.8697 52.54 60.7897 52.94C61.7097 53.32 62.4997 53.87 63.1597 54.59C63.8397 55.29 64.3697 56.13 64.7497 57.11C65.1297 58.09 65.3197 59.17 65.3197 60.35V66.29C65.3197 67.47 65.1297 68.56 64.7497 69.56C64.3697 70.54 63.8397 71.38 63.1597 72.08C62.4997 72.78 61.7097 73.33 60.7897 73.73C59.8697 74.11 58.8597 74.3 57.7597 74.3ZM57.7597 71.78C59.2197 71.78 60.4097 71.3 61.3297 70.34C62.2697 69.38 62.7397 68.03 62.7397 66.29V60.35C62.7397 58.61 62.2697 57.26 61.3297 56.3C60.4097 55.34 59.2197 54.86 57.7597 54.86C57.0397 54.86 56.3697 54.99 55.7497 55.25C55.1497 55.49 54.6297 55.85 54.1897 56.33C53.7697 56.79 53.4297 57.36 53.1697 58.04C52.9297 58.72 52.8097 59.49 52.8097 60.35V66.29C52.8097 67.15 52.9297 67.92 53.1697 68.6C53.4297 69.28 53.7697 69.86 54.1897 70.34C54.6297 70.8 55.1497 71.16 55.7497 71.42C56.3697 71.66 57.0397 71.78 57.7597 71.78ZM76.4511 74.3C75.3511 74.3 74.3411 74.11 73.4211 73.73C72.5011 73.33 71.7011 72.78 71.0211 72.08C70.3611 71.38 69.8411 70.54 69.4611 69.56C69.1011 68.56 68.9211 67.47 68.9211 66.29V60.35C68.9211 59.17 69.1011 58.09 69.4611 57.11C69.8411 56.13 70.3611 55.29 71.0211 54.59C71.7011 53.87 72.5011 53.32 73.4211 52.94C74.3411 52.54 75.3511 52.34 76.4511 52.34C77.5511 52.34 78.5611 52.54 79.4811 52.94C80.4011 53.32 81.1911 53.87 81.8511 54.59C82.5311 55.29 83.0611 56.13 83.4411 57.11C83.8211 58.09 84.0111 59.17 84.0111 60.35V66.29C84.0111 67.47 83.8211 68.56 83.4411 69.56C83.0611 70.54 82.5311 71.38 81.8511 72.08C81.1911 72.78 80.4011 73.33 79.4811 73.73C78.5611 74.11 77.5511 74.3 76.4511 74.3ZM76.4511 71.78C77.9111 71.78 79.1011 71.3 80.0211 70.34C80.9611 69.38 81.4311 68.03 81.4311 66.29V60.35C81.4311 58.61 80.9611 57.26 80.0211 56.3C79.1011 55.34 77.9111 54.86 76.4511 54.86C75.7311 54.86 75.0611 54.99 74.4411 55.25C73.8411 55.49 73.3211 55.85 72.8811 56.33C72.4611 56.79 72.1211 57.36 71.8611 58.04C71.6211 58.72 71.5011 59.49 71.5011 60.35V66.29C71.5011 67.15 71.6211 67.92 71.8611 68.6C72.1211 69.28 72.4611 69.86 72.8811 70.34C73.3211 70.8 73.8411 71.16 74.4411 71.42C75.0611 71.66 75.7311 71.78 76.4511 71.78ZM87.8938 78.29H86.1838L88.1938 74C87.8338 73.82 87.5338 73.56 87.2938 73.22C87.0738 72.86 86.9638 72.45 86.9638 71.99C86.9638 71.39 87.1738 70.87 87.5938 70.43C88.0338 69.97 88.5638 69.74 89.1838 69.74C89.8038 69.74 90.3238 69.97 90.7438 70.43C91.1838 70.87 91.4038 71.39 91.4038 71.99C91.4038 72.25 91.3638 72.49 91.2838 72.71C91.2038 72.93 91.1038 73.14 90.9838 73.34L87.8938 78.29ZM101.881 74.3C100.781 74.3 99.7708 74.11 98.8508 73.73C97.9308 73.33 97.1308 72.78 96.4508 72.08C95.7908 71.38 95.2708 70.54 94.8908 69.56C94.5308 68.56 94.3508 67.47 94.3508 66.29V60.35C94.3508 59.17 94.5308 58.09 94.8908 57.11C95.2708 56.13 95.7908 55.29 96.4508 54.59C97.1308 53.87 97.9308 53.32 98.8508 52.94C99.7708 52.54 100.781 52.34 101.881 52.34C102.981 52.34 103.991 52.54 104.911 52.94C105.831 53.32 106.621 53.87 107.281 54.59C107.961 55.29 108.491 56.13 108.871 57.11C109.251 58.09 109.441 59.17 109.441 60.35V66.29C109.441 67.47 109.251 68.56 108.871 69.56C108.491 70.54 107.961 71.38 107.281 72.08C106.621 72.78 105.831 73.33 104.911 73.73C103.991 74.11 102.981 74.3 101.881 74.3ZM101.881 71.78C103.341 71.78 104.531 71.3 105.451 70.34C106.391 69.38 106.861 68.03 106.861 66.29V60.35C106.861 58.61 106.391 57.26 105.451 56.3C104.531 55.34 103.341 54.86 101.881 54.86C101.161 54.86 100.491 54.99 99.8708 55.25C99.2708 55.49 98.7508 55.85 98.3108 56.33C97.8908 56.79 97.5508 57.36 97.2908 58.04C97.0508 58.72 96.9308 59.49 96.9308 60.35V66.29C96.9308 67.15 97.0508 67.92 97.2908 68.6C97.5508 69.28 97.8908 69.86 98.3108 70.34C98.7508 70.8 99.2708 71.16 99.8708 71.42C100.491 71.66 101.161 71.78 101.881 71.78ZM120.572 74.3C119.472 74.3 118.462 74.11 117.542 73.73C116.622 73.33 115.822 72.78 115.142 72.08C114.482 71.38 113.962 70.54 113.582 69.56C113.222 68.56 113.042 67.47 113.042 66.29V60.35C113.042 59.17 113.222 58.09 113.582 57.11C113.962 56.13 114.482 55.29 115.142 54.59C115.822 53.87 116.622 53.32 117.542 52.94C118.462 52.54 119.472 52.34 120.572 52.34C121.672 52.34 122.682 52.54 123.602 52.94C124.522 53.32 125.312 53.87 125.972 54.59C126.652 55.29 127.182 56.13 127.562 57.11C127.942 58.09 128.132 59.17 128.132 60.35V66.29C128.132 67.47 127.942 68.56 127.562 69.56C127.182 70.54 126.652 71.38 125.972 72.08C125.312 72.78 124.522 73.33 123.602 73.73C122.682 74.11 121.672 74.3 120.572 74.3ZM120.572 71.78C122.032 71.78 123.222 71.3 124.142 70.34C125.082 69.38 125.552 68.03 125.552 66.29V60.35C125.552 58.61 125.082 57.26 124.142 56.3C123.222 55.34 122.032 54.86 120.572 54.86C119.852 54.86 119.182 54.99 118.562 55.25C117.962 55.49 117.442 55.85 117.002 56.33C116.582 56.79 116.242 57.36 115.982 58.04C115.742 58.72 115.622 59.49 115.622 60.35V66.29C115.622 67.15 115.742 67.92 115.982 68.6C116.242 69.28 116.582 69.86 117.002 70.34C117.442 70.8 117.962 71.16 118.562 71.42C119.182 71.66 119.852 71.78 120.572 71.78ZM139.264 74.3C138.164 74.3 137.154 74.11 136.234 73.73C135.314 73.33 134.514 72.78 133.834 72.08C133.174 71.38 132.654 70.54 132.274 69.56C131.914 68.56 131.734 67.47 131.734 66.29V60.35C131.734 59.17 131.914 58.09 132.274 57.11C132.654 56.13 133.174 55.29 133.834 54.59C134.514 53.87 135.314 53.32 136.234 52.94C137.154 52.54 138.164 52.34 139.264 52.34C140.364 52.34 141.374 52.54 142.294 52.94C143.214 53.32 144.004 53.87 144.664 54.59C145.344 55.29 145.874 56.13 146.254 57.11C146.634 58.09 146.824 59.17 146.824 60.35V66.29C146.824 67.47 146.634 68.56 146.254 69.56C145.874 70.54 145.344 71.38 144.664 72.08C144.004 72.78 143.214 73.33 142.294 73.73C141.374 74.11 140.364 74.3 139.264 74.3ZM139.264 71.78C140.724 71.78 141.914 71.3 142.834 70.34C143.774 69.38 144.244 68.03 144.244 66.29V60.35C144.244 58.61 143.774 57.26 142.834 56.3C141.914 55.34 140.724 54.86 139.264 54.86C138.544 54.86 137.874 54.99 137.254 55.25C136.654 55.49 136.134 55.85 135.694 56.33C135.274 56.79 134.934 57.36 134.674 58.04C134.434 58.72 134.314 59.49 134.314 60.35V66.29C134.314 67.15 134.434 67.92 134.674 68.6C134.934 69.28 135.274 69.86 135.694 70.34C136.134 70.8 136.654 71.16 137.254 71.42C137.874 71.66 138.544 71.78 139.264 71.78Z" fill="#18181A"/>
<path d="M30.77 33.224C30.77 33.672 30.686 34.0873 30.518 34.47C30.3593 34.8527 30.1307 35.1887 29.832 35.478C29.5427 35.758 29.1833 35.9773 28.754 36.136C28.334 36.2947 27.8673 36.374 27.354 36.374H25.618V40H24.316V30.06H27.354C27.8673 30.06 28.334 30.144 28.754 30.312C29.1833 30.4707 29.5427 30.69 29.832 30.97C30.1307 31.25 30.3593 31.586 30.518 31.978C30.686 32.3607 30.77 32.776 30.77 33.224ZM29.482 33.224C29.482 32.944 29.4353 32.6873 29.342 32.454C29.2487 32.2207 29.1087 32.0153 28.922 31.838C28.7447 31.6607 28.5253 31.5253 28.264 31.432C28.0027 31.3293 27.6993 31.278 27.354 31.278H25.618V35.17H27.354C27.6993 35.17 28.0027 35.1233 28.264 35.03C28.5253 34.9273 28.7447 34.7873 28.922 34.61C29.1087 34.4327 29.2487 34.2273 29.342 33.994C29.4353 33.7607 29.482 33.504 29.482 33.224ZM35.2264 40.14C34.6944 40.14 34.2044 40.0467 33.7564 39.86C33.3084 39.664 32.921 39.4027 32.5944 39.076C32.2677 38.7493 32.011 38.3667 31.8244 37.928C31.647 37.48 31.5584 37.004 31.5584 36.5C31.5584 35.996 31.647 35.5247 31.8244 35.086C32.011 34.638 32.2677 34.2507 32.5944 33.924C32.921 33.5973 33.3084 33.3407 33.7564 33.154C34.2044 32.958 34.6944 32.86 35.2264 32.86C35.749 32.86 36.2344 32.958 36.6824 33.154C37.1304 33.3407 37.5177 33.5973 37.8444 33.924C38.171 34.2507 38.423 34.638 38.6004 35.086C38.787 35.5247 38.8804 35.996 38.8804 36.5C38.8804 37.004 38.787 37.48 38.6004 37.928C38.423 38.3667 38.171 38.7493 37.8444 39.076C37.5177 39.4027 37.1304 39.664 36.6824 39.86C36.2344 40.0467 35.749 40.14 35.2264 40.14ZM35.2264 39.02C35.5904 39.02 35.9217 38.9547 36.2204 38.824C36.519 38.6933 36.771 38.516 36.9764 38.292C37.191 38.0587 37.3544 37.7927 37.4664 37.494C37.5877 37.186 37.6484 36.8547 37.6484 36.5C37.6484 36.1547 37.5877 35.828 37.4664 35.52C37.3544 35.212 37.191 34.946 36.9764 34.722C36.771 34.4887 36.519 34.3067 36.2204 34.176C35.9217 34.0453 35.5904 33.98 35.2264 33.98C34.8624 33.98 34.531 34.0453 34.2324 34.176C33.9337 34.3067 33.677 34.4887 33.4624 34.722C33.2477 34.946 33.0797 35.212 32.9584 35.52C32.8464 35.828 32.7904 36.1547 32.7904 36.5C32.7904 36.8547 32.8464 37.186 32.9584 37.494C33.0797 37.7927 33.2477 38.0587 33.4624 38.292C33.677 38.516 33.9337 38.6933 34.2324 38.824C34.531 38.9547 34.8624 39.02 35.2264 39.02ZM40.6086 33H41.8126V34.358C41.8779 34.134 41.9806 33.9333 42.1206 33.756C42.2606 33.5787 42.4193 33.4293 42.5966 33.308C42.7739 33.1867 42.9606 33.0933 43.1566 33.028C43.3619 32.9627 43.5673 32.93 43.7726 32.93C43.9593 32.93 44.1413 32.9487 44.3186 32.986V34.232C44.2066 34.1853 44.0993 34.1573 43.9966 34.148C43.8939 34.1293 43.7819 34.12 43.6606 34.12C43.4366 34.12 43.2126 34.1713 42.9886 34.274C42.7739 34.3673 42.5779 34.512 42.4006 34.708C42.2326 34.904 42.0926 35.156 41.9806 35.464C41.8686 35.7627 41.8126 36.1173 41.8126 36.528V40H40.6086V33ZM48.4516 40.07C48.1436 40.07 47.8589 40.028 47.5976 39.944C47.3362 39.8507 47.1076 39.72 46.9116 39.552C46.7249 39.3747 46.5756 39.1507 46.4636 38.88C46.3609 38.6093 46.3096 38.292 46.3096 37.928V34.106H44.8256V33H46.3096V31.054H47.5136V33H49.5296V34.106H47.5136V37.774C47.5136 38.222 47.6116 38.5347 47.8076 38.712C48.0036 38.88 48.2929 38.964 48.6756 38.964C48.8249 38.964 48.9742 38.9547 49.1236 38.936C49.2822 38.908 49.4176 38.8707 49.5296 38.824V39.902C49.3802 39.9487 49.2169 39.986 49.0396 40.014C48.8622 40.0513 48.6662 40.07 48.4516 40.07ZM51.6556 34.106H50.1716V33H51.6556V31.586C51.6556 31.222 51.7069 30.9047 51.8096 30.634C51.9216 30.3633 52.0709 30.1393 52.2576 29.962C52.4536 29.7753 52.6823 29.64 52.9436 29.556C53.2049 29.4627 53.4896 29.416 53.7976 29.416C54.0123 29.416 54.2083 29.4347 54.3856 29.472C54.5629 29.5 54.7309 29.542 54.8896 29.598V30.662C54.7776 30.6153 54.6376 30.5827 54.4696 30.564C54.3109 30.536 54.1616 30.522 54.0216 30.522C53.6296 30.522 53.3356 30.6107 53.1396 30.788C52.9529 30.956 52.8596 31.264 52.8596 31.712V33H54.8896V34.106H52.8596V40H51.6556V34.106ZM59.1385 40.14C58.6065 40.14 58.1165 40.0467 57.6685 39.86C57.2205 39.664 56.8332 39.4027 56.5065 39.076C56.1798 38.7493 55.9232 38.3667 55.7365 37.928C55.5592 37.48 55.4705 37.004 55.4705 36.5C55.4705 35.996 55.5592 35.5247 55.7365 35.086C55.9232 34.638 56.1798 34.2507 56.5065 33.924C56.8332 33.5973 57.2205 33.3407 57.6685 33.154C58.1165 32.958 58.6065 32.86 59.1385 32.86C59.6612 32.86 60.1465 32.958 60.5945 33.154C61.0425 33.3407 61.4298 33.5973 61.7565 33.924C62.0832 34.2507 62.3352 34.638 62.5125 35.086C62.6992 35.5247 62.7925 35.996 62.7925 36.5C62.7925 37.004 62.6992 37.48 62.5125 37.928C62.3352 38.3667 62.0832 38.7493 61.7565 39.076C61.4298 39.4027 61.0425 39.664 60.5945 39.86C60.1465 40.0467 59.6612 40.14 59.1385 40.14ZM59.1385 39.02C59.5025 39.02 59.8338 38.9547 60.1325 38.824C60.4312 38.6933 60.6832 38.516 60.8885 38.292C61.1032 38.0587 61.2665 37.7927 61.3785 37.494C61.4998 37.186 61.5605 36.8547 61.5605 36.5C61.5605 36.1547 61.4998 35.828 61.3785 35.52C61.2665 35.212 61.1032 34.946 60.8885 34.722C60.6832 34.4887 60.4312 34.3067 60.1325 34.176C59.8338 34.0453 59.5025 33.98 59.1385 33.98C58.7745 33.98 58.4432 34.0453 58.1445 34.176C57.8458 34.3067 57.5892 34.4887 57.3745 34.722C57.1598 34.946 56.9918 35.212 56.8705 35.52C56.7585 35.828 56.7025 36.1547 56.7025 36.5C56.7025 36.8547 56.7585 37.186 56.8705 37.494C56.9918 37.7927 57.1598 38.0587 57.3745 38.292C57.5892 38.516 57.8458 38.6933 58.1445 38.824C58.4432 38.9547 58.7745 39.02 59.1385 39.02ZM64.5207 29.5H65.7247V40H64.5207V29.5ZM68.623 31.124C68.3804 31.124 68.175 31.0447 68.007 30.886C67.839 30.718 67.755 30.5127 67.755 30.27C67.755 30.0367 67.839 29.836 68.007 29.668C68.175 29.5 68.3804 29.416 68.623 29.416C68.8657 29.416 69.0664 29.5 69.225 29.668C69.3837 29.836 69.463 30.0367 69.463 30.27C69.463 30.5127 69.3837 30.718 69.225 30.886C69.0664 31.0447 68.8657 31.124 68.623 31.124ZM68.007 33H69.211V40H68.007V33ZM74.6014 40.14C74.0694 40.14 73.5794 40.0467 73.1314 39.86C72.6834 39.664 72.296 39.4027 71.9694 39.076C71.6427 38.7493 71.386 38.3667 71.1994 37.928C71.022 37.48 70.9334 37.004 70.9334 36.5C70.9334 35.996 71.022 35.5247 71.1994 35.086C71.386 34.638 71.6427 34.2507 71.9694 33.924C72.296 33.5973 72.6834 33.3407 73.1314 33.154C73.5794 32.958 74.0694 32.86 74.6014 32.86C75.124 32.86 75.6094 32.958 76.0574 33.154C76.5054 33.3407 76.8927 33.5973 77.2194 33.924C77.546 34.2507 77.798 34.638 77.9754 35.086C78.162 35.5247 78.2554 35.996 78.2554 36.5C78.2554 37.004 78.162 37.48 77.9754 37.928C77.798 38.3667 77.546 38.7493 77.2194 39.076C76.8927 39.4027 76.5054 39.664 76.0574 39.86C75.6094 40.0467 75.124 40.14 74.6014 40.14ZM74.6014 39.02C74.9654 39.02 75.2967 38.9547 75.5954 38.824C75.894 38.6933 76.146 38.516 76.3514 38.292C76.566 38.0587 76.7294 37.7927 76.8414 37.494C76.9627 37.186 77.0234 36.8547 77.0234 36.5C77.0234 36.1547 76.9627 35.828 76.8414 35.52C76.7294 35.212 76.566 34.946 76.3514 34.722C76.146 34.4887 75.894 34.3067 75.5954 34.176C75.2967 34.0453 74.9654 33.98 74.6014 33.98C74.2374 33.98 73.906 34.0453 73.6074 34.176C73.3087 34.3067 73.052 34.4887 72.8374 34.722C72.6227 34.946 72.4547 35.212 72.3334 35.52C72.2214 35.828 72.1654 36.1547 72.1654 36.5C72.1654 36.8547 72.2214 37.186 72.3334 37.494C72.4547 37.7927 72.6227 38.0587 72.8374 38.292C73.052 38.516 73.3087 38.6933 73.6074 38.824C73.906 38.9547 74.2374 39.02 74.6014 39.02ZM83.3606 40V29.5H84.5646V34.078C84.8072 33.658 85.1246 33.35 85.5166 33.154C85.9086 32.958 86.3332 32.86 86.7906 32.86C87.1826 32.86 87.5419 32.9253 87.8686 33.056C88.1952 33.1867 88.4706 33.378 88.6946 33.63C88.9279 33.8727 89.1099 34.1713 89.2406 34.526C89.3712 34.8713 89.4366 35.2587 89.4366 35.688V40H88.2466V35.87C88.2466 35.282 88.0926 34.82 87.7846 34.484C87.4859 34.1387 87.0892 33.966 86.5946 33.966C86.3146 33.966 86.0486 34.022 85.7966 34.134C85.5539 34.246 85.3392 34.414 85.1526 34.638C84.9752 34.8527 84.8306 35.1187 84.7186 35.436C84.6159 35.7533 84.5646 36.1173 84.5646 36.528V40H83.3606ZM94.7127 40.14C94.1807 40.14 93.6907 40.0467 93.2427 39.86C92.7947 39.664 92.4074 39.4027 92.0807 39.076C91.754 38.7493 91.4974 38.3667 91.3107 37.928C91.1334 37.48 91.0447 37.004 91.0447 36.5C91.0447 35.996 91.1334 35.5247 91.3107 35.086C91.4974 34.638 91.754 34.2507 92.0807 33.924C92.4074 33.5973 92.7947 33.3407 93.2427 33.154C93.6907 32.958 94.1807 32.86 94.7127 32.86C95.2354 32.86 95.7207 32.958 96.1687 33.154C96.6167 33.3407 97.004 33.5973 97.3307 33.924C97.6574 34.2507 97.9094 34.638 98.0867 35.086C98.2734 35.5247 98.3667 35.996 98.3667 36.5C98.3667 37.004 98.2734 37.48 98.0867 37.928C97.9094 38.3667 97.6574 38.7493 97.3307 39.076C97.004 39.4027 96.6167 39.664 96.1687 39.86C95.7207 40.0467 95.2354 40.14 94.7127 40.14ZM94.7127 39.02C95.0767 39.02 95.408 38.9547 95.7067 38.824C96.0054 38.6933 96.2574 38.516 96.4627 38.292C96.6774 38.0587 96.8407 37.7927 96.9527 37.494C97.074 37.186 97.1347 36.8547 97.1347 36.5C97.1347 36.1547 97.074 35.828 96.9527 35.52C96.8407 35.212 96.6774 34.946 96.4627 34.722C96.2574 34.4887 96.0054 34.3067 95.7067 34.176C95.408 34.0453 95.0767 33.98 94.7127 33.98C94.3487 33.98 94.0174 34.0453 93.7187 34.176C93.42 34.3067 93.1634 34.4887 92.9487 34.722C92.734 34.946 92.566 35.212 92.4447 35.52C92.3327 35.828 92.2767 36.1547 92.2767 36.5C92.2767 36.8547 92.3327 37.186 92.4447 37.494C92.566 37.7927 92.734 38.0587 92.9487 38.292C93.1634 38.516 93.42 38.6933 93.7187 38.824C94.0174 38.9547 94.3487 39.02 94.7127 39.02ZM100.095 29.5H101.299V40H100.095V29.5ZM106.465 40.14C105.971 40.14 105.513 40.0467 105.093 39.86C104.683 39.664 104.323 39.4027 104.015 39.076C103.707 38.74 103.465 38.3527 103.287 37.914C103.119 37.4753 103.035 37.004 103.035 36.5C103.035 35.996 103.119 35.5247 103.287 35.086C103.465 34.6473 103.707 34.2647 104.015 33.938C104.323 33.602 104.683 33.3407 105.093 33.154C105.513 32.958 105.971 32.86 106.465 32.86C106.997 32.86 107.483 32.9813 107.921 33.224C108.36 33.4573 108.696 33.742 108.929 34.078V29.5H110.133V40H108.929V38.922C108.696 39.258 108.36 39.5473 107.921 39.79C107.483 40.0233 106.997 40.14 106.465 40.14ZM106.647 39.034C107.002 39.034 107.324 38.9687 107.613 38.838C107.903 38.7073 108.15 38.53 108.355 38.306C108.57 38.0727 108.733 37.802 108.845 37.494C108.967 37.186 109.027 36.8547 109.027 36.5C109.027 36.1453 108.967 35.814 108.845 35.506C108.733 35.198 108.57 34.932 108.355 34.708C108.15 34.4747 107.903 34.2927 107.613 34.162C107.324 34.0313 107.002 33.966 106.647 33.966C106.293 33.966 105.966 34.0313 105.667 34.162C105.378 34.2927 105.126 34.4747 104.911 34.708C104.706 34.932 104.543 35.198 104.421 35.506C104.309 35.814 104.253 36.1453 104.253 36.5C104.253 36.8547 104.309 37.186 104.421 37.494C104.543 37.802 104.706 38.0727 104.911 38.306C105.126 38.53 105.378 38.7073 105.667 38.838C105.966 38.9687 106.293 39.034 106.647 39.034ZM113.016 31.124C112.773 31.124 112.568 31.0447 112.4 30.886C112.232 30.718 112.148 30.5127 112.148 30.27C112.148 30.0367 112.232 29.836 112.4 29.668C112.568 29.5 112.773 29.416 113.016 29.416C113.258 29.416 113.459 29.5 113.618 29.668C113.776 29.836 113.856 30.0367 113.856 30.27C113.856 30.5127 113.776 30.718 113.618 30.886C113.459 31.0447 113.258 31.124 113.016 31.124ZM112.4 33H113.604V40H112.4V33ZM115.886 33H117.09V34.078C117.333 33.658 117.65 33.35 118.042 33.154C118.434 32.958 118.859 32.86 119.316 32.86C119.708 32.86 120.067 32.9253 120.394 33.056C120.721 33.1867 120.996 33.378 121.22 33.63C121.453 33.8727 121.635 34.1713 121.766 34.526C121.897 34.8713 121.962 35.2587 121.962 35.688V40H120.772V35.87C120.772 35.282 120.618 34.82 120.31 34.484C120.011 34.1387 119.615 33.966 119.12 33.966C118.84 33.966 118.574 34.022 118.322 34.134C118.079 34.246 117.865 34.414 117.678 34.638C117.501 34.8527 117.356 35.1187 117.244 35.436C117.141 35.7533 117.09 36.1173 117.09 36.528V40H115.886V33ZM127.21 43.066C126.743 43.066 126.314 43.0053 125.922 42.884C125.53 42.7627 125.185 42.5947 124.886 42.38C124.597 42.1653 124.359 41.9087 124.172 41.61C123.995 41.3207 123.878 40.9987 123.822 40.644H124.998C125.157 41.1107 125.427 41.4513 125.81 41.666C126.193 41.89 126.669 42.002 127.238 42.002C127.555 42.002 127.849 41.9507 128.12 41.848C128.391 41.7453 128.624 41.5913 128.82 41.386C129.016 41.1807 129.17 40.924 129.282 40.616C129.394 40.3173 129.45 39.972 129.45 39.58V38.754C129.207 39.1087 128.871 39.4027 128.442 39.636C128.013 39.8693 127.537 39.986 127.014 39.986C126.529 39.986 126.076 39.8973 125.656 39.72C125.236 39.5333 124.872 39.2813 124.564 38.964C124.256 38.6373 124.013 38.2593 123.836 37.83C123.668 37.3913 123.584 36.92 123.584 36.416C123.584 35.9213 123.668 35.4593 123.836 35.03C124.013 34.5913 124.256 34.2133 124.564 33.896C124.872 33.5693 125.236 33.3173 125.656 33.14C126.076 32.9533 126.529 32.86 127.014 32.86C127.537 32.86 128.013 32.9767 128.442 33.21C128.871 33.434 129.207 33.7233 129.45 34.078V33H130.654V39.566C130.654 40.154 130.561 40.6627 130.374 41.092C130.197 41.5307 129.954 41.8947 129.646 42.184C129.338 42.4827 128.974 42.702 128.554 42.842C128.134 42.9913 127.686 43.066 127.21 43.066ZM127.182 38.866C127.527 38.866 127.845 38.8053 128.134 38.684C128.433 38.5627 128.685 38.3947 128.89 38.18C129.095 37.956 129.254 37.6947 129.366 37.396C129.487 37.0973 129.548 36.7707 129.548 36.416C129.548 36.0707 129.487 35.7487 129.366 35.45C129.254 35.142 129.095 34.8807 128.89 34.666C128.685 34.4513 128.433 34.2833 128.134 34.162C127.845 34.0313 127.527 33.966 127.182 33.966C126.827 33.966 126.505 34.0313 126.216 34.162C125.927 34.2833 125.679 34.4513 125.474 34.666C125.269 34.8807 125.105 35.142 124.984 35.45C124.872 35.7487 124.816 36.0707 124.816 36.416C124.816 36.7707 124.872 37.0973 124.984 37.396C125.105 37.6947 125.269 37.956 125.474 38.18C125.679 38.3947 125.927 38.5627 126.216 38.684C126.505 38.8053 126.827 38.866 127.182 38.866ZM135.175 40.14C134.802 40.14 134.447 40.0933 134.111 40C133.775 39.9067 133.481 39.7713 133.229 39.594C132.977 39.4073 132.772 39.1787 132.613 38.908C132.454 38.6373 132.361 38.3247 132.333 37.97H133.565C133.602 38.1847 133.672 38.3667 133.775 38.516C133.887 38.656 134.018 38.7727 134.167 38.866C134.316 38.9593 134.475 39.0247 134.643 39.062C134.82 39.0993 135.002 39.118 135.189 39.118C135.572 39.118 135.889 39.0433 136.141 38.894C136.402 38.7353 136.533 38.502 136.533 38.194C136.533 37.914 136.444 37.6853 136.267 37.508C136.09 37.3307 135.791 37.186 135.371 37.074L134.363 36.808C133.756 36.6493 133.304 36.3927 133.005 36.038C132.706 35.6833 132.557 35.254 132.557 34.75C132.557 34.4607 132.618 34.1993 132.739 33.966C132.86 33.7327 133.028 33.5367 133.243 33.378C133.458 33.21 133.71 33.084 133.999 33C134.298 32.9067 134.624 32.86 134.979 32.86C135.352 32.86 135.688 32.9113 135.987 33.014C136.286 33.1167 136.542 33.2613 136.757 33.448C136.981 33.6253 137.158 33.8353 137.289 34.078C137.42 34.3207 137.499 34.582 137.527 34.862H136.323C136.23 34.554 136.062 34.3113 135.819 34.134C135.586 33.9567 135.306 33.868 134.979 33.868C134.643 33.868 134.358 33.9473 134.125 34.106C133.892 34.2553 133.775 34.4653 133.775 34.736C133.775 34.9973 133.859 35.2073 134.027 35.366C134.195 35.5153 134.466 35.6413 134.839 35.744L135.959 36.038C136.547 36.1873 136.99 36.4393 137.289 36.794C137.597 37.1393 137.751 37.578 137.751 38.11C137.751 38.4553 137.686 38.7587 137.555 39.02C137.424 39.272 137.242 39.482 137.009 39.65C136.776 39.818 136.5 39.9393 136.183 40.014C135.875 40.098 135.539 40.14 135.175 40.14Z" fill="#18181A" fill-opacity="0.5"/>
<path d="M149 30C146.243 30 144 32.2432 144 35C144 37.7568 146.243 40 149 40C151.757 40 154 37.7568 154 35C154 32.2432 151.757 30 149 30ZM149 30.75C151.352 30.75 153.25 32.6484 153.25 35C153.25 37.3516 151.352 39.25 149 39.25C146.648 39.25 144.75 37.3516 144.75 35C144.75 32.6484 146.648 30.75 149 30.75ZM149 32.5C148.724 32.5 148.5 32.7236 148.5 33C148.5 33.2764 148.724 33.5 149 33.5C149.276 33.5 149.5 33.2764 149.5 33C149.5 32.7236 149.276 32.5 149 32.5ZM148.994 34.2451C148.787 34.248 148.622 34.418 148.625 34.625V37.375C148.623 37.5098 148.694 37.6357 148.811 37.7041C148.928 37.7725 149.072 37.7725 149.189 37.7041C149.306 37.6357 149.377 37.5098 149.375 37.375V34.625C149.376 34.5234 149.337 34.4258 149.265 34.3545C149.193 34.2822 149.096 34.2432 148.994 34.2451Z" fill="#18181A" fill-opacity="0.5"/>
<path d="M545.415 36.25H543.497L544.477 35.06H546.619V45H545.415V36.25ZM553.272 39.974L551.55 45H550.486L548.106 38H549.366L551.06 43.11L552.81 38H553.734L555.484 43.11L557.178 38H558.452L556.072 45H555.007L553.272 39.974Z" fill="#18181A" fill-opacity="0.5"/>
<path d="M579.06 36.25H577.142L578.122 35.06H580.264V45H579.06V36.25ZM591.733 40.884C591.733 40.3147 591.616 39.8527 591.383 39.498C591.15 39.1433 590.804 38.966 590.347 38.966C589.787 38.966 589.33 39.1853 588.975 39.624C588.63 40.0627 588.448 40.66 588.429 41.416V45H587.225V40.884C587.225 40.3147 587.108 39.8527 586.875 39.498C586.651 39.1433 586.31 38.966 585.853 38.966C585.284 38.966 584.817 39.1947 584.453 39.652C584.098 40.1093 583.921 40.7347 583.921 41.528V45H582.717V38H583.921V39.078C584.126 38.7047 584.411 38.4107 584.775 38.196C585.139 37.972 585.559 37.86 586.035 37.86C586.558 37.86 587.001 37.9953 587.365 38.266C587.738 38.5273 588.014 38.8913 588.191 39.358C588.378 38.9007 588.672 38.5367 589.073 38.266C589.484 37.9953 589.955 37.86 590.487 37.86C590.87 37.86 591.21 37.93 591.509 38.07C591.817 38.2007 592.074 38.392 592.279 38.644C592.494 38.8867 592.657 39.1853 592.769 39.54C592.881 39.8853 592.937 40.2727 592.937 40.702V45H591.733V40.884Z" fill="#18181A" fill-opacity="0.5"/>
<path d="M705.969 35.06H707.047L711.457 45H710.099L708.811 42.102H704.177L702.917 45H701.573L705.969 35.06ZM704.695 40.926H708.293L706.487 36.824L704.695 40.926ZM712.672 34.5H713.876V45H712.672V34.5ZM716.158 34.5H717.362V45H716.158V34.5Z" fill="#18181A" fill-opacity="0.5"/>
<rect x="652" y="27" width="31" height="26" rx="13" fill="#F4F4F4"/>
<path d="M663.426 36.25H661.508L662.488 35.06H664.63V45H663.426V36.25ZM667.6 47.926L669.126 44.636L666.06 38H667.39L669.798 43.32L672.192 38H673.536L668.944 47.926H667.6Z" fill="#18181A"/>
<path d="M613.797 47.926L615.323 44.636L612.257 38H613.587L615.995 43.32L618.389 38H619.733L615.141 47.926H613.797ZM623.651 45.07C623.343 45.07 623.058 45.028 622.797 44.944C622.535 44.8507 622.307 44.72 622.111 44.552C621.924 44.3747 621.775 44.1507 621.663 43.88C621.56 43.6093 621.509 43.292 621.509 42.928V39.106H620.025V38H621.509V36.054H622.713V38H624.729V39.106H622.713V42.774C622.713 43.222 622.811 43.5347 623.007 43.712C623.203 43.88 623.492 43.964 623.875 43.964C624.024 43.964 624.173 43.9547 624.323 43.936C624.481 43.908 624.617 43.8707 624.729 43.824V44.902C624.579 44.9487 624.416 44.986 624.239 45.014C624.061 45.0513 623.865 45.07 623.651 45.07ZM629.055 45.14C628.56 45.14 628.103 45.0467 627.683 44.86C627.272 44.664 626.913 44.4027 626.605 44.076C626.297 43.74 626.054 43.3527 625.877 42.914C625.709 42.4753 625.625 42.004 625.625 41.5C625.625 40.996 625.709 40.5247 625.877 40.086C626.054 39.6473 626.297 39.2647 626.605 38.938C626.913 38.602 627.272 38.3407 627.683 38.154C628.103 37.958 628.56 37.86 629.055 37.86C629.587 37.86 630.072 37.9813 630.511 38.224C630.95 38.4573 631.286 38.742 631.519 39.078V34.5H632.723V45H631.519V43.922C631.286 44.258 630.95 44.5473 630.511 44.79C630.072 45.0233 629.587 45.14 629.055 45.14ZM629.237 44.034C629.592 44.034 629.914 43.9687 630.203 43.838C630.492 43.7073 630.74 43.53 630.945 43.306C631.16 43.0727 631.323 42.802 631.435 42.494C631.556 42.186 631.617 41.8547 631.617 41.5C631.617 41.1453 631.556 40.814 631.435 40.506C631.323 40.198 631.16 39.932 630.945 39.708C630.74 39.4747 630.492 39.2927 630.203 39.162C629.914 39.0313 629.592 38.966 629.237 38.966C628.882 38.966 628.556 39.0313 628.257 39.162C627.968 39.2927 627.716 39.4747 627.501 39.708C627.296 39.932 627.132 40.198 627.011 40.506C626.899 40.814 626.843 41.1453 626.843 41.5C626.843 41.8547 626.899 42.186 627.011 42.494C627.132 42.802 627.296 43.0727 627.501 43.306C627.716 43.53 627.968 43.7073 628.257 43.838C628.556 43.9687 628.882 44.034 629.237 44.034Z" fill="#18181A" fill-opacity="0.5"/>
<path d="M2.50043 277.633L20.3859 271.056C22.0251 270.453 23.7937 270.29 25.5154 270.583L37.9899 272.707C40.9072 273.204 43.8947 272.383 46.1485 270.465L56.3583 261.779C60.083 258.609 65.5536 258.599 69.2901 261.755L77.851 268.983C81.138 271.759 85.8319 272.121 89.5059 269.883L98.0946 264.65C101.459 262.6 105.714 262.717 108.962 264.948L116.766 270.311C121.115 273.3 127.037 272.395 130.296 268.244L139.812 256.121C142.195 253.085 146.113 251.691 149.878 252.54L159.812 254.78C162.653 255.421 165.632 254.791 167.971 253.056L179.981 244.143C182.62 242.185 186.053 241.648 189.164 242.708L203.501 247.59C204.456 247.915 205.356 248.383 206.171 248.978L223.175 261.386C223.989 261.98 224.889 262.448 225.843 262.773L241.223 268.015C243.728 268.869 246.469 268.695 248.845 267.532L260.16 261.995C263.403 260.407 267.25 260.692 270.225 262.739L279.904 269.401C283.647 271.977 288.655 271.706 292.098 268.742L301.388 260.743C304.343 258.199 308.507 257.604 312.055 259.219L321.736 263.625C325.042 265.129 328.903 264.723 331.823 262.564L341.841 255.157C345.024 252.804 349.295 252.55 352.734 254.509L360.567 258.969C364.85 261.407 370.27 260.362 373.34 256.506L381.34 246.455C385.088 241.745 392.118 241.39 396.321 245.698L400.885 250.375C405.326 254.925 412.829 254.231 416.359 248.943L426.545 233.686C429.145 229.79 434.102 228.221 438.471 229.912L453.694 235.803C454.166 235.986 454.65 236.132 455.144 236.241L473.65 240.334C474.783 240.585 475.951 240.636 477.102 240.486L493.334 238.371C494.841 238.175 496.373 238.325 497.813 238.809L514.445 244.402C515.881 244.885 517.409 245.035 518.912 244.841L533.36 242.977C535.771 242.665 537.987 241.486 539.592 239.659L553.295 224.064C554.394 222.814 555.787 221.857 557.348 221.282L575.303 214.663L596.317 206.594C597.041 206.315 597.796 206.123 598.565 206.019L614.85 203.824C616.225 203.638 617.546 203.169 618.73 202.445L637.137 191.193L653.136 181.322C655.678 179.754 658.787 179.403 661.613 180.367L673.849 184.537C676.424 185.415 679.247 185.205 681.664 183.956L690.899 179.186C694.609 177.27 699.118 177.86 702.21 180.666L714.788 192.083C716.965 194.059 719.901 194.977 722.816 194.593L735.423 192.931C737.255 192.689 739.118 192.96 740.805 193.713L748.856 197.305" stroke="#E4E4E6" stroke-width="2" stroke-linecap="round"/>
<path d="M1.94191 266.912L17.3938 255.354C20.2265 253.235 23.968 252.77 27.233 254.132L33.5517 256.767C38.2963 258.746 43.7684 256.805 46.2056 252.278L52.5982 240.407C56.337 233.463 66.2663 233.378 70.1244 240.255L75.3965 249.654C78.9027 255.904 87.6522 256.546 92.0326 250.874L93.9894 248.34C98.1487 242.954 106.356 243.206 110.178 248.836L112.974 252.955C117.594 259.761 127.998 258.388 130.695 250.617L138.224 228.922C140.237 223.121 146.954 220.488 152.373 223.375L154.705 224.618C159.345 227.09 165.107 225.547 167.891 221.087L176.233 207.722C179.365 202.705 186.143 201.487 190.825 205.1L201.909 213.653C202.816 214.352 203.596 215.203 204.215 216.167L222.656 244.886C223.275 245.849 224.054 246.698 224.959 247.397L237.736 257.263C241.749 260.362 247.447 259.966 250.994 256.343L255.99 251.238C260.413 246.72 267.866 247.389 271.414 252.622L276.94 260.775C281.168 267.011 290.512 266.51 294.048 259.857L298.96 250.616C302.121 244.67 310.136 243.485 314.883 248.261L317.893 251.29C322.432 255.857 330.041 255.007 333.46 249.552L338.539 241.447C342.185 235.63 350.476 235.133 354.791 240.473L356.381 242.442C361.3 248.53 370.99 246.863 373.591 239.481L378.538 225.444C381.511 217.006 393.222 216.42 397.022 224.521L397.762 226.098C401.679 234.447 413.848 233.495 416.419 224.638L424.416 197.088C426.449 190.081 435.059 187.541 440.571 192.32L451.869 202.117C452.454 202.623 453.095 203.061 453.781 203.42L470.773 212.319C472.873 213.419 475.296 213.737 477.609 213.216L489.644 210.507C492.529 209.857 495.553 210.518 497.905 212.311L511.954 223.027C514.299 224.815 517.313 225.478 520.191 224.837L530.841 222.468C534.087 221.746 536.762 219.457 537.978 216.361L551.772 181.227C552.451 179.5 553.596 177.995 555.08 176.882L572.779 163.605L592.732 147.953C593.876 147.056 595.201 146.419 596.617 146.086L610.435 142.84C612.677 142.313 614.668 141.029 616.073 139.203L633.466 116.6L646.742 99.175C650.104 94.7617 656.417 93.9294 660.808 97.3201L666.777 101.929C670.879 105.096 676.721 104.605 680.236 100.797L683.094 97.7022C687.782 92.6241 696.085 93.7193 699.296 99.8393L711.419 122.942C713.527 126.96 718.077 129.055 722.501 128.044L729.555 126.432C732.888 125.671 736.38 126.665 738.812 129.068L745.834 136.007" stroke="#10BBD5" stroke-width="2" stroke-linecap="round"/>
<path d="M327.126 46H320.686V45.524C320.686 44.992 320.789 44.5253 320.994 44.124C321.209 43.7227 321.475 43.3633 321.792 43.046C322.119 42.7193 322.478 42.4207 322.87 42.15C323.271 41.87 323.654 41.5947 324.018 41.324C324.307 41.1093 324.559 40.9133 324.774 40.736C324.998 40.5493 325.185 40.3627 325.334 40.176C325.483 39.98 325.595 39.7747 325.67 39.56C325.745 39.336 325.782 39.0793 325.782 38.79C325.782 38.2673 325.614 37.852 325.278 37.544C324.942 37.2267 324.503 37.068 323.962 37.068C323.691 37.068 323.43 37.11 323.178 37.194C322.935 37.278 322.716 37.404 322.52 37.572C322.333 37.7307 322.184 37.936 322.072 38.188C321.96 38.4307 321.904 38.7107 321.904 39.028H320.672C320.672 38.552 320.756 38.1227 320.924 37.74C321.092 37.348 321.321 37.0167 321.61 36.746C321.909 36.4753 322.259 36.2653 322.66 36.116C323.061 35.9667 323.491 35.892 323.948 35.892C324.359 35.892 324.751 35.9527 325.124 36.074C325.497 36.1953 325.824 36.3773 326.104 36.62C326.384 36.8627 326.603 37.166 326.762 37.53C326.93 37.894 327.014 38.3187 327.014 38.804C327.014 39.168 326.967 39.4993 326.874 39.798C326.79 40.0967 326.655 40.3813 326.468 40.652C326.291 40.9133 326.053 41.1793 325.754 41.45C325.465 41.7113 325.119 41.9867 324.718 42.276C324.429 42.4907 324.144 42.6913 323.864 42.878C323.584 43.0553 323.327 43.242 323.094 43.438C322.87 43.634 322.674 43.844 322.506 44.068C322.338 44.292 322.226 44.5487 322.17 44.838H327.126V46ZM329.837 37.25H327.919L328.899 36.06H331.041V46H329.837V37.25ZM338.561 46.168C338.15 46.168 337.767 46.1073 337.413 45.986C337.058 45.8647 336.745 45.6873 336.475 45.454C336.204 45.2113 335.989 44.9127 335.831 44.558C335.681 44.2033 335.607 43.7973 335.607 43.34H336.895C336.895 43.6107 336.937 43.8487 337.021 44.054C337.114 44.25 337.235 44.418 337.385 44.558C337.543 44.6887 337.721 44.7913 337.917 44.866C338.122 44.9313 338.332 44.964 338.547 44.964C338.761 44.964 338.967 44.9313 339.163 44.866C339.368 44.8007 339.545 44.698 339.695 44.558C339.844 44.4087 339.961 44.2173 340.045 43.984C340.138 43.7413 340.185 43.452 340.185 43.116V36.06H341.473V43.256C341.473 43.7787 341.393 44.2267 341.235 44.6C341.076 44.964 340.861 45.2627 340.591 45.496C340.32 45.7293 340.007 45.8973 339.653 46C339.307 46.112 338.943 46.168 338.561 46.168ZM346.198 46.14C345.815 46.14 345.465 46.0747 345.148 45.944C344.831 45.804 344.56 45.6127 344.336 45.37C344.112 45.1273 343.935 44.8333 343.804 44.488C343.683 44.1333 343.622 43.7367 343.622 43.298V39H344.826V43.116C344.826 43.704 344.966 44.1707 345.246 44.516C345.535 44.8613 345.923 45.034 346.408 45.034C346.679 45.034 346.931 44.978 347.164 44.866C347.407 44.7447 347.612 44.5767 347.78 44.362C347.957 44.138 348.097 43.8673 348.2 43.55C348.303 43.2327 348.354 42.8733 348.354 42.472V39H349.558V46H348.354V44.922C348.121 45.3327 347.813 45.6407 347.43 45.846C347.057 46.042 346.646 46.14 346.198 46.14ZM351.827 39H353.031V40.078C353.274 39.658 353.591 39.35 353.983 39.154C354.375 38.958 354.8 38.86 355.257 38.86C355.649 38.86 356.009 38.9253 356.335 39.056C356.662 39.1867 356.937 39.378 357.161 39.63C357.395 39.8727 357.577 40.1713 357.707 40.526C357.838 40.8713 357.903 41.2587 357.903 41.688V46H356.713V41.87C356.713 41.282 356.559 40.82 356.251 40.484C355.953 40.1387 355.556 39.966 355.061 39.966C354.781 39.966 354.515 40.022 354.263 40.134C354.021 40.246 353.806 40.414 353.619 40.638C353.442 40.8527 353.297 41.1187 353.185 41.436C353.083 41.7533 353.031 42.1173 353.031 42.528V46H351.827V39ZM364.344 37.25H362.426L363.406 36.06H365.548V46H364.344V37.25ZM373.993 46H367.553V45.524C367.553 44.992 367.656 44.5253 367.861 44.124C368.076 43.7227 368.342 43.3633 368.659 43.046C368.986 42.7193 369.345 42.4207 369.737 42.15C370.139 41.87 370.521 41.5947 370.885 41.324C371.175 41.1093 371.427 40.9133 371.641 40.736C371.865 40.5493 372.052 40.3627 372.201 40.176C372.351 39.98 372.463 39.7747 372.537 39.56C372.612 39.336 372.649 39.0793 372.649 38.79C372.649 38.2673 372.481 37.852 372.145 37.544C371.809 37.2267 371.371 37.068 370.829 37.068C370.559 37.068 370.297 37.11 370.045 37.194C369.803 37.278 369.583 37.404 369.387 37.572C369.201 37.7307 369.051 37.936 368.939 38.188C368.827 38.4307 368.771 38.7107 368.771 39.028H367.539C367.539 38.552 367.623 38.1227 367.791 37.74C367.959 37.348 368.188 37.0167 368.477 36.746C368.776 36.4753 369.126 36.2653 369.527 36.116C369.929 35.9667 370.358 35.892 370.815 35.892C371.226 35.892 371.618 35.9527 371.991 36.074C372.365 36.1953 372.691 36.3773 372.971 36.62C373.251 36.8627 373.471 37.166 373.629 37.53C373.797 37.894 373.881 38.3187 373.881 38.804C373.881 39.168 373.835 39.4993 373.741 39.798C373.657 40.0967 373.522 40.3813 373.335 40.652C373.158 40.9133 372.92 41.1793 372.621 41.45C372.332 41.7113 371.987 41.9867 371.585 42.276C371.296 42.4907 371.011 42.6913 370.731 42.878C370.451 43.0553 370.195 43.242 369.961 43.438C369.737 43.634 369.541 43.844 369.373 44.068C369.205 44.292 369.093 44.5487 369.037 44.838H373.993V46ZM376.592 40.932C376.302 40.932 376.055 40.8293 375.85 40.624C375.654 40.4187 375.556 40.1713 375.556 39.882C375.556 39.602 375.654 39.3593 375.85 39.154C376.055 38.9393 376.302 38.832 376.592 38.832C376.881 38.832 377.124 38.9393 377.32 39.154C377.525 39.3593 377.628 39.602 377.628 39.882C377.628 40.1713 377.525 40.4187 377.32 40.624C377.124 40.8293 376.881 40.932 376.592 40.932ZM376.592 46.112C376.302 46.112 376.055 46.0093 375.85 45.804C375.654 45.5987 375.556 45.3513 375.556 45.062C375.556 44.782 375.654 44.5393 375.85 44.334C376.055 44.1193 376.302 44.012 376.592 44.012C376.881 44.012 377.124 44.1193 377.32 44.334C377.525 44.5393 377.628 44.782 377.628 45.062C377.628 45.3513 377.525 45.5987 377.32 45.804C377.124 46.0093 376.881 46.112 376.592 46.112ZM385.642 46H379.202V45.524C379.202 44.992 379.304 44.5253 379.51 44.124C379.724 43.7227 379.99 43.3633 380.308 43.046C380.634 42.7193 380.994 42.4207 381.386 42.15C381.787 41.87 382.17 41.5947 382.534 41.324C382.823 41.1093 383.075 40.9133 383.29 40.736C383.514 40.5493 383.7 40.3627 383.85 40.176C383.999 39.98 384.111 39.7747 384.186 39.56C384.26 39.336 384.298 39.0793 384.298 38.79C384.298 38.2673 384.13 37.852 383.794 37.544C383.458 37.2267 383.019 37.068 382.478 37.068C382.207 37.068 381.946 37.11 381.694 37.194C381.451 37.278 381.232 37.404 381.036 37.572C380.849 37.7307 380.7 37.936 380.588 38.188C380.476 38.4307 380.42 38.7107 380.42 39.028H379.188C379.188 38.552 379.272 38.1227 379.44 37.74C379.608 37.348 379.836 37.0167 380.126 36.746C380.424 36.4753 380.774 36.2653 381.176 36.116C381.577 35.9667 382.006 35.892 382.464 35.892C382.874 35.892 383.266 35.9527 383.64 36.074C384.013 36.1953 384.34 36.3773 384.62 36.62C384.9 36.8627 385.119 37.166 385.278 37.53C385.446 37.894 385.53 38.3187 385.53 38.804C385.53 39.168 385.483 39.4993 385.39 39.798C385.306 40.0967 385.17 40.3813 384.984 40.652C384.806 40.9133 384.568 41.1793 384.27 41.45C383.98 41.7113 383.635 41.9867 383.234 42.276C382.944 42.4907 382.66 42.6913 382.38 42.878C382.1 43.0553 381.843 43.242 381.61 43.438C381.386 43.634 381.19 43.844 381.022 44.068C380.854 44.292 380.742 44.5487 380.686 44.838H385.642V46ZM390.326 46.14C389.841 46.14 389.393 46.0653 388.982 45.916C388.572 45.7573 388.217 45.538 387.918 45.258C387.629 44.978 387.4 44.6467 387.232 44.264C387.064 43.8813 386.98 43.466 386.98 43.018C386.98 42.4207 387.116 41.9027 387.386 41.464C387.666 41.016 388.054 40.6707 388.548 40.428C388.231 40.204 387.979 39.924 387.792 39.588C387.615 39.252 387.526 38.874 387.526 38.454C387.526 38.0807 387.596 37.74 387.736 37.432C387.876 37.1147 388.072 36.844 388.324 36.62C388.576 36.3867 388.87 36.2093 389.206 36.088C389.552 35.9573 389.925 35.892 390.326 35.892C390.737 35.892 391.11 35.9573 391.446 36.088C391.792 36.2093 392.086 36.3867 392.328 36.62C392.58 36.844 392.772 37.1147 392.902 37.432C393.042 37.74 393.112 38.0807 393.112 38.454C393.112 38.874 393.024 39.252 392.846 39.588C392.669 39.924 392.422 40.204 392.104 40.428C392.599 40.6707 392.982 41.016 393.252 41.464C393.523 41.9027 393.658 42.4207 393.658 43.018C393.658 43.466 393.574 43.8813 393.406 44.264C393.248 44.6467 393.019 44.978 392.72 45.258C392.431 45.538 392.081 45.7573 391.67 45.916C391.269 46.0653 390.821 46.14 390.326 46.14ZM390.326 44.992C390.662 44.992 390.961 44.9407 391.222 44.838C391.484 44.7353 391.703 44.5953 391.88 44.418C392.067 44.2407 392.207 44.0307 392.3 43.788C392.394 43.5453 392.44 43.2887 392.44 43.018C392.44 42.738 392.394 42.4767 392.3 42.234C392.207 41.9913 392.067 41.7813 391.88 41.604C391.703 41.4267 391.484 41.2867 391.222 41.184C390.961 41.0813 390.662 41.03 390.326 41.03C390 41.03 389.706 41.0813 389.444 41.184C389.183 41.2867 388.959 41.4267 388.772 41.604C388.586 41.7813 388.441 41.9913 388.338 42.234C388.245 42.4767 388.198 42.738 388.198 43.018C388.198 43.2887 388.245 43.5453 388.338 43.788C388.441 44.0307 388.586 44.2407 388.772 44.418C388.959 44.5953 389.183 44.7353 389.444 44.838C389.706 44.9407 390 44.992 390.326 44.992ZM390.326 39.952C390.578 39.952 390.802 39.9147 390.998 39.84C391.194 39.756 391.362 39.6487 391.502 39.518C391.642 39.378 391.745 39.2193 391.81 39.042C391.885 38.8647 391.922 38.678 391.922 38.482C391.922 38.062 391.782 37.7167 391.502 37.446C391.222 37.166 390.83 37.026 390.326 37.026C389.841 37.026 389.449 37.166 389.15 37.446C388.861 37.7167 388.716 38.062 388.716 38.482C388.716 38.678 388.754 38.8647 388.828 39.042C388.903 39.2193 389.01 39.378 389.15 39.518C389.29 39.6487 389.458 39.756 389.654 39.84C389.86 39.9147 390.084 39.952 390.326 39.952Z" fill="white" fill-opacity="0.5"/>
</svg>
