<svg width="757" height="345" viewBox="0 0 757 345" fill="none" xmlns="http://www.w3.org/2000/svg">
<rect x="7" width="750" height="345" rx="10" fill="#18181A"/>
<path d="M160 30C156.692 30 154 32.6918 154 36C154 39.3082 156.692 42 160 42C163.308 42 166 39.3082 166 36C166 32.6918 163.308 30 160 30ZM160 30.9C162.822 30.9 165.1 33.1781 165.1 36C165.1 38.8219 162.822 41.1 160 41.1C157.178 41.1 154.9 38.8219 154.9 36C154.9 33.1781 157.178 30.9 160 30.9ZM160 33C159.668 33 159.4 33.2684 159.4 33.6C159.4 33.9316 159.668 34.2 160 34.2C160.332 34.2 160.6 33.9316 160.6 33.6C160.6 33.2684 160.332 33 160 33ZM159.993 35.0941C159.745 35.0977 159.546 35.3016 159.55 35.55V38.85C159.548 39.0117 159.633 39.1629 159.773 39.2449C159.913 39.327 160.087 39.327 160.227 39.2449C160.367 39.1629 160.452 39.0117 160.45 38.85V35.55C160.451 35.4281 160.404 35.3109 160.318 35.2254C160.232 35.1387 160.115 35.0918 159.993 35.0941Z" fill="white" fill-opacity="0.5"/>
<path d="M552.415 36.25H550.497L551.477 35.06H553.619V45H552.415V36.25ZM560.272 39.974L558.55 45H557.486L555.106 38H556.366L558.06 43.11L559.81 38H560.734L562.484 43.11L564.178 38H565.452L563.072 45H562.007L560.272 39.974Z" fill="white" fill-opacity="0.5"/>
<path d="M586.06 36.25H584.142L585.122 35.06H587.264V45H586.06V36.25ZM598.733 40.884C598.733 40.3147 598.616 39.8527 598.383 39.498C598.15 39.1433 597.804 38.966 597.347 38.966C596.787 38.966 596.33 39.1853 595.975 39.624C595.63 40.0627 595.448 40.66 595.429 41.416V45H594.225V40.884C594.225 40.3147 594.108 39.8527 593.875 39.498C593.651 39.1433 593.31 38.966 592.853 38.966C592.284 38.966 591.817 39.1947 591.453 39.652C591.098 40.1093 590.921 40.7347 590.921 41.528V45H589.717V38H590.921V39.078C591.126 38.7047 591.411 38.4107 591.775 38.196C592.139 37.972 592.559 37.86 593.035 37.86C593.558 37.86 594.001 37.9953 594.365 38.266C594.738 38.5273 595.014 38.8913 595.191 39.358C595.378 38.9007 595.672 38.5367 596.073 38.266C596.484 37.9953 596.955 37.86 597.487 37.86C597.87 37.86 598.21 37.93 598.509 38.07C598.817 38.2007 599.074 38.392 599.279 38.644C599.494 38.8867 599.657 39.1853 599.769 39.54C599.881 39.8853 599.937 40.2727 599.937 40.702V45H598.733V40.884Z" fill="white" fill-opacity="0.5"/>
<path d="M712.969 35.06H714.047L718.457 45H717.099L715.811 42.102H711.177L709.917 45H708.573L712.969 35.06ZM711.695 40.926H715.293L713.487 36.824L711.695 40.926ZM719.672 34.5H720.876V45H719.672V34.5ZM723.158 34.5H724.362V45H723.158V34.5Z" fill="white" fill-opacity="0.5"/>
<rect x="659" y="27" width="31" height="26" rx="13" fill="#303034"/>
<path d="M670.426 36.25H668.508L669.488 35.06H671.63V45H670.426V36.25ZM674.6 47.926L676.126 44.636L673.06 38H674.39L676.798 43.32L679.192 38H680.536L675.944 47.926H674.6Z" fill="white"/>
<path d="M620.797 47.926L622.323 44.636L619.257 38H620.587L622.995 43.32L625.389 38H626.733L622.141 47.926H620.797ZM630.651 45.07C630.343 45.07 630.058 45.028 629.797 44.944C629.535 44.8507 629.307 44.72 629.111 44.552C628.924 44.3747 628.775 44.1507 628.663 43.88C628.56 43.6093 628.509 43.292 628.509 42.928V39.106H627.025V38H628.509V36.054H629.713V38H631.729V39.106H629.713V42.774C629.713 43.222 629.811 43.5347 630.007 43.712C630.203 43.88 630.492 43.964 630.875 43.964C631.024 43.964 631.173 43.9547 631.323 43.936C631.481 43.908 631.617 43.8707 631.729 43.824V44.902C631.579 44.9487 631.416 44.986 631.239 45.014C631.061 45.0513 630.865 45.07 630.651 45.07ZM636.055 45.14C635.56 45.14 635.103 45.0467 634.683 44.86C634.272 44.664 633.913 44.4027 633.605 44.076C633.297 43.74 633.054 43.3527 632.877 42.914C632.709 42.4753 632.625 42.004 632.625 41.5C632.625 40.996 632.709 40.5247 632.877 40.086C633.054 39.6473 633.297 39.2647 633.605 38.938C633.913 38.602 634.272 38.3407 634.683 38.154C635.103 37.958 635.56 37.86 636.055 37.86C636.587 37.86 637.072 37.9813 637.511 38.224C637.95 38.4573 638.286 38.742 638.519 39.078V34.5H639.723V45H638.519V43.922C638.286 44.258 637.95 44.5473 637.511 44.79C637.072 45.0233 636.587 45.14 636.055 45.14ZM636.237 44.034C636.592 44.034 636.914 43.9687 637.203 43.838C637.492 43.7073 637.74 43.53 637.945 43.306C638.16 43.0727 638.323 42.802 638.435 42.494C638.556 42.186 638.617 41.8547 638.617 41.5C638.617 41.1453 638.556 40.814 638.435 40.506C638.323 40.198 638.16 39.932 637.945 39.708C637.74 39.4747 637.492 39.2927 637.203 39.162C636.914 39.0313 636.592 38.966 636.237 38.966C635.882 38.966 635.556 39.0313 635.257 39.162C634.968 39.2927 634.716 39.4747 634.501 39.708C634.296 39.932 634.132 40.198 634.011 40.506C633.899 40.814 633.843 41.1453 633.843 41.5C633.843 41.8547 633.899 42.186 634.011 42.494C634.132 42.802 634.296 43.0727 634.501 43.306C634.716 43.53 634.968 43.7073 635.257 43.838C635.556 43.9687 635.882 44.034 636.237 44.034Z" fill="white" fill-opacity="0.5"/>
<path d="M33.7702 310.06H35.2122L38.5582 317.97L41.9182 310.06H43.3322L39.1042 320H38.0122L33.7702 310.06ZM46.6586 320.14C46.164 320.14 45.7066 320.047 45.2866 319.86C44.876 319.664 44.5166 319.403 44.2086 319.076C43.9006 318.74 43.658 318.353 43.4806 317.914C43.3126 317.475 43.2286 317.004 43.2286 316.5C43.2286 315.996 43.3126 315.525 43.4806 315.086C43.658 314.647 43.9006 314.265 44.2086 313.938C44.5166 313.602 44.876 313.341 45.2866 313.154C45.7066 312.958 46.164 312.86 46.6586 312.86C47.1906 312.86 47.676 312.981 48.1146 313.224C48.5533 313.457 48.8893 313.742 49.1226 314.078V313H50.3266V320H49.1226V318.922C48.8893 319.258 48.5533 319.547 48.1146 319.79C47.676 320.023 47.1906 320.14 46.6586 320.14ZM46.8406 319.034C47.1953 319.034 47.5173 318.969 47.8066 318.838C48.096 318.707 48.3433 318.53 48.5486 318.306C48.7633 318.073 48.9266 317.802 49.0386 317.494C49.16 317.186 49.2206 316.855 49.2206 316.5C49.2206 316.145 49.16 315.814 49.0386 315.506C48.9266 315.198 48.7633 314.932 48.5486 314.708C48.3433 314.475 48.096 314.293 47.8066 314.162C47.5173 314.031 47.1953 313.966 46.8406 313.966C46.486 313.966 46.1593 314.031 45.8606 314.162C45.5713 314.293 45.3193 314.475 45.1046 314.708C44.8993 314.932 44.736 315.198 44.6146 315.506C44.5026 315.814 44.4466 316.145 44.4466 316.5C44.4466 316.855 44.5026 317.186 44.6146 317.494C44.736 317.802 44.8993 318.073 45.1046 318.306C45.3193 318.53 45.5713 318.707 45.8606 318.838C46.1593 318.969 46.486 319.034 46.8406 319.034ZM52.593 309.5H53.797V320H52.593V309.5ZM58.5573 320.14C58.1746 320.14 57.8246 320.075 57.5073 319.944C57.19 319.804 56.9193 319.613 56.6953 319.37C56.4713 319.127 56.294 318.833 56.1633 318.488C56.042 318.133 55.9813 317.737 55.9813 317.298V313H57.1853V317.116C57.1853 317.704 57.3253 318.171 57.6053 318.516C57.8946 318.861 58.282 319.034 58.7673 319.034C59.038 319.034 59.29 318.978 59.5233 318.866C59.766 318.745 59.9713 318.577 60.1393 318.362C60.3166 318.138 60.4566 317.867 60.5593 317.55C60.662 317.233 60.7133 316.873 60.7133 316.472V313H61.9173V320H60.7133V318.922C60.48 319.333 60.172 319.641 59.7893 319.846C59.416 320.042 59.0053 320.14 58.5573 320.14ZM67.1687 320.14C66.6554 320.14 66.1841 320.051 65.7547 319.874C65.3254 319.687 64.9521 319.431 64.6347 319.104C64.3267 318.777 64.0841 318.395 63.9067 317.956C63.7294 317.508 63.6407 317.023 63.6407 316.5C63.6407 315.987 63.7201 315.511 63.8787 315.072C64.0467 314.624 64.2847 314.237 64.5927 313.91C64.9007 313.583 65.2741 313.327 65.7127 313.14C66.1514 312.953 66.6461 312.86 67.1967 312.86C67.7474 312.86 68.2374 312.967 68.6667 313.182C69.1054 313.387 69.4694 313.672 69.7587 314.036C70.0574 314.391 70.2721 314.811 70.4027 315.296C70.5427 315.772 70.5941 316.281 70.5567 316.822H64.8587C64.8681 317.139 64.9334 317.433 65.0547 317.704C65.1854 317.975 65.3534 318.213 65.5587 318.418C65.7641 318.614 66.0067 318.768 66.2867 318.88C66.5667 318.992 66.8654 319.048 67.1827 319.048C67.6214 319.048 68.0134 318.959 68.3587 318.782C68.7134 318.595 68.9981 318.292 69.2127 317.872H70.4447C70.3607 318.18 70.2254 318.474 70.0387 318.754C69.8521 319.025 69.6187 319.263 69.3387 319.468C69.0681 319.673 68.7507 319.837 68.3867 319.958C68.0227 320.079 67.6167 320.14 67.1687 320.14ZM67.1547 313.924C66.9027 313.924 66.6554 313.961 66.4127 314.036C66.1701 314.111 65.9461 314.227 65.7407 314.386C65.5447 314.545 65.3721 314.745 65.2227 314.988C65.0734 315.231 64.9707 315.525 64.9147 315.87H69.2827C69.1707 315.217 68.9187 314.731 68.5267 314.414C68.1347 314.087 67.6774 313.924 67.1547 313.924Z" fill="#10BBD5"/>
<path d="M74.6211 313H75.9651L78.3591 318.306L80.7531 313H82.0971L78.8631 320H77.8551L74.6211 313ZM85.4857 320.14C85.1123 320.14 84.7577 320.093 84.4217 320C84.0857 319.907 83.7917 319.771 83.5397 319.594C83.2877 319.407 83.0823 319.179 82.9237 318.908C82.765 318.637 82.6717 318.325 82.6437 317.97H83.8757C83.913 318.185 83.983 318.367 84.0857 318.516C84.1977 318.656 84.3283 318.773 84.4777 318.866C84.627 318.959 84.7857 319.025 84.9537 319.062C85.131 319.099 85.313 319.118 85.4997 319.118C85.8823 319.118 86.1997 319.043 86.4517 318.894C86.713 318.735 86.8437 318.502 86.8437 318.194C86.8437 317.914 86.755 317.685 86.5777 317.508C86.4003 317.331 86.1017 317.186 85.6817 317.074L84.6737 316.808C84.067 316.649 83.6143 316.393 83.3157 316.038C83.017 315.683 82.8677 315.254 82.8677 314.75C82.8677 314.461 82.9283 314.199 83.0497 313.966C83.171 313.733 83.339 313.537 83.5537 313.378C83.7683 313.21 84.0203 313.084 84.3097 313C84.6083 312.907 84.935 312.86 85.2897 312.86C85.663 312.86 85.999 312.911 86.2977 313.014C86.5963 313.117 86.853 313.261 87.0677 313.448C87.2917 313.625 87.469 313.835 87.5997 314.078C87.7303 314.321 87.8097 314.582 87.8377 314.862H86.6337C86.5403 314.554 86.3723 314.311 86.1297 314.134C85.8963 313.957 85.6163 313.868 85.2897 313.868C84.9537 313.868 84.669 313.947 84.4357 314.106C84.2023 314.255 84.0857 314.465 84.0857 314.736C84.0857 314.997 84.1697 315.207 84.3377 315.366C84.5057 315.515 84.7763 315.641 85.1497 315.744L86.2697 316.038C86.8577 316.187 87.301 316.439 87.5997 316.794C87.9077 317.139 88.0617 317.578 88.0617 318.11C88.0617 318.455 87.9963 318.759 87.8657 319.02C87.735 319.272 87.553 319.482 87.3197 319.65C87.0863 319.818 86.811 319.939 86.4937 320.014C86.1857 320.098 85.8497 320.14 85.4857 320.14ZM93.3258 310.06H94.6278V314.302H100.074V310.06H101.376V320H100.074V315.52H94.6278V320H93.3258V310.06ZM108.456 318.936C108.997 318.936 109.501 318.838 109.968 318.642C110.444 318.437 110.85 318.157 111.186 317.802C111.531 317.447 111.802 317.037 111.998 316.57C112.194 316.094 112.292 315.581 112.292 315.03C112.292 314.489 112.194 313.98 111.998 313.504C111.802 313.028 111.531 312.613 111.186 312.258C110.85 311.903 110.444 311.628 109.968 311.432C109.501 311.227 108.997 311.124 108.456 311.124C107.914 311.124 107.41 311.227 106.944 311.432C106.477 311.628 106.071 311.903 105.726 312.258C105.39 312.613 105.124 313.028 104.928 313.504C104.732 313.98 104.634 314.489 104.634 315.03C104.634 315.581 104.732 316.094 104.928 316.57C105.124 317.037 105.39 317.447 105.726 317.802C106.071 318.157 106.477 318.437 106.944 318.642C107.41 318.838 107.914 318.936 108.456 318.936ZM108.456 320.168C107.737 320.168 107.065 320.037 106.44 319.776C105.824 319.505 105.282 319.141 104.816 318.684C104.349 318.217 103.98 317.671 103.71 317.046C103.448 316.421 103.318 315.749 103.318 315.03C103.318 314.311 103.448 313.639 103.71 313.014C103.98 312.389 104.349 311.847 104.816 311.39C105.282 310.923 105.824 310.559 106.44 310.298C107.065 310.027 107.737 309.892 108.456 309.892C109.174 309.892 109.846 310.027 110.472 310.298C111.097 310.559 111.638 310.923 112.096 311.39C112.562 311.847 112.926 312.389 113.188 313.014C113.458 313.639 113.594 314.311 113.594 315.03C113.594 315.749 113.458 316.421 113.188 317.046C112.926 317.671 112.562 318.217 112.096 318.684C111.638 319.141 111.097 319.505 110.472 319.776C109.846 320.037 109.174 320.168 108.456 320.168ZM115.556 310.06H118.412C119.178 310.06 119.882 310.186 120.526 310.438C121.17 310.69 121.726 311.04 122.192 311.488C122.668 311.927 123.037 312.449 123.298 313.056C123.569 313.663 123.704 314.321 123.704 315.03C123.704 315.739 123.569 316.397 123.298 317.004C123.037 317.611 122.668 318.138 122.192 318.586C121.726 319.025 121.17 319.37 120.526 319.622C119.882 319.874 119.178 320 118.412 320H115.556V310.06ZM118.412 318.782C119.01 318.782 119.551 318.689 120.036 318.502C120.531 318.315 120.951 318.054 121.296 317.718C121.642 317.382 121.908 316.985 122.094 316.528C122.29 316.071 122.388 315.571 122.388 315.03C122.388 314.489 122.29 313.989 122.094 313.532C121.908 313.075 121.642 312.678 121.296 312.342C120.951 312.006 120.531 311.745 120.036 311.558C119.551 311.371 119.01 311.278 118.412 311.278H116.858V318.782H118.412ZM125.646 310.06H126.948V318.768H131.75V320H125.646V310.06Z" fill="white" fill-opacity="0.5"/>
<path d="M40.11 75.24C39.33 75.16 38.59 74.97 37.89 74.67C37.21 74.37 36.61 73.96 36.09 73.44C35.57 72.92 35.15 72.29 34.83 71.55C34.53 70.81 34.37 69.96 34.35 69H36.93C37.07 70.12 37.42 70.98 37.98 71.58C38.54 72.18 39.25 72.56 40.11 72.72V65.25L39.09 64.86C37.49 64.22 36.32 63.4 35.58 62.4C34.84 61.38 34.47 60.18 34.47 58.8C34.47 57.98 34.61 57.25 34.89 56.61C35.19 55.95 35.59 55.39 36.09 54.93C36.61 54.47 37.21 54.11 37.89 53.85C38.59 53.59 39.33 53.43 40.11 53.37V51.06H41.73V53.43C42.39 53.53 43.03 53.72 43.65 54C44.27 54.26 44.81 54.62 45.27 55.08C45.75 55.52 46.13 56.05 46.41 56.67C46.71 57.29 46.86 57.99 46.86 58.77H44.28C44.16 58.03 43.88 57.42 43.44 56.94C43 56.44 42.43 56.11 41.73 55.95V62.97L42.48 63.27C44.06 63.91 45.26 64.73 46.08 65.73C46.92 66.71 47.34 67.97 47.34 69.51C47.34 70.43 47.19 71.24 46.89 71.94C46.61 72.62 46.22 73.2 45.72 73.68C45.22 74.16 44.63 74.53 43.95 74.79C43.27 75.05 42.53 75.21 41.73 75.27V77.64H40.11V75.24ZM44.76 69.69C44.76 68.73 44.5 67.97 43.98 67.41C43.46 66.83 42.71 66.33 41.73 65.91V72.78C42.57 72.68 43.28 72.35 43.86 71.79C44.46 71.23 44.76 70.53 44.76 69.69ZM37.05 58.8C37.05 59.62 37.29 60.3 37.77 60.84C38.25 61.38 39.03 61.88 40.11 62.34V55.86C39.15 55.96 38.4 56.28 37.86 56.82C37.32 57.36 37.05 58.02 37.05 58.8ZM53.0238 56.25H48.9138L51.0138 53.7H55.6038V75H53.0238V56.25ZM67.7597 75.3C66.6597 75.3 65.6497 75.11 64.7297 74.73C63.8097 74.33 63.0097 73.78 62.3297 73.08C61.6697 72.38 61.1497 71.54 60.7697 70.56C60.4097 69.56 60.2297 68.47 60.2297 67.29V61.35C60.2297 60.17 60.4097 59.09 60.7697 58.11C61.1497 57.13 61.6697 56.29 62.3297 55.59C63.0097 54.87 63.8097 54.32 64.7297 53.94C65.6497 53.54 66.6597 53.34 67.7597 53.34C68.8597 53.34 69.8697 53.54 70.7897 53.94C71.7097 54.32 72.4997 54.87 73.1597 55.59C73.8397 56.29 74.3697 57.13 74.7497 58.11C75.1297 59.09 75.3197 60.17 75.3197 61.35V67.29C75.3197 68.47 75.1297 69.56 74.7497 70.56C74.3697 71.54 73.8397 72.38 73.1597 73.08C72.4997 73.78 71.7097 74.33 70.7897 74.73C69.8697 75.11 68.8597 75.3 67.7597 75.3ZM67.7597 72.78C69.2197 72.78 70.4097 72.3 71.3297 71.34C72.2697 70.38 72.7397 69.03 72.7397 67.29V61.35C72.7397 59.61 72.2697 58.26 71.3297 57.3C70.4097 56.34 69.2197 55.86 67.7597 55.86C67.0397 55.86 66.3697 55.99 65.7497 56.25C65.1497 56.49 64.6297 56.85 64.1897 57.33C63.7697 57.79 63.4297 58.36 63.1697 59.04C62.9297 59.72 62.8097 60.49 62.8097 61.35V67.29C62.8097 68.15 62.9297 68.92 63.1697 69.6C63.4297 70.28 63.7697 70.86 64.1897 71.34C64.6297 71.8 65.1497 72.16 65.7497 72.42C66.3697 72.66 67.0397 72.78 67.7597 72.78ZM86.4511 75.3C85.3511 75.3 84.3411 75.11 83.4211 74.73C82.5011 74.33 81.7011 73.78 81.0211 73.08C80.3611 72.38 79.8411 71.54 79.4611 70.56C79.1011 69.56 78.9211 68.47 78.9211 67.29V61.35C78.9211 60.17 79.1011 59.09 79.4611 58.11C79.8411 57.13 80.3611 56.29 81.0211 55.59C81.7011 54.87 82.5011 54.32 83.4211 53.94C84.3411 53.54 85.3511 53.34 86.4511 53.34C87.5511 53.34 88.5611 53.54 89.4811 53.94C90.4011 54.32 91.1911 54.87 91.8511 55.59C92.5311 56.29 93.0611 57.13 93.4411 58.11C93.8211 59.09 94.0111 60.17 94.0111 61.35V67.29C94.0111 68.47 93.8211 69.56 93.4411 70.56C93.0611 71.54 92.5311 72.38 91.8511 73.08C91.1911 73.78 90.4011 74.33 89.4811 74.73C88.5611 75.11 87.5511 75.3 86.4511 75.3ZM86.4511 72.78C87.9111 72.78 89.1011 72.3 90.0211 71.34C90.9611 70.38 91.4311 69.03 91.4311 67.29V61.35C91.4311 59.61 90.9611 58.26 90.0211 57.3C89.1011 56.34 87.9111 55.86 86.4511 55.86C85.7311 55.86 85.0611 55.99 84.4411 56.25C83.8411 56.49 83.3211 56.85 82.8811 57.33C82.4611 57.79 82.1211 58.36 81.8611 59.04C81.6211 59.72 81.5011 60.49 81.5011 61.35V67.29C81.5011 68.15 81.6211 68.92 81.8611 69.6C82.1211 70.28 82.4611 70.86 82.8811 71.34C83.3211 71.8 83.8411 72.16 84.4411 72.42C85.0611 72.66 85.7311 72.78 86.4511 72.78ZM97.8938 79.29H96.1838L98.1938 75C97.8338 74.82 97.5338 74.56 97.2938 74.22C97.0738 73.86 96.9638 73.45 96.9638 72.99C96.9638 72.39 97.1738 71.87 97.5938 71.43C98.0338 70.97 98.5638 70.74 99.1838 70.74C99.8038 70.74 100.324 70.97 100.744 71.43C101.184 71.87 101.404 72.39 101.404 72.99C101.404 73.25 101.364 73.49 101.284 73.71C101.204 73.93 101.104 74.14 100.984 74.34L97.8938 79.29ZM111.881 75.3C110.781 75.3 109.771 75.11 108.851 74.73C107.931 74.33 107.131 73.78 106.451 73.08C105.791 72.38 105.271 71.54 104.891 70.56C104.531 69.56 104.351 68.47 104.351 67.29V61.35C104.351 60.17 104.531 59.09 104.891 58.11C105.271 57.13 105.791 56.29 106.451 55.59C107.131 54.87 107.931 54.32 108.851 53.94C109.771 53.54 110.781 53.34 111.881 53.34C112.981 53.34 113.991 53.54 114.911 53.94C115.831 54.32 116.621 54.87 117.281 55.59C117.961 56.29 118.491 57.13 118.871 58.11C119.251 59.09 119.441 60.17 119.441 61.35V67.29C119.441 68.47 119.251 69.56 118.871 70.56C118.491 71.54 117.961 72.38 117.281 73.08C116.621 73.78 115.831 74.33 114.911 74.73C113.991 75.11 112.981 75.3 111.881 75.3ZM111.881 72.78C113.341 72.78 114.531 72.3 115.451 71.34C116.391 70.38 116.861 69.03 116.861 67.29V61.35C116.861 59.61 116.391 58.26 115.451 57.3C114.531 56.34 113.341 55.86 111.881 55.86C111.161 55.86 110.491 55.99 109.871 56.25C109.271 56.49 108.751 56.85 108.311 57.33C107.891 57.79 107.551 58.36 107.291 59.04C107.051 59.72 106.931 60.49 106.931 61.35V67.29C106.931 68.15 107.051 68.92 107.291 69.6C107.551 70.28 107.891 70.86 108.311 71.34C108.751 71.8 109.271 72.16 109.871 72.42C110.491 72.66 111.161 72.78 111.881 72.78ZM130.572 75.3C129.472 75.3 128.462 75.11 127.542 74.73C126.622 74.33 125.822 73.78 125.142 73.08C124.482 72.38 123.962 71.54 123.582 70.56C123.222 69.56 123.042 68.47 123.042 67.29V61.35C123.042 60.17 123.222 59.09 123.582 58.11C123.962 57.13 124.482 56.29 125.142 55.59C125.822 54.87 126.622 54.32 127.542 53.94C128.462 53.54 129.472 53.34 130.572 53.34C131.672 53.34 132.682 53.54 133.602 53.94C134.522 54.32 135.312 54.87 135.972 55.59C136.652 56.29 137.182 57.13 137.562 58.11C137.942 59.09 138.132 60.17 138.132 61.35V67.29C138.132 68.47 137.942 69.56 137.562 70.56C137.182 71.54 136.652 72.38 135.972 73.08C135.312 73.78 134.522 74.33 133.602 74.73C132.682 75.11 131.672 75.3 130.572 75.3ZM130.572 72.78C132.032 72.78 133.222 72.3 134.142 71.34C135.082 70.38 135.552 69.03 135.552 67.29V61.35C135.552 59.61 135.082 58.26 134.142 57.3C133.222 56.34 132.032 55.86 130.572 55.86C129.852 55.86 129.182 55.99 128.562 56.25C127.962 56.49 127.442 56.85 127.002 57.33C126.582 57.79 126.242 58.36 125.982 59.04C125.742 59.72 125.622 60.49 125.622 61.35V67.29C125.622 68.15 125.742 68.92 125.982 69.6C126.242 70.28 126.582 70.86 127.002 71.34C127.442 71.8 127.962 72.16 128.562 72.42C129.182 72.66 129.852 72.78 130.572 72.78ZM149.264 75.3C148.164 75.3 147.154 75.11 146.234 74.73C145.314 74.33 144.514 73.78 143.834 73.08C143.174 72.38 142.654 71.54 142.274 70.56C141.914 69.56 141.734 68.47 141.734 67.29V61.35C141.734 60.17 141.914 59.09 142.274 58.11C142.654 57.13 143.174 56.29 143.834 55.59C144.514 54.87 145.314 54.32 146.234 53.94C147.154 53.54 148.164 53.34 149.264 53.34C150.364 53.34 151.374 53.54 152.294 53.94C153.214 54.32 154.004 54.87 154.664 55.59C155.344 56.29 155.874 57.13 156.254 58.11C156.634 59.09 156.824 60.17 156.824 61.35V67.29C156.824 68.47 156.634 69.56 156.254 70.56C155.874 71.54 155.344 72.38 154.664 73.08C154.004 73.78 153.214 74.33 152.294 74.73C151.374 75.11 150.364 75.3 149.264 75.3ZM149.264 72.78C150.724 72.78 151.914 72.3 152.834 71.34C153.774 70.38 154.244 69.03 154.244 67.29V61.35C154.244 59.61 153.774 58.26 152.834 57.3C151.914 56.34 150.724 55.86 149.264 55.86C148.544 55.86 147.874 55.99 147.254 56.25C146.654 56.49 146.134 56.85 145.694 57.33C145.274 57.79 144.934 58.36 144.674 59.04C144.434 59.72 144.314 60.49 144.314 61.35V67.29C144.314 68.15 144.434 68.92 144.674 69.6C144.934 70.28 145.274 70.86 145.694 71.34C146.134 71.8 146.654 72.16 147.254 72.42C147.874 72.66 148.544 72.78 149.264 72.78Z" fill="white"/>
<path d="M40.77 34.224C40.77 34.672 40.686 35.0873 40.518 35.47C40.3593 35.8527 40.1307 36.1887 39.832 36.478C39.5427 36.758 39.1833 36.9773 38.754 37.136C38.334 37.2947 37.8673 37.374 37.354 37.374H35.618V41H34.316V31.06H37.354C37.8673 31.06 38.334 31.144 38.754 31.312C39.1833 31.4707 39.5427 31.69 39.832 31.97C40.1307 32.25 40.3593 32.586 40.518 32.978C40.686 33.3607 40.77 33.776 40.77 34.224ZM39.482 34.224C39.482 33.944 39.4353 33.6873 39.342 33.454C39.2487 33.2207 39.1087 33.0153 38.922 32.838C38.7447 32.6607 38.5253 32.5253 38.264 32.432C38.0027 32.3293 37.6993 32.278 37.354 32.278H35.618V36.17H37.354C37.6993 36.17 38.0027 36.1233 38.264 36.03C38.5253 35.9273 38.7447 35.7873 38.922 35.61C39.1087 35.4327 39.2487 35.2273 39.342 34.994C39.4353 34.7607 39.482 34.504 39.482 34.224ZM45.2264 41.14C44.6944 41.14 44.2044 41.0467 43.7564 40.86C43.3084 40.664 42.921 40.4027 42.5944 40.076C42.2677 39.7493 42.011 39.3667 41.8244 38.928C41.647 38.48 41.5584 38.004 41.5584 37.5C41.5584 36.996 41.647 36.5247 41.8244 36.086C42.011 35.638 42.2677 35.2507 42.5944 34.924C42.921 34.5973 43.3084 34.3407 43.7564 34.154C44.2044 33.958 44.6944 33.86 45.2264 33.86C45.749 33.86 46.2344 33.958 46.6824 34.154C47.1304 34.3407 47.5177 34.5973 47.8444 34.924C48.171 35.2507 48.423 35.638 48.6004 36.086C48.787 36.5247 48.8804 36.996 48.8804 37.5C48.8804 38.004 48.787 38.48 48.6004 38.928C48.423 39.3667 48.171 39.7493 47.8444 40.076C47.5177 40.4027 47.1304 40.664 46.6824 40.86C46.2344 41.0467 45.749 41.14 45.2264 41.14ZM45.2264 40.02C45.5904 40.02 45.9217 39.9547 46.2204 39.824C46.519 39.6933 46.771 39.516 46.9764 39.292C47.191 39.0587 47.3544 38.7927 47.4664 38.494C47.5877 38.186 47.6484 37.8547 47.6484 37.5C47.6484 37.1547 47.5877 36.828 47.4664 36.52C47.3544 36.212 47.191 35.946 46.9764 35.722C46.771 35.4887 46.519 35.3067 46.2204 35.176C45.9217 35.0453 45.5904 34.98 45.2264 34.98C44.8624 34.98 44.531 35.0453 44.2324 35.176C43.9337 35.3067 43.677 35.4887 43.4624 35.722C43.2477 35.946 43.0797 36.212 42.9584 36.52C42.8464 36.828 42.7904 37.1547 42.7904 37.5C42.7904 37.8547 42.8464 38.186 42.9584 38.494C43.0797 38.7927 43.2477 39.0587 43.4624 39.292C43.677 39.516 43.9337 39.6933 44.2324 39.824C44.531 39.9547 44.8624 40.02 45.2264 40.02ZM50.6086 34H51.8126V35.358C51.8779 35.134 51.9806 34.9333 52.1206 34.756C52.2606 34.5787 52.4193 34.4293 52.5966 34.308C52.7739 34.1867 52.9606 34.0933 53.1566 34.028C53.3619 33.9627 53.5673 33.93 53.7726 33.93C53.9593 33.93 54.1413 33.9487 54.3186 33.986V35.232C54.2066 35.1853 54.0993 35.1573 53.9966 35.148C53.8939 35.1293 53.7819 35.12 53.6606 35.12C53.4366 35.12 53.2126 35.1713 52.9886 35.274C52.7739 35.3673 52.5779 35.512 52.4006 35.708C52.2326 35.904 52.0926 36.156 51.9806 36.464C51.8686 36.7627 51.8126 37.1173 51.8126 37.528V41H50.6086V34ZM58.4516 41.07C58.1436 41.07 57.8589 41.028 57.5976 40.944C57.3362 40.8507 57.1076 40.72 56.9116 40.552C56.7249 40.3747 56.5756 40.1507 56.4636 39.88C56.3609 39.6093 56.3096 39.292 56.3096 38.928V35.106H54.8256V34H56.3096V32.054H57.5136V34H59.5296V35.106H57.5136V38.774C57.5136 39.222 57.6116 39.5347 57.8076 39.712C58.0036 39.88 58.2929 39.964 58.6756 39.964C58.8249 39.964 58.9742 39.9547 59.1236 39.936C59.2822 39.908 59.4176 39.8707 59.5296 39.824V40.902C59.3802 40.9487 59.2169 40.986 59.0396 41.014C58.8622 41.0513 58.6662 41.07 58.4516 41.07ZM61.6556 35.106H60.1716V34H61.6556V32.586C61.6556 32.222 61.7069 31.9047 61.8096 31.634C61.9216 31.3633 62.0709 31.1393 62.2576 30.962C62.4536 30.7753 62.6823 30.64 62.9436 30.556C63.2049 30.4627 63.4896 30.416 63.7976 30.416C64.0123 30.416 64.2083 30.4347 64.3856 30.472C64.5629 30.5 64.7309 30.542 64.8896 30.598V31.662C64.7776 31.6153 64.6376 31.5827 64.4696 31.564C64.3109 31.536 64.1616 31.522 64.0216 31.522C63.6296 31.522 63.3356 31.6107 63.1396 31.788C62.9529 31.956 62.8596 32.264 62.8596 32.712V34H64.8896V35.106H62.8596V41H61.6556V35.106ZM69.1385 41.14C68.6065 41.14 68.1165 41.0467 67.6685 40.86C67.2205 40.664 66.8332 40.4027 66.5065 40.076C66.1798 39.7493 65.9232 39.3667 65.7365 38.928C65.5592 38.48 65.4705 38.004 65.4705 37.5C65.4705 36.996 65.5592 36.5247 65.7365 36.086C65.9232 35.638 66.1798 35.2507 66.5065 34.924C66.8332 34.5973 67.2205 34.3407 67.6685 34.154C68.1165 33.958 68.6065 33.86 69.1385 33.86C69.6612 33.86 70.1465 33.958 70.5945 34.154C71.0425 34.3407 71.4298 34.5973 71.7565 34.924C72.0832 35.2507 72.3352 35.638 72.5125 36.086C72.6992 36.5247 72.7925 36.996 72.7925 37.5C72.7925 38.004 72.6992 38.48 72.5125 38.928C72.3352 39.3667 72.0832 39.7493 71.7565 40.076C71.4298 40.4027 71.0425 40.664 70.5945 40.86C70.1465 41.0467 69.6612 41.14 69.1385 41.14ZM69.1385 40.02C69.5025 40.02 69.8338 39.9547 70.1325 39.824C70.4312 39.6933 70.6832 39.516 70.8885 39.292C71.1032 39.0587 71.2665 38.7927 71.3785 38.494C71.4998 38.186 71.5605 37.8547 71.5605 37.5C71.5605 37.1547 71.4998 36.828 71.3785 36.52C71.2665 36.212 71.1032 35.946 70.8885 35.722C70.6832 35.4887 70.4312 35.3067 70.1325 35.176C69.8338 35.0453 69.5025 34.98 69.1385 34.98C68.7745 34.98 68.4432 35.0453 68.1445 35.176C67.8458 35.3067 67.5892 35.4887 67.3745 35.722C67.1598 35.946 66.9918 36.212 66.8705 36.52C66.7585 36.828 66.7025 37.1547 66.7025 37.5C66.7025 37.8547 66.7585 38.186 66.8705 38.494C66.9918 38.7927 67.1598 39.0587 67.3745 39.292C67.5892 39.516 67.8458 39.6933 68.1445 39.824C68.4432 39.9547 68.7745 40.02 69.1385 40.02ZM74.5207 30.5H75.7247V41H74.5207V30.5ZM78.623 32.124C78.3804 32.124 78.175 32.0447 78.007 31.886C77.839 31.718 77.755 31.5127 77.755 31.27C77.755 31.0367 77.839 30.836 78.007 30.668C78.175 30.5 78.3804 30.416 78.623 30.416C78.8657 30.416 79.0664 30.5 79.225 30.668C79.3837 30.836 79.463 31.0367 79.463 31.27C79.463 31.5127 79.3837 31.718 79.225 31.886C79.0664 32.0447 78.8657 32.124 78.623 32.124ZM78.007 34H79.211V41H78.007V34ZM84.6014 41.14C84.0694 41.14 83.5794 41.0467 83.1314 40.86C82.6834 40.664 82.296 40.4027 81.9694 40.076C81.6427 39.7493 81.386 39.3667 81.1994 38.928C81.022 38.48 80.9334 38.004 80.9334 37.5C80.9334 36.996 81.022 36.5247 81.1994 36.086C81.386 35.638 81.6427 35.2507 81.9694 34.924C82.296 34.5973 82.6834 34.3407 83.1314 34.154C83.5794 33.958 84.0694 33.86 84.6014 33.86C85.124 33.86 85.6094 33.958 86.0574 34.154C86.5054 34.3407 86.8927 34.5973 87.2194 34.924C87.546 35.2507 87.798 35.638 87.9754 36.086C88.162 36.5247 88.2554 36.996 88.2554 37.5C88.2554 38.004 88.162 38.48 87.9754 38.928C87.798 39.3667 87.546 39.7493 87.2194 40.076C86.8927 40.4027 86.5054 40.664 86.0574 40.86C85.6094 41.0467 85.124 41.14 84.6014 41.14ZM84.6014 40.02C84.9654 40.02 85.2967 39.9547 85.5954 39.824C85.894 39.6933 86.146 39.516 86.3514 39.292C86.566 39.0587 86.7294 38.7927 86.8414 38.494C86.9627 38.186 87.0234 37.8547 87.0234 37.5C87.0234 37.1547 86.9627 36.828 86.8414 36.52C86.7294 36.212 86.566 35.946 86.3514 35.722C86.146 35.4887 85.894 35.3067 85.5954 35.176C85.2967 35.0453 84.9654 34.98 84.6014 34.98C84.2374 34.98 83.906 35.0453 83.6074 35.176C83.3087 35.3067 83.052 35.4887 82.8374 35.722C82.6227 35.946 82.4547 36.212 82.3334 36.52C82.2214 36.828 82.1654 37.1547 82.1654 37.5C82.1654 37.8547 82.2214 38.186 82.3334 38.494C82.4547 38.7927 82.6227 39.0587 82.8374 39.292C83.052 39.516 83.3087 39.6933 83.6074 39.824C83.906 39.9547 84.2374 40.02 84.6014 40.02ZM93.3606 41V30.5H94.5646V35.078C94.8072 34.658 95.1246 34.35 95.5166 34.154C95.9086 33.958 96.3332 33.86 96.7906 33.86C97.1826 33.86 97.5419 33.9253 97.8686 34.056C98.1952 34.1867 98.4706 34.378 98.6946 34.63C98.9279 34.8727 99.1099 35.1713 99.2406 35.526C99.3712 35.8713 99.4366 36.2587 99.4366 36.688V41H98.2466V36.87C98.2466 36.282 98.0926 35.82 97.7846 35.484C97.4859 35.1387 97.0892 34.966 96.5946 34.966C96.3146 34.966 96.0486 35.022 95.7966 35.134C95.5539 35.246 95.3392 35.414 95.1526 35.638C94.9752 35.8527 94.8306 36.1187 94.7186 36.436C94.6159 36.7533 94.5646 37.1173 94.5646 37.528V41H93.3606ZM104.713 41.14C104.181 41.14 103.691 41.0467 103.243 40.86C102.795 40.664 102.407 40.4027 102.081 40.076C101.754 39.7493 101.497 39.3667 101.311 38.928C101.133 38.48 101.045 38.004 101.045 37.5C101.045 36.996 101.133 36.5247 101.311 36.086C101.497 35.638 101.754 35.2507 102.081 34.924C102.407 34.5973 102.795 34.3407 103.243 34.154C103.691 33.958 104.181 33.86 104.713 33.86C105.235 33.86 105.721 33.958 106.169 34.154C106.617 34.3407 107.004 34.5973 107.331 34.924C107.657 35.2507 107.909 35.638 108.087 36.086C108.273 36.5247 108.367 36.996 108.367 37.5C108.367 38.004 108.273 38.48 108.087 38.928C107.909 39.3667 107.657 39.7493 107.331 40.076C107.004 40.4027 106.617 40.664 106.169 40.86C105.721 41.0467 105.235 41.14 104.713 41.14ZM104.713 40.02C105.077 40.02 105.408 39.9547 105.707 39.824C106.005 39.6933 106.257 39.516 106.463 39.292C106.677 39.0587 106.841 38.7927 106.953 38.494C107.074 38.186 107.135 37.8547 107.135 37.5C107.135 37.1547 107.074 36.828 106.953 36.52C106.841 36.212 106.677 35.946 106.463 35.722C106.257 35.4887 106.005 35.3067 105.707 35.176C105.408 35.0453 105.077 34.98 104.713 34.98C104.349 34.98 104.017 35.0453 103.719 35.176C103.42 35.3067 103.163 35.4887 102.949 35.722C102.734 35.946 102.566 36.212 102.445 36.52C102.333 36.828 102.277 37.1547 102.277 37.5C102.277 37.8547 102.333 38.186 102.445 38.494C102.566 38.7927 102.734 39.0587 102.949 39.292C103.163 39.516 103.42 39.6933 103.719 39.824C104.017 39.9547 104.349 40.02 104.713 40.02ZM110.095 30.5H111.299V41H110.095V30.5ZM116.465 41.14C115.971 41.14 115.513 41.0467 115.093 40.86C114.683 40.664 114.323 40.4027 114.015 40.076C113.707 39.74 113.465 39.3527 113.287 38.914C113.119 38.4753 113.035 38.004 113.035 37.5C113.035 36.996 113.119 36.5247 113.287 36.086C113.465 35.6473 113.707 35.2647 114.015 34.938C114.323 34.602 114.683 34.3407 115.093 34.154C115.513 33.958 115.971 33.86 116.465 33.86C116.997 33.86 117.483 33.9813 117.921 34.224C118.36 34.4573 118.696 34.742 118.929 35.078V30.5H120.133V41H118.929V39.922C118.696 40.258 118.36 40.5473 117.921 40.79C117.483 41.0233 116.997 41.14 116.465 41.14ZM116.647 40.034C117.002 40.034 117.324 39.9687 117.613 39.838C117.903 39.7073 118.15 39.53 118.355 39.306C118.57 39.0727 118.733 38.802 118.845 38.494C118.967 38.186 119.027 37.8547 119.027 37.5C119.027 37.1453 118.967 36.814 118.845 36.506C118.733 36.198 118.57 35.932 118.355 35.708C118.15 35.4747 117.903 35.2927 117.613 35.162C117.324 35.0313 117.002 34.966 116.647 34.966C116.293 34.966 115.966 35.0313 115.667 35.162C115.378 35.2927 115.126 35.4747 114.911 35.708C114.706 35.932 114.543 36.198 114.421 36.506C114.309 36.814 114.253 37.1453 114.253 37.5C114.253 37.8547 114.309 38.186 114.421 38.494C114.543 38.802 114.706 39.0727 114.911 39.306C115.126 39.53 115.378 39.7073 115.667 39.838C115.966 39.9687 116.293 40.034 116.647 40.034ZM123.016 32.124C122.773 32.124 122.568 32.0447 122.4 31.886C122.232 31.718 122.148 31.5127 122.148 31.27C122.148 31.0367 122.232 30.836 122.4 30.668C122.568 30.5 122.773 30.416 123.016 30.416C123.258 30.416 123.459 30.5 123.618 30.668C123.776 30.836 123.856 31.0367 123.856 31.27C123.856 31.5127 123.776 31.718 123.618 31.886C123.459 32.0447 123.258 32.124 123.016 32.124ZM122.4 34H123.604V41H122.4V34ZM125.886 34H127.09V35.078C127.333 34.658 127.65 34.35 128.042 34.154C128.434 33.958 128.859 33.86 129.316 33.86C129.708 33.86 130.067 33.9253 130.394 34.056C130.721 34.1867 130.996 34.378 131.22 34.63C131.453 34.8727 131.635 35.1713 131.766 35.526C131.897 35.8713 131.962 36.2587 131.962 36.688V41H130.772V36.87C130.772 36.282 130.618 35.82 130.31 35.484C130.011 35.1387 129.615 34.966 129.12 34.966C128.84 34.966 128.574 35.022 128.322 35.134C128.079 35.246 127.865 35.414 127.678 35.638C127.501 35.8527 127.356 36.1187 127.244 36.436C127.141 36.7533 127.09 37.1173 127.09 37.528V41H125.886V34ZM137.21 44.066C136.743 44.066 136.314 44.0053 135.922 43.884C135.53 43.7627 135.185 43.5947 134.886 43.38C134.597 43.1653 134.359 42.9087 134.172 42.61C133.995 42.3207 133.878 41.9987 133.822 41.644H134.998C135.157 42.1107 135.427 42.4513 135.81 42.666C136.193 42.89 136.669 43.002 137.238 43.002C137.555 43.002 137.849 42.9507 138.12 42.848C138.391 42.7453 138.624 42.5913 138.82 42.386C139.016 42.1807 139.17 41.924 139.282 41.616C139.394 41.3173 139.45 40.972 139.45 40.58V39.754C139.207 40.1087 138.871 40.4027 138.442 40.636C138.013 40.8693 137.537 40.986 137.014 40.986C136.529 40.986 136.076 40.8973 135.656 40.72C135.236 40.5333 134.872 40.2813 134.564 39.964C134.256 39.6373 134.013 39.2593 133.836 38.83C133.668 38.3913 133.584 37.92 133.584 37.416C133.584 36.9213 133.668 36.4593 133.836 36.03C134.013 35.5913 134.256 35.2133 134.564 34.896C134.872 34.5693 135.236 34.3173 135.656 34.14C136.076 33.9533 136.529 33.86 137.014 33.86C137.537 33.86 138.013 33.9767 138.442 34.21C138.871 34.434 139.207 34.7233 139.45 35.078V34H140.654V40.566C140.654 41.154 140.561 41.6627 140.374 42.092C140.197 42.5307 139.954 42.8947 139.646 43.184C139.338 43.4827 138.974 43.702 138.554 43.842C138.134 43.9913 137.686 44.066 137.21 44.066ZM137.182 39.866C137.527 39.866 137.845 39.8053 138.134 39.684C138.433 39.5627 138.685 39.3947 138.89 39.18C139.095 38.956 139.254 38.6947 139.366 38.396C139.487 38.0973 139.548 37.7707 139.548 37.416C139.548 37.0707 139.487 36.7487 139.366 36.45C139.254 36.142 139.095 35.8807 138.89 35.666C138.685 35.4513 138.433 35.2833 138.134 35.162C137.845 35.0313 137.527 34.966 137.182 34.966C136.827 34.966 136.505 35.0313 136.216 35.162C135.927 35.2833 135.679 35.4513 135.474 35.666C135.269 35.8807 135.105 36.142 134.984 36.45C134.872 36.7487 134.816 37.0707 134.816 37.416C134.816 37.7707 134.872 38.0973 134.984 38.396C135.105 38.6947 135.269 38.956 135.474 39.18C135.679 39.3947 135.927 39.5627 136.216 39.684C136.505 39.8053 136.827 39.866 137.182 39.866ZM145.175 41.14C144.802 41.14 144.447 41.0933 144.111 41C143.775 40.9067 143.481 40.7713 143.229 40.594C142.977 40.4073 142.772 40.1787 142.613 39.908C142.454 39.6373 142.361 39.3247 142.333 38.97H143.565C143.602 39.1847 143.672 39.3667 143.775 39.516C143.887 39.656 144.018 39.7727 144.167 39.866C144.316 39.9593 144.475 40.0247 144.643 40.062C144.82 40.0993 145.002 40.118 145.189 40.118C145.572 40.118 145.889 40.0433 146.141 39.894C146.402 39.7353 146.533 39.502 146.533 39.194C146.533 38.914 146.444 38.6853 146.267 38.508C146.09 38.3307 145.791 38.186 145.371 38.074L144.363 37.808C143.756 37.6493 143.304 37.3927 143.005 37.038C142.706 36.6833 142.557 36.254 142.557 35.75C142.557 35.4607 142.618 35.1993 142.739 34.966C142.86 34.7327 143.028 34.5367 143.243 34.378C143.458 34.21 143.71 34.084 143.999 34C144.298 33.9067 144.624 33.86 144.979 33.86C145.352 33.86 145.688 33.9113 145.987 34.014C146.286 34.1167 146.542 34.2613 146.757 34.448C146.981 34.6253 147.158 34.8353 147.289 35.078C147.42 35.3207 147.499 35.582 147.527 35.862H146.323C146.23 35.554 146.062 35.3113 145.819 35.134C145.586 34.9567 145.306 34.868 144.979 34.868C144.643 34.868 144.358 34.9473 144.125 35.106C143.892 35.2553 143.775 35.4653 143.775 35.736C143.775 35.9973 143.859 36.2073 144.027 36.366C144.195 36.5153 144.466 36.6413 144.839 36.744L145.959 37.038C146.547 37.1873 146.99 37.4393 147.289 37.794C147.597 38.1393 147.751 38.578 147.751 39.11C147.751 39.4553 147.686 39.7587 147.555 40.02C147.424 40.272 147.242 40.482 147.009 40.65C146.776 40.818 146.5 40.9393 146.183 41.014C145.875 41.098 145.539 41.14 145.175 41.14Z" fill="white" fill-opacity="0.5"/>
<path d="M7.65351 278.556L25.539 271.98C27.1782 271.377 28.9467 271.214 30.6685 271.507L43.143 273.631C46.0603 274.128 49.0477 273.307 51.3016 271.389L61.5113 262.702C65.2361 259.533 70.7066 259.523 74.4432 262.678L83.0041 269.907C86.2911 272.683 90.985 273.045 94.6589 270.807L103.248 265.574C106.613 263.524 110.868 263.64 114.115 265.872L121.919 271.235C126.268 274.224 132.191 273.319 135.449 269.168L144.965 257.045C147.348 254.008 151.266 252.615 155.031 253.464L164.965 255.704C167.806 256.345 170.785 255.715 173.124 253.98L185.134 245.067C187.773 243.109 191.206 242.572 194.317 243.631L208.654 248.514C209.609 248.839 210.509 249.307 211.325 249.902L228.328 262.31C229.142 262.904 230.042 263.372 230.996 263.697L246.377 268.939C248.881 269.793 251.622 269.619 253.998 268.456L265.313 262.919C268.556 261.331 272.404 261.616 275.378 263.663L285.057 270.325C288.8 272.901 293.809 272.63 297.252 269.665L306.541 261.667C309.496 259.123 313.66 258.528 317.208 260.143L326.889 264.548C330.195 266.053 334.056 265.647 336.976 263.488L346.994 256.081C350.177 253.728 354.448 253.474 357.887 255.432L365.72 259.893C370.003 262.331 375.424 261.286 378.493 257.43L386.493 247.378C390.241 242.669 397.271 242.314 401.474 246.622L406.038 251.299C410.479 255.849 417.982 255.155 421.512 249.867L431.698 234.61C434.298 230.714 439.255 229.145 443.624 230.836L458.847 236.727C459.319 236.91 459.803 237.056 460.297 237.165L478.803 241.258C479.936 241.509 481.104 241.56 482.255 241.41L498.487 239.295C499.994 239.099 501.526 239.249 502.966 239.733L519.598 245.326C521.034 245.809 522.562 245.959 524.065 245.765L538.513 243.9C540.924 243.589 543.14 242.41 544.745 240.583L558.448 224.988C559.547 223.737 560.94 222.781 562.501 222.205L580.456 215.587L601.47 207.518C602.194 207.239 602.949 207.046 603.719 206.943L620.003 204.748C621.378 204.562 622.699 204.093 623.883 203.369L642.29 192.117L658.289 182.245C660.831 180.677 663.94 180.327 666.766 181.291L679.002 185.461C681.578 186.339 684.4 186.129 686.817 184.88L696.052 180.11C699.762 178.194 704.271 178.784 707.363 181.59L719.941 193.007C722.118 194.983 725.054 195.901 727.969 195.517L740.576 193.855C742.408 193.613 744.271 193.884 745.958 194.637L754.01 198.229" stroke="#303034" stroke-width="2" stroke-linecap="round"/>
<path d="M7.09498 267.092L22.5469 255.534C25.3796 253.415 29.1211 252.95 32.3861 254.312L38.7048 256.947C43.4494 258.926 48.9214 256.985 51.3587 252.459L57.7512 240.587C61.49 233.643 71.4194 233.558 75.2775 240.436L80.5496 249.834C84.0558 256.085 92.8053 256.726 97.1857 251.054L99.1425 248.52C103.302 243.135 111.509 243.386 115.331 249.016L118.127 253.135C122.747 259.941 133.151 258.569 135.848 250.797L143.377 229.102C145.39 223.301 152.107 220.668 157.526 223.555L159.858 224.798C164.498 227.27 170.26 225.727 173.044 221.268L181.386 207.902C184.518 202.885 191.296 201.667 195.978 205.28L207.062 213.833C207.969 214.533 208.749 215.383 209.368 216.347L227.809 245.066C228.428 246.029 229.207 246.878 230.112 247.578L242.889 257.443C246.902 260.542 252.6 260.146 256.147 256.523L261.143 251.418C265.566 246.9 273.019 247.569 276.567 252.802L282.093 260.955C286.321 267.191 295.665 266.69 299.201 260.038L304.113 250.797C307.274 244.85 315.29 243.665 320.036 248.441L323.046 251.47C327.585 256.037 335.194 255.188 338.613 249.732L343.692 241.628C347.338 235.81 355.629 235.313 359.944 240.654L361.534 242.622C366.453 248.71 376.143 247.043 378.744 239.661L383.691 225.625C386.664 217.186 398.375 216.6 402.175 224.701L402.915 226.278C406.832 234.627 419.001 233.675 421.572 224.818L429.569 197.268C431.603 190.262 440.212 187.721 445.724 192.5L457.022 202.297C457.607 202.804 458.248 203.241 458.934 203.6L475.926 212.499C478.026 213.599 480.449 213.917 482.762 213.396L494.797 210.687C497.682 210.037 500.706 210.698 503.058 212.491L517.108 223.207C519.452 224.995 522.466 225.658 525.344 225.018L535.994 222.648C539.24 221.926 541.915 219.637 543.131 216.542L556.926 181.407C557.604 179.68 558.749 178.175 560.233 177.062L577.932 163.785L597.885 148.134C599.029 147.236 600.354 146.599 601.77 146.267L615.588 143.02C617.83 142.493 619.821 141.209 621.226 139.384L638.619 116.781L651.895 99.3551C655.258 94.9419 661.57 94.1095 665.961 97.5003L671.93 102.109C676.032 105.276 681.874 104.785 685.389 100.978L688.247 97.8823C692.935 92.8043 701.238 93.8995 704.449 100.019L716.572 123.122C718.68 127.14 723.23 129.235 727.654 128.224L734.708 126.613C738.042 125.851 741.533 126.845 743.965 129.248L750.987 136.187" stroke="#10BBD5" stroke-width="2" stroke-linecap="round"/>
</svg>
